<?xml version="1.0" encoding="UTF-8" standalone="no"?>
<!-- Created with Inkscape (http://www.inkscape.org/) -->

<svg
   width="166.1311mm"
   height="100.81017mm"
   viewBox="0 0 166.1311 100.81017"
   version="1.1"
   id="svg1"
   xml:space="preserve"
   xmlns="http://www.w3.org/2000/svg"
   xmlns:svg="http://www.w3.org/2000/svg"><defs
     id="defs1" /><g
     id="layer1"
     transform="translate(-16.411999,-85.150564)"><path
       style="color:#000000;fill:#e9d98e;stroke:#e9d98e;stroke-opacity:1;-inkscape-stroke:none"
       d="M 16.911999,94.378976 H 182.01707 v 6.157144 H 16.911999 Z"
       id="path59" /><path
       style="fill:#4d4d4d;fill-opacity:1;stroke:#4d4d4d;stroke-width:0.595705;stroke-dasharray:none;stroke-dashoffset:0;stroke-opacity:1"
       d="m 16.419756,100.01769 c 165.931514,0 166.123344,0 166.123344,0"
       id="path60" /><path
       style="color:#000000;fill:#e9d98e;stroke:#e9d98e;stroke-opacity:1;-inkscape-stroke:none"
       d="M 16.911999,87.081306 H 182.01707 v 6.157146 H 16.911999 Z"
       id="path6" /><path
       style="fill:#4d4d4d;fill-opacity:1;stroke:#4d4d4d;stroke-width:0.595705;stroke-dasharray:none;stroke-dashoffset:0;stroke-opacity:1"
       d="m 16.419756,86.659825 c 165.931514,0 166.123344,0 166.123344,0"
       id="path7" /><path
       style="fill:#4d4d4d;fill-opacity:1;stroke:#4d4d4d;stroke-width:0.595705;stroke-dasharray:none;stroke-dashoffset:0;stroke-opacity:1"
       d="m 16.419756,93.484498 c 165.931514,0 166.123344,0 166.123344,0"
       id="path8" /><path
       style="color:#000000;fill:#e9d98e;stroke:#e9d98e;stroke-opacity:1;-inkscape-stroke:none"
       d="M 16.911999,113.02581 H 182.01707 v 6.15714 H 16.911999 Z"
       id="path19" /><path
       style="fill:#4d4d4d;fill-opacity:1;stroke:#4d4d4d;stroke-width:0.595705;stroke-dasharray:none;stroke-dashoffset:0;stroke-opacity:1"
       d="m 16.419756,112.60432 c 165.931514,0 166.123344,0 166.123344,0"
       id="path20" /><path
       style="fill:#4d4d4d;fill-opacity:1;stroke:#4d4d4d;stroke-width:0.595705;stroke-dasharray:none;stroke-dashoffset:0;stroke-opacity:1"
       d="m 16.419756,119.429 c 165.931514,0 166.123344,0 166.123344,0"
       id="path21" /><path
       style="color:#000000;fill:#e9d98e;stroke:#e9d98e;stroke-opacity:1;-inkscape-stroke:none"
       d="M 16.911999,138.79297 H 182.01707 v 6.15714 H 16.911999 Z"
       id="path32" /><path
       style="fill:#4d4d4d;fill-opacity:1;stroke:#4d4d4d;stroke-width:0.595705;stroke-dasharray:none;stroke-dashoffset:0;stroke-opacity:1"
       d="m 16.419756,138.37148 c 165.931514,0 166.123344,0 166.123344,0"
       id="path33" /><path
       style="fill:#4d4d4d;fill-opacity:1;stroke:#4d4d4d;stroke-width:0.595705;stroke-dasharray:none;stroke-dashoffset:0;stroke-opacity:1"
       d="m 16.419756,145.19616 c 165.931514,0 166.123344,0 166.123344,0"
       id="path34" /><path
       style="color:#000000;fill:#e9d98e;stroke:#e9d98e;stroke-opacity:1;-inkscape-stroke:none"
       d="M 16.911999,164.78525 H 182.01707 v 6.15714 H 16.911999 Z"
       id="path45" /><path
       style="fill:#4d4d4d;fill-opacity:1;stroke:#4d4d4d;stroke-width:0.595705;stroke-dasharray:none;stroke-dashoffset:0;stroke-opacity:1"
       d="m 16.419756,164.36376 c 165.931514,0 166.123344,0 166.123344,0"
       id="path46" /><path
       style="fill:#4d4d4d;fill-opacity:1;stroke:#4d4d4d;stroke-width:0.595705;stroke-dasharray:none;stroke-dashoffset:0;stroke-opacity:1"
       d="m 16.419756,171.18844 c 165.931514,0 166.123344,0 166.123344,0"
       id="path47" /><path
       style="fill:#4d4d4d;fill-opacity:1;stroke:#4d4d4d;stroke-width:0.25;stroke-dasharray:none;stroke-dashoffset:0;stroke-opacity:1"
       id="path53"
       d="m 145.12564,168.84035 a 0.20271304,0.18582028 0 0 1 -0.19668,0.18574 0.20271304,0.18582028 0 0 1 -0.20839,-0.17469 0.20271304,0.18582028 0 0 1 0.18429,-0.19613 0.20271304,0.18582028 0 0 1 0.21935,0.16301" /><path
       style="color:#000000;fill:#e9d98e;stroke:#e9d98e;stroke-opacity:1;-inkscape-stroke:none"
       d="M 16.911999,120.27569 H 182.01707 v 6.15715 H 16.911999 Z"
       id="path66" /><path
       style="fill:#4d4d4d;fill-opacity:1;stroke:#4d4d4d;stroke-width:0.595705;stroke-dasharray:none;stroke-dashoffset:0;stroke-opacity:1"
       d="m 16.419756,125.91441 c 165.931514,0 166.123344,0 166.123344,0"
       id="path67" /><path
       style="color:#000000;fill:#e9d98e;stroke:#e9d98e;stroke-opacity:1;-inkscape-stroke:none"
       d="M 16.911999,145.93351 H 182.01707 v 6.15715 H 16.911999 Z"
       id="path73" /><path
       style="fill:#4d4d4d;fill-opacity:1;stroke:#4d4d4d;stroke-width:0.595705;stroke-dasharray:none;stroke-dashoffset:0;stroke-opacity:1"
       d="m 16.419756,151.57223 c 165.931514,0 166.123344,0 166.123344,0"
       id="path74" /><path
       style="color:#000000;fill:#e9d98e;stroke:#e9d98e;stroke-opacity:1;-inkscape-stroke:none"
       d="M 16.911999,172.02135 H 182.01707 v 6.15715 H 16.911999 Z"
       id="path80" /><path
       style="fill:#4d4d4d;fill-opacity:1;stroke:#4d4d4d;stroke-width:0.595705;stroke-dasharray:none;stroke-dashoffset:0;stroke-opacity:1"
       d="m 16.419756,177.66007 c 165.931514,0 166.123344,0 166.123344,0"
       id="path81" /><path
       style="fill:#4d4d4d;fill-opacity:1;stroke:#4d4d4d;stroke-width:0.595705;stroke-dasharray:none;stroke-dashoffset:0;stroke-opacity:1"
       d="m 16.419756,106.77479 c 165.931514,0 166.123344,0 166.123344,0"
       id="path142" /><path
       style="color:#000000;fill:#e9d98e;stroke:#e9d98e;stroke-opacity:1;-inkscape-stroke:none"
       d="M 16.911999,126.94821 H 182.01707 v 6.15714 H 16.911999 Z"
       id="path143" /><path
       style="fill:#4d4d4d;fill-opacity:1;stroke:#4d4d4d;stroke-width:0.595705;stroke-dasharray:none;stroke-dashoffset:0;stroke-opacity:1"
       d="m 16.419756,132.58692 c 165.931514,0 166.123344,0 166.123344,0"
       id="path144" /><path
       style="color:#000000;fill:#e9d98e;stroke:#e9d98e;stroke-opacity:1;-inkscape-stroke:none"
       d="M 16.911999,152.49005 H 182.01707 v 6.15714 H 16.911999 Z"
       id="path145" /><path
       style="fill:#4d4d4d;fill-opacity:1;stroke:#4d4d4d;stroke-width:0.595705;stroke-dasharray:none;stroke-dashoffset:0;stroke-opacity:1"
       d="m 16.419756,158.12876 c 165.931514,0 166.123344,0 166.123344,0"
       id="path146" /><path
       style="color:#000000;fill:#e9d98e;stroke:#e9d98e;stroke-opacity:1;-inkscape-stroke:none"
       d="M 16.911999,178.57246 H 182.01707 v 6.15714 H 16.911999 Z"
       id="path147" /><path
       style="fill:#4d4d4d;fill-opacity:1;stroke:#4d4d4d;stroke-width:0.595705;stroke-dasharray:none;stroke-dashoffset:0;stroke-opacity:1"
       d="m 16.419756,184.21117 c 165.931514,0 166.123344,0 166.123344,0"
       id="path148" /><path
       style="color:#000000;fill:#e9d98e;stroke:#e9d98e;stroke-width:0.847441;stroke-opacity:1;-inkscape-stroke:none"
       d="m 16.83572,107.41148 h 165.25763 v 4.41771 H 16.83572 Z"
       id="path149" /><path
       style="color:#000000;fill:#e9d98e;stroke:#e9d98e;stroke-width:0.835564;stroke-opacity:1;-inkscape-stroke:none"
       d="M 16.829782,133.35281 H 182.09929 v 4.29445 H 16.829782 Z"
       id="path150" /><path
       style="color:#000000;fill:#e9d98e;stroke:#e9d98e;stroke-width:0.835564;stroke-opacity:1;-inkscape-stroke:none"
       d="M 16.829782,159.43522 H 182.09929 v 4.29445 H 16.829782 Z"
       id="path151" /><path
       style="color:#000000;fill:#e9d98e;stroke:#e9d98e;stroke-width:0.89349;stroke-opacity:1;-inkscape-stroke:none"
       d="M 16.858744,101.08283 H 182.07032 v 4.91222 H 16.858744 Z"
       id="path141" /></g><g
     id="g88"
     transform="translate(-16.411999,-85.150564)"><path
       style="fill:#4d4d4d;fill-opacity:1;stroke:#4d4d4d;stroke-width:0.25;stroke-dasharray:none;stroke-dashoffset:0;stroke-opacity:1"
       id="path10"
       d="m 19.39288,88.737633 a 0.20271304,0.18582028 0 0 1 -0.196682,0.185738 0.20271304,0.18582028 0 0 1 -0.208386,-0.174686 0.20271304,0.18582028 0 0 1 0.184282,-0.196133 0.20271304,0.18582028 0 0 1 0.219351,0.163015" /><path
       style="fill:#4d4d4d;fill-opacity:1;stroke:#4d4d4d;stroke-width:0.25;stroke-dasharray:none;stroke-dashoffset:0;stroke-opacity:1"
       id="path11"
       d="m 19.39288,91.136398 a 0.20271304,0.18582028 0 0 1 -0.196682,0.185738 0.20271304,0.18582028 0 0 1 -0.208386,-0.174685 0.20271304,0.18582028 0 0 1 0.184282,-0.196133 0.20271304,0.18582028 0 0 1 0.219351,0.163014" /><path
       style="fill:#4d4d4d;fill-opacity:1;stroke:#4d4d4d;stroke-width:0.25;stroke-dasharray:none;stroke-dashoffset:0;stroke-opacity:1"
       id="path12"
       d="m 22.028149,88.737633 a 0.20271304,0.18582028 0 0 1 -0.196682,0.185738 0.20271304,0.18582028 0 0 1 -0.208386,-0.174686 0.20271304,0.18582028 0 0 1 0.184282,-0.196133 0.20271304,0.18582028 0 0 1 0.219351,0.163015" /><path
       style="fill:#4d4d4d;fill-opacity:1;stroke:#4d4d4d;stroke-width:0.25;stroke-dasharray:none;stroke-dashoffset:0;stroke-opacity:1"
       id="path13"
       d="m 22.028149,91.136398 a 0.20271304,0.18582028 0 0 1 -0.196682,0.185738 0.20271304,0.18582028 0 0 1 -0.208386,-0.174685 0.20271304,0.18582028 0 0 1 0.184282,-0.196133 0.20271304,0.18582028 0 0 1 0.219351,0.163014" /><path
       style="fill:#4d4d4d;fill-opacity:1;stroke:#4d4d4d;stroke-width:0.25;stroke-dasharray:none;stroke-dashoffset:0;stroke-opacity:1"
       id="path15"
       d="m 145.12564,88.737633 a 0.20271304,0.18582028 0 0 1 -0.19668,0.185738 0.20271304,0.18582028 0 0 1 -0.20839,-0.174686 0.20271304,0.18582028 0 0 1 0.18429,-0.196133 0.20271304,0.18582028 0 0 1 0.21935,0.163015" /><path
       style="fill:#4d4d4d;fill-opacity:1;stroke:#4d4d4d;stroke-width:0.25;stroke-dasharray:none;stroke-dashoffset:0;stroke-opacity:1"
       id="path16"
       d="m 145.12564,91.136398 a 0.20271304,0.18582028 0 0 1 -0.19668,0.185738 0.20271304,0.18582028 0 0 1 -0.20839,-0.174685 0.20271304,0.18582028 0 0 1 0.18429,-0.196133 0.20271304,0.18582028 0 0 1 0.21935,0.163014" /><path
       style="fill:#4d4d4d;fill-opacity:1;stroke:#4d4d4d;stroke-width:0.25;stroke-dasharray:none;stroke-dashoffset:0;stroke-opacity:1"
       id="path17"
       d="m 147.76091,88.737633 a 0.20271304,0.18582028 0 0 1 -0.19668,0.185738 0.20271304,0.18582028 0 0 1 -0.20839,-0.174686 0.20271304,0.18582028 0 0 1 0.18428,-0.196133 0.20271304,0.18582028 0 0 1 0.21936,0.163015" /><path
       style="fill:#4d4d4d;fill-opacity:1;stroke:#4d4d4d;stroke-width:0.25;stroke-dasharray:none;stroke-dashoffset:0;stroke-opacity:1"
       id="path18"
       d="m 147.76091,91.136398 a 0.20271304,0.18582028 0 0 1 -0.19668,0.185738 0.20271304,0.18582028 0 0 1 -0.20839,-0.174685 0.20271304,0.18582028 0 0 1 0.18428,-0.196133 0.20271304,0.18582028 0 0 1 0.21936,0.163014" /><path
       style="fill:#4d4d4d;fill-opacity:1;stroke:#4d4d4d;stroke-width:0.25;stroke-dasharray:none;stroke-dashoffset:0;stroke-opacity:1"
       id="path22"
       d="m 19.39288,114.68213 a 0.20271304,0.18582028 0 0 1 -0.196682,0.18574 0.20271304,0.18582028 0 0 1 -0.208386,-0.17469 0.20271304,0.18582028 0 0 1 0.184282,-0.19613 0.20271304,0.18582028 0 0 1 0.219351,0.16301" /><path
       style="fill:#4d4d4d;fill-opacity:1;stroke:#4d4d4d;stroke-width:0.25;stroke-dasharray:none;stroke-dashoffset:0;stroke-opacity:1"
       id="path23"
       d="m 19.39288,117.0809 a 0.20271304,0.18582028 0 0 1 -0.196682,0.18574 0.20271304,0.18582028 0 0 1 -0.208386,-0.17469 0.20271304,0.18582028 0 0 1 0.184282,-0.19613 0.20271304,0.18582028 0 0 1 0.219351,0.16302" /><path
       style="fill:#4d4d4d;fill-opacity:1;stroke:#4d4d4d;stroke-width:0.25;stroke-dasharray:none;stroke-dashoffset:0;stroke-opacity:1"
       id="path24"
       d="m 22.028149,114.68213 a 0.20271304,0.18582028 0 0 1 -0.196682,0.18574 0.20271304,0.18582028 0 0 1 -0.208386,-0.17469 0.20271304,0.18582028 0 0 1 0.184282,-0.19613 0.20271304,0.18582028 0 0 1 0.219351,0.16301" /><path
       style="fill:#4d4d4d;fill-opacity:1;stroke:#4d4d4d;stroke-width:0.25;stroke-dasharray:none;stroke-dashoffset:0;stroke-opacity:1"
       id="path25"
       d="m 22.028149,117.0809 a 0.20271304,0.18582028 0 0 1 -0.196682,0.18574 0.20271304,0.18582028 0 0 1 -0.208386,-0.17469 0.20271304,0.18582028 0 0 1 0.184282,-0.19613 0.20271304,0.18582028 0 0 1 0.219351,0.16302" /><path
       style="fill:#4d4d4d;fill-opacity:1;stroke:#4d4d4d;stroke-width:0.25;stroke-dasharray:none;stroke-dashoffset:0;stroke-opacity:1"
       id="path26"
       d="m 145.12564,114.68213 a 0.20271304,0.18582028 0 0 1 -0.19668,0.18574 0.20271304,0.18582028 0 0 1 -0.20839,-0.17469 0.20271304,0.18582028 0 0 1 0.18429,-0.19613 0.20271304,0.18582028 0 0 1 0.21935,0.16301" /><path
       style="fill:#4d4d4d;fill-opacity:1;stroke:#4d4d4d;stroke-width:0.25;stroke-dasharray:none;stroke-dashoffset:0;stroke-opacity:1"
       id="path27"
       d="m 145.12564,117.0809 a 0.20271304,0.18582028 0 0 1 -0.19668,0.18574 0.20271304,0.18582028 0 0 1 -0.20839,-0.17469 0.20271304,0.18582028 0 0 1 0.18429,-0.19613 0.20271304,0.18582028 0 0 1 0.21935,0.16302" /><path
       style="fill:#4d4d4d;fill-opacity:1;stroke:#4d4d4d;stroke-width:0.25;stroke-dasharray:none;stroke-dashoffset:0;stroke-opacity:1"
       id="path28"
       d="m 147.76091,114.68213 a 0.20271304,0.18582028 0 0 1 -0.19668,0.18574 0.20271304,0.18582028 0 0 1 -0.20839,-0.17469 0.20271304,0.18582028 0 0 1 0.18428,-0.19613 0.20271304,0.18582028 0 0 1 0.21936,0.16301" /><path
       style="fill:#4d4d4d;fill-opacity:1;stroke:#4d4d4d;stroke-width:0.25;stroke-dasharray:none;stroke-dashoffset:0;stroke-opacity:1"
       id="path29"
       d="m 147.76091,117.0809 a 0.20271304,0.18582028 0 0 1 -0.19668,0.18574 0.20271304,0.18582028 0 0 1 -0.20839,-0.17469 0.20271304,0.18582028 0 0 1 0.18428,-0.19613 0.20271304,0.18582028 0 0 1 0.21936,0.16302" /><path
       style="fill:#4d4d4d;fill-opacity:1;stroke:#4d4d4d;stroke-width:0.25;stroke-dasharray:none;stroke-dashoffset:0;stroke-opacity:1"
       id="path35"
       d="m 19.39288,140.4493 a 0.20271304,0.18582028 0 0 1 -0.196682,0.18573 0.20271304,0.18582028 0 0 1 -0.208386,-0.17468 0.20271304,0.18582028 0 0 1 0.184282,-0.19614 0.20271304,0.18582028 0 0 1 0.219351,0.16302" /><path
       style="fill:#4d4d4d;fill-opacity:1;stroke:#4d4d4d;stroke-width:0.25;stroke-dasharray:none;stroke-dashoffset:0;stroke-opacity:1"
       id="path36"
       d="m 19.39288,142.84807 a 0.20271304,0.18582028 0 0 1 -0.196682,0.18574 0.20271304,0.18582028 0 0 1 -0.208386,-0.17469 0.20271304,0.18582028 0 0 1 0.184282,-0.19613 0.20271304,0.18582028 0 0 1 0.219351,0.16301" /><path
       style="fill:#4d4d4d;fill-opacity:1;stroke:#4d4d4d;stroke-width:0.25;stroke-dasharray:none;stroke-dashoffset:0;stroke-opacity:1"
       id="path37"
       d="m 22.028149,140.4493 a 0.20271304,0.18582028 0 0 1 -0.196682,0.18573 0.20271304,0.18582028 0 0 1 -0.208386,-0.17468 0.20271304,0.18582028 0 0 1 0.184282,-0.19614 0.20271304,0.18582028 0 0 1 0.219351,0.16302" /><path
       style="fill:#4d4d4d;fill-opacity:1;stroke:#4d4d4d;stroke-width:0.25;stroke-dasharray:none;stroke-dashoffset:0;stroke-opacity:1"
       id="path38"
       d="m 22.028149,142.84807 a 0.20271304,0.18582028 0 0 1 -0.196682,0.18574 0.20271304,0.18582028 0 0 1 -0.208386,-0.17469 0.20271304,0.18582028 0 0 1 0.184282,-0.19613 0.20271304,0.18582028 0 0 1 0.219351,0.16301" /><path
       style="fill:#4d4d4d;fill-opacity:1;stroke:#4d4d4d;stroke-width:0.25;stroke-dasharray:none;stroke-dashoffset:0;stroke-opacity:1"
       id="path39"
       d="m 145.12564,140.4493 a 0.20271304,0.18582028 0 0 1 -0.19668,0.18573 0.20271304,0.18582028 0 0 1 -0.20839,-0.17468 0.20271304,0.18582028 0 0 1 0.18429,-0.19614 0.20271304,0.18582028 0 0 1 0.21935,0.16302" /><path
       style="fill:#4d4d4d;fill-opacity:1;stroke:#4d4d4d;stroke-width:0.25;stroke-dasharray:none;stroke-dashoffset:0;stroke-opacity:1"
       id="path40"
       d="m 145.12564,142.84807 a 0.20271304,0.18582028 0 0 1 -0.19668,0.18574 0.20271304,0.18582028 0 0 1 -0.20839,-0.17469 0.20271304,0.18582028 0 0 1 0.18429,-0.19613 0.20271304,0.18582028 0 0 1 0.21935,0.16301" /><path
       style="fill:#4d4d4d;fill-opacity:1;stroke:#4d4d4d;stroke-width:0.25;stroke-dasharray:none;stroke-dashoffset:0;stroke-opacity:1"
       id="path41"
       d="m 147.76091,140.4493 a 0.20271304,0.18582028 0 0 1 -0.19668,0.18573 0.20271304,0.18582028 0 0 1 -0.20839,-0.17468 0.20271304,0.18582028 0 0 1 0.18428,-0.19614 0.20271304,0.18582028 0 0 1 0.21936,0.16302" /><path
       style="fill:#4d4d4d;fill-opacity:1;stroke:#4d4d4d;stroke-width:0.25;stroke-dasharray:none;stroke-dashoffset:0;stroke-opacity:1"
       id="path42"
       d="m 147.76091,142.84807 a 0.20271304,0.18582028 0 0 1 -0.19668,0.18574 0.20271304,0.18582028 0 0 1 -0.20839,-0.17469 0.20271304,0.18582028 0 0 1 0.18428,-0.19613 0.20271304,0.18582028 0 0 1 0.21936,0.16301" /><path
       style="fill:#4d4d4d;fill-opacity:1;stroke:#4d4d4d;stroke-width:0.25;stroke-dasharray:none;stroke-dashoffset:0;stroke-opacity:1"
       id="path48"
       d="m 19.39288,166.44157 a 0.20271304,0.18582028 0 0 1 -0.196682,0.18574 0.20271304,0.18582028 0 0 1 -0.208386,-0.17468 0.20271304,0.18582028 0 0 1 0.184282,-0.19614 0.20271304,0.18582028 0 0 1 0.219351,0.16302" /><path
       style="fill:#4d4d4d;fill-opacity:1;stroke:#4d4d4d;stroke-width:0.25;stroke-dasharray:none;stroke-dashoffset:0;stroke-opacity:1"
       id="path49"
       d="m 19.39288,168.84035 a 0.20271304,0.18582028 0 0 1 -0.196682,0.18574 0.20271304,0.18582028 0 0 1 -0.208386,-0.17469 0.20271304,0.18582028 0 0 1 0.184282,-0.19613 0.20271304,0.18582028 0 0 1 0.219351,0.16301" /><path
       style="fill:#4d4d4d;fill-opacity:1;stroke:#4d4d4d;stroke-width:0.25;stroke-dasharray:none;stroke-dashoffset:0;stroke-opacity:1"
       id="path50"
       d="m 22.028149,166.44157 a 0.20271304,0.18582028 0 0 1 -0.196682,0.18574 0.20271304,0.18582028 0 0 1 -0.208386,-0.17468 0.20271304,0.18582028 0 0 1 0.184282,-0.19614 0.20271304,0.18582028 0 0 1 0.219351,0.16302" /><path
       style="fill:#4d4d4d;fill-opacity:1;stroke:#4d4d4d;stroke-width:0.25;stroke-dasharray:none;stroke-dashoffset:0;stroke-opacity:1"
       id="path51"
       d="m 22.028149,168.84035 a 0.20271304,0.18582028 0 0 1 -0.196682,0.18574 0.20271304,0.18582028 0 0 1 -0.208386,-0.17469 0.20271304,0.18582028 0 0 1 0.184282,-0.19613 0.20271304,0.18582028 0 0 1 0.219351,0.16301" /><path
       style="fill:#4d4d4d;fill-opacity:1;stroke:#4d4d4d;stroke-width:0.25;stroke-dasharray:none;stroke-dashoffset:0;stroke-opacity:1"
       id="path52"
       d="m 145.12564,166.44157 a 0.20271304,0.18582028 0 0 1 -0.19668,0.18574 0.20271304,0.18582028 0 0 1 -0.20839,-0.17468 0.20271304,0.18582028 0 0 1 0.18429,-0.19614 0.20271304,0.18582028 0 0 1 0.21935,0.16302" /><path
       style="fill:#4d4d4d;fill-opacity:1;stroke:#4d4d4d;stroke-width:0.25;stroke-dasharray:none;stroke-dashoffset:0;stroke-opacity:1"
       id="path54"
       d="m 147.76091,166.44157 a 0.20271304,0.18582028 0 0 1 -0.19668,0.18574 0.20271304,0.18582028 0 0 1 -0.20839,-0.17468 0.20271304,0.18582028 0 0 1 0.18428,-0.19614 0.20271304,0.18582028 0 0 1 0.21936,0.16302" /><path
       style="fill:#4d4d4d;fill-opacity:1;stroke:#4d4d4d;stroke-width:0.25;stroke-dasharray:none;stroke-dashoffset:0;stroke-opacity:1"
       id="path55"
       d="m 147.76091,168.84035 a 0.20271304,0.18582028 0 0 1 -0.19668,0.18574 0.20271304,0.18582028 0 0 1 -0.20839,-0.17469 0.20271304,0.18582028 0 0 1 0.18428,-0.19613 0.20271304,0.18582028 0 0 1 0.21936,0.16301" /><path
       style="fill:#4d4d4d;fill-opacity:1;stroke:#4d4d4d;stroke-width:0.25;stroke-dasharray:none;stroke-dashoffset:0;stroke-opacity:1"
       id="path61"
       d="m 114.00338,95.644859 a 0.20271304,0.18582028 0 0 1 -0.19668,0.185738 0.20271304,0.18582028 0 0 1 -0.20839,-0.174685 0.20271304,0.18582028 0 0 1 0.18428,-0.196133 0.20271304,0.18582028 0 0 1 0.21936,0.163014" /><path
       style="fill:#4d4d4d;fill-opacity:1;stroke:#4d4d4d;stroke-width:0.25;stroke-dasharray:none;stroke-dashoffset:0;stroke-opacity:1"
       id="path62"
       d="m 114.00338,98.043625 a 0.20271304,0.18582028 0 0 1 -0.19668,0.185738 0.20271304,0.18582028 0 0 1 -0.20839,-0.174686 0.20271304,0.18582028 0 0 1 0.18428,-0.196132 0.20271304,0.18582028 0 0 1 0.21936,0.163014" /><path
       style="fill:#4d4d4d;fill-opacity:1;stroke:#4d4d4d;stroke-width:0.25;stroke-dasharray:none;stroke-dashoffset:0;stroke-opacity:1"
       id="path63"
       d="m 116.63866,95.644859 a 0.20271304,0.18582028 0 0 1 -0.19668,0.185738 0.20271304,0.18582028 0 0 1 -0.20838,-0.174685 0.20271304,0.18582028 0 0 1 0.18428,-0.196133 0.20271304,0.18582028 0 0 1 0.21935,0.163014" /><path
       style="fill:#4d4d4d;fill-opacity:1;stroke:#4d4d4d;stroke-width:0.25;stroke-dasharray:none;stroke-dashoffset:0;stroke-opacity:1"
       id="path64"
       d="m 116.63866,98.043625 a 0.20271304,0.18582028 0 0 1 -0.19668,0.185738 0.20271304,0.18582028 0 0 1 -0.20838,-0.174686 0.20271304,0.18582028 0 0 1 0.18428,-0.196132 0.20271304,0.18582028 0 0 1 0.21935,0.163014" /><path
       style="fill:#4d4d4d;fill-opacity:1;stroke:#4d4d4d;stroke-width:0.25;stroke-dasharray:none;stroke-dashoffset:0;stroke-opacity:1"
       id="path68"
       d="m 114.00338,121.54158 a 0.20271304,0.18582028 0 0 1 -0.19668,0.18574 0.20271304,0.18582028 0 0 1 -0.20839,-0.17469 0.20271304,0.18582028 0 0 1 0.18428,-0.19613 0.20271304,0.18582028 0 0 1 0.21936,0.16301" /><path
       style="fill:#4d4d4d;fill-opacity:1;stroke:#4d4d4d;stroke-width:0.25;stroke-dasharray:none;stroke-dashoffset:0;stroke-opacity:1"
       id="path69"
       d="m 114.00338,123.94035 a 0.20271304,0.18582028 0 0 1 -0.19668,0.18574 0.20271304,0.18582028 0 0 1 -0.20839,-0.17468 0.20271304,0.18582028 0 0 1 0.18428,-0.19614 0.20271304,0.18582028 0 0 1 0.21936,0.16302" /><path
       style="fill:#4d4d4d;fill-opacity:1;stroke:#4d4d4d;stroke-width:0.25;stroke-dasharray:none;stroke-dashoffset:0;stroke-opacity:1"
       id="path70"
       d="m 116.63866,121.54158 a 0.20271304,0.18582028 0 0 1 -0.19668,0.18574 0.20271304,0.18582028 0 0 1 -0.20838,-0.17469 0.20271304,0.18582028 0 0 1 0.18428,-0.19613 0.20271304,0.18582028 0 0 1 0.21935,0.16301" /><path
       style="fill:#4d4d4d;fill-opacity:1;stroke:#4d4d4d;stroke-width:0.25;stroke-dasharray:none;stroke-dashoffset:0;stroke-opacity:1"
       id="path71"
       d="m 116.63866,123.94035 a 0.20271304,0.18582028 0 0 1 -0.19668,0.18574 0.20271304,0.18582028 0 0 1 -0.20838,-0.17468 0.20271304,0.18582028 0 0 1 0.18428,-0.19614 0.20271304,0.18582028 0 0 1 0.21935,0.16302" /><path
       style="fill:#4d4d4d;fill-opacity:1;stroke:#4d4d4d;stroke-width:0.25;stroke-dasharray:none;stroke-dashoffset:0;stroke-opacity:1"
       id="path75"
       d="m 114.00338,147.1994 a 0.20271304,0.18582028 0 0 1 -0.19668,0.18574 0.20271304,0.18582028 0 0 1 -0.20839,-0.17469 0.20271304,0.18582028 0 0 1 0.18428,-0.19613 0.20271304,0.18582028 0 0 1 0.21936,0.16302" /><path
       style="fill:#4d4d4d;fill-opacity:1;stroke:#4d4d4d;stroke-width:0.25;stroke-dasharray:none;stroke-dashoffset:0;stroke-opacity:1"
       id="path76"
       d="m 114.00338,149.59818 a 0.20271304,0.18582028 0 0 1 -0.19668,0.18573 0.20271304,0.18582028 0 0 1 -0.20839,-0.17468 0.20271304,0.18582028 0 0 1 0.18428,-0.19614 0.20271304,0.18582028 0 0 1 0.21936,0.16302" /><path
       style="fill:#4d4d4d;fill-opacity:1;stroke:#4d4d4d;stroke-width:0.25;stroke-dasharray:none;stroke-dashoffset:0;stroke-opacity:1"
       id="path77"
       d="m 116.63866,147.1994 a 0.20271304,0.18582028 0 0 1 -0.19668,0.18574 0.20271304,0.18582028 0 0 1 -0.20838,-0.17469 0.20271304,0.18582028 0 0 1 0.18428,-0.19613 0.20271304,0.18582028 0 0 1 0.21935,0.16302" /><path
       style="fill:#4d4d4d;fill-opacity:1;stroke:#4d4d4d;stroke-width:0.25;stroke-dasharray:none;stroke-dashoffset:0;stroke-opacity:1"
       id="path78"
       d="m 116.63866,149.59818 a 0.20271304,0.18582028 0 0 1 -0.19668,0.18573 0.20271304,0.18582028 0 0 1 -0.20838,-0.17468 0.20271304,0.18582028 0 0 1 0.18428,-0.19614 0.20271304,0.18582028 0 0 1 0.21935,0.16302" /><path
       style="fill:#4d4d4d;fill-opacity:1;stroke:#4d4d4d;stroke-width:0.25;stroke-dasharray:none;stroke-dashoffset:0;stroke-opacity:1"
       id="path82"
       d="m 114.00338,173.28725 a 0.20271304,0.18582028 0 0 1 -0.19668,0.18573 0.20271304,0.18582028 0 0 1 -0.20839,-0.17468 0.20271304,0.18582028 0 0 1 0.18428,-0.19613 0.20271304,0.18582028 0 0 1 0.21936,0.16301" /><path
       style="fill:#4d4d4d;fill-opacity:1;stroke:#4d4d4d;stroke-width:0.25;stroke-dasharray:none;stroke-dashoffset:0;stroke-opacity:1"
       id="path83"
       d="m 114.00338,175.68602 a 0.20271304,0.18582028 0 0 1 -0.19668,0.18574 0.20271304,0.18582028 0 0 1 -0.20839,-0.17469 0.20271304,0.18582028 0 0 1 0.18428,-0.19613 0.20271304,0.18582028 0 0 1 0.21936,0.16301" /><path
       style="fill:#4d4d4d;fill-opacity:1;stroke:#4d4d4d;stroke-width:0.25;stroke-dasharray:none;stroke-dashoffset:0;stroke-opacity:1"
       id="path84"
       d="m 116.63866,173.28725 a 0.20271304,0.18582028 0 0 1 -0.19668,0.18573 0.20271304,0.18582028 0 0 1 -0.20838,-0.17468 0.20271304,0.18582028 0 0 1 0.18428,-0.19613 0.20271304,0.18582028 0 0 1 0.21935,0.16301" /><path
       style="fill:#4d4d4d;fill-opacity:1;stroke:#4d4d4d;stroke-width:0.25;stroke-dasharray:none;stroke-dashoffset:0;stroke-opacity:1"
       id="path85"
       d="m 116.63866,175.68602 a 0.20271304,0.18582028 0 0 1 -0.19668,0.18574 0.20271304,0.18582028 0 0 1 -0.20838,-0.17469 0.20271304,0.18582028 0 0 1 0.18428,-0.19613 0.20271304,0.18582028 0 0 1 0.21935,0.16301" /><path
       style="fill:#4d4d4d;fill-opacity:1;stroke:#4d4d4d;stroke-width:0.25;stroke-dasharray:none;stroke-dashoffset:0;stroke-opacity:1"
       id="path90"
       d="m 177.89758,101.77884 a 0.20271304,0.18582028 0 0 1 -0.19668,0.18574 0.20271304,0.18582028 0 0 1 -0.20838,-0.17469 0.20271304,0.18582028 0 0 1 0.18428,-0.19613 0.20271304,0.18582028 0 0 1 0.21935,0.16301" /><path
       style="fill:#4d4d4d;fill-opacity:1;stroke:#4d4d4d;stroke-width:0.25;stroke-dasharray:none;stroke-dashoffset:0;stroke-opacity:1"
       id="path91"
       d="m 177.89758,104.1776 a 0.20271304,0.18582028 0 0 1 -0.19668,0.18574 0.20271304,0.18582028 0 0 1 -0.20838,-0.17469 0.20271304,0.18582028 0 0 1 0.18428,-0.19613 0.20271304,0.18582028 0 0 1 0.21935,0.16301" /><path
       style="fill:#4d4d4d;fill-opacity:1;stroke:#4d4d4d;stroke-width:0.25;stroke-dasharray:none;stroke-dashoffset:0;stroke-opacity:1"
       id="path92"
       d="m 180.53285,101.77884 a 0.20271304,0.18582028 0 0 1 -0.19668,0.18574 0.20271304,0.18582028 0 0 1 -0.20838,-0.17469 0.20271304,0.18582028 0 0 1 0.18428,-0.19613 0.20271304,0.18582028 0 0 1 0.21935,0.16301" /><path
       style="fill:#4d4d4d;fill-opacity:1;stroke:#4d4d4d;stroke-width:0.25;stroke-dasharray:none;stroke-dashoffset:0;stroke-opacity:1"
       id="path93"
       d="m 180.53285,104.1776 a 0.20271304,0.18582028 0 0 1 -0.19668,0.18574 0.20271304,0.18582028 0 0 1 -0.20838,-0.17469 0.20271304,0.18582028 0 0 1 0.18428,-0.19613 0.20271304,0.18582028 0 0 1 0.21935,0.16301" /><path
       style="fill:#4d4d4d;fill-opacity:1;stroke:#4d4d4d;stroke-width:0.25;stroke-dasharray:none;stroke-dashoffset:0;stroke-opacity:1"
       id="path94"
       d="m 177.89758,127.92883 a 0.20271304,0.18582028 0 0 1 -0.19668,0.18574 0.20271304,0.18582028 0 0 1 -0.20838,-0.17468 0.20271304,0.18582028 0 0 1 0.18428,-0.19614 0.20271304,0.18582028 0 0 1 0.21935,0.16302" /><path
       style="fill:#4d4d4d;fill-opacity:1;stroke:#4d4d4d;stroke-width:0.25;stroke-dasharray:none;stroke-dashoffset:0;stroke-opacity:1"
       id="path95"
       d="m 177.89758,130.32758 a 0.20271304,0.18582028 0 0 1 -0.19668,0.18573 0.20271304,0.18582028 0 0 1 -0.20838,-0.17468 0.20271304,0.18582028 0 0 1 0.18428,-0.19613 0.20271304,0.18582028 0 0 1 0.21935,0.16301" /><path
       style="fill:#4d4d4d;fill-opacity:1;stroke:#4d4d4d;stroke-width:0.25;stroke-dasharray:none;stroke-dashoffset:0;stroke-opacity:1"
       id="path96"
       d="m 180.53285,127.92883 a 0.20271304,0.18582028 0 0 1 -0.19668,0.18574 0.20271304,0.18582028 0 0 1 -0.20838,-0.17468 0.20271304,0.18582028 0 0 1 0.18428,-0.19614 0.20271304,0.18582028 0 0 1 0.21935,0.16302" /><path
       style="fill:#4d4d4d;fill-opacity:1;stroke:#4d4d4d;stroke-width:0.25;stroke-dasharray:none;stroke-dashoffset:0;stroke-opacity:1"
       id="path97"
       d="m 180.53285,130.32758 a 0.20271304,0.18582028 0 0 1 -0.19668,0.18573 0.20271304,0.18582028 0 0 1 -0.20838,-0.17468 0.20271304,0.18582028 0 0 1 0.18428,-0.19613 0.20271304,0.18582028 0 0 1 0.21935,0.16301" /><path
       style="fill:#4d4d4d;fill-opacity:1;stroke:#4d4d4d;stroke-width:0.25;stroke-dasharray:none;stroke-dashoffset:0;stroke-opacity:1"
       id="path98"
       d="m 177.89758,153.80853 a 0.20271304,0.18582028 0 0 1 -0.19668,0.18574 0.20271304,0.18582028 0 0 1 -0.20838,-0.17468 0.20271304,0.18582028 0 0 1 0.18428,-0.19614 0.20271304,0.18582028 0 0 1 0.21935,0.16302" /><path
       style="fill:#4d4d4d;fill-opacity:1;stroke:#4d4d4d;stroke-width:0.25;stroke-dasharray:none;stroke-dashoffset:0;stroke-opacity:1"
       id="path99"
       d="m 177.89758,156.20728 a 0.20271304,0.18582028 0 0 1 -0.19668,0.18573 0.20271304,0.18582028 0 0 1 -0.20838,-0.17468 0.20271304,0.18582028 0 0 1 0.18428,-0.19613 0.20271304,0.18582028 0 0 1 0.21935,0.16301" /><path
       style="fill:#4d4d4d;fill-opacity:1;stroke:#4d4d4d;stroke-width:0.25;stroke-dasharray:none;stroke-dashoffset:0;stroke-opacity:1"
       id="path100"
       d="m 180.53285,153.80853 a 0.20271304,0.18582028 0 0 1 -0.19668,0.18574 0.20271304,0.18582028 0 0 1 -0.20838,-0.17468 0.20271304,0.18582028 0 0 1 0.18428,-0.19614 0.20271304,0.18582028 0 0 1 0.21935,0.16302" /><path
       style="fill:#4d4d4d;fill-opacity:1;stroke:#4d4d4d;stroke-width:0.25;stroke-dasharray:none;stroke-dashoffset:0;stroke-opacity:1"
       id="path101"
       d="m 180.53285,156.20728 a 0.20271304,0.18582028 0 0 1 -0.19668,0.18573 0.20271304,0.18582028 0 0 1 -0.20838,-0.17468 0.20271304,0.18582028 0 0 1 0.18428,-0.19613 0.20271304,0.18582028 0 0 1 0.21935,0.16301" /><path
       style="fill:#4d4d4d;fill-opacity:1;stroke:#4d4d4d;stroke-width:0.25;stroke-dasharray:none;stroke-dashoffset:0;stroke-opacity:1"
       id="path102"
       d="m 177.89758,179.68823 a 0.20271304,0.18582028 0 0 1 -0.19668,0.18574 0.20271304,0.18582028 0 0 1 -0.20838,-0.17469 0.20271304,0.18582028 0 0 1 0.18428,-0.19613 0.20271304,0.18582028 0 0 1 0.21935,0.16302" /><path
       style="fill:#4d4d4d;fill-opacity:1;stroke:#4d4d4d;stroke-width:0.25;stroke-dasharray:none;stroke-dashoffset:0;stroke-opacity:1"
       id="path103"
       d="m 177.89758,182.08698 a 0.20271304,0.18582028 0 0 1 -0.19668,0.18573 0.20271304,0.18582028 0 0 1 -0.20838,-0.17468 0.20271304,0.18582028 0 0 1 0.18428,-0.19614 0.20271304,0.18582028 0 0 1 0.21935,0.16302" /><path
       style="fill:#4d4d4d;fill-opacity:1;stroke:#4d4d4d;stroke-width:0.25;stroke-dasharray:none;stroke-dashoffset:0;stroke-opacity:1"
       id="path104"
       d="m 180.53285,179.68823 a 0.20271304,0.18582028 0 0 1 -0.19668,0.18574 0.20271304,0.18582028 0 0 1 -0.20838,-0.17469 0.20271304,0.18582028 0 0 1 0.18428,-0.19613 0.20271304,0.18582028 0 0 1 0.21935,0.16302" /><path
       style="fill:#4d4d4d;fill-opacity:1;stroke:#4d4d4d;stroke-width:0.25;stroke-dasharray:none;stroke-dashoffset:0;stroke-opacity:1"
       id="path105"
       d="m 180.53285,182.08698 a 0.20271304,0.18582028 0 0 1 -0.19668,0.18573 0.20271304,0.18582028 0 0 1 -0.20838,-0.17468 0.20271304,0.18582028 0 0 1 0.18428,-0.19614 0.20271304,0.18582028 0 0 1 0.21935,0.16302" /><path
       style="fill:#4d4d4d;fill-opacity:1;stroke:#4d4d4d;stroke-width:0.25;stroke-dasharray:none;stroke-dashoffset:0;stroke-opacity:1"
       id="path110"
       d="m 50.712044,101.82933 a 0.20271304,0.18582028 0 0 1 -0.196682,0.18574 0.20271304,0.18582028 0 0 1 -0.208385,-0.17469 0.20271304,0.18582028 0 0 1 0.184281,-0.19613 0.20271304,0.18582028 0 0 1 0.219351,0.16301" /><path
       style="fill:#4d4d4d;fill-opacity:1;stroke:#4d4d4d;stroke-width:0.25;stroke-dasharray:none;stroke-dashoffset:0;stroke-opacity:1"
       id="path111"
       d="m 50.712044,104.2281 a 0.20271304,0.18582028 0 0 1 -0.196682,0.18574 0.20271304,0.18582028 0 0 1 -0.208385,-0.17468 0.20271304,0.18582028 0 0 1 0.184281,-0.19614 0.20271304,0.18582028 0 0 1 0.219351,0.16302" /><path
       style="fill:#4d4d4d;fill-opacity:1;stroke:#4d4d4d;stroke-width:0.25;stroke-dasharray:none;stroke-dashoffset:0;stroke-opacity:1"
       id="path112"
       d="m 53.347313,101.82933 a 0.20271304,0.18582028 0 0 1 -0.196682,0.18574 0.20271304,0.18582028 0 0 1 -0.208385,-0.17469 0.20271304,0.18582028 0 0 1 0.184281,-0.19613 0.20271304,0.18582028 0 0 1 0.219352,0.16301" /><path
       style="fill:#4d4d4d;fill-opacity:1;stroke:#4d4d4d;stroke-width:0.25;stroke-dasharray:none;stroke-dashoffset:0;stroke-opacity:1"
       id="path113"
       d="m 53.347313,104.2281 a 0.20271304,0.18582028 0 0 1 -0.196682,0.18574 0.20271304,0.18582028 0 0 1 -0.208385,-0.17468 0.20271304,0.18582028 0 0 1 0.184281,-0.19614 0.20271304,0.18582028 0 0 1 0.219352,0.16302" /><path
       style="fill:#4d4d4d;fill-opacity:1;stroke:#4d4d4d;stroke-width:0.25;stroke-dasharray:none;stroke-dashoffset:0;stroke-opacity:1"
       id="path114"
       d="m 82.342354,108.51852 a 0.20271304,0.18582028 0 0 1 -0.196682,0.18573 0.20271304,0.18582028 0 0 1 -0.208385,-0.17468 0.20271304,0.18582028 0 0 1 0.184281,-0.19613 0.20271304,0.18582028 0 0 1 0.219352,0.16301" /><path
       style="fill:#4d4d4d;fill-opacity:1;stroke:#4d4d4d;stroke-width:0.25;stroke-dasharray:none;stroke-dashoffset:0;stroke-opacity:1"
       id="path115"
       d="m 82.342354,110.91729 a 0.20271304,0.18582028 0 0 1 -0.196682,0.18574 0.20271304,0.18582028 0 0 1 -0.208385,-0.17469 0.20271304,0.18582028 0 0 1 0.184281,-0.19613 0.20271304,0.18582028 0 0 1 0.219352,0.16301" /><path
       style="fill:#4d4d4d;fill-opacity:1;stroke:#4d4d4d;stroke-width:0.25;stroke-dasharray:none;stroke-dashoffset:0;stroke-opacity:1"
       id="path116"
       d="m 84.977623,108.51852 a 0.20271304,0.18582028 0 0 1 -0.196682,0.18573 0.20271304,0.18582028 0 0 1 -0.208385,-0.17468 0.20271304,0.18582028 0 0 1 0.184281,-0.19613 0.20271304,0.18582028 0 0 1 0.219352,0.16301" /><path
       style="fill:#4d4d4d;fill-opacity:1;stroke:#4d4d4d;stroke-width:0.25;stroke-dasharray:none;stroke-dashoffset:0;stroke-opacity:1"
       id="path117"
       d="m 84.977623,110.91729 a 0.20271304,0.18582028 0 0 1 -0.196682,0.18574 0.20271304,0.18582028 0 0 1 -0.208385,-0.17469 0.20271304,0.18582028 0 0 1 0.184281,-0.19613 0.20271304,0.18582028 0 0 1 0.219352,0.16301" /><path
       style="fill:#4d4d4d;fill-opacity:1;stroke:#4d4d4d;stroke-width:0.25;stroke-dasharray:none;stroke-dashoffset:0;stroke-opacity:1"
       id="path121"
       d="m 50.712044,127.7766 a 0.20271304,0.18582028 0 0 1 -0.196682,0.18574 0.20271304,0.18582028 0 0 1 -0.208385,-0.17468 0.20271304,0.18582028 0 0 1 0.184281,-0.19614 0.20271304,0.18582028 0 0 1 0.219351,0.16302" /><path
       style="fill:#4d4d4d;fill-opacity:1;stroke:#4d4d4d;stroke-width:0.25;stroke-dasharray:none;stroke-dashoffset:0;stroke-opacity:1"
       id="path122"
       d="m 50.712044,130.17537 a 0.20271304,0.18582028 0 0 1 -0.196682,0.18574 0.20271304,0.18582028 0 0 1 -0.208385,-0.17469 0.20271304,0.18582028 0 0 1 0.184281,-0.19613 0.20271304,0.18582028 0 0 1 0.219351,0.16301" /><path
       style="fill:#4d4d4d;fill-opacity:1;stroke:#4d4d4d;stroke-width:0.25;stroke-dasharray:none;stroke-dashoffset:0;stroke-opacity:1"
       id="path123"
       d="m 53.347313,127.7766 a 0.20271304,0.18582028 0 0 1 -0.196682,0.18574 0.20271304,0.18582028 0 0 1 -0.208385,-0.17468 0.20271304,0.18582028 0 0 1 0.184281,-0.19614 0.20271304,0.18582028 0 0 1 0.219352,0.16302" /><path
       style="fill:#4d4d4d;fill-opacity:1;stroke:#4d4d4d;stroke-width:0.25;stroke-dasharray:none;stroke-dashoffset:0;stroke-opacity:1"
       id="path124"
       d="m 53.347313,130.17537 a 0.20271304,0.18582028 0 0 1 -0.196682,0.18574 0.20271304,0.18582028 0 0 1 -0.208385,-0.17469 0.20271304,0.18582028 0 0 1 0.184281,-0.19613 0.20271304,0.18582028 0 0 1 0.219352,0.16301" /><path
       style="fill:#4d4d4d;fill-opacity:1;stroke:#4d4d4d;stroke-width:0.25;stroke-dasharray:none;stroke-dashoffset:0;stroke-opacity:1"
       id="path125"
       d="m 82.342354,134.46579 a 0.20271304,0.18582028 0 0 1 -0.196682,0.18574 0.20271304,0.18582028 0 0 1 -0.208385,-0.17469 0.20271304,0.18582028 0 0 1 0.184281,-0.19613 0.20271304,0.18582028 0 0 1 0.219352,0.16301" /><path
       style="fill:#4d4d4d;fill-opacity:1;stroke:#4d4d4d;stroke-width:0.25;stroke-dasharray:none;stroke-dashoffset:0;stroke-opacity:1"
       id="path126"
       d="m 82.342354,136.86456 a 0.20271304,0.18582028 0 0 1 -0.196682,0.18574 0.20271304,0.18582028 0 0 1 -0.208385,-0.17468 0.20271304,0.18582028 0 0 1 0.184281,-0.19614 0.20271304,0.18582028 0 0 1 0.219352,0.16302" /><path
       style="fill:#4d4d4d;fill-opacity:1;stroke:#4d4d4d;stroke-width:0.25;stroke-dasharray:none;stroke-dashoffset:0;stroke-opacity:1"
       id="path127"
       d="m 84.977623,134.46579 a 0.20271304,0.18582028 0 0 1 -0.196682,0.18574 0.20271304,0.18582028 0 0 1 -0.208385,-0.17469 0.20271304,0.18582028 0 0 1 0.184281,-0.19613 0.20271304,0.18582028 0 0 1 0.219352,0.16301" /><path
       style="fill:#4d4d4d;fill-opacity:1;stroke:#4d4d4d;stroke-width:0.25;stroke-dasharray:none;stroke-dashoffset:0;stroke-opacity:1"
       id="path128"
       d="m 84.977623,136.86456 a 0.20271304,0.18582028 0 0 1 -0.196682,0.18574 0.20271304,0.18582028 0 0 1 -0.208385,-0.17468 0.20271304,0.18582028 0 0 1 0.184281,-0.19614 0.20271304,0.18582028 0 0 1 0.219352,0.16302" /><path
       style="fill:#4d4d4d;fill-opacity:1;stroke:#4d4d4d;stroke-width:0.25;stroke-dasharray:none;stroke-dashoffset:0;stroke-opacity:1"
       id="path129"
       d="m 50.712044,153.58873 a 0.20271304,0.18582028 0 0 1 -0.196682,0.18574 0.20271304,0.18582028 0 0 1 -0.208385,-0.17469 0.20271304,0.18582028 0 0 1 0.184281,-0.19613 0.20271304,0.18582028 0 0 1 0.219351,0.16301" /><path
       style="fill:#4d4d4d;fill-opacity:1;stroke:#4d4d4d;stroke-width:0.25;stroke-dasharray:none;stroke-dashoffset:0;stroke-opacity:1"
       id="path130"
       d="m 50.712044,155.9875 a 0.20271304,0.18582028 0 0 1 -0.196682,0.18574 0.20271304,0.18582028 0 0 1 -0.208385,-0.17468 0.20271304,0.18582028 0 0 1 0.184281,-0.19614 0.20271304,0.18582028 0 0 1 0.219351,0.16302" /><path
       style="fill:#4d4d4d;fill-opacity:1;stroke:#4d4d4d;stroke-width:0.25;stroke-dasharray:none;stroke-dashoffset:0;stroke-opacity:1"
       id="path131"
       d="m 53.347313,153.58873 a 0.20271304,0.18582028 0 0 1 -0.196682,0.18574 0.20271304,0.18582028 0 0 1 -0.208385,-0.17469 0.20271304,0.18582028 0 0 1 0.184281,-0.19613 0.20271304,0.18582028 0 0 1 0.219352,0.16301" /><path
       style="fill:#4d4d4d;fill-opacity:1;stroke:#4d4d4d;stroke-width:0.25;stroke-dasharray:none;stroke-dashoffset:0;stroke-opacity:1"
       id="path132"
       d="m 53.347313,155.9875 a 0.20271304,0.18582028 0 0 1 -0.196682,0.18574 0.20271304,0.18582028 0 0 1 -0.208385,-0.17468 0.20271304,0.18582028 0 0 1 0.184281,-0.19614 0.20271304,0.18582028 0 0 1 0.219352,0.16302" /><path
       style="fill:#4d4d4d;fill-opacity:1;stroke:#4d4d4d;stroke-width:0.25;stroke-dasharray:none;stroke-dashoffset:0;stroke-opacity:1"
       id="path133"
       d="m 82.342354,160.27792 a 0.20271304,0.18582028 0 0 1 -0.196682,0.18574 0.20271304,0.18582028 0 0 1 -0.208385,-0.17468 0.20271304,0.18582028 0 0 1 0.184281,-0.19614 0.20271304,0.18582028 0 0 1 0.219352,0.16302" /><path
       style="fill:#4d4d4d;fill-opacity:1;stroke:#4d4d4d;stroke-width:0.25;stroke-dasharray:none;stroke-dashoffset:0;stroke-opacity:1"
       id="path134"
       d="m 82.342354,162.6767 a 0.20271304,0.18582028 0 0 1 -0.196682,0.18573 0.20271304,0.18582028 0 0 1 -0.208385,-0.17468 0.20271304,0.18582028 0 0 1 0.184281,-0.19613 0.20271304,0.18582028 0 0 1 0.219352,0.16301" /><path
       style="fill:#4d4d4d;fill-opacity:1;stroke:#4d4d4d;stroke-width:0.25;stroke-dasharray:none;stroke-dashoffset:0;stroke-opacity:1"
       id="path135"
       d="m 84.977623,160.27792 a 0.20271304,0.18582028 0 0 1 -0.196682,0.18574 0.20271304,0.18582028 0 0 1 -0.208385,-0.17468 0.20271304,0.18582028 0 0 1 0.184281,-0.19614 0.20271304,0.18582028 0 0 1 0.219352,0.16302" /><path
       style="fill:#4d4d4d;fill-opacity:1;stroke:#4d4d4d;stroke-width:0.25;stroke-dasharray:none;stroke-dashoffset:0;stroke-opacity:1"
       id="path136"
       d="m 84.977623,162.6767 a 0.20271304,0.18582028 0 0 1 -0.196682,0.18573 0.20271304,0.18582028 0 0 1 -0.208385,-0.17468 0.20271304,0.18582028 0 0 1 0.184281,-0.19613 0.20271304,0.18582028 0 0 1 0.219352,0.16301" /><path
       style="fill:#4d4d4d;fill-opacity:1;stroke:#4d4d4d;stroke-width:0.25;stroke-dasharray:none;stroke-dashoffset:0;stroke-opacity:1"
       id="path137"
       d="m 50.712044,179.26572 a 0.20271304,0.18582028 0 0 1 -0.196682,0.18573 0.20271304,0.18582028 0 0 1 -0.208385,-0.17468 0.20271304,0.18582028 0 0 1 0.184281,-0.19613 0.20271304,0.18582028 0 0 1 0.219351,0.16301" /><path
       style="fill:#4d4d4d;fill-opacity:1;stroke:#4d4d4d;stroke-width:0.25;stroke-dasharray:none;stroke-dashoffset:0;stroke-opacity:1"
       id="path138"
       d="m 50.712044,181.66449 a 0.20271304,0.18582028 0 0 1 -0.196682,0.18574 0.20271304,0.18582028 0 0 1 -0.208385,-0.17469 0.20271304,0.18582028 0 0 1 0.184281,-0.19613 0.20271304,0.18582028 0 0 1 0.219351,0.16301" /><path
       style="fill:#4d4d4d;fill-opacity:1;stroke:#4d4d4d;stroke-width:0.25;stroke-dasharray:none;stroke-dashoffset:0;stroke-opacity:1"
       id="path139"
       d="m 53.347313,179.26572 a 0.20271304,0.18582028 0 0 1 -0.196682,0.18573 0.20271304,0.18582028 0 0 1 -0.208385,-0.17468 0.20271304,0.18582028 0 0 1 0.184281,-0.19613 0.20271304,0.18582028 0 0 1 0.219352,0.16301" /><path
       style="fill:#4d4d4d;fill-opacity:1;stroke:#4d4d4d;stroke-width:0.25;stroke-dasharray:none;stroke-dashoffset:0;stroke-opacity:1"
       id="path140"
       d="m 53.347313,181.66449 a 0.20271304,0.18582028 0 0 1 -0.196682,0.18574 0.20271304,0.18582028 0 0 1 -0.208385,-0.17469 0.20271304,0.18582028 0 0 1 0.184281,-0.19613 0.20271304,0.18582028 0 0 1 0.219352,0.16301" /></g><g
     id="g86"
     style="display:inline"
     transform="translate(-16.411999,-85.150564)"><path
       style="fill:#000080;fill-opacity:1;stroke:#000080;stroke-width:0.246173;stroke-dasharray:0.738518, 0.738518;stroke-dashoffset:0;stroke-opacity:1"
       d="m 20.432876,85.150564 c 0,100.810176 0,100.810176 0,100.810176"
       id="path5" /><path
       style="fill:#000080;fill-opacity:1;stroke:#000080;stroke-width:0.246173;stroke-dasharray:0.738518, 0.738518;stroke-dashoffset:0;stroke-opacity:1"
       d="m 146.21632,85.150564 c 0,100.810176 0,100.810176 0,100.810176"
       id="path4" /><path
       style="fill:#000080;fill-opacity:1;stroke:#000080;stroke-width:0.246173;stroke-dasharray:0.738518, 0.738518;stroke-dashoffset:0;stroke-opacity:1"
       d="m 115.13365,85.150564 c 0,100.810176 0,100.810176 0,100.810176"
       id="path3" /><path
       style="fill:#000080;fill-opacity:1;stroke:#000080;stroke-width:0.246173;stroke-dasharray:0.738518, 0.738518;stroke-dashoffset:0;stroke-opacity:1"
       d="m 83.510412,85.150564 c 0,100.810176 0,100.810176 0,100.810176"
       id="path2" /><path
       style="fill:#000080;fill-opacity:1;stroke:#000080;stroke-width:0.246173;stroke-dasharray:0.738518, 0.738518;stroke-dashoffset:0;stroke-opacity:1"
       d="m 51.887177,85.150564 c 0,100.810176 0,100.810176 0,100.810176"
       id="path1" /></g><g
     id="g87"
     style="display:inline"
     transform="translate(-16.411999,-85.150564)"><path
       style="fill:#4d4d4d;fill-opacity:1;stroke:#4d4d4d;stroke-width:0.25;stroke-dasharray:none;stroke-dashoffset:0;stroke-opacity:1"
       d="m 20.507803,86.761181 c 0,6.757101 0,6.757101 0,6.757101"
       id="path9" /><path
       style="fill:#4d4d4d;fill-opacity:1;stroke:#4d4d4d;stroke-width:0.25;stroke-dasharray:none;stroke-dashoffset:0;stroke-opacity:1"
       d="m 146.24056,86.761181 c 0,6.757101 0,6.757101 0,6.757101"
       id="path14" /><path
       style="fill:#4d4d4d;fill-opacity:1;stroke:#4d4d4d;stroke-width:0.25;stroke-dasharray:none;stroke-dashoffset:0;stroke-opacity:1"
       d="m 20.507803,112.70568 c 0,6.7571 0,6.7571 0,6.7571"
       id="path30" /><path
       style="fill:#4d4d4d;fill-opacity:1;stroke:#4d4d4d;stroke-width:0.25;stroke-dasharray:none;stroke-dashoffset:0;stroke-opacity:1"
       d="m 146.24056,112.70568 c 0,6.7571 0,6.7571 0,6.7571"
       id="path31" /><path
       style="fill:#4d4d4d;fill-opacity:1;stroke:#4d4d4d;stroke-width:0.25;stroke-dasharray:none;stroke-dashoffset:0;stroke-opacity:1"
       d="m 20.507803,138.47284 c 0,6.7571 0,6.7571 0,6.7571"
       id="path43" /><path
       style="fill:#4d4d4d;fill-opacity:1;stroke:#4d4d4d;stroke-width:0.25;stroke-dasharray:none;stroke-dashoffset:0;stroke-opacity:1"
       d="m 146.24056,138.47284 c 0,6.7571 0,6.7571 0,6.7571"
       id="path44" /><path
       style="fill:#4d4d4d;fill-opacity:1;stroke:#4d4d4d;stroke-width:0.25;stroke-dasharray:none;stroke-dashoffset:0;stroke-opacity:1"
       d="m 20.507803,164.46512 c 0,6.7571 0,6.7571 0,6.7571"
       id="path56" /><path
       style="fill:#4d4d4d;fill-opacity:1;stroke:#4d4d4d;stroke-width:0.25;stroke-dasharray:none;stroke-dashoffset:0;stroke-opacity:1"
       d="m 146.24056,164.46512 c 0,6.7571 0,6.7571 0,6.7571"
       id="path57" /><path
       style="fill:#4d4d4d;fill-opacity:1;stroke:#4d4d4d;stroke-width:0.25;stroke-dasharray:none;stroke-dashoffset:0;stroke-opacity:1"
       d="m 115.11831,93.668414 c 0,6.757096 0,6.757096 0,6.757096"
       id="path65" /><path
       style="fill:#4d4d4d;fill-opacity:1;stroke:#4d4d4d;stroke-width:0.25;stroke-dasharray:none;stroke-dashoffset:0;stroke-opacity:1"
       d="m 115.11831,119.56513 c 0,6.7571 0,6.7571 0,6.7571"
       id="path72" /><path
       style="fill:#4d4d4d;fill-opacity:1;stroke:#4d4d4d;stroke-width:0.25;stroke-dasharray:none;stroke-dashoffset:0;stroke-opacity:1"
       d="m 115.11831,145.22295 c 0,6.7571 0,6.7571 0,6.7571"
       id="path79" /><path
       style="fill:#4d4d4d;fill-opacity:1;stroke:#4d4d4d;stroke-width:0.25;stroke-dasharray:none;stroke-dashoffset:0;stroke-opacity:1"
       d="m 115.11831,171.31079 c 0,6.7571 0,6.7571 0,6.7571"
       id="path86" /><path
       style="fill:#4d4d4d;fill-opacity:1;stroke:#4d4d4d;stroke-width:0.25;stroke-dasharray:none;stroke-dashoffset:0;stroke-opacity:1"
       d="m 179.04049,177.73004 c 0,6.7571 0,6.7571 0,6.7571"
       id="path106" /><path
       style="fill:#4d4d4d;fill-opacity:1;stroke:#4d4d4d;stroke-width:0.25;stroke-dasharray:none;stroke-dashoffset:0;stroke-opacity:1"
       d="m 179.04049,151.64763 c 0,6.7571 0,6.7571 0,6.7571"
       id="path107" /><path
       style="fill:#4d4d4d;fill-opacity:1;stroke:#4d4d4d;stroke-width:0.25;stroke-dasharray:none;stroke-dashoffset:0;stroke-opacity:1"
       d="m 179.04049,125.90307 c 0,6.7571 0,6.7571 0,6.7571"
       id="path108" /><path
       style="fill:#4d4d4d;fill-opacity:1;stroke:#4d4d4d;stroke-width:0.25;stroke-dasharray:none;stroke-dashoffset:0;stroke-opacity:1"
       d="m 179.04049,100.29366 c 0,6.7571 0,6.7571 0,6.7571"
       id="path109" /></g><path
     style="color:#000000;-inkscape-font-specification:'Noto Sans Hebrew, Normal';clip-rule:nonzero;fill:#000080;fill-rule:nonzero;stroke-width:0.721412;stroke-linejoin:miter;stroke-miterlimit:2;-inkscape-stroke:none"
     d="M 10.556058,35.029868 6.4380813,17.456129 h -0.053932 q 0.035934,0.76903 0.053932,1.737428 0.035934,0.939928 0.035934,1.908338 V 35.029868 H 5.0174462 V 14.693317 h 2.2118412 l 4.0640306,17.260431 h 0.05396 L 15.41131,14.693317 h 2.175872 V 35.029868 H 16.094635 V 20.959477 q 0,-0.79751 0.01809,-1.737426 0.01809,-0.968412 0.05393,-1.737438 h -0.05393 L 12.01273,35.029868 Z m 18.521904,-7.661814 q 0,2.364053 -0.503507,4.158455 -0.503509,1.794401 -1.492543,2.791293 -0.989033,0.996887 -2.445612,0.996887 -1.402627,0 -2.391661,-0.996887 -0.971051,-0.996892 -1.492546,-2.791293 -0.521489,-1.794402 -0.521489,-4.158455 0,-3.70273 1.186844,-5.810437 1.18684,-2.107716 3.308768,-2.107716 1.420608,0 2.39166,0.996891 0.971052,0.996892 1.456579,2.791293 0.503507,1.794401 0.503507,4.129969 z m -7.246921,0 q 0,2.705838 0.683331,4.357833 0.683333,1.623504 2.121928,1.623504 1.492543,0 2.157891,-1.651988 0.665352,-1.651993 0.665352,-4.329349 0,-1.737438 -0.287715,-3.076114 -0.26974,-1.367162 -0.881143,-2.13619 -0.593418,-0.76903 -1.582451,-0.76903 -1.402635,0 -2.13991,1.56654 -0.737283,1.566538 -0.737283,4.414794 z m 12.983312,7.946635 q -1.852188,0 -2.841222,-1.993779 -0.989033,-1.993783 -0.989033,-5.753475 0,-3.959078 1.042978,-6.038306 1.060961,-2.079228 2.931137,-2.079228 1.186837,0 1.906132,0.882967 0.719302,0.882954 1.060969,2.164671 h 0.05391 q -0.05391,-0.79751 -0.07193,-1.765919 -0.01809,-0.968405 -0.01809,-1.908327 v -5.440168 h 1.582448 v 21.646743 h -1.222696 l -0.28772,-2.762812 h -0.07193 q -0.34167,1.253232 -1.078948,2.164672 -0.719294,0.882961 -1.996049,0.882961 z m 0.521491,-2.050742 q 1.438594,0 2.032019,-1.481099 0.611394,-1.481095 0.629376,-4.215413 v -0.199386 q 0,-2.819773 -0.629376,-4.329349 -0.611407,-1.509574 -1.942109,-1.509574 -1.348683,0 -2.103942,1.509574 -0.737284,1.509576 -0.737284,4.557214 0,5.668029 2.751316,5.668029 z M 46.287159,19.449901 q 1.942109,0 2.913158,1.936819 0.989034,1.936812 0.989034,5.155343 v 1.33868 h -6.707448 q 0,2.620392 0.809208,4.073005 0.809213,1.452607 2.373688,1.452607 0.881138,0 1.546486,-0.227863 0.683329,-0.227853 1.510521,-0.825992 v 1.936814 q -0.683331,0.541173 -1.438597,0.769035 -0.755254,0.25634 -1.780253,0.25634 -2.247805,0 -3.434646,-2.079222 -1.186846,-2.079229 -1.186846,-5.724995 0,-2.392541 0.503511,-4.215424 0.503504,-1.822881 1.492544,-2.819772 0.989034,-1.025375 2.40964,-1.025375 z m 0.03591,1.822882 q -1.168859,0 -1.924113,1.253238 -0.755266,1.224749 -0.881144,3.645765 h 5.214904 q 0,-2.164671 -0.611401,-3.531833 -0.593418,-1.36717 -1.798246,-1.36717 z m 7.894294,13.757085 H 52.634909 V 13.383125 h 1.582455 z m 4.477621,-15.63693 q 0,0.740547 -0.01809,1.651994 -0.01809,0.911437 -0.05397,1.595021 h 0.07193 q 0.323687,-1.36717 1.132894,-2.278604 0.827192,-0.939928 2.067975,-0.939928 1.762281,0 2.733331,2.022263 0.989033,2.022265 0.989033,5.867406 0,2.364054 -0.449557,4.186939 -0.431575,1.794401 -1.312718,2.819773 -0.881138,0.996887 -2.175875,0.996887 -1.204823,0 -1.906142,-0.79751 -0.701313,-0.797511 -1.042974,-1.908334 h -0.107902 l -0.25175,2.421023 h -1.25878 V 13.383125 h 1.582456 z m 2.733334,2.079229 q -1.402632,0 -2.067986,1.509574 -0.665348,1.481093 -0.665348,4.186938 v 0.45572 q 0,2.762812 0.611406,4.186931 0.629377,1.424137 1.942096,1.424137 1.348689,0 2.050002,-1.538064 0.701313,-1.538056 0.701313,-4.386313 0,-5.838923 -2.571483,-5.838923 z m 14.619739,-1.737434 v 15.295135 h -1.204823 l -0.197818,-2.705849 h -0.107889 q -0.359644,1.25323 -1.186841,2.136191 -0.809207,0.854479 -2.08596,0.854479 -1.546491,0 -2.445613,-1.395649 -0.881138,-1.39564 -0.881138,-4.186933 v -9.997374 h 1.582451 v 9.313791 q 0,4.215423 2.175873,4.215423 1.330708,0 2.050003,-1.367174 0.719296,-1.395638 0.719296,-4.215412 v -7.946628 z m 3.740338,-5.838924 q 0.989031,0 0.989031,1.481094 0,1.424123 -0.989031,1.424123 -0.467548,0 -0.719296,-0.341788 -0.251763,-0.341789 -0.251763,-1.082335 0,-0.76903 0.251763,-1.110825 0.251748,-0.370269 0.719296,-0.370269 z m 0.773241,5.838924 V 35.029868 H 78.979188 V 19.734733 Z m 4.531547,15.295135 h -1.58244 V 13.383125 h 1.58244 z m 6.239906,0.284821 q -1.852188,0 -2.841225,-1.993779 -0.989025,-1.993783 -0.989025,-5.753475 0,-3.959078 1.042969,-6.038306 1.060968,-2.079228 2.931141,-2.079228 1.186843,0 1.906132,0.882967 0.719303,0.882954 1.060968,2.164671 h 0.05393 q -0.05393,-0.79751 -0.07187,-1.765919 -0.01806,-0.968405 -0.01806,-1.908327 v -5.440168 h 1.582452 V 35.029868 H 94.7677 l -0.287721,-2.762812 h -0.07187 q -0.341665,1.253232 -1.07894,2.164672 -0.719303,0.882961 -1.996048,0.882961 z m 0.521485,-2.050742 q 1.438604,0 2.032019,-1.481099 0.611401,-1.481095 0.629386,-4.215413 v -0.199386 q 0,-2.819773 -0.629386,-4.329349 -0.611401,-1.509574 -1.942103,-1.509574 -1.348689,0 -2.10395,1.509574 -0.737276,1.509576 -0.737276,4.557214 0,5.668029 2.75131,5.668029 z M 102.8059,19.449901 q 1.94211,0 2.91316,1.936819 0.98904,1.936812 0.98904,5.155343 v 1.33868 h -6.70743 q 0,2.620392 0.80921,4.073005 0.80921,1.452607 2.37369,1.452607 0.88113,0 1.54648,-0.227863 0.68334,-0.227853 1.51053,-0.825992 v 1.936814 q -0.68333,0.541173 -1.4386,0.769035 -0.75526,0.25634 -1.78026,0.25634 -2.2478,0 -3.434651,-2.079222 -1.186833,-2.079229 -1.186833,-5.724995 0,-2.392541 0.503499,-4.215424 0.503514,-1.822881 1.492545,-2.819772 0.98904,-1.025375 2.40965,-1.025375 z m 0.0359,1.822882 q -1.16887,0 -1.92413,1.253238 -0.75526,1.224749 -0.88113,3.645765 h 5.21491 q 0,-2.164671 -0.61142,-3.531833 -0.59341,-1.36717 -1.79823,-1.36717 z m 10.66359,-1.794389 q 0.37762,0 0.7013,0.08544 0.34168,0.05689 0.59343,0.170905 l -0.17982,2.335565 q -0.26974,-0.113922 -0.55746,-0.170905 -0.28772,-0.05689 -0.71929,-0.05689 -1.18684,0 -1.90614,1.224741 -0.70132,1.224749 -0.70132,3.759705 v 8.202973 h -1.5824 V 19.734796 h 1.22281 l 0.2158,2.734319 h 0.0899 q 0.30571,-1.253231 1.043,-2.107703 0.73726,-0.88296 1.78026,-0.88296 z m 11.05919,13.785553 q 0.44957,0 0.80922,-0.113947 0.35965,-0.142403 0.7013,-0.341789 v 1.936808 q -0.39561,0.256345 -0.84516,0.398764 -0.43158,0.170904 -1.09694,0.170904 -1.33069,0 -1.96008,-1.139305 -0.6114,-1.139298 -0.6114,-3.588802 v -8.886553 h -1.3667 v -1.224754 l 1.47456,-0.712059 0.39561,-3.560323 h 1.07896 v 3.531841 h 2.85921 v 1.965295 h -2.85921 v 8.687182 q 0,1.395636 0.3057,2.13619 0.32368,0.740546 1.1149,0.740544 z m 11.83244,-5.895893 q 0,2.364053 -0.5035,4.158455 -0.50351,1.794401 -1.49255,2.791293 -0.98903,0.996887 -2.44561,0.996887 -1.40262,0 -2.39166,-0.996887 -0.97105,-0.996892 -1.49255,-2.791293 -0.52148,-1.794402 -0.52148,-4.158455 0,-3.70273 1.18684,-5.810437 1.18683,-2.107716 3.30876,-2.107716 1.42062,0 2.39168,0.996891 0.97105,0.996892 1.45657,2.791293 0.5035,1.794401 0.5035,4.129969 z m -7.24691,0 q 0,2.705838 0.68333,4.357833 0.68333,1.623504 2.12192,1.623504 1.49255,0 2.15789,-1.651988 0.66536,-1.651993 0.66536,-4.329349 0,-1.737438 -0.28772,-3.076114 -0.26975,-1.367162 -0.88114,-2.13619 -0.59342,-0.76903 -1.58246,-0.76903 -1.40262,0 -2.13991,1.56654 -0.73727,1.566538 -0.73727,4.414794 z m 18.0004,0 q 0,2.364053 -0.5035,4.158455 -0.50352,1.794401 -1.49254,2.791293 -0.98905,0.996887 -2.44562,0.996887 -1.40262,0 -2.39166,-0.996887 -0.97105,-0.996892 -1.49254,-2.791293 -0.5215,-1.794402 -0.5215,-4.158455 0,-3.70273 1.18685,-5.810437 1.18684,-2.107716 3.30875,-2.107716 1.42063,0 2.39167,0.996891 0.97106,0.996892 1.45659,2.791293 0.5035,1.794401 0.5035,4.129969 z m -7.24692,0 q 0,2.705838 0.68333,4.357833 0.68333,1.623504 2.12193,1.623504 1.49256,0 2.15789,-1.651988 0.66535,-1.651993 0.66535,-4.329349 0,-1.737438 -0.28771,-3.076114 -0.26975,-1.367162 -0.88114,-2.13619 -0.59343,-0.76903 -1.58246,-0.76903 -1.40262,0 -2.1399,1.56654 -0.73729,1.566538 -0.73729,4.414794 z m 11.257,7.661814 h -1.58236 V 13.383125 h 1.58246 z m 9.29691,-4.215425 q 0,2.050742 -0.93508,3.275495 -0.91711,1.224751 -2.8772,1.224751 -1.00701,0 -1.83421,-0.25634 -0.82718,-0.256345 -1.45657,-0.683584 v -2.164672 q 0.79124,0.598128 1.63641,0.882953 0.86315,0.284828 1.60043,0.284828 1.24081,0 1.78026,-0.626616 0.55745,-0.655103 0.55745,-1.794402 0,-0.825991 -0.30568,-1.310192 -0.30571,-0.51269 -0.89913,-0.882967 -0.57543,-0.398752 -1.38465,-0.825991 -0.82718,-0.455725 -1.47456,-0.939923 -0.62939,-0.512684 -0.98903,-1.310194 -0.34168,-0.826003 -0.34168,-2.164677 0,-1.965295 0.97104,-3.019145 0.97107,-1.053866 2.60748,-1.053866 0.89912,0 1.67236,0.284832 0.79124,0.256345 1.49254,0.740543 l -0.46754,1.765918 q -0.59343,-0.45572 -1.33069,-0.712065 -0.7373,-0.256346 -1.36667,-0.256346 -0.95307,0 -1.51053,0.541179 -0.53947,0.512689 -0.53947,1.566537 0,0.854477 0.28772,1.33868 0.28771,0.455722 0.82718,0.769029 0.55746,0.313308 1.31272,0.740548 0.8272,0.484195 1.49255,0.996883 0.66536,0.512686 1.06097,1.36717 0.41358,0.825991 0.41358,2.221634 z"
     id="path58" /><path
     style="color:#000000;-inkscape-font-specification:'Noto Sans Hebrew, Normal';clip-rule:nonzero;fill:#000080;fill-rule:nonzero;stroke-width:0.721412;stroke-linejoin:miter;stroke-miterlimit:2;-inkscape-stroke:none"
     d="m 59.161744,55.856045 c -0.395616,4.12e-4 -0.716262,0.508286 -0.716522,1.134906 v 21.646523 c -3.56e-4,0.627311 0.320469,1.136262 0.716522,1.136675 h 1.583063 c 0.396052,-4.14e-4 0.716876,-0.509365 0.71652,-1.136675 v -4.204465 l 0.738911,-1.184557 2.70711,6.046904 c 0.134343,0.300109 0.352147,0.478549 0.584415,0.478793 h 1.817046 c 0.355425,-0.0057 0.654583,-0.422909 0.703084,-0.980633 v 6.538111 c 2.6e-4,0.62662 0.320906,1.134494 0.716522,1.134906 h 1.583068 c 0.395614,-4.17e-4 0.716257,-0.508289 0.716517,-1.134906 v -6.009669 c 0,-0.100201 -0.0063,-0.189515 -0.0068,-0.289049 0.628847,0.697941 1.416865,1.024965 2.328693,1.024965 1.351988,0 2.54667,-0.877644 3.364289,-2.505659 0.842608,-1.653904 1.219209,-3.917942 1.219209,-6.662242 0,-2.712438 -0.337534,-4.919119 -1.119569,-6.527466 -0.766445,-1.599787 -1.954885,-2.440043 -3.319503,-2.440043 -0.989721,0 -1.871719,0.388016 -2.550366,1.243071 -0.0023,0.003 -0.0045,0.0061 -0.0068,0.0092 -0.0704,0.09078 -0.117409,0.204463 -0.183608,0.29968 l -0.01678,-0.250032 c -0.0386,-0.577724 -0.346247,-1.016156 -0.71303,-1.016142 h -1.295336 c -0.395616,4.13e-4 -0.716261,0.508286 -0.716521,1.134906 v 15.369089 c 0.0139,-0.257246 -0.02796,-0.514315 -0.118676,-0.728826 l -3.577005,-8.017037 3.227704,-5.878445 c 0.402651,-0.735425 0.07276,-1.879889 -0.541827,-1.87969 h -1.815932 c -0.207388,5.3e-5 -0.404603,0.142335 -0.540748,0.390127 l -3.207556,5.848306 c 0.0053,-0.53784 0.02353,-1.05551 0.02353,-1.601287 v -9.854199 c -2.61e-4,-0.62662 -0.320907,-1.134493 -0.716523,-1.134904 z m 20.464509,0 c -0.395617,4.11e-4 -0.716263,0.508285 -0.716523,1.134906 v 21.646523 c -3.56e-4,0.627312 0.32047,1.136263 0.716523,1.136675 h 1.581943 c 0.396489,5.66e-4 0.717997,-0.508672 0.71764,-1.136675 V 56.990951 c -2.6e-4,-0.627312 -0.321587,-1.135471 -0.71764,-1.134906 z m 25.391717,0 c -0.39606,-5.74e-4 -0.71739,0.507588 -0.71765,1.134906 v 21.646523 c -3.6e-4,0.628009 0.32116,1.13725 0.71765,1.136675 h 1.58194 c 0.39605,-4.23e-4 0.71687,-0.509371 0.71651,-1.136675 v -4.204465 l 0.73892,-1.184557 2.7071,6.046904 c 0.13434,0.300107 0.35214,0.478546 0.58441,0.478793 h 1.81706 c 0.38382,-0.02032 0.68937,-0.516022 0.69301,-1.124263 0.004,0.617655 0.31873,1.117131 0.70868,1.124263 h 1.58307 c 0.39605,-4.23e-4 0.71687,-0.509371 0.71651,-1.136675 v -15.29461 c -2.6e-4,-0.626613 -0.3209,-1.134482 -0.71651,-1.134905 h -1.58307 c -0.39562,4.14e-4 -0.71626,0.508286 -0.71652,1.134905 v 15.257365 c 0.005,-0.216538 -0.0299,-0.430661 -0.0996,-0.617101 l -3.57813,-8.017037 3.2277,-5.878448 c 0.40231,-0.734812 0.0733,-1.878404 -0.54074,-1.879684 h -1.81704 c -0.20739,5.2e-5 -0.4046,0.142334 -0.54075,0.390126 l -3.20755,5.848305 c 0.005,-0.537838 0.0236,-1.055498 0.0236,-1.601287 v -9.854152 c -2.6e-4,-0.626619 -0.3209,-1.134492 -0.71652,-1.134906 z m 10.35707,0.512475 c -0.42724,0 -0.86661,0.192958 -1.1957,0.668531 -0.35832,0.501837 -0.49148,1.247643 -0.49148,1.947069 0,0.697515 0.13947,1.453721 0.50157,1.945297 0.33433,0.453922 0.76363,0.615333 1.18561,0.615333 0.43831,0 0.88393,-0.159989 1.22481,-0.650795 0.34086,-0.490823 0.48141,-1.226942 0.48141,-1.909835 0,-0.693867 -0.13312,-1.428171 -0.47134,-1.934657 -0.33821,-0.506485 -0.79223,-0.680943 -1.23488,-0.680943 z m -87.89807,0.797983 c -0.395616,4.14e-4 -0.71626,0.508287 -0.71652,1.134906 v 20.336065 c -3.56e-4,0.62731 0.320468,1.136261 0.71652,1.136675 h 3.291519 c 2.291348,0 4.163526,-0.942972 5.47691,-2.936572 8.03e-4,-0.0018 0.0016,-0.0035 0.0024,-0.0053 1.318736,-2.023488 1.944684,-4.992783 1.944684,-8.648322 0,-3.4063 -0.582233,-6.202542 -1.808096,-8.146476 l -0.0012,-0.0018 C 35.161214,58.07942 33.364711,57.166582 31.145899,57.166582 Z m 2.317498,4.378247 h 1.242716 c 1.533168,0 2.509338,0.595123 3.10343,1.624337 0.611233,1.058892 0.963947,2.697449 0.963947,5.101746 0,2.593409 -0.382619,4.332377 -1.042316,5.422708 -0.645209,1.067035 -1.664944,1.672214 -3.222104,1.672214 h -1.045673 z m 14.100907,0.377714 c -1.054668,0 -2.008527,0.391441 -2.798909,1.209378 -0.777226,0.785863 -1.375321,1.923518 -1.759959,3.316043 -0.381836,1.382395 -0.564255,2.949654 -0.564255,4.67085 0,2.625674 0.44156,4.855618 1.37258,6.486684 0.94223,1.650684 2.328522,2.452455 3.966616,2.452455 0.71771,0 1.354675,-0.08906 1.921171,-0.280185 0.564045,-0.171362 1.106159,-0.460184 1.617773,-0.865357 0.242607,-0.192149 0.395986,-0.584697 0.396324,-1.014328 v -1.938196 c -6.17e-4,-0.825847 -0.539875,-1.374531 -1.014327,-1.032056 -0.514899,0.372322 -0.972515,0.616882 -1.361391,0.746548 -0.0012,5.95e-4 -0.0023,0.0012 -0.0035,0.0018 -0.379681,0.130027 -0.846574,0.202154 -1.394981,0.202154 -0.902893,0 -1.448266,-0.371333 -1.836085,-1.067514 -0.283756,-0.509367 -0.444116,-1.273315 -0.535153,-2.186465 h 5.895623 c 0.396051,5.65e-4 0.717377,-0.50759 0.71764,-1.134899 V 70.15054 c 0,-2.327745 -0.367589,-4.334458 -1.147548,-5.864265 -0.79219,-1.577827 -2.027528,-2.363788 -3.471769,-2.363788 z m 10.699668,0 c -1.080828,0 -2.067663,0.360958 -2.917582,1.11008 -0.847853,0.728489 -1.526998,1.817942 -1.993943,3.18836 -0.0012,0.0041 -0.0023,0.0083 -0.0035,0.01242 -0.459283,1.388765 -0.676215,3.015738 -0.676215,4.828663 0,2.619759 0.424524,4.845395 1.325565,6.495544 0.0015,0.0024 0.003,0.0047 0.0045,0.0071 0.930826,1.67847 2.322462,2.493247 3.973332,2.493247 0.614299,0 1.184795,-0.103524 1.710698,-0.32274 0.498962,-0.207972 0.946138,-0.472418 1.342354,-0.80862 0.232806,-0.197545 0.378197,-0.581813 0.378409,-1.000138 v -2.051686 c -1.89e-4,-0.843329 -0.560144,-1.392145 -1.036713,-1.016091 -0.330187,0.261488 -0.697126,0.471599 -1.103893,0.624195 -0.0015,-7e-6 -0.003,-7e-6 -0.0045,0 -0.388802,0.149791 -0.779948,0.225199 -1.178903,0.225199 -0.901615,0 -1.402993,-0.381778 -1.762195,-1.138439 -0.395357,-0.852064 -0.613522,-1.977813 -0.613522,-3.507562 0,-1.629688 0.249841,-2.774153 0.707563,-3.617515 0.455409,-0.839089 1.00355,-1.228883 1.848401,-1.228889 0.593902,0 1.215346,0.22084 1.880867,0.696904 0.383709,0.274078 0.833235,-0.03189 0.971789,-0.661433 l 0.431014,-1.966538 c 0.12293,-0.559938 -0.04674,-1.175443 -0.389584,-1.413264 -0.42812,-0.296669 -0.880548,-0.526474 -1.354673,-0.69335 -0.479135,-0.172865 -0.991946,-0.255353 -1.5394,-0.255353 z m 33.303668,0 c -0.720569,0 -1.406132,0.122137 -2.053278,0.372392 -0.620557,0.225753 -1.21347,0.544244 -1.774513,0.957565 -0.346612,0.255476 -0.505707,0.896764 -0.361621,1.457645 l 0.46798,1.82294 c 0.156506,0.60872 0.605579,0.880542 0.978501,0.592282 0.933438,-0.721653 1.768017,-1.051559 2.508942,-1.051565 0.524658,6e-6 0.781412,0.192978 0.960579,0.507167 0.137225,0.240633 0.247874,0.933881 0.279894,1.8655 l -1.061344,0.08508 c -0.0021,-1.5e-5 -0.0042,-1.5e-5 -0.0063,0 -1.478012,0.140071 -2.683869,0.613994 -3.6117,1.540987 -0.0017,0.0012 -0.0033,0.0023 -0.005,0.0035 -0.95005,0.964001 -1.481188,2.607351 -1.481188,4.459822 0,1.609106 0.326003,3.058903 0.995299,4.06969 0.0021,0.0031 0.0042,0.0062 0.0063,0.0092 0.671754,0.989755 1.598293,1.443464 2.645527,1.443464 0.999159,0 1.850582,-0.280691 2.520141,-0.98772 0.0013,-0.0012 0.0025,-0.0023 0.0038,-0.0035 0.178666,-0.190866 0.277863,-0.510188 0.437752,-0.734136 l 0.05494,0.500063 c 0.05958,0.544215 0.357728,0.941614 0.706446,0.941618 h 1.132998 c 0.396051,-4.16e-4 0.716875,-0.509367 0.716518,-1.136676 V 68.526226 c 0,-2.02819 -0.326213,-3.744602 -1.077022,-4.910237 -0.733675,-1.158009 -1.779417,-1.693485 -2.983643,-1.693485 z m 10.968362,0 c -0.998143,0 -1.87154,0.33927 -2.554833,1.122492 -0.131017,0.14639 -0.1815,0.382378 -0.30005,0.544399 L 95.98196,63.201 c -0.04534,-0.567307 -0.34991,-0.992737 -0.710937,-0.993041 h -1.204652 c -0.39605,-5.6e-4 -0.717373,0.507597 -0.717634,1.134905 v 15.29461 c -3.57e-4,0.627999 0.321147,1.137236 0.717634,1.136675 h 1.581938 c 0.396492,5.72e-4 0.718004,-0.508668 0.717647,-1.136675 v -7.974482 c 0,-1.706358 0.226075,-2.825391 0.557543,-3.468545 0.340713,-0.661101 0.769535,-0.978853 1.512529,-0.978865 0.546996,0 0.829491,0.213071 1.056871,0.631303 0.0026,0.0042 0.0053,0.0083 0.008,0.01242 0.21939,0.390923 0.39408,1.145497 0.39408,2.40812 v 9.370061 c -3.57e-4,0.627311 0.320471,1.136263 0.716521,1.136676 h 1.58307 c 0.39606,-4.06e-4 0.71689,-0.50936 0.71653,-1.136676 v -9.997823 c 0,-2.122366 -0.33718,-3.896612 -1.12517,-5.069833 -0.74714,-1.112391 -1.76755,-1.647384 -2.918706,-1.647384 z m 25.014427,0 c -0.99914,0 -1.8735,0.339407 -2.55709,1.124262 -0.13004,0.14543 -0.18004,0.380008 -0.29781,0.540848 L 120.9964,63.201 c -0.0454,-0.567974 -0.3506,-0.993625 -0.71205,-0.993041 h -1.20465 c -0.39562,4.14e-4 -0.71626,0.508286 -0.71652,1.134905 v 15.29461 c -3.6e-4,0.62731 0.32047,1.136261 0.71652,1.136675 h 1.58195 c 0.39649,5.75e-4 0.71801,-0.508666 0.71765,-1.136675 v -7.974482 c 0,-1.706358 0.22606,-2.825391 0.55753,-3.468545 0.34072,-0.661105 0.76954,-0.978865 1.51253,-0.978865 0.54699,1.2e-5 0.82949,0.213071 1.05686,0.631303 0.003,0.0042 0.005,0.0083 0.008,0.01242 0.21938,0.390923 0.39408,1.145497 0.39408,2.40812 v 9.370061 c -3.6e-4,0.628003 0.32115,1.137242 0.71764,1.136676 h 1.58194 c 0.39606,-4.06e-4 0.71689,-0.50936 0.71653,-1.136676 v -9.997823 c 0,-2.122366 -0.33604,-3.896612 -1.12404,-5.069833 -0.74715,-1.112391 -1.76757,-1.647384 -2.91871,-1.647384 z m 9.58458,0 c -1.42889,0 -2.67129,0.891688 -3.48297,2.581902 -3.3e-4,5.77e-4 -5.8e-4,0.0012 -0.001,0.0018 -0.80932,1.667152 -1.17107,3.909784 -1.17107,6.612602 0,2.720434 0.35144,4.941498 1.16323,6.548747 0.003,0.0042 0.005,0.0083 0.008,0.01242 0.8105,1.554031 1.98889,2.377982 3.32175,2.377982 0.90532,0 1.71762,-0.316502 2.37572,-1.017871 0.006,-0.0071 0.0113,-0.01765 0.0178,-0.0248 v 0.163148 c 0,1.101735 -0.17211,1.799848 -0.48589,2.323002 -0.26522,0.442207 -0.79906,0.785575 -1.7454,0.785575 -0.6587,0 -1.23594,-0.107099 -1.72972,-0.306782 -0.003,-0.0012 -0.007,-0.0024 -0.01,-0.0035 -0.50751,-0.192237 -0.98308,-0.452435 -1.42967,-0.780246 -0.47526,-0.34935 -1.01889,0.200392 -1.01882,1.030279 v 2.250306 c 3.6e-4,0.464161 0.17902,0.881255 0.45119,1.053329 0.52502,0.332628 1.08981,0.588397 1.69166,0.771381 0.625,0.209301 1.32766,0.306775 2.11709,0.306775 1.69047,0 3.04935,-0.618105 3.93192,-2.083609 l 0.001,-0.0018 c 0.83708,-1.372617 1.24384,-3.261795 1.24384,-5.429805 V 63.342775 c -2.6e-4,-0.627315 -0.32159,-1.135473 -0.71765,-1.134899 h -1.36698 c -0.3421,0.02684 -0.62444,0.433181 -0.67398,0.969991 -0.0716,-0.08916 -0.10335,-0.235319 -0.17914,-0.317425 -0.62003,-0.671945 -1.40421,-0.938067 -2.31079,-0.938067 z m -89.534878,4.094404 c 0.63201,0 0.939598,0.258437 1.206886,0.874238 0.0022,0.0042 0.0045,0.0083 0.0068,0.01242 0.200345,0.448005 0.317697,1.053219 0.39296,1.74137 h -3.536701 c 0.123141,-0.732673 0.286078,-1.34164 0.518363,-1.718315 0.0019,-0.0031 0.0037,-0.0061 0.0056,-0.0092 0.375968,-0.623838 0.78871,-0.900829 1.406183,-0.900829 z m 29.077307,0.19859 c 0.686238,0 1.048406,0.289376 1.346834,0.932758 0.0018,0.0042 0.0037,0.0083 0.0056,0.01242 0.295162,0.619148 0.520591,1.840455 0.520591,3.700848 0,1.869929 -0.234986,3.117188 -0.570976,3.809015 -0.0019,0.0035 -0.0037,0.0071 -0.0056,0.01066 -0.342244,0.722789 -0.727788,1.026733 -1.403935,1.026733 -0.667745,0 -1.032101,-0.290316 -1.346832,-0.962887 -0.306326,-0.672612 -0.526199,-1.904425 -0.526199,-3.739865 v -0.228762 c 0,-1.656468 0.20893,-2.807602 0.532916,-3.528841 0.0012,-0.0031 0.0023,-0.0061 0.0035,-0.0092 0.311676,-0.707165 0.699772,-1.023182 1.444235,-1.023195 z m 60.942341,0 c 0.55507,0 0.89901,0.188382 1.10837,0.445101 0.24991,0.30647 0.42557,0.707005 0.54522,1.319326 0.12924,0.66133 0.20152,1.47876 0.20152,2.454233 v 1.083477 c 0,0.830008 -0.0695,1.600916 -0.20489,2.326553 -0.001,0.0053 -0.002,0.01059 -0.003,0.0159 -0.10849,0.615645 -0.28945,1.050512 -0.57322,1.418631 -2.5e-4,3.25e-4 2.5e-4,0.0018 0,0.0018 -0.21365,0.273866 -0.58565,0.484105 -1.20018,0.484105 -0.70881,0 -1.11083,-0.309186 -1.44423,-0.982403 -0.31845,-0.685044 -0.53627,-1.861811 -0.53627,-3.606861 0,-1.792822 0.21764,-3.058395 0.55866,-3.856904 0.3356,-0.758991 0.75819,-1.102982 1.54723,-1.102993 z m -44.989678,6.06823 v 0.242939 c -0.01003,1.121761 -0.194131,1.893794 -0.538505,2.509201 -0.0021,0.0035 -0.0042,0.0071 -0.0063,0.01066 -0.303048,0.555791 -0.731218,0.860035 -1.490141,0.860035 -0.470375,0 -0.727317,-0.166328 -0.890041,-0.395436 -0.161081,-0.226791 -0.24519,-0.485587 -0.24519,-1.088798 0,-0.724906 0.105606,-1.012516 0.470212,-1.353026 0.41875,-0.380244 1.090003,-0.66013 2.01298,-0.730584 h 0.0011 z"
     id="path118" /></svg>
