<?xml version="1.0" encoding="UTF-8" standalone="no"?>
<!-- Created with Inkscape (http://www.inkscape.org/) -->

<svg
   width="101.98108mm"
   height="101.77249mm"
   viewBox="0 0 101.98108 101.77249"
   version="1.1"
   id="svg1"
   xml:space="preserve"
   xmlns="http://www.w3.org/2000/svg"
   xmlns:svg="http://www.w3.org/2000/svg"><defs
     id="defs1" /><rect
     style="clip-rule:evenodd;fill:#ffffff;fill-rule:evenodd;stroke-width:0.396462;stroke-linejoin:round;stroke-miterlimit:2"
     id="rect1"
     width="101.98108"
     height="98.149925"
     x="0"
     y="3.6225638" /><g
     id="g17"
     transform="matrix(0.31085957,0,0,0.31085957,-20.406472,-20.272121)"
     style="clip-rule:evenodd;fill-rule:evenodd;stroke-linejoin:round;stroke-miterlimit:2"><path
       d="m 244.73919,210.5158 c -0.82662,-0.008 -2.21006,0.59503 -2.69951,1.23448 -0.89666,1.16965 -1.07799,2.26329 -0.76241,4.56868 0.24561,1.79361 2.41894,8.55392 3.57826,11.13019 0.935,2.07821 1.32118,3.37053 2.87302,9.6076 0.2243,0.90391 0.82566,3.17407 1.33501,5.0449 0.61375,2.25429 1.02611,4.0764 1.22488,5.40126 0.16492,1.0993 0.56293,2.98854 0.88516,4.19943 0.32222,1.21085 0.79403,3.03847 1.04951,4.05986 1.47606,5.91801 1.79875,7.19891 2.30376,9.13443 0.30592,1.17407 0.89951,3.50306 1.31753,5.17652 0.60513,2.42171 0.80268,3.05979 0.96877,3.12433 0.34237,0.13426 1.5127,0.0192 2.08887,-0.20298 0.2963,-0.11459 0.85253,-0.2246 1.23861,-0.2454 1.09342,-0.0598 2.29522,-0.41617 2.3891,-0.70877 0.048,-0.14855 -0.36345,-1.77044 -1.04309,-4.11933 -0.61565,-2.1311 -1.45102,-5.05076 -1.8556,-6.48822 -0.4047,-1.43745 -1.10371,-3.73929 -1.55357,-5.11615 -0.44976,-1.37688 -0.95226,-3.08551 -1.11655,-3.79751 -0.16492,-0.71176 -0.59839,-2.39323 -0.96501,-3.73516 -0.36633,-1.34187 -0.70197,-2.76304 -0.74609,-3.15796 -0.048,-0.39479 -0.38359,-1.79815 -0.75473,-3.1194 -0.37113,-1.32123 -0.69045,-2.64256 -0.71059,-2.93622 -0.0203,-0.29388 -0.2925,-1.42239 -0.60513,-2.50762 -0.31263,-1.08527 -0.67319,-2.56722 -0.79978,-3.29359 -0.2177,-1.24794 -0.43537,-2.25798 -1.20928,-5.64184 -0.18115,-0.79159 -0.40277,-1.93997 -0.49292,-2.55114 -0.0862,-0.61118 -0.30303,-1.65713 -0.47086,-2.32444 -0.16771,-0.66751 -0.37399,-1.99676 -0.45838,-2.95503 -0.2484,-2.82495 -0.30975,-3.12383 -1.06783,-5.14881 -1.12767,-3.01393 -1.97867,-4.09088 -3.62504,-4.58949 -0.0959,-0.0279 -0.19766,-0.0413 -0.31552,-0.0424 z m 6.71931,14.80693 c -0.0384,-0.003 -0.048,0.061 -0.0575,0.17616 -0.002,0.14992 0.1018,0.70549 0.23216,1.23548 0.13041,0.52991 0.44209,2.0478 0.69144,3.37284 0.51688,2.7431 0.89664,4.46093 1.59854,7.21487 0.26945,1.05888 0.61756,2.50971 0.77197,3.22531 0.15452,0.71571 0.5543,2.3044 0.88896,3.52921 0.33373,1.22455 0.63965,2.51626 0.678,2.87092 0.0384,0.35402 0.47663,2.0719 0.97328,3.81832 0.49676,1.74637 1.01412,3.69497 1.14857,4.33008 0.13422,0.63506 0.64539,2.37518 1.13582,3.8678 0.49004,1.4926 1.22874,3.88753 1.64083,5.32208 0.41236,1.43454 1.23582,4.28929 1.82993,6.34268 0.59456,2.05343 1.37011,4.88964 1.72529,6.30312 0.35472,1.41371 0.9639,3.64635 1.35249,4.96073 0.38855,1.31442 0.8784,3.20387 1.08894,4.19943 0.43577,2.05926 1.55429,5.22471 2.94557,8.3375 0.79529,1.77846 1.49282,3.51776 3.83618,9.56109 0.5663,1.46103 1.59333,4.0591 2.2817,5.77451 0.68847,1.71536 1.64898,4.19883 2.13387,5.51903 0.48534,1.32003 1.12694,2.94008 1.42686,3.59953 0.29947,0.65955 1.29908,3.26916 2.22017,5.79921 4.72547,12.97584 5.00557,13.62029 5.58808,12.82403 0.32953,-0.45059 0.0327,-1.56721 -4.24201,-15.92956 -3.63267,-12.20319 -5.60824,-19.11601 -5.92601,-20.73678 -0.32491,-1.65413 -13.8502,-42.61477 -15.43472,-46.74324 -0.64827,-1.68782 -2.87349,-7.8767 -4.94538,-13.7526 -4.13665,-11.7339 -5.33789,-15.00282 -5.58625,-15.02177 z m 10.80889,47.8193 c -0.14969,0.008 -0.31837,0.0319 -0.50635,0.0756 -0.38358,0.089 -1.19854,0.22898 -1.81067,0.31092 -1.53867,0.206 -2.7071,0.54346 -2.82705,0.81766 -0.12662,0.28847 0.006,0.66637 0.26561,0.7613 0.30401,0.11162 3.79222,-0.48979 4.75619,-0.81973 1.26577,-0.43323 1.16994,-1.19546 0.1218,-1.14539 z m 0.0286,1.89975 c -0.39893,0.0191 -0.86022,0.10639 -1.32954,0.2861 -0.27236,0.10455 -0.99935,0.24538 -1.616,0.3138 -1.3319,0.14746 -1.47087,0.1926 -1.69585,0.55037 v 6e-4 c -0.4958,0.79079 0.54664,1.04829 2.25323,0.55636 0.60609,-0.17399 1.33644,-0.30354 1.62337,-0.28803 0.32221,0.0164 0.81993,-0.10484 1.30191,-0.31972 1.30758,-0.58355 0.66074,-1.15443 -0.53705,-1.09985 z m 1.30199,1.85224 c -0.29439,-0.0569 -0.77867,0.0113 -1.49388,0.19095 -0.68952,0.17562 -1.36665,0.3019 -1.50485,0.2811 -0.53509,-0.0807 -2.43965,0.56383 -2.4452,0.8276 -0.0105,0.61758 0.22048,0.70776 1.26624,0.49203 2.1017,-0.43362 2.94253,-0.59409 3.51937,-0.66916 0.84197,-0.10965 0.96146,-0.17645 1.01555,-0.57218 0.0383,-0.31245 -0.0575,-0.49319 -0.3577,-0.55048 z m -0.119,1.82547 c -0.257,0.0192 -0.561,0.0651 -0.91005,0.13977 -0.66363,0.14253 -1.68254,0.33188 -2.26427,0.42071 -1.36691,0.20901 -1.56544,0.29373 -1.61971,0.68901 -0.0766,0.56599 0.43153,0.6695 1.94751,0.39694 0.75376,-0.13539 1.71091,-0.30316 2.1274,-0.37222 1.48195,-0.24593 1.6937,-0.32838 1.76113,-0.68408 0.0853,-0.44613 -0.27036,-0.64487 -1.04219,-0.59007 z m 1.02564,1.72653 c -0.16672,0.006 -0.37314,0.0342 -0.62246,0.0859 -0.52266,0.1078 -1.2063,0.21393 -1.51875,0.23552 -0.31263,0.0219 -0.80459,0.13031 -1.0945,0.24158 -0.28961,0.11162 -0.84294,0.22076 -1.22757,0.24155 -0.38552,0.0219 -0.7039,0.0383 -0.70773,0.0383 -0.006,5.4e-4 -0.048,0.10342 -0.10555,0.22761 -0.34236,0.78384 0.39701,0.99692 2.01175,0.58014 0.678,-0.17508 1.35485,-0.29982 1.50492,-0.27824 0.54662,0.0796 2.15251,-0.45535 2.25138,-0.74939 0.1492,-0.44388 0.0105,-0.64033 -0.49116,-0.62369 z m 0.56005,1.78688 c -0.12584,-0.0487 -0.8576,0.0454 -1.62703,0.20982 -0.76908,0.16415 -1.46041,0.28384 -1.53607,0.26647 -0.35578,-0.0818 -2.02931,0.472 -2.18341,0.72172 -0.30592,0.49761 0.19182,0.67039 1.29923,0.45047 0.55427,-0.11048 1.34957,-0.25606 1.76646,-0.32374 1.17377,-0.19039 2.24825,-0.3809 2.46995,-0.43652 0.2645,-0.0674 0.11495,-0.76864 -0.18903,-0.88795 z m -0.07,1.75818 c -0.21846,0.0113 -0.47297,0.0466 -0.76027,0.10511 -0.5425,0.11106 -1.5996,0.30172 -2.34874,0.42476 -1.63661,0.26754 -1.53573,0.2328 -1.69596,0.59792 -0.16493,0.37609 0.17558,0.74755 0.61855,0.67717 0.16872,-0.0273 0.77388,-0.1187 1.34418,-0.2049 1.0521,-0.15841 2.81132,-0.52008 3.38264,-0.69596 0.17685,-0.0548 0.33918,-0.23007 0.37372,-0.40385 0.0728,-0.36232 -0.25921,-0.53531 -0.91449,-0.49994 z m 1.25519,1.6661 c -0.0641,-0.009 -0.14844,-6e-4 -0.25617,0.0141 -0.21009,0.029 -0.74827,0.0952 -1.19637,0.14746 -0.44786,0.0517 -1.32071,0.22268 -1.94012,0.38016 -0.61951,0.1573 -1.26173,0.26428 -1.42688,0.23746 -0.31742,-0.0506 -0.54279,0.0192 -0.76909,0.23773 -0.23292,0.22432 0.0576,0.78932 0.4555,0.89292 0.22049,0.0559 0.95035,-0.0632 1.7886,-0.29404 0.77966,-0.21449 1.58618,-0.3864 1.79237,-0.38215 0.69249,0.0141 1.56351,-0.36749 1.66191,-0.72761 0.0959,-0.35009 0.0844,-0.48514 -0.10934,-0.50591 z m -0.20579,1.69683 c -0.18446,0.0191 -0.40922,0.0639 -0.67666,0.13765 -0.53282,0.1458 -1.39193,0.33005 -1.90978,0.40986 -1.56152,0.23967 -2.36744,0.61003 -2.22943,1.02466 0.14767,0.44367 0.31072,0.46743 1.36079,0.19504 0.48524,-0.12506 1.34613,-0.30252 1.91532,-0.393 2.00235,-0.31979 2.17171,-0.37657 2.22203,-0.74445 0.0662,-0.48627 -0.12864,-0.68428 -0.68223,-0.62956 z m 0.69871,1.75716 c -0.0203,-0.0141 -0.5374,0.0952 -1.14681,0.24266 -0.61002,0.14663 -1.46542,0.30685 -1.90252,0.35639 -1.35227,0.1524 -1.87241,0.29696 -1.98423,0.55244 -0.30687,0.7008 0.0766,0.85964 1.45631,0.60881 4.14205,-0.7519 4.68883,-1.02126 3.57725,-1.7602 z m 0.32959,1.85223 c -0.60865,0.0219 -1.69433,0.17782 -2.3331,0.35444 -0.45256,0.1245 -1.13768,0.25004 -1.52234,0.27813 -0.85253,0.0632 -0.96052,0.10229 -1.08623,0.39012 -0.25323,0.57891 0.16872,0.84413 0.89471,0.56328 0.20527,-0.0796 0.62049,-0.14253 0.92255,-0.13977 0.30209,0.002 1.06465,-0.11516 1.695,-0.26236 0.63016,-0.14744 1.34056,-0.30159 1.57835,-0.34348 0.43989,-0.0765 0.63187,-0.66369 0.26631,-0.81476 -0.0623,-0.0247 -0.21211,-0.0332 -0.41505,-0.0247 z m 0.35905,1.62947 c -0.39903,-0.006 -1.14295,0.13921 -2.58652,0.43159 -0.67388,0.13623 -1.44068,0.28691 -1.70421,0.33563 -0.30976,0.0569 -0.51497,0.17399 -0.58115,0.32869 -0.27235,0.64268 0.34237,0.88949 1.46822,0.58903 0.47699,-0.12746 1.2704,-0.27905 1.76389,-0.33759 1.38003,-0.1636 2.2317,-0.50643 2.15774,-0.86819 -0.0641,-0.31505 -0.11874,-0.47306 -0.51783,-0.47916 z m 0.65472,1.73444 c -0.11268,-0.0383 -0.29711,0.009 -0.66662,0.0982 -0.40631,0.0993 -1.17644,0.24512 -1.70962,0.32373 -1.57301,0.23061 -2.43197,0.48325 -2.54803,0.74836 -0.23876,0.5446 0.3769,0.92506 1.06791,0.66132 0.24231,-0.0929 1.00155,-0.25304 1.6867,-0.35539 0.68507,-0.10228 1.54237,-0.27676 1.90523,-0.3871 l 0.65931,-0.20106 -0.16139,-0.48605 c -0.0805,-0.24237 -0.12077,-0.36375 -0.23318,-0.4019 z m 0.0538,1.78193 c -0.34477,-0.006 -0.82675,0.0982 -1.51136,0.2921 -0.54547,0.15458 -1.10743,0.26291 -1.24873,0.24046 -0.49859,-0.0796 -1.721,0.30532 -1.77213,0.55833 -0.0286,0.12831 1.11646,3.76592 2.53792,8.08407 1.42142,4.31816 3.03365,9.40456 3.58183,11.30342 0.54864,1.89874 2.1188,6.93122 3.49003,11.18267 1.37173,4.25123 2.76872,8.64553 3.1044,9.76502 2.87701,9.6 3.01538,9.9559 3.77468,9.66207 0.55313,-0.21394 0.5443,-0.56806 -0.0728,-2.97189 -0.32876,-1.28157 -1.14592,-4.5856 -1.8171,-7.34157 -0.67071,-2.75618 -1.4254,-5.81336 -1.67662,-6.79317 -0.25094,-0.97997 -0.71166,-2.84604 -1.02378,-4.14696 -0.69612,-2.90299 -1.24664,-5.11576 -2.15314,-8.65527 -0.38272,-1.49493 -0.76872,-3.14401 -0.85846,-3.66286 -0.0891,-0.51947 -0.3367,-1.47629 -0.54912,-2.12646 -0.21162,-0.65056 -0.48593,-1.67228 -0.60876,-2.271 -0.12255,-0.59887 -0.37227,-1.73563 -0.55554,-2.52635 -0.18293,-0.79088 -0.42465,-2.00156 -0.53626,-2.69078 -0.25221,-1.55614 -0.46012,-2.74241 -0.80985,-4.62113 -0.1492,-0.80388 -0.33136,-1.81008 -0.40405,-2.23535 -0.12281,-0.71953 -0.31694,-1.03551 -0.89156,-1.04542 z"
       style="baseline-shift:baseline;display:inline;overflow:visible;vector-effect:none;fill:#000080;fill-rule:evenodd;stroke-width:1.84495;enable-background:accumulate;stop-color:#000000"
       id="path10" /><path
       d="m 203.93224,202.55449 c -0.76721,-0.0651 -1.09412,0.52038 -3.60396,5.07059 -1.58443,2.87296 -8.4891,15.48072 -15.34284,28.01802 -6.85395,12.53704 -14.60482,26.6815 -17.22524,31.43341 -2.62012,4.75169 -4.84314,8.82785 -4.9398,9.05722 -0.0969,0.22924 1.60129,0.7102 3.77368,1.07014 l 3.95005,0.65439 -3.44871,-0.38909 -3.44965,-0.38908 -0.95131,2.0611 c -1.16274,2.51955 -4.85551,8.94842 -9.24063,16.08694 -3.07672,5.00864 -8.38659,14.69306 -12.46716,22.73755 l -1.78677,3.52134 1.20928,0.0765 c 3.55829,0.22542 8.61308,-2.22839 11.24318,-5.4577 3.72556,-4.57492 9.2209,-15.46872 10.98889,-21.78618 1.56774,-5.60101 7.43949,-16.23106 9.21764,-16.68587 0.64348,-0.1644 6.17144,-10.88308 5.86361,-11.36877 -0.12839,-0.20243 -0.0383,-0.37748 0.18903,-0.38908 0.9983,-0.0487 30.03711,-56.42285 29.87226,-57.99122 -0.21009,-1.9925 -2.21705,-5.02632 -3.48904,-5.27257 -0.13524,-0.0247 -0.25324,-0.0475 -0.36251,-0.0569 z m -28.81367,53.33937 c 0.0576,-0.0435 1.01268,0.23581 2.11828,0.62171 l 2.00984,0.7009 -1.99248,-0.42266 c -1.78187,-0.37876 -2.4569,-0.66329 -2.13564,-0.89988 z m -5.68083,9.88481 c 0.0977,0.0506 1.33231,0.3932 2.74356,0.76028 l 2.56634,0.6672 -2.53143,-0.42372 c -1.39217,-0.23337 -2.62674,-0.57582 -2.74356,-0.76026 -0.11697,-0.18466 -0.13245,-0.29445 -0.0383,-0.24347 z m -9.71535,24.75014 c 0.0383,0.0192 0.0766,0.0621 0.10936,0.1187 h -9.5e-4 c 0.4306,0.71054 -0.0673,1.92044 -3.3449,8.19695 -1.9479,3.7243 -3.53002,7.04681 -3.51574,7.38417 0.0203,0.48337 -0.12078,0.58398 -0.66744,0.47325 -1.29357,-0.26263 -0.80075,-1.67812 3.07871,-8.84637 3.44589,-6.36703 4.05802,-7.45718 4.34111,-7.32672 z"
       style="baseline-shift:baseline;display:inline;overflow:visible;vector-effect:none;fill:#000080;fill-rule:evenodd;stroke-width:1.84495;enable-background:accumulate;stop-color:#000000"
       id="path9" /><path
       d="m 216.66924,211.14243 c -0.0575,-0.008 -0.11216,-0.002 -0.17558,0.0164 -0.30496,0.0964 -0.73268,0.51658 -1.3791,1.20975 -2.66523,2.85898 -2.65535,2.83845 -5.01799,11.02525 -0.76238,2.64191 -2.588,8.98547 -3.90133,13.55761 -1.45438,5.06332 -2.11752,7.06043 -5.20612,15.67807 -0.88705,2.4751 -1.72856,4.8344 -1.86944,5.24387 -0.14107,0.40955 -0.43155,1.23087 -0.64539,1.82452 -0.2139,0.59369 -0.4114,1.13948 -0.43731,1.21367 -0.0286,0.0744 -0.46701,1.31569 -0.98063,2.75806 -0.912,2.56056 -2.59588,7.4054 -3.04018,8.74833 -0.46606,1.4088 -1.78985,6.44394 -2.77836,10.56889 -0.23875,0.99361 -0.5236,2.16871 -0.63486,2.61151 -0.11112,0.44274 -0.29439,1.20359 -0.4085,1.69188 -0.20045,0.86054 -1.66442,7.02427 -1.81805,7.65439 -0.0862,0.36199 -0.56484,2.35976 -1.23582,5.1795 -1.62999,6.84822 -2.10478,8.62023 -2.74453,10.2531 -0.67607,1.72532 -2.29494,5.33356 -4.55688,10.15703 -3.12063,6.65423 -3.41994,7.40839 -3.3735,8.49392 0.11418,2.67913 1.97473,11.70565 2.6417,12.81709 0.45552,0.75903 0.32317,-0.91308 -0.49676,-6.32191 -0.74703,-4.92851 -0.85254,-6.09095 -0.61662,-6.80306 0.25604,-0.7707 1.63218,-3.74896 3.55339,-7.68708 4.9946,-10.23817 4.55356,-9.24719 7.0847,-15.90578 0.94458,-2.48428 2.19586,-5.7509 2.78122,-7.25942 1.43781,-3.70578 3.79106,-9.89175 4.8398,-12.72108 0.47182,-1.27421 0.97192,-2.61627 1.11003,-2.98277 1.13744,-3.01798 1.61434,-4.52522 14.84981,-46.86203 1.92343,-6.15204 3.82961,-12.21563 4.23565,-13.47445 1.24734,-3.86781 1.40643,-5.19685 0.98247,-8.20878 -0.23216,-1.64476 -0.38741,-2.41767 -0.76335,-2.47788 z m -9.35074,41.84291 c 0.0576,-0.35816 -0.772,2.26153 -4.5451,14.303 -1.88938,6.03042 -3.45751,11.02529 -3.48447,11.09951 -0.0286,0.0744 -0.26275,0.74178 -0.52454,1.483 -0.52267,1.4832 -1.7352,4.78743 -2.53422,6.90895 -0.28292,0.7495 -0.57348,1.52257 -0.64732,1.71861 -0.80268,2.13223 -1.80702,4.75841 -3.23752,8.47212 -3.11419,8.08341 -3.21383,8.35947 -3.59197,9.86403 -1.15087,4.57974 -1.37334,5.1687 -5.64591,14.96629 -2.07821,4.76533 -2.42363,5.68049 -2.42775,6.4348 -0.006,1.03004 0.28961,3.7159 0.62141,5.64378 0.69527,4.04245 1.34691,6.85457 1.64448,7.09508 0.28386,0.22898 0.21872,-1.16327 -0.2111,-4.53303 -0.0576,-0.4167 -0.16289,-1.30518 -0.2446,-1.974 -0.0766,-0.66887 -0.17355,-1.39664 -0.20426,-1.61759 -0.33373,-2.3789 -0.44882,-4.43915 -0.27906,-4.98153 0.25017,-0.80101 1.12191,-2.68746 2.90324,-6.2843 4.49138,-9.07012 4.42375,-8.92217 5.33929,-11.60538 1.03033,-3.0203 2.66274,-7.75893 3.90958,-11.34897 0.12839,-0.3711 0.38935,-1.1254 0.57922,-1.676 0.18979,-0.5505 0.59363,-1.72512 0.89856,-2.61057 4.88508,-14.18403 6.502,-19.06252 6.94976,-20.96251 0.13727,-0.581 0.25987,-1.08704 0.27235,-1.12364 0.0286,-0.0744 0.49867,-2.15059 1.40761,-6.18231 0.71729,-3.17971 0.61661,-2.73865 1.14404,-5.00229 0.23698,-1.0171 0.47663,-2.0485 0.53129,-2.2918 0.0576,-0.24347 0.37879,-1.59329 0.71828,-2.99961 0.33947,-1.40637 0.63484,-2.66442 0.65785,-2.79564 z m -6.69544,3.14612 c 0.15528,-0.0539 0.54281,0.14006 1.84825,0.82466 1.28255,0.6727 1.66729,0.91731 1.70421,1.08502 0.11038,0.505 -0.17077,0.43748 -1.90157,-0.45442 -1.68092,-0.86645 -1.87863,-1.01636 -1.75378,-1.32951 0.0286,-0.0632 0.048,-0.10809 0.10253,-0.12563 z m -0.5984,1.70669 c 0.17939,-0.15484 3.48407,1.57326 3.5892,1.87697 0.19182,0.55347 -0.11595,0.48338 -1.8731,-0.42671 -1.73116,-0.89665 -2.0477,-1.16467 -1.7161,-1.45028 z m -0.64732,1.68889 c 0.17355,-0.2164 3.80073,1.66709 3.78204,1.96409 -0.0286,0.49869 -0.2446,0.42102 -3.21277,-1.16815 -0.65883,-0.35279 -0.78445,-0.52794 -0.56966,-0.79594 z m -0.55716,1.67899 c 0.20806,-0.16251 3.70906,1.62151 3.7756,1.92348 0.11978,0.54262 -0.1842,0.4685 -2.03283,-0.494 -1.81278,-0.94379 -2.08224,-1.16453 -1.74277,-1.42952 z m -0.42579,1.72055 c 0.80267,0.18767 3.61174,1.60993 3.68011,1.92253 0.10936,0.49711 -0.21009,0.41729 -2.06865,-0.51485 -1.86905,-0.93777 -2.03264,-1.06376 -1.81889,-1.40573 0.0203,-0.0301 0.0959,-0.029 0.20704,-0.002 z m -0.70005,1.58098 c 0.17838,-0.0982 3.82376,1.84447 3.86181,2.05811 0.0862,0.46416 -0.22252,0.38485 -2.11453,-0.54944 -1.91761,-0.94677 -2.00285,-1.00417 -1.9153,-1.28598 0.0286,-0.0858 0.10253,-0.1863 0.16772,-0.22267 z m -0.61184,1.67995 c 0.14665,-0.0192 0.52457,0.17318 2.07237,0.95829 1.64456,0.83387 2.13134,1.18409 1.89697,1.36613 -0.0384,0.031 -0.10454,0.0796 -0.14388,0.10695 -0.0383,0.0273 -0.93022,-0.37646 -1.98058,-0.89787 -1.89504,-0.94079 -2.18723,-1.1598 -1.94741,-1.45825 0.0286,-0.0395 0.0575,-0.0692 0.10252,-0.0756 z m -0.66074,1.74239 c 0.17837,-0.15403 4.01077,1.73784 4.07125,2.0096 0.11597,0.52235 -0.21287,0.43965 -2.17791,-0.54943 -1.93323,-0.97316 -2.21007,-1.18643 -1.89334,-1.46017 z m -0.62524,1.69184 c 0.12457,-0.2205 4.07654,1.69002 4.19332,2.02744 0.0384,0.11275 0.0576,0.21174 0.0384,0.22076 -0.0203,0.0113 -0.0766,0.0733 -0.13042,0.14148 -0.119,0.14747 -4.1284,-1.85611 -4.17031,-2.08386 -0.0105,-0.0756 0.0203,-0.21255 0.0672,-0.30592 z m -0.53318,1.66908 c 0.19562,-0.0723 0.68564,0.14689 2.14033,0.86717 1.96821,0.9748 2.26769,1.19411 2.03008,1.48988 -0.15148,0.18905 -0.29731,0.13356 -2.33955,-0.89499 -1.99437,-1.00414 -2.03716,-1.03279 -1.95391,-1.3008 0.0286,-0.0818 0.0575,-0.13708 0.12281,-0.1614 z m -0.42966,1.69678 c 0.9168,0.20326 4.02524,1.74013 4.10342,2.09576 0.11696,0.5327 -0.1563,0.46309 -2.25227,-0.57219 -2.03362,-1.00417 -2.33477,-1.22256 -2.09442,-1.52156 0.0286,-0.0332 0.11216,-0.031 0.24358,-0.002 z m -0.73456,1.66216 c 0.15146,-0.16797 4.19315,1.74839 4.2925,2.03537 0.19081,0.55231 -0.18801,0.45742 -2.26524,-0.56826 -2.03504,-1.0053 -2.28303,-1.18467 -2.02726,-1.46714 z m -0.35482,1.5513 c 0.19359,-0.10668 4.00152,1.80793 4.05197,2.03731 0.12281,0.5603 -0.23395,0.47645 -2.25054,-0.52865 -2.00293,-0.99828 -2.29005,-1.23941 -1.80143,-1.5087 z m -0.46992,1.73045 c 0.12078,-0.22349 3.89281,1.59621 3.9629,1.91159 0.10835,0.48888 -0.19766,0.41133 -2.1064,-0.5306 -1.8725,-0.92394 -2.03659,-1.04652 -1.8565,-1.38099 z m -0.37783,1.57204 c 0.21492,-0.16577 3.706,1.59731 3.7738,1.9057 0.11417,0.51851 -0.15454,0.45836 -1.99248,-0.44255 -1.86073,-0.91193 -2.16846,-1.16364 -1.78132,-1.46315 z m -0.27138,1.69979 c 0.74416,0.17344 3.40314,1.48338 3.4643,1.75917 0.10734,0.48223 -0.19766,0.41159 -1.95114,-0.4534 -1.72194,-0.84919 -1.8816,-0.97109 -1.70227,-1.30378 0.0203,-0.0278 0.0862,-0.0273 0.18903,-0.002 z m -0.56581,1.57204 c 0.23877,-0.18628 3.52369,1.51909 3.5048,1.81958 -0.0286,0.42103 -0.22735,0.37451 -1.88691,-0.43664 -1.69278,-0.82746 -1.9964,-1.08711 -1.61789,-1.38297 z m -0.31072,1.5711 c 0.8372,0.34761 3.25738,1.62355 3.27522,1.7265 0.0959,0.53879 -0.1218,0.49856 -1.81065,-0.33459 -1.71466,-0.84618 -1.8075,-0.91597 -1.61608,-1.22261 0.0673,-0.10115 0.13143,-0.17782 0.15148,-0.16932 z m -0.47469,1.69679 c 0.15529,-0.0548 0.53129,0.1187 1.72071,0.7118 1.48087,0.73831 1.70239,0.93994 1.3323,1.21269 -0.14007,0.10227 -0.43728,-0.008 -1.64818,-0.61479 -1.46514,-0.73371 -1.63565,-0.86759 -1.50859,-1.18597 0.0286,-0.0622 0.048,-0.10553 0.10357,-0.12393 z m -0.47854,1.67998 c 0.11697,-0.14607 3.02311,1.24925 3.10711,1.49188 0.18041,0.52205 -0.20146,0.45587 -1.70324,-0.29407 -1.48651,-0.74226 -1.65491,-0.88556 -1.40387,-1.19786 z m -0.26083,1.62752 c 0.60608,0.1051 2.71103,1.14227 2.77203,1.4176 0.11114,0.49963 -0.22912,0.45018 -1.61416,-0.23361 -1.35609,-0.66991 -1.50972,-0.80557 -1.31572,-1.16619 0.0203,-0.0278 0.0673,-0.0332 0.15833,-0.0164 z m -0.37976,1.58493 c 0.1804,0.0372 0.53991,0.21803 1.37547,0.63453 1.18886,0.59245 1.44213,0.83801 1.1368,1.10181 -0.13423,0.11572 -2.74817,-1.1026 -2.82166,-1.31467 -0.0203,-0.061 0.0101,-0.19341 0.0766,-0.29406 0.0383,-0.0569 0.0576,-0.10044 0.1025,-0.12068 0.0286,-0.0164 0.0672,-0.0192 0.13143,-0.008 z"
       style="baseline-shift:baseline;display:inline;overflow:visible;vector-effect:none;fill:#000080;fill-rule:evenodd;stroke-width:1.84495;enable-background:accumulate;stop-color:#000000"
       id="path8" /><path
       d="m 227.64343,211.86115 c -0.4325,0.0911 -0.55716,0.72615 -0.55526,2.81745 6e-4,1.12066 -0.0576,3.97401 -0.1256,6.34072 -0.0671,2.36721 -0.18317,7.38864 -0.2522,11.15991 -0.0672,3.77121 -0.16214,8.73213 -0.20705,11.02327 l -0.0862,4.16576 0.29537,-6e-4 c 0.2456,-5.4e-4 0.29441,-0.0867 0.29345,-0.50591 -9.5e-4,-0.60268 0.53416,-1.36164 1.15971,-1.64435 0.62718,-0.28422 0.82663,-0.78445 0.6262,-1.56909 -0.0862,-0.34956 -0.22354,-2.45944 -0.29824,-4.68946 -0.0766,-2.23002 -0.20146,-5.61317 -0.28098,-7.51881 -0.0766,-1.90561 -0.19182,-7.10097 -0.25119,-11.54397 -0.0969,-7.22108 -0.13042,-8.07505 -0.32127,-8.03459 z m 4.52851,0.0599 c -0.24155,0.0765 -0.28481,0.88477 -0.3644,4.76469 -0.0384,1.90591 -0.12839,4.59363 -0.19944,5.97247 -0.0672,1.37883 -0.21769,5.12793 -0.32509,8.33157 -0.34334,10.24348 -0.42675,12.00886 -0.58402,12.45575 -0.2177,0.61737 -1.02124,1.64079 -1.50485,1.9156 -0.22431,0.12774 -0.5936,0.33655 -0.81993,0.46527 -0.50442,0.2865 -0.81703,0.90501 -0.81513,1.61465 5.8e-4,0.29341 -0.0766,0.67824 -0.16316,0.85539 -0.28481,0.55912 -0.51113,3.41574 -0.63099,7.99099 -0.11596,4.41147 -0.17152,5.15597 -0.66362,8.92253 -0.50537,3.85937 -0.57538,4.3607 -0.75855,5.38347 -0.10169,0.56794 -0.2484,1.52991 -0.32607,2.13833 -0.13321,1.05049 -0.23773,1.73366 -0.56962,3.76185 -0.0766,0.48678 -0.2205,1.48248 -0.31455,2.21258 -0.2944,2.28254 -0.48334,3.64287 -0.68472,4.9409 -0.10733,0.68956 -0.25323,1.6853 -0.32507,2.21259 -0.3558,2.6086 -0.87462,5.87973 -1.49756,9.44033 -0.23393,1.33864 -0.48142,2.76521 -0.54949,3.17086 -0.0672,0.40561 -0.21111,1.16944 -0.31649,1.69682 -0.10656,0.5274 -0.32028,1.622 -0.47564,2.43331 -0.15528,0.81133 -0.34523,1.74149 -0.42194,2.06605 -0.0766,0.32455 -0.22354,1.05466 -0.32512,1.62257 -0.41043,2.28179 -0.96952,4.65076 -1.79319,7.59797 -1.37268,4.91152 -3.88225,6.27563 -8.85218,4.81223 -0.72881,-0.21422 -1.50559,-0.4079 -2.94185,-0.7306 -0.49005,-0.10992 -1.06373,-0.27029 -1.27546,-0.3564 -0.62812,-0.2566 -4.0088,-0.19149 -4.81035,0.092 -6.76225,2.39072 -9.5899,11.02264 -6.18676,18.88262 2.42008,5.58783 8.67715,8.81941 13.00522,6.71591 2.91665,-1.41758 4.41409,-2.95688 5.79562,-5.95958 1.1943,-2.59478 1.7627,-4.68589 2.31017,-8.484 0.50827,-3.53194 1.21802,-5.44477 2.31931,-6.25264 l 0.67992,-0.49899 2.70038,0.0725 c 2.44609,0.0651 3.10607,-5.1e-4 2.70309,-0.26837 -0.26563,-0.1759 -0.17456,-2.35786 0.11037,-2.63626 0.77487,-0.75902 1.14032,1.63446 0.38743,2.53528 -0.55523,0.66424 0.72404,0.89377 4.26133,0.76432 0.55526,-0.0219 0.98775,-2.10717 0.58018,-2.79864 -0.12559,-0.21257 -1.08211,-0.43117 -1.94385,-0.4445 l -0.49482,-0.008 -0.0576,1.17805 c -0.048,0.86231 -0.12762,1.25773 -0.30976,1.47507 -0.58114,0.69521 -0.8132,0.10497 -0.73649,-1.86512 l 0.048,-1.15428 -0.72401,-0.0435 c -0.47661,-0.0278 -0.75186,-0.11573 -0.80172,-0.25551 -0.0383,-0.11926 -0.25415,-0.21339 -0.48139,-0.21283 -1.65532,0.003 -3.24647,-2.23297 -2.93086,-4.12126 0.048,-0.28441 0.16975,-1.04776 0.27139,-1.69679 0.35386,-2.25634 0.59074,-3.6943 0.80268,-4.86764 0.11697,-0.64901 0.48523,-2.70664 0.818,-4.57268 0.33277,-1.86599 0.70391,-3.9236 0.82473,-4.57262 0.12078,-0.64913 0.304,-1.64566 0.40756,-2.21358 0.10357,-0.56796 0.28772,-1.56355 0.40854,-2.21255 0.12077,-0.64901 0.27236,-1.59375 0.33564,-2.09974 0.0672,-0.50654 0.17253,-1.03796 0.24079,-1.18103 0.0673,-0.14253 0.16593,-0.65771 0.21491,-1.14443 0.048,-0.48666 0.17633,-1.31592 0.28194,-1.8433 0.10555,-0.52732 0.25988,-1.39024 0.34333,-1.91757 0.19663,-1.24477 0.35385,-2.1776 0.59646,-3.54108 0.10834,-0.60849 0.32607,-1.86964 0.48334,-2.8026 0.43729,-2.59562 1.46562,-8.36477 1.68312,-9.44034 0.19943,-0.98524 0.6636,-3.61935 0.81416,-4.61718 0.11596,-0.77321 1.00339,-1.71892 1.51501,-1.61464 0.5466,0.1119 0.8084,1.09946 1.78312,6.7387 0.40949,2.36967 0.62622,3.55214 0.69527,3.78462 0.0384,0.13594 0.1563,0.76543 0.25987,1.39984 0.36827,2.2618 0.51497,3.08152 0.70677,3.95393 0.10732,0.48637 0.23595,1.24889 0.28577,1.69481 0.048,0.44594 0.14589,0.92787 0.2139,1.07015 0.0672,0.1428 0.17735,0.6728 0.24154,1.17905 0.0672,0.50571 0.21974,1.3848 0.34526,1.9522 0.42001,1.90183 0.51114,2.3518 0.70294,3.46291 0.10453,0.60798 0.47661,2.56454 0.82471,4.34792 0.3481,1.78341 0.72211,3.76643 0.8324,4.40635 0.11037,0.63991 0.23114,1.27061 0.26946,1.40082 0.0383,0.12972 0.16772,0.79983 0.28963,1.48889 0.51591,2.93816 0.60416,3.40114 0.66554,3.50741 0.0384,0.0621 0.13702,0.67364 0.22633,1.36024 0.0862,0.68665 0.21008,1.31489 0.27139,1.39586 0.0575,0.0818 0.17938,0.57881 0.26276,1.10579 0.15528,0.99361 0.29345,1.61603 0.7125,3.24214 0.959,3.71114 0.74706,6.21383 -0.58018,6.90106 -0.9024,0.46683 -5.10848,1.21506 -6.88452,1.22461 -0.41237,0.002 -0.50059,1.5572 -0.14488,2.56102 0.16593,0.46799 0.21186,0.46942 2.4965,0.10228 1.98711,-0.31916 7.48161,-0.238 8.22885,0.12181 1.63986,0.78913 2.22811,1.92787 2.85652,5.53787 1.4307,8.22017 3.6638,12.91588 7.02962,14.7802 0.36345,0.20135 0.75281,0.44255 0.86597,0.53559 0.11315,0.0929 0.48236,0.23635 0.82089,0.32073 0.3385,0.0847 0.86213,0.22241 1.16334,0.30594 0.85446,0.2372 2.21724,0.16115 3.48734,-0.19504 4.02341,-1.12711 7.40993,-4.74207 8.5336,-9.10867 0.51938,-2.01797 0.57541,-5.63602 0.1129,-7.29902 -0.5117,-1.83929 -0.82106,-2.81742 -0.95396,-3.0214 -0.0796,-0.12153 -0.32894,-0.60713 -0.55459,-1.08005 -1.21448,-2.54731 -4.01625,-4.97348 -6.22987,-5.3943 -0.41426,-0.0785 -1.03043,-0.20571 -1.36903,-0.28312 -1.22098,-0.27761 -2.6019,-0.1562 -5.12721,0.45051 -0.5658,0.13567 -0.96916,0.26263 -3.2797,1.03053 -5.07591,1.688 -6.83104,0.22923 -8.21868,-6.83275 -0.0959,-0.48637 -0.37015,-1.84598 -0.61279,-3.02137 -0.50634,-2.46579 -0.84102,-4.18775 -1.3185,-6.77927 -0.18598,-1.01337 -0.4325,-2.30745 -0.5476,-2.87487 -0.11417,-0.56743 -0.30013,-1.49469 -0.41522,-2.06211 -0.11418,-0.56744 -0.24638,-1.33097 -0.29247,-1.69578 -0.048,-0.36489 -0.16697,-0.96189 -0.26853,-1.32659 -0.10075,-0.36466 -0.22634,-0.99444 -0.27812,-1.3998 -0.048,-0.40541 -0.14563,-0.8406 -0.20806,-0.96714 -0.0671,-0.1262 -0.17735,-0.65668 -0.25321,-1.17907 -0.0766,-0.52246 -0.19943,-1.24791 -0.27426,-1.61265 -0.0766,-0.36481 -0.26659,-1.45853 -0.42579,-2.43136 -0.15908,-0.97284 -0.38265,-2.33328 -0.4958,-3.02237 -0.56291,-3.42107 -1.21955,-7.82784 -1.515,-10.16991 -0.10834,-0.85126 -0.25794,-1.97961 -0.33469,-2.50662 -0.24942,-1.71314 -0.60608,-4.55732 -0.98891,-7.88604 -0.0862,-0.72967 -0.21567,-1.79159 -0.29345,-2.35908 -0.0766,-0.56754 -0.22809,-1.92682 -0.33465,-3.0214 -0.10633,-1.09459 -0.25797,-2.38846 -0.33854,-2.87485 -0.0969,-0.59131 -0.16011,-7.85503 -0.187,-21.91588 -0.0383,-20.62217 -0.048,-21.0327 -0.30303,-21.1051 -0.048,-0.0142 -0.0862,-0.0164 -0.11697,-0.006 z m -28.37753,107.00151 c 2.43199,0.0867 4.87462,1.20555 6.73033,3.40744 6.41425,7.61046 -1.05286,22.62935 -9.52248,19.15288 -2.61774,-1.07478 -4.80287,-3.141 -5.81586,-5.50125 -0.17356,-0.40509 -0.39413,-0.90223 -0.48907,-1.1048 -1.30987,-2.78129 -0.82855,-8.00517 1.04126,-11.28266 1.81986,-3.19044 4.92935,-4.78366 8.05612,-4.67161 z m 17.73304,0.10991 c 0.14969,-0.0342 0.30206,0.0569 0.43537,0.3227 0.18116,0.36199 0.0576,2.00065 -0.16974,2.29971 -0.26084,0.34018 -0.77871,0.22542 -0.87653,-0.19396 -0.25509,-1.08515 0.16291,-2.32482 0.61183,-2.42839 z m 35.01595,0.11685 c 3.74118,0.16279 7.59823,2.55537 9.20665,6.76346 2.44837,6.4069 -1.24759,14.77709 -7.17102,16.24038 -0.53318,0.13128 -2.74421,0.0982 -3.35047,-0.0506 -1.8917,-0.46569 -4.08278,-2.42065 -5.4522,-4.86271 -0.39221,-0.69957 -0.71348,-1.31925 -0.71348,-1.37702 -1.1e-4,-0.0569 -0.0862,-0.313 -0.19184,-0.56825 -1.62699,-3.93826 -1.51019,-9.32043 0.2666,-12.28551 1.65675,-2.76495 4.49629,-3.98652 7.40612,-3.85986 z"
       style="baseline-shift:baseline;display:inline;overflow:visible;vector-effect:none;fill:#000080;fill-rule:evenodd;stroke-width:1.84495;enable-background:accumulate;stop-color:#000000"
       id="path5" /><path
       d="m 255.55911,203.72264 c -1.65701,-0.0273 -5.16987,1.89702 -6.04072,3.30947 -0.35578,0.57724 -0.0105,1.45138 2.06307,5.26858 1.44468,2.65485 2.01586,3.7489 6.08397,11.63111 2.17881,4.2222 4.46185,9.28826 8.70164,19.30832 9.24914,21.86137 18.25982,42.01495 19.2415,43.03679 1.02348,1.06524 1.66742,1.94498 2.7298,3.72819 1.80498,3.02875 2.68951,5.15728 5.51372,13.26259 2.38134,6.83379 4.98088,13.0561 6.74408,16.14144 1.60359,2.80614 1.68382,2.87084 2.20913,1.78982 1.15937,-2.3856 1.58243,-5.43406 1.11929,-8.0692 -0.23014,-1.31066 -5.93181,-13.79727 -7.83856,-17.16798 -3.06285,-5.41262 -3.79686,-7.2487 -4.43392,-11.09158 -0.21364,-1.29061 -0.47929,-2.54471 -0.58949,-2.78679 -0.11037,-0.24238 -0.33305,-0.95082 -0.49579,-1.57503 -0.95122,-3.65406 -9.37654,-22.24555 -14.88105,-32.83715 -0.73641,-1.41711 -2.45742,-4.90437 -3.82425,-7.74948 -1.36683,-2.84511 -3.27117,-6.71627 -4.23192,-8.60182 -1.76902,-3.47186 -2.87419,-6.09488 -5.88564,-13.96842 -0.44593,-1.16453 -1.29643,-3.33761 -1.89235,-4.82907 -0.59552,-1.49167 -1.40155,-3.63435 -1.79139,-4.76171 -1.25185,-3.62084 -1.50071,-4.02163 -2.50112,-4.03808 z"
       style="baseline-shift:baseline;display:inline;overflow:visible;vector-effect:none;fill:#000080;fill-rule:evenodd;stroke-width:1.84495;enable-background:accumulate;stop-color:#000000"
       id="path3" /><path
       d="m 228.0255,108.3872 c -0.89761,-0.28113 -2.68411,0.77706 -6.397,2.84913 v -7.8e-4 c -6.09029,3.3985 -5.61463,4.16785 1.33404,2.15711 2.01685,-0.5839 3.92165,-1.06507 4.23286,-1.07015 0.31166,-0.003 0.38838,1.85141 0.17254,4.1252 -0.40564,4.26981 -0.7106,20.02672 -1.4847,76.68078 -0.51018,37.35275 -0.24638,36.29347 -5.13085,20.54675 -8.33738,-26.88147 -6.93975,-59.5506 3.62506,-84.75891 2.2208,-5.29925 2.1137,-5.85795 -0.70964,-3.6906 -1.98998,1.52771 -2.86515,2.79355 -1.20565,1.74434 0.45841,-0.28993 -2.61754,3.33057 -6.83494,8.04544 -24.51399,27.40504 -39.59693,55.76929 -44.62477,83.91942 -1.63796,9.17321 -1.79368,13.04741 -0.50252,12.51318 0.4862,-0.20079 2.84128,-0.59101 5.23375,-0.86717 l 4.35031,-0.50292 0.42771,3.84702 c 0.23598,2.11563 0.43059,4.73673 0.43442,5.82395 l 0.006,1.97696 h -7.31148 c -6.72819,0 -7.37072,-0.11954 -8.05524,-1.49879 -1.19364,-2.40455 -4.71112,-3.53418 -11.00452,-3.53418 h -5.74243 l 0.45839,-2.33631 c 5.65923,-28.88664 35.09825,-74.73266 64.16385,-99.92422 7.33659,-6.35861 9.97898,-9.05969 5.00042,-5.11023 -31.07294,24.64875 -59.84373,65.84195 -70.59757,101.07852 l -1.91901,6.29025 -4.16766,6e-4 c -4.00057,6.1e-4 -4.16848,0.0733 -4.16848,1.79878 v 1.79678 h 7.30965 7.30964 l 1.03581,3.77474 c 2.2137,8.06723 4.53406,13.50284 7.11409,16.66311 l 2.68382,3.28767 66.7926,-0.003 c 74.48171,-0.006 66.72128,0.52867 73.0941,-5.02803 5.26104,-4.58663 20.11395,-28.03883 17.75775,-28.03883 -0.18852,0 -4.92922,0.80213 -10.53435,1.78291 -18.90181,3.3078 -44.58459,6.10423 -72.70568,7.91676 l -7.1683,0.46134 v -1.71556 c 0,-1.66807 0.23014,-1.74115 8.16815,-2.59369 25.93464,-2.7853 74.33793,-9.0124 74.91853,-9.63837 0.1705,-0.18385 -1.87522,-1.72336 -4.54595,-3.42034 -30.39412,-19.31003 -53.97927,-46.707 -69.9254,-81.22488 -7.15603,-15.49073 -9.51207,-22.42956 -9.82372,-28.93768 -0.15731,-3.28422 -0.16595,-4.90432 -1.06323,-5.18546 z m 1.10273,12.1954 1.86118,11.86276 c 1.02345,6.52436 2.33955,16.82876 2.92443,22.89793 2.71765,28.1993 1.51048,61.07251 -2.8427,77.39557 -0.53609,2.01018 -0.87844,-16.08571 -1.68398,-88.79008 z m -19.4444,54.43923 c 0.21389,0.15154 -0.85543,1.12119 -3.15217,2.94614 -12.19098,9.68359 -22.40432,23.11998 -30.37184,39.95899 -3.8036,8.03934 -3.98131,6.09341 -0.49099,-5.38145 4.67714,-15.37669 15.50022,-28.43656 29.47287,-35.56354 2.83292,-1.44508 4.32864,-2.11162 4.5423,-1.96014 z m 39.20374,5.91012 c 0.18497,-0.10201 1.438,2.44688 3.85548,7.59203 2.50804,5.33828 6.62303,13.1029 9.14428,17.25511 4.97466,8.1919 12.41628,18.04603 16.30879,21.5971 l 2.44698,2.23137 -2.22844,-1.30973 c -10.33164,-6.07524 -21.0356,-21.57245 -26.97542,-39.05515 -1.85391,-5.4561 -2.73674,-8.20868 -2.55167,-8.31073 z m -23.25858,46.41553 v 6.75751 6.75748 l -8.16821,0.493 c -4.49235,0.27111 -9.65522,0.38527 -11.47269,0.2525 l -3.30456,-0.24156 -1.77671,-6.62089 -1.77765,-6.61991 4.74887,-0.24649 c 2.61102,-0.13511 8.5733,-0.3105 13.24948,-0.3891 z m -29.00918,1.085 c 2.28572,0.18439 2.19943,1.40765 2.78123,5.033 1.45256,9.05103 2.19116,8.26125 -7.71836,8.26125 h -8.60791 l -0.95956,-5.5725 c -1.18379,-6.87306 -1.63324,-6.42034 7.17193,-7.22676 3.736,-0.34214 5.96122,-0.6057 7.33267,-0.49496 z m 110.872,10.53024 c 1.10963,-0.0632 1.58045,0.0301 1.3442,0.28517 -0.72777,0.78468 -19.22673,4.61647 -29.27822,6.06454 -27.30638,3.93378 -62.49009,5.34694 -90.39734,3.63021 -25.2732,-1.55458 -24.56509,-1.98142 3.46155,-2.08685 40.63081,-0.15292 83.14964,-2.95725 109.69215,-7.23467 2.31954,-0.37377 4.06801,-0.59485 5.17766,-0.65831 z"
       style="baseline-shift:baseline;display:inline;overflow:visible;vector-effect:none;fill:#000080;fill-rule:evenodd;stroke-width:1.84495;enable-background:accumulate;stop-color:#000000"
       id="path2" /></g><path
     style="clip-rule:evenodd;fill:none;fill-rule:evenodd;stroke:#000000;stroke-width:0.310859px;stroke-linecap:butt;stroke-linejoin:miter;stroke-miterlimit:2;stroke-opacity:1"
     d="m 13.161643,0.1554295 v 0"
     id="path1" /><path
     d="m 37.974075,4.8885777 c -0.115152,0 -0.200003,0.035471 -0.289003,0.1244645 -0.0013,0.00129 -0.0028,0.00247 -0.0043,0.00364 -0.08514,0.080178 -0.120176,0.1616051 -0.120176,0.2853611 V 7.200594 c -1.83e-4,0.1378149 -0.154783,0.2189619 -0.268327,0.140859 -0.182117,-0.1255981 -0.3863,-0.2198301 -0.615648,-0.2835379 -0.0018,-5.91e-4 -0.0037,-0.00118 -0.0055,-0.00188 -0.222532,-0.069942 -0.454769,-0.1050363 -0.698219,-0.1050363 -0.333794,1.2e-6 -0.64437,0.063833 -0.937437,0.1912518 -0.296304,0.1288305 -0.550865,0.3007245 -0.768041,0.5178969 -0.217173,0.2171737 -0.389066,0.472339 -0.517895,0.7686493 -0.127238,0.292646 -0.191252,0.6060958 -0.191252,0.9471488 0,0.333798 0.06383,0.6443714 0.191252,0.9374384 0.128829,0.296308 0.300722,0.551473 0.517895,0.768645 0.217176,0.217174 0.471737,0.389067 0.768041,0.5179 0.293067,0.127418 0.603643,0.191249 0.937437,0.191249 0.341053,0 0.655109,-0.06401 0.947758,-0.191249 0.296312,-0.128833 0.550867,-0.300726 0.768042,-0.5179 0.217173,-0.217172 0.389672,-0.472337 0.518504,-0.768645 0.127419,-0.293067 0.190644,-0.6036404 0.190644,-0.9374384 v -4.073901 c 0,-0.1237548 -0.03504,-0.2051884 -0.120215,-0.2853591 -0.0013,-0.00118 -0.0024,-0.00247 -0.0037,-0.00364 -0.0878,-0.087812 -0.176172,-0.1244657 -0.29993,-0.1244657 z m 7.481275,0 c -0.115165,0 -0.200614,0.035471 -0.289609,0.1244645 -0.0013,0.00129 -0.0024,0.00247 -0.0037,0.00364 -0.08518,0.080176 -0.120214,0.161603 -0.120214,0.285359 V 10.22783 c 0,0.210779 0.03944,0.405349 0.118999,0.588934 0.08074,0.186323 0.188424,0.348587 0.32361,0.490573 0.141987,0.135187 0.304249,0.242868 0.490574,0.323611 0.183584,0.07955 0.377545,0.119 0.588328,0.119 h 0.205217 c 0.123749,0 0.205792,-0.03504 0.285964,-0.120215 0.0013,-0.0015 0.0024,-0.0028 0.0037,-0.0042 0.089,-0.089 0.124465,-0.173846 0.124465,-0.289003 0,-0.123753 -0.03665,-0.212121 -0.124465,-0.29993 -0.0013,-0.0013 -0.0024,-0.0025 -0.0037,-0.0036 -0.08017,-0.08518 -0.162215,-0.120215 -0.285964,-0.120215 h -0.205217 c -0.181733,0 -0.354557,-0.06705 -0.486325,-0.190038 -0.0015,-0.0013 -0.0028,-0.0028 -0.0043,-0.0042 -0.130747,-0.130877 -0.203874,-0.306125 -0.203874,-0.490573 V 5.3020446 c 0,-0.1237548 -0.03504,-0.2051884 -0.120211,-0.2853591 -0.0024,-0.00258 -0.005,-0.00517 -0.0073,-0.00787 -0.08017,-0.08518 -0.162212,-0.1202148 -0.285965,-0.1202148 z m 2.955593,0 c -0.115164,0 -0.200615,0.035471 -0.289609,0.1244645 -0.0013,0.00129 -0.0024,0.00247 -0.0037,0.00364 -0.08518,0.080176 -0.120821,0.1616042 -0.120821,0.285359 v 4.0739599 c 0,0.333798 0.06383,0.6443719 0.191249,0.9374369 0.128833,0.296308 0.301332,0.551474 0.518504,0.768647 0.217176,0.217176 0.471737,0.389065 0.768041,0.517898 0.293067,0.127418 0.603643,0.191251 0.937439,0.191251 0.341053,0 0.655107,-0.06401 0.947757,-0.191251 0.296305,-0.128833 0.550865,-0.300722 0.768041,-0.517898 0.217173,-0.217173 0.389066,-0.472339 0.517897,-0.768647 0.127416,-0.293065 0.191251,-0.6036389 0.191251,-0.9374369 0,-0.3410507 -0.06402,-0.6545029 -0.191251,-0.9471487 C 52.516969,8.1325431 52.345075,7.877379 52.127902,7.6602053 51.910726,7.4430317 51.656166,7.2711387 51.359861,7.1423083 51.067211,7.0150699 50.753157,6.9510565 50.412104,6.9510565 c -0.243447,0 -0.475684,0.035094 -0.698223,0.1050363 -0.0015,4.359e-4 -0.0028,8.401e-4 -0.0043,0.00118 -0.222877,0.063679 -0.428054,0.158882 -0.618682,0.2859665 -0.11393,0.076228 -0.266796,-0.00564 -0.266537,-0.142679 V 5.3020047 c 0,-0.123756 -0.03504,-0.2051885 -0.120217,-0.2853603 -0.0028,-0.00258 -0.0054,-0.00517 -0.0078,-0.00787 -0.08018,-0.085182 -0.161605,-0.120218 -0.28536,-0.120218 z m -25.686594,2.06248 c -0.317752,0 -0.573772,0.049017 -0.770472,0.1384294 -6.21e-4,4.041e-4 -0.0013,8.083e-4 -0.0018,0.00118 -0.200745,0.087824 -0.357595,0.1976104 -0.476005,0.3278601 -9.32e-4,0.00103 -0.0015,0.00199 -0.0024,0.00305 -0.122455,0.1285766 -0.215836,0.269928 -0.28293,0.4274319 v 6.215e-4 c -0.06448,0.1613129 -0.109195,0.314029 -0.134179,0.4577901 -0.02614,0.1503347 -0.03885,0.2784178 -0.03885,0.3812875 v 0.2052167 2.4832341 c 0,0.115152 0.03547,0.200613 0.124465,0.289608 0.089,0.089 0.174452,0.124466 0.289609,0.124466 0.123754,0 0.211513,-0.03666 0.299324,-0.124466 0.089,-0.089 0.124466,-0.174454 0.124466,-0.289608 v -1.262233 c 0,-0.1548693 -0.0037,-0.3057303 -0.01034,-0.4535401 -5.9e-5,-0.00247 -5.9e-5,-0.00529 0,-0.00787 V 9.2430831 8.9455814 8.8326497 c 0,-0.05703 0.0083,-0.1205731 0.02247,-0.2191768 0.01594,-0.111604 0.04763,-0.2224513 0.09411,-0.3308983 9.33e-4,-0.00153 0.0015,-0.00329 0.0024,-0.00482 0.05881,-0.12604 0.148603,-0.2354093 0.261072,-0.324824 0.132329,-0.1126967 0.307039,-0.1639295 0.499076,-0.1639295 0.197225,0 0.374369,0.049335 0.503325,0.1669654 0.110816,0.095555 0.19624,0.2086015 0.248325,0.3363604 0.05404,0.1169145 0.08808,0.2350134 0.09653,0.3533601 0.0069,0.096648 0.01093,0.1474538 0.01093,0.187001 v 2.544554 c 0,0.115152 0.03548,0.200614 0.124464,0.289609 0.08781,0.08781 0.175571,0.124465 0.299324,0.124465 0.115164,0 0.200614,-0.03547 0.28961,-0.124465 0.0013,-0.0013 0.0024,-0.0025 0.0037,-0.0036 0.09511,-0.08983 0.130536,-0.173291 0.130536,-0.285965 V 8.8326932 c 0,-0.039547 0.004,-0.09035 0.01093,-0.1870045 0.0082,-0.1157279 0.03712,-0.2324732 0.08378,-0.3491081 0.0013,-0.00282 0.0024,-0.00564 0.0037,-0.00846 0.05767,-0.1235797 0.140257,-0.2350674 0.244074,-0.3308959 0.0015,-0.00129 0.0032,-0.00247 0.0048,-0.00364 0.134027,-0.1148819 0.313386,-0.1645368 0.511827,-0.1645368 0.190616,0 0.363397,0.051378 0.490574,0.1663579 0.111839,0.089551 0.19886,0.200067 0.250751,0.3278601 0.05261,0.1074096 0.08961,0.2180148 0.105648,0.3302885 0.01408,0.098609 0.02185,0.1621436 0.02185,0.2191804 v 2.5445542 c 0,0.115152 0.03548,0.200612 0.124466,0.289609 0.089,0.089 0.174455,0.124464 0.289609,0.124464 0.123753,0 0.211515,-0.03666 0.299324,-0.124464 0.089,-0.089 0.124464,-0.174455 0.124464,-0.289609 V 8.8940537 8.6888393 c 0,-0.1028744 -0.01209,-0.2309528 -0.03825,-0.3812876 -0.02463,-0.1415638 -0.07153,-0.2926152 -0.142071,-0.4529341 -9.33e-4,-0.00235 -0.0022,-0.00482 -0.0031,-0.00728 -0.06022,-0.1565898 -0.149688,-0.2971786 -0.272002,-0.4256107 -9.32e-4,-9.94e-4 -0.0022,-0.00199 -0.0031,-0.00305 -0.117455,-0.1291981 -0.27637,-0.2392101 -0.483896,-0.3272526 -0.0022,-7.766e-4 -0.0041,-0.00153 -0.0061,-0.00247 -0.188504,-0.088364 -0.440577,-0.137823 -0.758325,-0.137823 -0.291376,0 -0.524682,0.043095 -0.701256,0.1196085 -0.190053,0.082361 -0.343288,0.1811042 -0.463256,0.2950732 -0.06615,0.062951 -0.170037,0.062951 -0.236179,0 -0.118937,-0.1129903 -0.275001,-0.2119559 -0.471753,-0.2944669 -6.22e-4,-1.986e-4 -0.0013,-4.042e-4 -0.0018,-6.215e-4 -0.177341,-0.076797 -0.407511,-0.1196138 -0.691667,-0.1196138 z m 7.656133,0 c -0.333799,0 -0.644372,0.063833 -0.937437,0.1912518 -0.296312,0.1288303 -0.551478,0.3007233 -0.768651,0.5178969 -0.217169,0.2171726 -0.389061,0.4723378 -0.517895,0.7686493 -0.127238,0.2926459 -0.191253,0.6060946 -0.191253,0.9471488 0,0.3337979 0.06383,0.6443715 0.191253,0.9374365 0.128834,0.296308 0.300726,0.551475 0.517895,0.768647 0.217173,0.217173 0.472339,0.389066 0.768651,0.517899 0.293065,0.127418 0.603638,0.19125 0.937437,0.19125 0.34105,0 0.654503,-0.06401 0.947148,-0.19125 0.296312,-0.128833 0.551475,-0.300726 0.76865,-0.517899 0.217173,-0.217172 0.389066,-0.472339 0.517895,-0.768647 0.127422,-0.293065 0.191255,-0.6036421 0.191255,-0.9374365 0,-0.3410507 -0.06401,-0.6545029 -0.191255,-0.9471488 C 32.485346,8.1325442 32.313453,7.877379 32.09628,7.6602064 31.879105,7.4430328 31.623942,7.2711398 31.32763,7.1423095 31.034985,7.0150711 30.721532,6.9510577 30.380482,6.9510577 Z m 11.298409,0 c -0.333798,0 -0.644372,0.063833 -0.937438,0.1912518 -0.296305,0.1288303 -0.550869,0.3007233 -0.768041,0.5178969 -0.217176,0.2171726 -0.389675,0.472339 -0.518504,0.7686493 -0.127239,0.2926459 -0.190645,0.6060981 -0.190645,0.9471488 0,0.3337944 0.06322,0.6443715 0.190645,0.9374365 0.128829,0.296308 0.301328,0.551475 0.518504,0.768647 0.217172,0.217173 0.471736,0.389066 0.768041,0.517899 0.293066,0.127418 0.60364,0.19125 0.937438,0.19125 0.308474,0 0.593921,-0.05124 0.860329,-0.152393 h 6.21e-4 c 0.276663,-0.109442 0.518325,-0.256151 0.728577,-0.440789 v -6.22e-4 h 6.22e-4 c 0.09333,-0.08321 0.132243,-0.165066 0.137216,-0.279289 1.59e-4,-0.0022 3.11e-4,-0.0045 6.22e-4,-0.0067 0.01034,-0.124149 -0.01949,-0.213567 -0.09411,-0.304183 -0.08146,-0.09054 -0.164759,-0.131531 -0.286575,-0.136607 -0.0024,5.3e-5 -0.0048,5.3e-5 -0.0073,0 -0.114247,-0.01 -0.199221,0.01775 -0.292647,0.100783 -0.139349,0.123866 -0.301844,0.220667 -0.483896,0.289003 h -6.22e-4 c -0.177081,0.06895 -0.366049,0.103215 -0.562827,0.103215 -0.317244,0 -0.610907,-0.08529 -0.864578,-0.254395 -9.32e-4,-6.22e-4 -0.0022,-0.0013 -0.0031,-0.0019 -0.248776,-0.173428 -0.441487,-0.401074 -0.570049,-0.673325 -0.05328,-0.113495 0.02945,-0.2439021 0.154824,-0.2440702 h 2.996878 c 0.100052,0 0.190314,-0.019304 0.277468,-0.057076 0.09459,-0.044834 0.172511,-0.1038144 0.23861,-0.1809291 0,0 6.21e-4,-6.216e-4 6.21e-4,-6.216e-4 0.142094,-0.1648269 0.192858,-0.3375071 0.164538,-0.5622177 -0.04488,-0.2858702 -0.139349,-0.5508154 -0.28536,-0.7983991 -3.11e-4,-9.939e-4 -9.32e-4,-0.00199 -0.0013,-0.00305 -0.141145,-0.250175 -0.316246,-0.4628206 -0.526419,-0.6411484 -6.21e-4,-5.898e-4 -0.0013,-0.00118 -0.0018,-0.00188 -0.20979,-0.1843609 -0.450849,-0.3271973 -0.726755,-0.4298603 -0.0015,-5.909e-4 -0.0033,-0.00118 -0.0048,-0.00188 C 42.260864,7.0049563 41.979713,6.9508098 41.678817,6.9508098 Z m 14.33597,0 c -0.333799,0 -0.644372,0.063833 -0.937437,0.1912518 -0.296312,0.1288303 -0.550868,0.3007233 -0.768041,0.5178969 -0.217172,0.2171726 -0.389065,0.4723378 -0.517899,0.7686493 -0.127237,0.2926459 -0.19125,0.6060946 -0.19125,0.9471488 0,0.3337979 0.06383,0.6443715 0.19125,0.9374365 0.128834,0.296308 0.300727,0.551475 0.517899,0.768647 0.217173,0.217173 0.471729,0.389066 0.768041,0.517899 0.293065,0.127418 0.603638,0.19125 0.937437,0.19125 0.341051,0 0.655111,-0.06401 0.947755,-0.19125 0.296311,-0.128833 0.550873,-0.300726 0.768048,-0.517899 0.217166,-0.217172 0.389668,-0.472339 0.518498,-0.768647 0.12742,-0.293065 0.19125,-0.6036421 0.19125,-0.9374365 0,-0.3410507 -0.0641,-0.6545029 -0.19125,-0.9471488 C 58.120332,8.1325442 57.94783,7.877379 57.730664,7.6602064 57.513489,7.4430328 57.258927,7.2711398 56.962616,7.1423095 56.669972,7.0150711 56.355912,6.9510577 56.014861,6.9510577 Z m 3.746101,0 c -0.11517,0 -0.20062,0.035471 -0.28961,0.1244656 -0.0878,0.087812 -0.12446,0.175568 -0.12446,0.299324 v 2.0011572 c 0,0.3337979 0.0639,0.6443715 0.19124,0.9374365 0.12884,0.296308 0.30073,0.551475 0.51791,0.768647 0.21716,0.217173 0.47233,0.389066 0.76864,0.517899 0.29306,0.127418 0.60364,0.19125 0.93743,0.19125 0.34105,0 0.65451,-0.06401 0.94715,-0.19125 0.29631,-0.128833 0.55148,-0.300726 0.76865,-0.517899 0.21718,-0.217172 0.38908,-0.472339 0.5179,-0.768647 0.12743,-0.293065 0.19125,-0.6036386 0.19125,-0.9374365 V 7.3748473 c 0,-0.123756 -0.0367,-0.2115153 -0.12446,-0.299324 -0.0879,-0.087812 -0.17557,-0.1244656 -0.29933,-0.1244656 -0.11516,0 -0.20061,0.035471 -0.2896,0.1244656 -0.0879,0.087812 -0.12447,0.175568 -0.12447,0.299324 v 2.0011572 c 0,0.2139896 -0.0424,0.4229143 -0.12629,0.6211122 -3e-4,9.328e-4 -9.2e-4,0.00153 -10e-4,0.00247 -0.0835,0.1896683 -0.19819,0.3584653 -0.34304,0.5033263 -0.13884,0.138845 -0.30492,0.2503 -0.49362,0.333322 -0.19337,0.08509 -0.40287,0.127501 -0.62292,0.127501 -0.214,0 -0.42293,-0.04244 -0.62112,-0.126286 -9.3e-4,-3.11e-4 -0.002,-9.33e-4 -0.002,-0.0013 -0.18791,-0.08268 -0.35572,-0.192721 -0.50029,-0.329683 -0.002,-0.0022 -0.004,-0.0044 -0.007,-0.0067 -0.13697,-0.144568 -0.24701,-0.31237 -0.32968,-0.5002872 -3.2e-4,-9.329e-4 -9.4e-4,-0.00153 -10e-4,-0.00247 -0.0839,-0.1981978 -0.12629,-0.4071236 -0.12629,-0.6211121 V 7.3747485 c 0,-0.123756 -0.0367,-0.2115154 -0.12447,-0.299324 -0.001,-0.00118 -0.002,-0.00247 -0.004,-0.00364 -0.0802,-0.08518 -0.1616,-0.1208223 -0.28536,-0.1208223 z m 5.95186,0 c -0.11515,0 -0.20061,0.035471 -0.2896,0.1244656 -0.0878,0.087812 -0.12386,0.175568 -0.12386,0.299324 v 2.4838376 0.2052171 c 0,0.09519 0.012,0.22022 0.0382,0.370968 0.0248,0.142874 0.0695,0.298431 0.13356,0.465683 0.0667,0.15085 0.16002,0.294011 0.28354,0.430465 l 6.2e-4,6.22e-4 c 0.1183,0.124046 0.27658,0.234373 0.47721,0.329076 0.19761,0.08363 0.45509,0.130536 0.77351,0.130536 0.28473,0 0.51572,-0.04008 0.69397,-0.11111 0.19448,-0.08177 0.34921,-0.182236 0.46751,-0.30054 0.0668,-0.0669 0.17536,-0.0669 0.24225,0 0.1192,0.119196 0.27085,0.219597 0.4584,0.301146 0.17755,0.07055 0.4117,0.1105 0.70308,0.1105 0.31814,0 0.57139,-0.04619 0.76076,-0.128714 l 6.1e-4,-6.23e-4 c 0.20901,-0.09511 0.37001,-0.206063 0.48815,-0.329681 0.12384,-0.136596 0.21447,-0.279333 0.27443,-0.429254 3e-4,-9.33e-4 9.2e-4,-0.0019 0.001,-0.003 0.0711,-0.168048 0.11861,-0.323098 0.14328,-0.465074 0.0262,-0.150748 0.0383,-0.275779 0.0383,-0.370967 V 9.8586626 7.3748238 c 0,-0.123756 -0.0367,-0.2115153 -0.12446,-0.299324 -0.0877,-0.087812 -0.17557,-0.1244656 -0.29932,-0.1244656 -0.11515,0 -0.20062,0.035471 -0.28962,0.1244656 -0.0877,0.087812 -0.12385,0.175568 -0.12385,0.299324 v 2.5348389 c 0,0.057042 -0.008,0.1205753 -0.0225,0.2191803 -0.0161,0.113167 -0.0526,0.22699 -0.10505,0.340609 -0.0524,0.129007 -0.13852,0.243823 -0.25074,0.340003 0,0 -6.3e-4,6.21e-4 -6.3e-4,6.21e-4 -0.12861,0.108831 -0.3002,0.153612 -0.49058,0.153612 -0.19842,0 -0.37778,-0.04966 -0.51182,-0.164538 -0.001,-0.0015 -0.002,-0.0028 -0.005,-0.0042 -0.10387,-0.09582 -0.18701,-0.206709 -0.24468,-0.330288 -0.002,-0.004 -0.003,-0.008 -0.005,-0.01216 -0.0458,-0.121912 -0.0743,-0.24035 -0.0826,-0.355787 -0.007,-0.09665 -0.0106,-0.1474562 -0.0106,-0.1870011 V 7.3748426 c 0,-0.1213768 -0.0372,-0.2070013 -0.13114,-0.2956806 -0.001,-0.00118 -0.002,-0.00247 -0.003,-0.00364 -0.089,-0.088999 -0.17445,-0.1244657 -0.28961,-0.1244657 -0.12375,0 -0.21151,0.036657 -0.29932,0.1244657 -0.0877,0.087812 -0.12447,0.1755679 -0.12447,0.299324 v 2.5348389 c 0,0.039547 -0.003,0.090362 -0.0106,0.1870031 -0.008,0.118689 -0.0425,0.239184 -0.0959,0.361859 -0.0519,0.128055 -0.13699,0.241159 -0.24772,0.336966 -0.12906,0.118562 -0.30661,0.168181 -0.50454,0.168181 -0.19036,0 -0.36289,-0.04473 -0.49604,-0.149359 -0.002,-0.0015 -0.003,-0.0032 -0.006,-0.0048 -0.11185,-0.09587 -0.20025,-0.208127 -0.25925,-0.334538 -0.001,-0.003 -0.002,-0.006 -0.005,-0.0092 -0.0455,-0.11359 -0.0765,-0.225923 -0.0923,-0.336969 -0.014,-0.09861 -0.0225,-0.1621438 -0.0225,-0.2191783 V 9.7967346 9.5095568 9.0991223 c 1.4e-4,-0.00247 3e-4,-0.00529 6.2e-4,-0.00787 0.006,-0.1478051 0.0102,-0.2992712 0.0102,-0.4541444 V 7.3747722 c 0,-0.1237549 -0.0366,-0.2115142 -0.12446,-0.299324 -0.0879,-0.087812 -0.17557,-0.1244657 -0.29932,-0.1244657 z m 8.94876,0 c -0.3338,0 -0.64438,0.063833 -0.93745,0.1912518 -0.29631,0.1288303 -0.55086,0.3007233 -0.76803,0.5178969 -0.21718,0.2171726 -0.38968,0.4723378 -0.51851,0.7686493 -0.12723,0.2926459 -0.19125,0.6060981 -0.19125,0.9471488 0,0.3337944 0.0638,0.6443715 0.19125,0.9374365 0.12883,0.296308 0.30133,0.551475 0.51851,0.768647 0.21717,0.217173 0.47172,0.389066 0.76803,0.517899 0.29307,0.127418 0.60365,0.19125 0.93745,0.19125 0.30868,0 0.59377,-0.0511 0.86031,-0.152393 l 6.4e-4,-6.21e-4 c 0.27653,-0.109431 0.51839,-0.255615 0.72857,-0.440184 v -6.22e-4 h 6.2e-4 c 0.0934,-0.08321 0.13224,-0.165063 0.13722,-0.279289 1.5e-4,-0.0022 3.1e-4,-0.0045 6.1e-4,-0.0067 0.0106,-0.124148 -0.0195,-0.213566 -0.0941,-0.30418 -0.0814,-0.09055 -0.16476,-0.13153 -0.28658,-0.136607 -0.002,5.9e-5 -0.005,5.9e-5 -0.008,0 -0.11421,-0.01 -0.19862,0.01775 -0.29204,0.100783 -0.13935,0.123868 -0.30184,0.220669 -0.4839,0.289003 h -6.2e-4 c -0.17709,0.06896 -0.36604,0.103215 -0.56283,0.103215 -0.31724,0 -0.6109,-0.08529 -0.86458,-0.254396 -9.2e-4,-6.21e-4 -0.002,-0.0013 -0.003,-0.0019 -0.24884,-0.173431 -0.44155,-0.401077 -0.57011,-0.673324 -0.0534,-0.1135075 0.0295,-0.2439076 0.15482,-0.2440756 h 2.99633 c 0.10005,0 0.19092,-0.019304 0.27806,-0.057065 0.0946,-0.044834 0.17252,-0.1038144 0.23862,-0.1809303 0,0 6.2e-4,-6.215e-4 6.2e-4,-6.215e-4 0.14241,-0.165203 0.19329,-0.3379701 0.16454,-0.5634327 -0.045,-0.2854284 -0.13954,-0.5499353 -0.28536,-0.7971853 -3.1e-4,-9.94e-4 -9.4e-4,-0.00199 -0.001,-0.00305 -0.14112,-0.2501743 -0.31622,-0.4628199 -0.5264,-0.6411477 -9.2e-4,-5.91e-4 -0.001,-0.00118 -0.002,-0.00188 -0.20979,-0.1843609 -0.45024,-0.3271974 -0.72615,-0.4298604 -0.001,-5.909e-4 -0.003,-0.00118 -0.005,-0.00188 -0.26676,-0.1079735 -0.5479,-0.1621083 -0.84881,-0.1621083 z m 4.88451,0.051602 c -0.20329,0 -0.39807,0.039653 -0.59016,0.1202149 -9.3e-4,2.114e-4 -0.002,4.041e-4 -0.003,6.215e-4 -0.18421,0.07369 -0.34476,0.179625 -0.48632,0.3211818 -0.14124,0.1412386 -0.25131,0.3062302 -0.3321,0.4984677 -0.0735,0.1845924 -0.11057,0.3772987 -0.11057,0.5816483 v 2.8523781 c 0,0.115153 0.0355,0.200614 0.12447,0.289609 0.089,0.089 0.17446,0.124466 0.28961,0.124466 0.12375,0 0.20518,-0.03563 0.28536,-0.120822 0.001,-0.0013 0.002,-0.0025 0.003,-0.0036 0.089,-0.089 0.12448,-0.174455 0.12448,-0.28961 V 8.5247937 c 0,-0.1750581 0.0732,-0.3432501 0.19671,-0.4832903 0.005,-0.00517 0.009,-0.00998 0.0152,-0.014569 0.14005,-0.1235645 0.30761,-0.1973225 0.48268,-0.1973225 h 0.75954 c 0.11667,0 0.20336,-0.03446 0.29083,-0.1159629 0.0862,-0.087084 0.12264,-0.1747796 0.12264,-0.2975028 0,-0.1237561 -0.035,-0.2057948 -0.12021,-0.2859666 -0.001,-0.00118 -0.002,-0.00247 -0.003,-0.00364 -0.089,-0.088998 -0.17445,-0.1238581 -0.2896,-0.1238581 z m -49.16561,0.7862561 c 0.220054,0 0.429552,0.042414 0.622931,0.1275004 0.188956,0.083136 0.354632,0.1985151 0.493005,0.3436461 0.14513,0.1383729 0.260506,0.3040517 0.343646,0.4930042 0.08509,0.1933795 0.127499,0.4028775 0.127499,0.6229321 0,0.2139862 -0.04244,0.4229143 -0.126287,0.6211122 -3.11e-4,9.328e-4 -9.32e-4,0.00153 -0.0013,0.00247 -0.08346,0.1896682 -0.198785,0.3584652 -0.343645,0.5033262 -0.138842,0.138845 -0.304316,0.2503 -0.493005,0.333322 -0.193379,0.08509 -0.402876,0.127501 -0.62293,0.127501 -0.21399,0 -0.42292,-0.04244 -0.621114,-0.126286 -9.33e-4,-3.11e-4 -0.0015,-9.33e-4 -0.0024,-0.0013 -0.187918,-0.08268 -0.355724,-0.192721 -0.500292,-0.329683 -0.0022,-0.0022 -0.0045,-0.0043 -0.0067,-0.0067 -0.136962,-0.144568 -0.246997,-0.312372 -0.329683,-0.500287 -3.11e-4,-9.329e-4 -9.32e-4,-0.00153 -0.0013,-0.00247 -0.08385,-0.1981943 -0.126287,-0.4071259 -0.126287,-0.6211121 0,-0.2200545 0.04241,-0.4295525 0.127503,-0.622932 0.08302,-0.1886858 0.19448,-0.3547688 0.333325,-0.4936118 0.144854,-0.1448596 0.313657,-0.2595841 0.503325,-0.3430385 9.33e-4,-4.042e-4 0.0015,-8.084e-4 0.0024,-0.00118 0.198194,-0.083852 0.407123,-0.1262868 0.621113,-0.1262868 z m 5.592435,0 c 0.220058,0 0.430161,0.042414 0.623541,0.1275004 0.188953,0.083136 0.354629,0.1985151 0.493005,0.3436461 0.145127,0.1383729 0.260506,0.3040517 0.343645,0.4930042 0.08508,0.1933795 0.127499,0.4028741 0.127499,0.6229321 0,0.2139896 -0.04244,0.4229143 -0.126287,0.6211122 -3.1e-4,9.328e-4 -9.31e-4,0.00153 -0.0013,0.00247 -0.08346,0.1896682 -0.198789,0.3584652 -0.343646,0.5033262 -0.138845,0.138845 -0.304316,0.2503 -0.493004,0.333322 -0.193379,0.08509 -0.403484,0.127501 -0.62354,0.127501 -0.213988,0 -0.422314,-0.04244 -0.620504,-0.126286 -9.32e-4,-3.11e-4 -0.0015,-9.33e-4 -0.0024,-0.0013 -0.187917,-0.08268 -0.355719,-0.192721 -0.500288,-0.329683 -0.0022,-0.0022 -0.0045,-0.0043 -0.0067,-0.0067 -0.136955,-0.144568 -0.247602,-0.312372 -0.330288,-0.500287 -2.08e-4,-9.329e-4 -3.12e-4,-0.00153 -6.22e-4,-0.00247 -0.08385,-0.1981943 -0.126287,-0.4071259 -0.126287,-0.6211121 0,-0.2200545 0.0418,-0.4295525 0.126893,-0.622932 0.08303,-0.1886858 0.194479,-0.3547688 0.333326,-0.4936118 0.144859,-0.1448596 0.314263,-0.2595841 0.503931,-0.3430385 9.33e-4,-4.042e-4 0.0015,-8.084e-4 0.0024,-0.00118 0.19819,-0.083852 0.406517,-0.1262868 0.620503,-0.1262868 z m 5.705974,0 c 0.317459,0 0.611461,0.089739 0.864578,0.2653235 0.256363,0.1664414 0.454467,0.3910393 0.583468,0.6642193 0.05328,0.1135073 -0.02945,0.2439039 -0.154824,0.2440719 h -2.576125 c -0.125387,-1.68e-4 -0.208104,-0.1305704 -0.154822,-0.2440719 0.12857,-0.2722695 0.322292,-0.4968133 0.571931,-0.6636118 0.253373,-0.1761015 0.547866,-0.265931 0.865794,-0.265931 z m 8.73321,0 c 0.220058,0 0.429556,0.042414 0.622932,0.1275004 0.188957,0.083136 0.354632,0.1985151 0.493005,0.3436461 0.145131,0.1383729 0.260506,0.3040517 0.343646,0.4930042 0.08508,0.1933795 0.127503,0.4028741 0.127503,0.6229321 0,0.2139896 -0.04244,0.4229143 -0.126287,0.6211122 -3.12e-4,9.328e-4 -9.33e-4,0.00153 -0.0013,0.00247 -0.08346,0.1896682 -0.198181,0.3584652 -0.343036,0.5033262 -0.138845,0.138845 -0.304922,0.2503 -0.493615,0.333322 -0.193375,0.08509 -0.402873,0.127501 -0.622931,0.127501 -0.213989,0 -0.422918,-0.04244 -0.621113,-0.126286 -9.33e-4,-3.11e-4 -0.0015,-9.33e-4 -0.0024,-0.0013 -0.187916,-0.08268 -0.355722,-0.192721 -0.500291,-0.329683 -0.0022,-0.0022 -0.0041,-0.0045 -0.0061,-0.0067 -0.136958,-0.144568 -0.247604,-0.312372 -0.330289,-0.500287 -3.11e-4,-9.329e-4 -9.32e-4,-0.00153 -0.0013,-0.00247 -0.08385,-0.1981943 -0.126286,-0.4071259 -0.126286,-0.6211121 0,-0.2200545 0.04241,-0.4295525 0.127498,-0.622932 0.08303,-0.1886858 0.19448,-0.3547688 0.333326,-0.4936118 0.14486,-0.1448596 0.313654,-0.2595841 0.503326,-0.3430385 9.31e-4,-4.042e-4 0.0015,-8.084e-4 0.0024,-0.00118 0.198195,-0.083852 0.407124,-0.1262868 0.621114,-0.1262868 z m 5.60276,0 c 0.220054,0 0.430159,0.042414 0.623541,0.1275004 0.188949,0.083136 0.354629,0.1985151 0.493001,0.3436461 0.145135,0.1383729 0.260508,0.3040517 0.343651,0.4930042 0.0851,0.1933795 0.127495,0.4028775 0.127495,0.6229321 0,0.2139862 -0.0424,0.4229143 -0.126285,0.6211122 -3.15e-4,9.328e-4 -9.35e-4,0.00153 -10e-4,0.00247 -0.08348,0.1896682 -0.198783,0.3584652 -0.343646,0.5033262 -0.138843,0.138845 -0.304317,0.2503 -0.493001,0.333322 -0.193384,0.08509 -0.403488,0.127501 -0.623542,0.127501 -0.213989,0 -0.422309,-0.04244 -0.620506,-0.126286 -9.33e-4,-3.11e-4 -0.0015,-9.33e-4 -0.0024,-0.0013 -0.187918,-0.08268 -0.355722,-0.192721 -0.500291,-0.329683 -0.0022,-0.0022 -0.0045,-0.0043 -0.0067,-0.0067 -0.136958,-0.144568 -0.246996,-0.312372 -0.329682,-0.500287 -3.11e-4,-9.329e-4 -9.33e-4,-0.00153 -0.0013,-0.00247 -0.08385,-0.1981943 -0.126287,-0.4071259 -0.126287,-0.6211121 0,-0.2200545 0.04241,-0.4295525 0.127499,-0.622932 0.08303,-0.1886858 0.193874,-0.3547688 0.332719,-0.4936118 0.144858,-0.1448596 0.314263,-0.2595841 0.503931,-0.3430385 9.33e-4,-4.042e-4 0.0015,-8.084e-4 0.0024,-0.00118 0.198197,-0.083852 0.406516,-0.1262868 0.620506,-0.1262868 z m 18.646721,0 c 0.31745,0 0.61147,0.089739 0.86458,0.2653235 0.25636,0.1664414 0.45386,0.3910393 0.58285,0.6642193 0.0532,0.1135073 -0.0294,0.2439039 -0.15482,0.2440719 h -2.57551 c -0.12539,-1.68e-4 -0.20812,-0.1305704 -0.15483,-0.2440719 0.12857,-0.2722695 0.32229,-0.4968133 0.57193,-0.6636118 0.25337,-0.1761015 0.54786,-0.265931 0.8658,-0.265931 z"
     style="-inkscape-font-specification:'Boldena, Normal';clip-rule:nonzero;fill:#000080;fill-rule:nonzero;stroke-width:0.310859;stroke-linejoin:miter;stroke-miterlimit:2"
     id="path17" /><path
     d="m 22.021816,89.293025 c -0.115152,0 -0.200614,0.03547 -0.28961,0.124465 -0.0013,0.0013 -0.0024,0.0024 -0.0037,0.0037 -0.08518,0.08016 -0.120822,0.162209 -0.120822,0.285966 v 1.89855 c -2.15e-4,0.137814 -0.154815,0.218961 -0.268359,0.14086 -0.182118,-0.1256 -0.386299,-0.22044 -0.615649,-0.284148 -0.0018,-3.11e-4 -0.0037,-6.21e-4 -0.0055,-0.0013 -0.222539,-0.06994 -0.454167,-0.105036 -0.697612,-0.105036 -0.333799,0 -0.644375,0.06322 -0.937435,0.190644 -0.296312,0.128829 -0.551475,0.301332 -0.768651,0.518503 -0.217172,0.217173 -0.389065,0.47173 -0.517897,0.768041 -0.127239,0.29265 -0.191251,0.606706 -0.191251,0.947759 0,0.333794 0.06383,0.644374 0.191251,0.937435 0.128832,0.296314 0.300725,0.55087 0.517897,0.768042 0.217176,0.217171 0.472339,0.389064 0.768651,0.517896 0.29306,0.127419 0.603636,0.191254 0.937435,0.191254 0.341049,0 0.654501,-0.06402 0.947151,-0.191254 0.296305,-0.128832 0.551471,-0.300725 0.768646,-0.517896 0.217173,-0.217172 0.389066,-0.471728 0.517898,-0.768042 0.127419,-0.293061 0.191251,-0.603641 0.191251,-0.937435 v -4.073961 c 0,-0.123756 -0.03564,-0.205798 -0.120822,-0.285966 -0.0013,-0.0013 -0.0024,-0.0024 -0.0037,-0.0037 -0.0878,-0.08781 -0.175568,-0.124465 -0.299324,-0.124465 z m 7.480664,0 c -0.115152,0 -0.200003,0.03547 -0.288999,0.124465 -0.0013,0.0013 -0.0024,0.0024 -0.0037,0.0037 -0.08519,0.08016 -0.120823,0.162209 -0.120823,0.285966 v 6.07512 c 0,0.115152 0.03548,0.200003 0.124466,0.289003 0.089,0.08899 0.173845,0.124465 0.288999,0.124465 0.123757,0 0.205796,-0.03565 0.28597,-0.120826 0.0013,-0.0013 0.0024,-0.0024 0.0037,-0.0037 0.089,-0.089 0.124465,-0.173848 0.124465,-0.289003 v -0.862152 c -3.8e-5,-0.04676 0.01905,-0.09151 0.05282,-0.123858 l 0.697612,-0.667254 c 0.06832,-0.065 0.176335,-0.06257 0.241645,0.0055 l 1.865762,1.936802 c 0.089,0.08899 0.17385,0.124464 0.289004,0.124464 0.0024,-5.1e-5 0.0048,-5.1e-5 0.0073,0 0.12218,0.0051 0.206022,-0.0275 0.292647,-0.114142 0.089,-0.089 0.124465,-0.173847 0.124465,-0.289002 -5.3e-5,-0.0024 -5.3e-5,-0.0048 0,-0.0073 0.0051,-0.122177 -0.02751,-0.206022 -0.114142,-0.292642 -9.33e-4,-9.33e-4 -0.0015,-0.0015 -0.0024,-0.0024 l -1.857265,-1.928906 c -0.066,-0.0683 -0.06381,-0.177252 0.0048,-0.242859 l 1.446834,-1.385511 c 3.1e-4,-2.04e-4 9.33e-4,-3.1e-4 0.0013,-6.21e-4 0.08771,-0.08253 0.126047,-0.165934 0.131145,-0.282928 0.0051,-0.122181 -0.02812,-0.206027 -0.114752,-0.292647 -0.089,-0.089 -0.181069,-0.128956 -0.30661,-0.134179 -0.113449,-0.005 -0.194514,0.02633 -0.282323,0.114142 -9.33e-4,9.33e-4 -0.0018,0.0015 -0.0031,0.0024 l -2.185732,2.083729 c -0.109207,0.103321 -0.289034,0.02586 -0.289003,-0.124465 v -3.591277 c 0,-0.123759 -0.03564,-0.205798 -0.120821,-0.285965 -0.0024,-0.0024 -0.005,-0.0048 -0.0073,-0.0073 -0.08017,-0.08518 -0.162213,-0.120821 -0.28597,-0.120821 z m 5.264578,0 c -0.115152,0 -0.200613,0.03547 -0.289608,0.124465 -0.0013,0.0013 -0.0024,0.0024 -0.0037,0.0037 -0.08518,0.08016 -0.120215,0.162209 -0.120215,0.285966 v 4.07396 c 0,0.333796 0.06322,0.644376 0.190643,0.937435 0.128831,0.296315 0.301332,0.550872 0.518505,0.768044 0.217173,0.217169 0.471732,0.389062 0.768044,0.517895 0.293059,0.127418 0.603637,0.191254 0.937434,0.191254 0.341053,0 0.655108,-0.06402 0.947758,-0.191254 0.296311,-0.128833 0.550868,-0.300726 0.768041,-0.517895 0.217176,-0.217172 0.389675,-0.471729 0.518504,-0.768044 0.127419,-0.293059 0.190644,-0.603639 0.190644,-0.937435 0,-0.341053 -0.06341,-0.655107 -0.190644,-0.947757 -0.128829,-0.296311 -0.301328,-0.550868 -0.518504,-0.768041 -0.217173,-0.217173 -0.47173,-0.389675 -0.768041,-0.518504 -0.29265,-0.127243 -0.606705,-0.190644 -0.947758,-0.190644 -0.243449,0 -0.475077,0.03509 -0.697612,0.105036 -0.0015,3.11e-4 -0.0028,9.32e-4 -0.0043,0.0013 -0.22288,0.06368 -0.428664,0.158278 -0.619291,0.28536 -0.113708,0.07608 -0.266308,-0.0053 -0.266538,-0.142073 V 89.70719 c 0,-0.12376 -0.03504,-0.205798 -0.120216,-0.285967 -0.0024,-0.0024 -0.005,-0.0048 -0.0073,-0.0073 -0.08017,-0.08518 -0.16221,-0.120821 -0.285966,-0.120821 z m 17.137957,0 c -0.115152,0 -0.200613,0.03547 -0.289611,0.124465 -0.0013,0.0013 -0.0024,0.0024 -0.0037,0.0037 -0.08518,0.08016 -0.120216,0.162209 -0.120216,0.285966 v 4.925788 c 0,0.210781 0.03945,0.404745 0.119,0.588327 0.08074,0.186325 0.188425,0.348587 0.323612,0.490576 0.141988,0.135183 0.304253,0.242868 0.490573,0.323607 0.183588,0.07955 0.377548,0.119002 0.588327,0.119002 h 0.205216 c 0.123757,0 0.205796,-0.03504 0.285967,-0.120217 0.0013,-0.0013 0.0024,-0.0024 0.0037,-0.0037 0.089,-0.089 0.124465,-0.174458 0.124465,-0.289609 0,-0.123755 -0.03666,-0.211515 -0.124465,-0.299326 -0.0013,-0.0013 -0.0024,-0.0028 -0.0037,-0.0043 -0.08017,-0.08518 -0.162213,-0.120216 -0.285967,-0.120216 h -0.205211 c -0.181727,0 -0.354557,-0.06705 -0.486323,-0.190035 -0.0015,-0.0013 -0.0028,-0.0024 -0.0043,-0.0037 -0.130882,-0.130881 -0.204001,-0.306129 -0.204001,-0.490576 v -4.925789 c 0,-0.123756 -0.03504,-0.205798 -0.120217,-0.285966 -0.0024,-0.0024 -0.005,-0.0048 -0.0073,-0.0073 -0.08017,-0.08518 -0.162209,-0.120821 -0.285965,-0.120821 z m 14.448907,0 c -0.11514,0 -0.20002,0.03547 -0.28901,0.124465 -0.001,0.0013 -0.002,0.0024 -0.004,0.0037 -0.0852,0.08016 -0.12082,0.162207 -0.12082,0.285966 v 6.07512 c 0,0.115152 0.0355,0.200003 0.12446,0.289003 0.089,0.08899 0.17386,0.124465 0.28901,0.124465 0.12376,0 0.20579,-0.03565 0.28597,-0.120826 10e-4,-0.0013 0.002,-0.0024 0.003,-0.0037 0.089,-0.089 0.12448,-0.173848 0.12448,-0.289003 v -0.862152 c -4e-5,-0.04676 0.019,-0.09151 0.0529,-0.123858 l 0.69762,-0.667254 c 0.0682,-0.065 0.17634,-0.06257 0.24165,0.0055 l 1.86575,1.936802 c 0.089,0.08899 0.17385,0.124464 0.289,0.124464 0.002,-5.1e-5 0.005,-5.1e-5 0.007,0 0.12218,0.0051 0.20603,-0.0275 0.29264,-0.114142 0.089,-0.089 0.12447,-0.173844 0.12447,-0.289002 -4e-5,-0.0024 -4e-5,-0.0048 0,-0.0073 0.005,-0.122177 -0.0275,-0.206022 -0.11409,-0.292642 -9.3e-4,-9.33e-4 -10e-4,-0.0015 -0.002,-0.0024 l -1.85725,-1.928906 c -0.066,-0.0683 -0.0639,-0.177252 0.005,-0.242859 l 1.44682,-1.385511 c 3.1e-4,-2.04e-4 9.4e-4,-3.1e-4 10e-4,-6.21e-4 0.0877,-0.08253 0.12608,-0.165934 0.13114,-0.282928 0.005,-0.122181 -0.0281,-0.206027 -0.11479,-0.292647 -0.089,-0.089 -0.18105,-0.128956 -0.3066,-0.134179 -0.11349,-0.005 -0.19451,0.02633 -0.28233,0.114142 -9.2e-4,9.33e-4 -10e-4,0.0015 -0.002,0.0024 l -2.18634,2.083729 c -0.10926,0.103321 -0.28904,0.02586 -0.289,-0.124465 v -3.591277 c 0,-0.123755 -0.0356,-0.205798 -0.12083,-0.285965 -0.002,-0.0024 -0.005,-0.0048 -0.007,-0.0073 -0.0801,-0.08518 -0.1622,-0.120821 -0.28595,-0.120821 z m 5.51108,0 c -0.17969,0 -0.31176,0.05432 -0.4329,0.175465 -9.4e-4,9.32e-4 -0.002,0.0022 -0.003,0.0031 -0.11908,0.113661 -0.17304,0.240468 -0.17304,0.420145 0,0.179681 0.055,0.311745 0.17607,0.432896 0.12116,0.121152 0.25323,0.175465 0.43291,0.175465 0.17156,0 0.3005,-0.0534 0.42256,-0.175465 0.12116,-0.121151 0.17547,-0.253215 0.17547,-0.432896 0,-0.179677 -0.0534,-0.306479 -0.17243,-0.420145 -9.3e-4,-9.32e-4 -0.002,-0.0018 -0.003,-0.0031 -0.12207,-0.122072 -0.25101,-0.175465 -0.42257,-0.175465 z m 11.84241,1.929514 c -0.11764,0 -0.19884,0.0337 -0.2793,0.114142 -0.001,0.0013 -0.002,0.0024 -0.003,0.0037 -0.0802,0.07518 -0.1206,0.158613 -0.13113,0.279896 -0.0118,0.12909 -0.15644,0.199292 -0.26473,0.128107 -0.18389,-0.120485 -0.3907,-0.216224 -0.62293,-0.28718 -6.2e-4,3e-6 -0.001,3e-6 -0.002,0 -0.22254,-0.06994 -0.45416,-0.105036 -0.69761,-0.105036 -0.3338,0 -0.64438,0.06322 -0.93745,0.190643 -0.2963,0.128829 -0.55086,0.301332 -0.76803,0.518505 -0.21718,0.217173 -0.38968,0.47173 -0.51851,0.768041 -0.12724,0.292649 -0.19064,0.606704 -0.19064,0.947757 0,0.333796 0.0633,0.644375 0.19064,0.937434 0.12883,0.296316 0.30133,0.550873 0.51851,0.768045 0.21717,0.217169 0.47173,0.389062 0.76803,0.517895 0.29307,0.127418 0.60365,0.191254 0.93745,0.191254 0.24408,0 0.47644,-0.03186 0.69943,-0.09532 l 6.2e-4,-6.22e-4 c 0.2305,-0.07051 0.43569,-0.168259 0.61868,-0.294465 0.11362,-0.07889 0.2691,0.0024 0.26897,0.140856 v 0.04128 c 0,0.213582 -0.0431,0.4191 -0.1275,0.611398 -0.0827,0.195233 -0.1979,0.364131 -0.34365,0.503326 -0.13852,0.145541 -0.30427,0.262163 -0.49361,0.345467 -0.19338,0.08509 -0.40287,0.126893 -0.62293,0.126893 -0.2439,0 -0.47725,-0.05404 -0.69215,-0.161501 -0.21125,-0.105624 -0.3925,-0.247742 -0.53793,-0.423788 -9.4e-4,-9.33e-4 -0.001,-0.0018 -0.002,-0.0031 -0.0769,-0.09741 -0.15748,-0.140981 -0.2799,-0.151177 0,0 -6.3e-4,0 -6.3e-4,0 -0.11892,-0.01034 -0.20798,0.01669 -0.29992,0.08803 -0.0982,0.07764 -0.14382,0.159462 -0.15968,0.272608 -0.009,0.122851 0.0186,0.218096 0.0959,0.316325 v 6.22e-4 c 0.2239,0.274501 0.49306,0.490095 0.81297,0.650255 l 10e-4,6.23e-4 c 0.32474,0.15897 0.67627,0.238609 1.06251,0.238609 0.34105,0 0.6551,-0.06401 0.94776,-0.19125 0.29629,-0.128829 0.55086,-0.300722 0.76803,-0.517899 0.21716,-0.217171 0.38967,-0.471728 0.51851,-0.76804 0.12741,-0.293066 0.19064,-0.603637 0.19064,-0.937438 v -4.351425 c 0,-0.115164 -0.0349,-0.200006 -0.12386,-0.289002 -0.0877,-0.08781 -0.17618,-0.124466 -0.29993,-0.124466 z m -57.981387,0.133573 c -0.333798,0 -0.644372,0.06322 -0.937438,0.190645 -0.296311,0.128829 -0.550868,0.301332 -0.76804,0.518504 -0.217176,0.217172 -0.389069,0.471729 -0.517899,0.768041 -0.127238,0.292649 -0.19125,0.606705 -0.19125,0.947759 0,0.333794 0.06383,0.644374 0.19125,0.937433 0.12883,0.296314 0.300723,0.550871 0.517899,0.768044 0.217172,0.217171 0.471729,0.389064 0.76804,0.517896 0.293066,0.127418 0.60364,0.191252 0.937438,0.191252 0.308683,0 0.594372,-0.05109 0.860934,-0.152395 l 6.23e-4,-6.22e-4 c 0.276537,-0.109431 0.518401,-0.255613 0.728577,-0.440184 v -6.21e-4 h 6.21e-4 c 0.09333,-0.0832 0.131637,-0.164463 0.136611,-0.27868 1.58e-4,-0.0022 3.1e-4,-0.0045 6.21e-4,-0.0067 0.01034,-0.124149 -0.01887,-0.213566 -0.09349,-0.30418 -0.08146,-0.09054 -0.164758,-0.131543 -0.286575,-0.136611 -0.0024,-1.39e-4 -0.0053,-3.1e-4 -0.0078,-6.21e-4 -0.114237,-0.01 -0.198613,0.01775 -0.292038,0.100784 -0.139349,0.123865 -0.302451,0.220668 -0.484503,0.289004 h -6.21e-4 c -0.177078,0.06894 -0.366047,0.103215 -0.562824,0.103215 -0.317244,0 -0.610911,-0.08529 -0.864578,-0.254395 -9.33e-4,-6.22e-4 -0.0022,-0.0013 -0.0031,-0.0018 -0.248837,-0.173432 -0.441549,-0.400475 -0.57011,-0.67272 -0.05391,-0.113671 0.02903,-0.244723 0.15482,-0.244679 h 2.996882 c 0.100062,0 0.190924,-0.01931 0.278074,-0.05708 0.09423,-0.0448 0.172698,-0.104038 0.238609,-0.18093 0.142246,-0.164988 0.19304,-0.337783 0.164535,-0.562827 -0.04488,-0.285866 -0.138739,-0.550815 -0.28475,-0.798399 -6.22e-4,-9.32e-4 -0.0013,-0.0015 -0.0018,-0.0024 -0.141124,-0.250176 -0.315619,-0.46282 -0.525791,-0.641148 -9.33e-4,-9.33e-4 -0.0015,-0.0015 -0.0024,-0.0024 -0.20979,-0.184361 -0.450848,-0.327198 -0.726756,-0.429859 -0.0015,-6.21e-4 -0.0028,-0.0013 -0.0043,-0.0018 -0.266745,-0.107962 -0.548506,-0.161501 -0.8494,-0.161501 z m 16.645557,0 c -0.333794,0 -0.644372,0.06322 -0.937435,0.190645 -0.29631,0.128829 -0.55087,0.301332 -0.768042,0.518504 -0.217173,0.217172 -0.389672,0.471729 -0.518505,0.768041 -0.127233,0.292649 -0.191251,0.606705 -0.191251,0.947759 0,0.333794 0.06383,0.644374 0.191251,0.937433 0.128833,0.296314 0.301332,0.550871 0.518505,0.768044 0.217172,0.217171 0.471732,0.389064 0.768042,0.517896 0.293063,0.127418 0.603641,0.191252 0.937435,0.191252 0.308691,0 0.593769,-0.05109 0.860329,-0.152395 l 6.22e-4,-6.22e-4 c 0.276537,-0.109431 0.518404,-0.255613 0.728577,-0.440184 v -6.21e-4 h 6.21e-4 c 0.09333,-0.0832 0.13224,-0.164463 0.137214,-0.27868 -4.4e-5,-0.0022 -4.4e-5,-0.0045 0,-0.0067 0.01034,-0.124149 -0.01887,-0.213566 -0.09349,-0.30418 -0.08147,-0.09054 -0.164762,-0.131543 -0.286572,-0.136611 -0.0024,-1.39e-4 -0.0053,-3.1e-4 -0.0078,-6.21e-4 -0.114236,-0.01 -0.198611,0.01775 -0.292037,0.100784 -0.139348,0.123865 -0.301844,0.220668 -0.483897,0.289004 h -6.21e-4 c -0.177082,0.06894 -0.366047,0.103215 -0.562827,0.103215 -0.317245,0 -0.610908,-0.08529 -0.864578,-0.254395 -9.32e-4,-6.22e-4 -0.0022,-0.0013 -0.0031,-0.0018 -0.248841,-0.173432 -0.441552,-0.400475 -0.570115,-0.67272 -0.0539,-0.113671 0.02903,-0.244723 0.154825,-0.244679 h 2.996272 c 0.100529,0 0.19177,-0.01955 0.27929,-0.05767 0.09386,-0.04475 0.171668,-0.10365 0.237393,-0.180324 0,0 6.22e-4,0 6.22e-4,0 0.142405,-0.165199 0.193292,-0.337966 0.164537,-0.563432 -0.04491,-0.285652 -0.139447,-0.550377 -0.285358,-0.797793 -6.23e-4,-9.33e-4 -0.0013,-0.0015 -0.0018,-0.0024 -0.141121,-0.250173 -0.315615,-0.46282 -0.525791,-0.641147 -9.32e-4,-9.34e-4 -0.0015,-0.0015 -0.0024,-0.0024 -0.20979,-0.184365 -0.450244,-0.327198 -0.726149,-0.429859 -0.0015,-6.21e-4 -0.0033,-0.0013 -0.0048,-0.0018 -0.266745,-0.107962 -0.547895,-0.1615 -0.848793,-0.1615 z m 5.736333,0 c -0.333798,0 -0.644372,0.06322 -0.937439,0.190645 -0.29631,0.128829 -0.550867,0.301332 -0.768041,0.518504 -0.217175,0.217172 -0.389673,0.471729 -0.518503,0.768041 -0.127241,0.292649 -0.190644,0.606705 -0.190644,0.947759 v 4.20753 c 0,0.123756 0.03503,0.205189 0.120215,0.28536 0.0013,0.0013 0.0024,0.0024 0.0037,0.0037 0.089,0.089 0.174452,0.124464 0.289609,0.124464 0.123754,0 0.205793,-0.03564 0.285966,-0.120821 0.0024,-0.0024 0.0048,-0.005 0.0073,-0.0073 0.08518,-0.08017 0.120212,-0.161604 0.120212,-0.28536 v -2.042443 c -2.54e-4,-0.13708 0.152608,-0.218908 0.266541,-0.142679 0.19119,0.127462 0.397952,0.226384 0.621719,0.296895 0.222985,0.06347 0.455344,0.09532 0.699434,0.09532 0.341051,0 0.655112,-0.06402 0.947755,-0.191253 0.296312,-0.128833 0.550871,-0.300726 0.768044,-0.517895 0.217173,-0.217173 0.389674,-0.47173 0.518504,-0.768043 0.127419,-0.293061 0.190644,-0.603641 0.190644,-0.937436 0,-0.341053 -0.06341,-0.655108 -0.190644,-0.947758 -0.12883,-0.29631 -0.301331,-0.550867 -0.518504,-0.76804 -0.217189,-0.217165 -0.471747,-0.389666 -0.76806,-0.518496 -0.292642,-0.127241 -0.606704,-0.190644 -0.947755,-0.190644 z m 8.446029,0 c -0.333795,0 -0.644371,0.06322 -0.937437,0.190645 -0.296305,0.128829 -0.551475,0.301332 -0.768647,0.518504 -0.217173,0.217172 -0.389066,0.471729 -0.517899,0.768041 -0.127237,0.292649 -0.191249,0.606705 -0.191249,0.947759 0,0.333794 0.06383,0.644374 0.191249,0.937433 0.128833,0.296314 0.300726,0.550871 0.517899,0.768044 0.217172,0.217171 0.472338,0.389064 0.768647,0.517896 0.293066,0.127418 0.60364,0.191252 0.937437,0.191252 0.250715,0 0.485843,-0.03523 0.707933,-0.105036 3.11e-4,-2.05e-4 9.33e-4,-3.11e-4 0.0013,-6.21e-4 0.231266,-0.07066 0.441049,-0.168959 0.632043,-0.296287 0.097,-0.06506 0.229282,-0.01604 0.260462,0.09653 0.025,0.09005 0.0696,0.157988 0.14694,0.219791 0.0736,0.05891 0.14999,0.0856 0.25257,0.0856 0.12376,0 0.21151,-0.03666 0.29932,-0.124465 0.089,-0.089 0.12446,-0.173847 0.12446,-0.289004 v -2.001151 c 0,-0.341053 -0.0641,-0.655108 -0.19124,-0.947758 -0.12883,-0.296311 -0.30073,-0.550867 -0.51791,-0.76804 -0.21717,-0.217173 -0.472336,-0.389675 -0.768638,-0.518505 -0.292649,-0.127241 -0.606101,-0.190644 -0.947155,-0.190644 z m 5.849258,0 c -0.33379,0 -0.64437,0.06322 -0.93743,0.190645 -0.29631,0.128829 -0.55087,0.301332 -0.76804,0.518504 -0.21718,0.217172 -0.38968,0.471729 -0.51851,0.768041 -0.12724,0.292649 -0.19064,0.606705 -0.19064,0.947759 v 2.001158 c 0,0.115152 0.0349,0.200003 0.12386,0.289002 0.089,0.08899 0.17445,0.124465 0.2896,0.124465 0.12376,0 0.2058,-0.03565 0.28597,-0.120824 10e-4,-0.0013 0.002,-0.0024 0.004,-0.0037 0.089,-0.089 0.12386,-0.173848 0.12386,-0.289004 v -2.001154 c 0,-0.220056 0.0424,-0.430161 0.1275,-0.623541 0.0831,-0.188687 0.19448,-0.354162 0.33332,-0.493003 0.14486,-0.144861 0.31427,-0.260193 0.50394,-0.343646 6.2e-4,-3.12e-4 0.001,-9.34e-4 0.002,-0.0013 0.1982,-0.08385 0.40713,-0.126287 0.62111,-0.126287 0.22005,0 0.42955,0.04241 0.62293,0.127499 0.18895,0.08313 0.35463,0.198514 0.493,0.343645 0.14514,0.138373 0.26112,0.30405 0.34426,0.493006 0.0851,0.193379 0.1275,0.403482 0.1275,0.623541 v 2.001158 c 0,0.115152 0.0349,0.200003 0.12386,0.289003 0.089,0.08899 0.17446,0.124464 0.28961,0.124464 0.12375,0 0.21151,-0.03665 0.29932,-0.124464 0.089,-0.089 0.12447,-0.173849 0.12447,-0.289003 v -2.001158 c 0,-0.341053 -0.0641,-0.65511 -0.19125,-0.947759 -0.12884,-0.296312 -0.30073,-0.550869 -0.5179,-0.768041 -0.21717,-0.217173 -0.47173,-0.389675 -0.76804,-0.518505 -0.29264,-0.12724 -0.60671,-0.190644 -0.94776,-0.190644 z m 9.4618,0 c -0.12273,0 -0.21044,0.03641 -0.29751,0.122643 -0.0804,0.08635 -0.11656,0.17606 -0.11656,0.301146 v 4.002318 c 0,0.116632 0.035,0.202755 0.11656,0.290214 0.087,0.08622 0.17478,0.123253 0.29751,0.123253 0.11513,0 0.2,-0.03547 0.289,-0.124465 0.089,-0.089 0.12445,-0.173848 0.12445,-0.289002 v -4.002318 c 0,-0.123756 -0.0367,-0.212121 -0.12445,-0.299933 -0.089,-0.089 -0.17385,-0.123856 -0.289,-0.123856 z m 4.08427,0 c -0.33379,0 -0.64437,0.06322 -0.93743,0.190645 -0.29631,0.128829 -0.55088,0.301332 -0.76805,0.518504 -0.21717,0.217172 -0.38966,0.471729 -0.51851,0.768041 -0.12724,0.292649 -0.19064,0.606705 -0.19064,0.947759 v 2.001158 c 0,0.115152 0.0349,0.200003 0.12387,0.289002 0.089,0.08899 0.17444,0.124465 0.28961,0.124465 0.12375,0 0.20578,-0.03565 0.28596,-0.120824 0.001,-0.0013 0.002,-0.0024 0.003,-0.0037 0.089,-0.089 0.12386,-0.173848 0.12386,-0.289004 v -2.001154 c 0,-0.220056 0.0424,-0.430161 0.1275,-0.623541 0.0831,-0.188687 0.19448,-0.354162 0.33333,-0.493003 0.14486,-0.144861 0.31425,-0.260193 0.50394,-0.343646 6.1e-4,-3.12e-4 0.001,-9.34e-4 0.002,-0.0013 0.19819,-0.08385 0.40712,-0.126287 0.6211,-0.126287 0.22007,0 0.42957,0.04241 0.62294,0.127499 0.18896,0.08313 0.35464,0.198514 0.49301,0.343645 0.14513,0.138373 0.26111,0.30405 0.34425,0.493006 0.0851,0.193379 0.12689,0.403482 0.12689,0.623541 v 2.001158 c 0,0.115152 0.0355,0.200003 0.12447,0.289003 0.089,0.08899 0.17445,0.124464 0.28962,0.124464 0.12375,0 0.2115,-0.03665 0.29931,-0.124464 0.089,-0.089 0.12447,-0.173849 0.12447,-0.289003 v -2.001158 c 0,-0.341053 -0.0641,-0.65511 -0.19125,-0.947759 -0.12883,-0.296312 -0.30073,-0.550869 -0.5179,-0.768041 -0.21716,-0.217173 -0.47173,-0.389675 -0.76805,-0.518505 -0.29264,-0.12724 -0.6067,-0.190644 -0.94776,-0.190644 z m -55.928615,0.837257 c 0.220058,0 0.429556,0.04241 0.622935,0.127499 0.188953,0.08313 0.354632,0.198516 0.493001,0.343646 0.145131,0.138373 0.26051,0.30405 0.343646,0.493006 0.08509,0.193379 0.127503,0.403482 0.127503,0.623541 0,0.213986 -0.04244,0.422307 -0.126287,0.620503 -3.11e-4,9.33e-4 -9.32e-4,0.0015 -0.0013,0.0024 -0.08346,0.189668 -0.19818,0.359074 -0.343038,0.503935 -0.138845,0.138845 -0.304922,0.250301 -0.493609,0.333322 -0.19338,0.08508 -0.402881,0.126895 -0.622935,0.126895 -0.21399,0 -0.422919,-0.04244 -0.621113,-0.126286 -9.34e-4,-1.98e-4 -0.0015,-3.1e-4 -0.0024,-6.21e-4 -0.187917,-0.08268 -0.355719,-0.193327 -0.500287,-0.330289 -0.0022,-0.0022 -0.0045,-0.0044 -0.0067,-0.0067 -0.136959,-0.144568 -0.246999,-0.312373 -0.329679,-0.500291 -3.1e-4,-9.33e-4 -9.33e-4,-0.0015 -0.0013,-0.0024 -0.08385,-0.198195 -0.126287,-0.406517 -0.126287,-0.620503 0,-0.220058 0.04241,-0.430161 0.127501,-0.623541 0.08302,-0.18869 0.194477,-0.354163 0.333322,-0.493006 0.144861,-0.14486 0.313655,-0.260193 0.503326,-0.343646 9.33e-4,-3.1e-4 0.0015,-9.31e-4 0.0024,-0.0013 0.198195,-0.08385 0.407123,-0.126287 0.621113,-0.126287 z m 5.705368,0 c 0.317723,0 0.611924,0.09066 0.865184,0.266539 0.25581,0.166364 0.454051,0.390227 0.582862,0.663002 0.05328,0.113496 -0.02945,0.243908 -0.154824,0.244076 H 24.44312 c -0.125385,-1.68e-4 -0.208101,-0.130574 -0.154821,-0.244076 0.128447,-0.272005 0.322038,-0.496258 0.571325,-0.663002 0.253478,-0.17633 0.548266,-0.266539 0.866401,-0.266539 z m 11.042191,0 c 0.220059,0 0.429553,0.04241 0.622936,0.127499 0.189325,0.08329 0.35507,0.199321 0.49361,0.344862 0.14479,0.138233 0.260643,0.303147 0.343647,0.49179 0.08509,0.193379 0.127499,0.403482 0.127499,0.623541 0,0.213986 -0.04305,0.422307 -0.126893,0.620503 -1.96e-4,9.33e-4 -3.11e-4,0.0015 -6.21e-4,0.0024 -0.08346,0.189668 -0.198789,0.359074 -0.343647,0.503935 -0.138845,0.138842 -0.304926,0.250301 -0.493612,0.333322 -0.193382,0.08508 -0.40288,0.126895 -0.622934,0.126895 -0.213986,0 -0.422914,-0.04244 -0.621112,-0.126286 -6.23e-4,-1.98e-4 -0.0013,-3.1e-4 -0.0018,-6.21e-4 -0.187915,-0.08268 -0.355719,-0.193327 -0.500288,-0.330289 -0.0022,-0.0022 -0.0045,-0.0044 -0.0067,-0.0067 -0.136955,-0.144568 -0.247602,-0.312373 -0.330288,-0.500291 -2.08e-4,-9.33e-4 -3.1e-4,-0.0015 -6.21e-4,-0.0024 -0.08385,-0.198195 -0.126893,-0.406517 -0.126893,-0.620503 0,-0.220058 0.04241,-0.430161 0.127499,-0.623541 0.08303,-0.18869 0.19448,-0.354163 0.333325,-0.493006 0.144861,-0.14486 0.314267,-0.260193 0.503931,-0.343646 6.22e-4,-3.1e-4 0.0013,-9.31e-4 0.0018,-0.0013 0.198198,-0.08385 0.407122,-0.126287 0.621112,-0.126287 z m 5.603366,0 c 0.317727,0 0.61193,0.09066 0.865186,0.266539 0.255808,0.166364 0.453443,0.390227 0.582254,0.663002 0.05328,0.113496 -0.02945,0.243908 -0.154823,0.244076 h -2.575518 c -0.125387,-1.68e-4 -0.208105,-0.130574 -0.154825,-0.244076 0.128448,-0.272005 0.322042,-0.496258 0.571326,-0.663002 0.253481,-0.17633 0.548267,-0.266539 0.8664,-0.266539 z m 5.736333,0 c 0.220051,0 0.429551,0.04241 0.622931,0.127499 0.18933,0.08329 0.355072,0.199321 0.493611,0.344862 0.144792,0.138233 0.260643,0.303147 0.343645,0.49179 0.08509,0.193379 0.127502,0.403482 0.127502,0.623541 0,0.213986 -0.04305,0.422307 -0.126896,0.620503 -1.95e-4,9.33e-4 -3.1e-4,0.0015 -6.21e-4,0.0024 -0.08346,0.189668 -0.198785,0.359074 -0.343646,0.503935 -0.138842,0.138842 -0.304925,0.250301 -0.493611,0.333322 -0.193379,0.08508 -0.402879,0.126895 -0.622931,0.126895 -0.21399,0 -0.422919,-0.04244 -0.621113,-0.126286 -6.22e-4,-1.98e-4 -0.0013,-3.1e-4 -0.0018,-6.21e-4 -0.187914,-0.08268 -0.35572,-0.193331 -0.500291,-0.330289 -0.0022,-0.0022 -0.0045,-0.0044 -0.0067,-0.0067 -0.136958,-0.144568 -0.247606,-0.312373 -0.330288,-0.500291 -2.08e-4,-9.33e-4 -3.11e-4,-0.0015 -6.21e-4,-0.0024 -0.08385,-0.198195 -0.126897,-0.406517 -0.126897,-0.620503 0,-0.220058 0.04241,-0.430161 0.127503,-0.623541 0.08302,-0.18869 0.194479,-0.354163 0.333324,-0.493006 0.144861,-0.14486 0.314264,-0.260193 0.503933,-0.343646 6.21e-4,-3.1e-4 0.0013,-9.31e-4 0.0018,-0.0013 0.198197,-0.08385 0.407124,-0.126287 0.621113,-0.126287 z m 8.446029,0 c 0.220057,0 0.429555,0.04241 0.622931,0.127499 0.188956,0.08313 0.354631,0.198516 0.493006,0.343646 0.145126,0.138373 0.260511,0.30405 0.343644,0.493006 0.08511,0.193379 0.127507,0.403482 0.127507,0.623541 0,0.213986 -0.0424,0.422307 -0.126287,0.620503 -3.15e-4,9.33e-4 -9.36e-4,0.0015 -10e-4,0.0024 -0.08348,0.189668 -0.198182,0.359074 -0.343044,0.503935 -0.138842,0.138845 -0.304924,0.250301 -0.493612,0.333322 -0.193375,0.08508 -0.402873,0.126895 -0.622931,0.126895 -0.213989,0 -0.422915,-0.04244 -0.621113,-0.126286 -9.33e-4,-1.98e-4 -0.0015,-3.1e-4 -0.0024,-6.21e-4 -0.187917,-0.08268 -0.355722,-0.193327 -0.500291,-0.330289 -0.0022,-0.0022 -0.0045,-0.0044 -0.0067,-0.0067 -0.136958,-0.144568 -0.246997,-0.312373 -0.329682,-0.500291 -3.11e-4,-9.33e-4 -9.33e-4,-0.0015 -0.0013,-0.0024 -0.08385,-0.198195 -0.126287,-0.406517 -0.126287,-0.620503 0,-0.220058 0.04241,-0.430161 0.127499,-0.623541 0.08302,-0.18869 0.194479,-0.354163 0.333325,-0.493006 0.144857,-0.14486 0.313657,-0.260193 0.503326,-0.343646 9.31e-4,-3.1e-4 0.0015,-9.31e-4 0.0024,-0.0013 0.198197,-0.08385 0.407123,-0.126287 0.621113,-0.126287 z m 25.152298,0 c 0.22007,0 0.42956,0.04241 0.62294,0.127499 0.18933,0.08329 0.35508,0.199321 0.49361,0.344862 0.1448,0.138233 0.26064,0.303147 0.34365,0.49179 0.0851,0.193379 0.1275,0.403482 0.1275,0.623541 0,0.213986 -0.043,0.422307 -0.12689,0.620503 -2e-4,9.33e-4 -3.1e-4,0.0015 -6.2e-4,0.0024 -0.0835,0.189668 -0.1988,0.359074 -0.34365,0.503935 -0.13884,0.138845 -0.30493,0.250301 -0.49361,0.333322 -0.19338,0.08508 -0.40287,0.126895 -0.62294,0.126895 -0.21398,0 -0.42291,-0.04244 -0.62111,-0.126286 -6.2e-4,-1.98e-4 -0.001,-3.1e-4 -0.002,-6.21e-4 -0.18791,-0.08268 -0.35571,-0.193327 -0.50028,-0.330289 -0.002,-0.0022 -0.005,-0.0044 -0.007,-0.0067 -0.13697,-0.144568 -0.24761,-0.312373 -0.3303,-0.500291 -2.1e-4,-9.33e-4 -3e-4,-0.0015 -6.2e-4,-0.0024 -0.0839,-0.198195 -0.12689,-0.406517 -0.12689,-0.620503 0,-0.220058 0.0424,-0.430161 0.1275,-0.623541 0.0831,-0.18869 0.19448,-0.354163 0.33332,-0.493006 0.14487,-0.14486 0.31426,-0.260193 0.50394,-0.343646 6.3e-4,-3.1e-4 0.001,-9.31e-4 0.002,-0.0013 0.1982,-0.08385 0.40713,-0.126287 0.62111,-0.126287 z"
     style="-inkscape-font-specification:'Boldena, Normal';clip-rule:nonzero;fill:#000080;fill-rule:nonzero;stroke-width:0.310859;stroke-linejoin:miter;stroke-miterlimit:2"
     id="path13" /></svg>
