<?xml version="1.0" encoding="UTF-8" standalone="no"?>
<svg
   width="350.70752"
   height="716.40771"
   viewBox="0 0 350.70752 716.40771"
   version="1.1"
   xml:space="preserve"
   style="clip-rule:evenodd;fill-rule:evenodd;stroke-linejoin:round;stroke-miterlimit:2"
   id="svg4"
   xmlns="http://www.w3.org/2000/svg"
   xmlns:svg="http://www.w3.org/2000/svg"><defs
   id="defs4"><rect
     x="-108.84421"
     y="2.0536644"
     width="88.307571"
     height="605.83099"
     id="rect8" /></defs>&#10;    &#10;    &#10;    &#10;    &#10;<rect
   style="clip-rule:evenodd;fill:#ffffff;fill-rule:evenodd;stroke-width:1.95565;stroke-linejoin:round;stroke-miterlimit:2"
   id="rect1"
   width="344.246"
   height="707.49683"
   x="-0.46789366"
   y="8.4943075" /><g
   id="g5"
   transform="matrix(4.8556724,0,0,4.8556724,58.888022,594.59842)"><path
     d="m 6.4533293,10.483282 c -0.099011,0 -0.1925326,0.01851 -0.2805407,0.05548 -0.084348,0.03698 -0.1595014,0.0887 -0.2255077,0.155272 -0.066,0.06655 -0.1173099,0.14425 -0.1539891,0.23299 -0.036663,0.08505 -0.055025,0.177441 -0.055025,0.277274 v 0.854235 c 0,0.09984 0.018362,0.193958 0.055025,0.282697 0.036681,0.08503 0.087972,0.161012 0.1539891,0.227568 0.066001,0.06655 0.1411693,0.118287 0.2255077,0.155272 0.088003,0.03698 0.1815326,0.05548 0.2805407,0.05548 h 2.5302429 c 0.033009,0 0.060459,0.01279 0.082459,0.03868 0.025671,0.02218 0.038537,0.05005 0.038537,0.08332 v 0.854056 c 0,0.03328 -0.012866,0.06287 -0.038537,0.08875 -0.022,0.02218 -0.04945,0.03325 -0.082459,0.03325 H 6.4533293 c -0.033008,0 -0.062347,-0.01108 -0.088019,-0.03325 -0.022,-0.02588 -0.032977,-0.05547 -0.032977,-0.08875 v -0.232983 h -0.594064 v 0.23299 c 0,0.09984 0.018362,0.194137 0.055025,0.282878 0.036664,0.08503 0.087972,0.16083 0.1539871,0.227386 0.066002,0.06655 0.1411693,0.118288 0.2255079,0.155272 0.088003,0.03698 0.1815326,0.05548 0.2805407,0.05548 h 2.530243 c 0.099011,0 0.1906416,-0.01851 0.274983,-0.05548 0.088001,-0.03697 0.1650588,-0.0887 0.2310655,-0.155272 0.066,-0.06655 0.1173102,-0.142345 0.1539891,-0.227386 0.036664,-0.08873 0.055025,-0.183045 0.055025,-0.282878 v -0.854056 c 0,-0.09984 -0.018362,-0.192411 -0.055025,-0.277455 -0.036665,-0.08873 -0.087972,-0.166253 -0.1539892,-0.232809 -0.066,-0.06655 -0.1430587,-0.118478 -0.2310655,-0.155446 -0.084348,-0.03697 -0.1759743,-0.05531 -0.274983,-0.05531 H 6.4533304 c -0.033008,0 -0.062347,-0.01108 -0.088019,-0.03325 -0.021999,-0.02588 -0.032975,-0.05547 -0.032975,-0.08875 v -0.854233 c 0,-0.03328 0.010988,-0.06098 0.032975,-0.08315 0.025672,-0.02588 0.055009,-0.03886 0.088019,-0.03886 h 2.5302433 c 0.033009,0 0.060459,0.01297 0.082459,0.03886 0.025671,0.02218 0.038536,0.04986 0.038536,0.08315 v 0.232991 H 9.698634 v -0.232991 c 0,-0.09983 -0.018362,-0.192229 -0.055025,-0.277273 C 9.606946,10.838291 9.555638,10.760596 9.4896218,10.69404 9.4236208,10.62749 9.346563,10.575753 9.2585564,10.538769 9.1742084,10.501799 9.0825818,10.483289 8.9835731,10.483289 Z"
     style="font-size:15.8567px;font-family:Orbitron;-inkscape-font-specification:'Orbitron, Normal';baseline-shift:baseline;display:inline;overflow:visible;vector-effect:none;fill:#37b5fd;stroke-width:0.34833;paint-order:markers fill stroke;enable-background:accumulate;stop-color:#000000;stop-opacity:1"
     id="path20-2" /><path
     d="m 10.991276,10.483282 c -0.09901,0 -0.192534,0.01851 -0.280544,0.05548 -0.08433,0.03698 -0.159499,0.0887 -0.225505,0.155272 -0.06599,0.06655 -0.117312,0.14425 -0.153987,0.23299 -0.03665,0.08505 -0.05504,0.177441 -0.05504,0.277274 v 2.551321 c 0,0.09984 0.01835,0.194137 0.05504,0.282878 0.03666,0.08504 0.08798,0.16083 0.153987,0.227387 0.06599,0.06655 0.141167,0.118287 0.225505,0.155269 0.08801,0.03698 0.181534,0.05548 0.280544,0.05548 h 2.530241 c 0.09899,0 0.190643,-0.01851 0.274984,-0.05548 0.08801,-0.03697 0.165059,-0.0887 0.231064,-0.155269 0.06599,-0.06655 0.117312,-0.142346 0.153989,-0.227387 0.03665,-0.08873 0.05504,-0.183045 0.05504,-0.282878 v -2.55132 c 0,-0.09983 -0.01835,-0.192229 -0.05504,-0.277273 -0.03665,-0.08874 -0.08798,-0.166435 -0.153989,-0.232991 -0.06599,-0.06655 -0.143059,-0.118287 -0.231064,-0.155271 -0.08434,-0.03697 -0.175974,-0.05548 -0.274984,-0.05548 z m 0,0.599013 h 2.530241 c 0.033,0 0.06044,0.01297 0.08247,0.03886 0.02568,0.02218 0.03854,0.04986 0.03854,0.08315 v 2.551321 c 0,0.03328 -0.01285,0.06287 -0.03854,0.08875 -0.02198,0.02218 -0.04946,0.03325 -0.08247,0.03325 h -2.530241 c -0.033,0 -0.06235,-0.01108 -0.08803,-0.03325 -0.02198,-0.02589 -0.03297,-0.05547 -0.03297,-0.08875 V 11.20431 c 0,-0.03328 0.011,-0.06098 0.03297,-0.08315 0.02569,-0.02588 0.05501,-0.03886 0.08803,-0.03886 z"
     style="font-size:15.8567px;font-family:Orbitron;-inkscape-font-specification:'Orbitron, Normal';baseline-shift:baseline;display:inline;overflow:visible;vector-effect:none;fill:#37b5fd;stroke-width:0.34833;paint-order:markers fill stroke;enable-background:accumulate;stop-color:#000000;stop-opacity:1"
     id="path19-5" /><path
     d="m 14.852518,10.483282 v 3.993364 h 0.594063 v -1.697085 h 2.442226 v -0.599014 h -2.442226 v -1.098252 h 3.036292 v -0.599013 z"
     style="font-size:15.8567px;font-family:Orbitron;-inkscape-font-specification:'Orbitron, Normal';baseline-shift:baseline;display:inline;overflow:visible;vector-effect:none;fill:#37b5fd;stroke-width:0.34833;paint-order:markers fill stroke;enable-background:accumulate;stop-color:#000000;stop-opacity:1"
     id="path18-8" /><path
     d="m 18.840494,10.483282 v 0.599013 h 1.683066 v 3.394351 h 0.59406 v -3.394351 h 1.683067 v -0.599013 z"
     style="font-size:15.8567px;font-family:Orbitron;-inkscape-font-specification:'Orbitron, Normal';baseline-shift:baseline;display:inline;overflow:visible;vector-effect:none;fill:#37b5fd;stroke-width:0.34833;paint-order:markers fill stroke;enable-background:accumulate;stop-color:#000000;stop-opacity:1"
     id="path17-4" /><path
     d="m 23.097898,10.483282 1.441065,3.993364 h 0.478625 l -0.0056,-0.0056 0.01104,0.0056 1.122164,-3.111473 1.127578,3.111473 h 0.483996 l 1.44125,-3.993364 h -0.632605 l -1.050778,2.911922 -1.050459,-2.911922 h -0.632605 l -1.050636,2.911922 -1.050639,-2.911922 z"
     style="font-size:15.8567px;font-family:Orbitron;-inkscape-font-specification:'Orbitron, Normal';baseline-shift:baseline;display:inline;overflow:visible;vector-effect:none;fill:#37b5fd;stroke-width:0.34833;paint-order:markers fill stroke;enable-background:accumulate;stop-color:#000000;stop-opacity:1"
     id="path16-2" /><path
     d="m 30.369547,10.483282 c -0.09904,0 -0.192536,0.01851 -0.28054,0.05548 -0.0844,0.03698 -0.159511,0.0887 -0.225503,0.155272 -0.06598,0.06655 -0.117477,0.14425 -0.154181,0.23299 -0.03669,0.08505 -0.05481,0.177441 -0.05481,0.277274 v 3.272342 h 0.593888 v -1.397578 h 2.772242 v 1.397577 H 33.61471 V 11.2043 c 0,-0.09984 -0.01817,-0.19223 -0.05481,-0.277274 -0.03669,-0.08873 -0.0882,-0.166434 -0.154178,-0.23299 -0.06598,-0.06655 -0.142845,-0.118287 -0.230889,-0.155272 -0.0844,-0.03697 -0.176155,-0.05548 -0.275154,-0.05548 z m 0,0.599013 h 2.530064 c 0.03306,0 0.06062,0.01297 0.08269,0.03886 0.02569,0.02218 0.03844,0.04986 0.03844,0.08315 v 1.275752 h -2.772177 v -1.275752 c 0,-0.03328 0.01104,-0.06098 0.03292,-0.08315 0.02569,-0.02588 0.05498,-0.03886 0.08804,-0.03886 z"
     style="font-size:15.8567px;font-family:Orbitron;-inkscape-font-specification:'Orbitron, Normal';baseline-shift:baseline;display:inline;overflow:visible;vector-effect:none;fill:#37b5fd;stroke-width:0.34833;paint-order:markers fill stroke;enable-background:accumulate;stop-color:#000000;stop-opacity:1"
     id="path15-8" /><path
     d="m 34.236346,10.488885 v 3.987761 h 0.594063 v -1.436439 c 0.01837,0.0037 0.03669,0.0073 0.05496,0.01102 h 0.06598 1.353038 l 1.188139,1.425413 h 0.70413 V 14.3935 L 37.08005,13.051232 h 0.401538 c 0.09904,0 0.190636,-0.01851 0.274984,-0.05548 0.08804,-0.04067 0.165065,-0.0924 0.231059,-0.155272 0.06598,-0.06655 0.117336,-0.142345 0.154016,-0.227387 0.03669,-0.08873 0.05498,-0.183044 0.05498,-0.282878 V 11.20991 c 0,-0.09984 -0.01837,-0.192232 -0.05498,-0.277275 -0.03669,-0.08873 -0.08804,-0.164527 -0.154016,-0.227387 -0.06598,-0.06655 -0.142987,-0.118478 -0.231059,-0.155445 -0.08439,-0.04067 -0.175971,-0.06091 -0.274984,-0.06091 z m 0.715073,0.599014 h 2.530243 c 0.03306,0 0.06046,0.01297 0.08252,0.03886 0.02569,0.02218 0.03858,0.04986 0.03858,0.08315 v 1.120303 c 0,0.03328 -0.01285,0.06287 -0.03858,0.08875 -0.02202,0.02217 -0.04946,0.03327 -0.08252,0.03327 h -2.530249 c -0.03292,0 -0.06237,-0.01108 -0.08804,-0.03327 -0.02204,-0.02588 -0.0329,-0.05547 -0.0329,-0.08875 V 11.20991 c 0,-0.03328 0.01104,-0.06098 0.0329,-0.08315 0.02569,-0.02588 0.05496,-0.03886 0.08806,-0.03886 z"
     style="font-size:15.8567px;font-family:Orbitron;-inkscape-font-specification:'Orbitron, Normal';baseline-shift:baseline;display:inline;overflow:visible;vector-effect:none;fill:#37b5fd;stroke-width:0.34833;paint-order:markers fill stroke;enable-background:accumulate;stop-color:#000000;stop-opacity:1"
     id="path14-5" /><path
     d="m 38.790784,10.483282 v 3.993364 h 3.630177 v -0.599014 h -3.036114 v -1.098071 h 2.442227 v -0.599014 h -2.442227 v -1.098252 h 3.036114 v -0.599014 z"
     style="font-size:15.8567px;font-family:Orbitron;-inkscape-font-specification:'Orbitron, Normal';baseline-shift:baseline;display:inline;overflow:visible;vector-effect:none;fill:#37b5fd;stroke-width:0.34833;paint-order:markers fill stroke;enable-background:accumulate;stop-color:#000000;stop-opacity:1"
     id="path13-9" /><path
     d="M 6.6082092,0 6.0942732,0.01229116 C 5.8005751,0.02463832 5.2621526,0.0740968 4.8950296,0.12345395 4.5279069,0.1728111 4.0750506,0.27138058 3.9037266,0.34541799 3.3652801,0.5551865 2.6677107,1.2586133 2.3984872,1.8509053 2.1537379,2.3691569 2.1415741,2.6529032 2.1048613,6.5398052 2.0926231,8.8102522 2.0436471,10.796984 2.0191741,10.957396 1.8967934,11.500327 1.5296772,11.72234 0.73424466,11.72234 H 0 v 0.802179 0.801998 h 0.73424544 c 0.79543256,0 1.16255506,0.222191 1.28492946,0.765126 0.024473,0.16041 0.073451,2.146966 0.085686,4.41741 0.048945,4.701298 0.041212,4.822407 1.0079742,5.673821 0.6118716,0.555277 1.1212905,0.69324 2.4918812,0.816641 l 1.0034924,0.08639 V 24.345557 23.605194 L 5.8739635,23.531264 C 4.9928687,23.432547 4.5278948,23.210267 4.2097215,22.741372 3.9894476,22.42055 3.9771034,22.05051 3.9159161,18.077236 3.8547292,14.06694 3.8426111,13.733801 3.6101,13.351281 3.4877257,13.141513 3.3364487,12.994302 3.3019536,12.969713 3.2719755,12.948341 3.1260049,12.82957 2.9669181,12.706176 L 2.655545,12.487465 3.0348574,12.290083 C 3.8302893,11.882883 3.8424914,11.759479 3.9159165,6.9718036 3.9770993,2.9985248 3.9894459,2.6283088 4.2097221,2.307486 4.5278954,1.8385881 4.9928689,1.6164928 5.873964,1.5177785 L 6.6082103,1.4436698 V 0.72807089 Z"
     style="baseline-shift:baseline;display:inline;overflow:visible;vector-effect:none;fill:#0196b1;stroke-width:0.34833;enable-background:accumulate;stop-color:#000000;stop-opacity:1"
     id="path12-9" /><path
     d="m 24.061955,1.5192245 c -0.01042,-0.032917 -0.01837,1.4154567 -0.01837,3.9360658 0,3.5069414 0.01553,4.9378757 0.0312,3.1765439 0.03118,-1.7456062 0.03118,-4.6076582 0,-6.368994 -0.0045,-0.4909515 -0.0089,-0.7307355 -0.01265,-0.7436157 z"
     style="baseline-shift:baseline;display:inline;overflow:visible;vector-effect:none;fill:#034bac;stroke-width:0.34833;enable-background:accumulate;stop-color:#000000;stop-opacity:1"
     id="path11-4" /><path
     d="m 10.891248,1.4118575 c -2.0069378,0 -2.0190556,1.11e-5 -1.5907458,0.2132879 0.2692239,0.1184936 0.5260902,0.3790748 0.6729396,0.6752915 0.2202722,0.4384041 0.2447222,0.7583148 0.2814372,3.7560363 l 0.04913,3.2940329 h 0.599623 0.599623 V 8.935861 c 0,-0.5687345 0.281401,-1.196811 0.611812,-1.3626927 0.37936,-0.2014331 0.844324,-0.082923 2.263865,0.5568978 1.027943,0.4739475 1.358473,0.5687108 2.080482,0.6042557 0.697529,0.023708 0.930006,-0.0118 1.248172,-0.201359 0.428309,-0.2606709 0.697561,-0.6160898 0.819926,-1.078188 L 18.61317,7.1585215 18.441796,7.4428459 C 18.00125,8.153768 17.242429,8.2011925 15.529193,7.6324549 13.497781,6.957076 12.714584,6.9689906 11.857965,7.668057 l -0.37931,0.3080023 0.04894,-2.606812 c 0.04895,-2.9503302 0.146883,-3.364948 0.954555,-3.7441066 0.428343,-0.2132721 0.416048,-0.2132832 -1.590892,-0.2132832 z"
     style="baseline-shift:baseline;display:inline;overflow:visible;vector-effect:none;fill:#034bac;stroke-width:0.34833;enable-background:accumulate;stop-color:#000000;stop-opacity:1"
     id="path10-7" /><path
     d="m 19.702193,1.4118575 c -2.006936,0 -2.019055,1.11e-5 -1.590746,0.2132879 0.26922,0.1184936 0.526091,0.3790748 0.672945,0.6752915 0.220274,0.4265531 0.244731,0.7701658 0.281442,3.7560363 l 0.04914,3.2940329 h 0.587258 0.58743 l 0.04899,-3.2940329 C 20.375331,3.0587517 20.39974,2.7388408 20.620089,2.3004369 20.766864,2.0042202 21.023987,1.7436327 21.293205,1.6251454 21.72144,1.4118686 21.709143,1.4118575 19.702206,1.4118575 Z"
     style="baseline-shift:baseline;display:inline;overflow:visible;vector-effect:none;fill:#034bac;stroke-width:0.34833;enable-background:accumulate;stop-color:#000000;stop-opacity:1"
     id="path9-8" /><path
     d="m 26.616398,7.2781789 0.513932,0.2344369 c 0.42831,0.2097681 0.538551,0.3206777 0.660932,0.7772355 0.305929,1.1475605 0.330322,1.1847393 0.342557,0.4690534 l 0.01225,-0.6787261 0.428437,0.6539618 0.440436,0.6416711 h 0.783184 0.795549 L 30.275497,8.845123 C 30.09187,8.5613179 29.785922,8.0925392 29.590126,7.7963972 L 29.235188,7.2781789 h -1.30931 z"
     style="baseline-shift:baseline;display:inline;overflow:visible;vector-effect:none;fill:#034bac;stroke-width:0.34833;enable-background:accumulate;stop-color:#000000;stop-opacity:1"
     id="path8-8" /><path
     d="m 37.783347,7.2995076 c -0.187592,4.897e-4 -0.40113,0.00171 -0.64282,0.00325 -1.676523,0 -1.99465,0.024678 -1.664242,0.1357385 0.538456,0.172752 1.150282,0.7896849 1.431753,1.4436708 0.195803,0.4442176 0.269219,0.5058894 0.599622,0.4688708 0.330401,-0.037016 0.367186,-0.086369 0.440606,-0.6046178 0.110086,-0.7403627 0.318103,-1.0487622 0.844304,-1.2708702 0.353366,-0.1511572 0.303978,-0.1795974 -1.009223,-0.176046 z"
     style="baseline-shift:baseline;display:inline;overflow:visible;vector-effect:none;fill:#034bac;stroke-width:0.34833;enable-background:accumulate;stop-color:#000000;stop-opacity:1"
     id="path7-5" /><path
     d="m 10.218309,15.579417 -0.2203088,0.604618 c -0.1713242,0.49357 -0.2937586,0.641631 -0.6731191,0.789709 -0.4405477,0.185091 -0.379384,0.197557 1.5663659,0.197557 1.945751,0 2.006915,-0.01248 1.566368,-0.197557 -0.379361,-0.147999 -0.501615,-0.296139 -0.67294,-0.789709 l -0.220309,-0.604618 h -0.673119 z"
     style="baseline-shift:baseline;display:inline;overflow:visible;vector-effect:none;fill:#034bac;stroke-width:0.34833;enable-background:accumulate;stop-color:#000000;stop-opacity:1"
     id="path6-8" /><path
     d="m 28.082738,15.580321 c -0.02188,0.02725 -0.03683,0.925049 -0.07133,2.967232 -0.04898,3.325697 -0.07339,3.727501 -0.293631,4.226355 -0.171335,0.401849 -0.367175,0.595945 -0.673118,0.720664 -0.367129,0.138638 -0.122359,0.166295 1.652051,0.166295 1.896803,0 2.043796,-0.014 1.615484,-0.180217 -0.636345,-0.263285 -0.905661,-0.568093 -1.309497,-1.468801 -0.489489,-1.108572 -0.758646,-2.6882 -0.844303,-5.043896 -0.03747,-0.903312 -0.05875,-1.408831 -0.07558,-1.387638 z"
     style="baseline-shift:baseline;display:inline;overflow:visible;vector-effect:none;fill:#034bac;stroke-width:0.34833;enable-background:accumulate;stop-color:#000000;stop-opacity:1"
     id="path5-3" /><path
     d="m 32.441424,15.549412 2.582049,3.9733 c 1.407311,2.196409 2.618916,4.034879 2.680102,4.096574 0.06124,0.07399 0.0978,-1.579322 0.08551,-4.010173 -0.02441,-4.10901 -0.02441,-4.109095 -0.09797,-1.320389 l -0.06103,2.801114 -1.774487,-2.764067 -1.774311,-2.764068 -0.819928,-0.01229 z"
     style="baseline-shift:baseline;display:inline;overflow:visible;vector-effect:none;fill:#034bac;stroke-width:0.34833;enable-background:accumulate;stop-color:#000000;stop-opacity:1"
     id="path4-3" /><path
     d="m 24.062493,15.64268 c -0.01042,-0.03324 -0.01837,1.429109 -0.01837,3.974023 0,3.540757 0.01574,4.98559 0.03132,3.207273 0.03149,-1.762441 0.03149,-4.652311 0,-6.430631 -0.0045,-0.495682 -0.0089,-0.737661 -0.01285,-0.750665 z"
     style="baseline-shift:baseline;display:inline;overflow:visible;vector-effect:none;fill:#034bac;stroke-width:0.34833;enable-background:accumulate;stop-color:#000000;stop-opacity:1"
     id="path3-9" /><path
     d="M 41.362791,0 V 0.72807097 1.4436699 l 0.73424,0.074109 c 0.881093,0.098714 1.346065,0.32081 1.664244,0.7897075 0.22027,0.3208236 0.23262,0.6910392 0.2938,4.6643176 0.07339,4.787675 0.08567,4.911079 0.88106,5.318279 l 0.379319,0.197383 -0.311377,0.218711 c -0.159104,0.123401 -0.305064,0.242166 -0.335033,0.263537 -0.0345,0.02458 -0.185776,0.1718 -0.308148,0.381567 -0.232512,0.382521 -0.244636,0.715659 -0.305821,4.725955 -0.06124,3.973274 -0.07356,4.343314 -0.2938,4.664136 -0.318167,0.468893 -0.783155,0.691175 -1.664244,0.789884 l -0.73424,0.07399 v 0.740371 0.740355 l 1.003492,-0.08639 c 1.370583,-0.123378 1.880009,-0.261362 2.49188,-0.816641 0.966766,-0.851416 0.959033,-0.972531 1.007978,-5.67382 0.01225,-2.270444 0.06124,-4.256999 0.08567,-4.41741 0.122359,-0.542935 0.489494,-0.765125 1.28493,-0.765125 H 47.971 V 12.5246 11.722421 h -0.734254 c -0.795436,0 -1.162549,-0.222012 -1.28493,-0.764944 -0.02441,-0.160495 -0.07338,-2.1472248 -0.08567,-4.4176718 C 45.829429,2.6529039 45.817262,2.3691565 45.572515,1.8509053 45.30329,1.2586133 44.60572,0.5551865 44.067276,0.34541799 43.895953,0.27138058 43.443096,0.1728111 43.075974,0.12345395 42.708852,0.0740968 42.170424,0.02463832 41.876727,0.01229116 Z"
     style="baseline-shift:baseline;display:inline;overflow:visible;vector-effect:none;fill:#0196b1;stroke-width:0.34833;enable-background:accumulate;stop-color:#000000;stop-opacity:1"
     id="path2-7" /><path
     d="m 19.08375,15.579417 -0.220306,0.604618 c -0.171325,0.49357 -0.293582,0.641631 -0.672945,0.789709 -0.440544,0.185091 -0.379378,0.197557 1.56637,0.197557 1.945751,0 2.006914,-0.01248 1.566369,-0.197557 -0.379362,-0.147999 -0.501791,-0.296139 -0.673118,-0.789709 l -0.220307,-0.604618 h -0.672944 z"
     style="baseline-shift:baseline;display:inline;overflow:visible;vector-effect:none;fill:#034bac;stroke-width:0.34833;enable-background:accumulate;stop-color:#000000;stop-opacity:1"
     id="path1-1" /></g><g
   id="g17"
   transform="matrix(1.5438665,0,0,1.5438665,-179.24703,-112.19135)"
   style="clip-rule:evenodd;fill-rule:evenodd;stroke-linejoin:round;stroke-miterlimit:2"><path
     d="m 244.73919,210.5158 c -0.82662,-0.008 -2.21006,0.59503 -2.69951,1.23448 -0.89666,1.16965 -1.07799,2.26329 -0.76241,4.56868 0.24561,1.79361 2.41894,8.55392 3.57826,11.13019 0.935,2.07821 1.32118,3.37053 2.87302,9.6076 0.2243,0.90391 0.82566,3.17407 1.33501,5.0449 0.61375,2.25429 1.02611,4.0764 1.22488,5.40126 0.16492,1.0993 0.56293,2.98854 0.88516,4.19943 0.32222,1.21085 0.79403,3.03847 1.04951,4.05986 1.47606,5.91801 1.79875,7.19891 2.30376,9.13443 0.30592,1.17407 0.89951,3.50306 1.31753,5.17652 0.60513,2.42171 0.80268,3.05979 0.96877,3.12433 0.34237,0.13426 1.5127,0.0192 2.08887,-0.20298 0.2963,-0.11459 0.85253,-0.2246 1.23861,-0.2454 1.09342,-0.0598 2.29522,-0.41617 2.3891,-0.70877 0.048,-0.14855 -0.36345,-1.77044 -1.04309,-4.11933 -0.61565,-2.1311 -1.45102,-5.05076 -1.8556,-6.48822 -0.4047,-1.43745 -1.10371,-3.73929 -1.55357,-5.11615 -0.44976,-1.37688 -0.95226,-3.08551 -1.11655,-3.79751 -0.16492,-0.71176 -0.59839,-2.39323 -0.96501,-3.73516 -0.36633,-1.34187 -0.70197,-2.76304 -0.74609,-3.15796 -0.048,-0.39479 -0.38359,-1.79815 -0.75473,-3.1194 -0.37113,-1.32123 -0.69045,-2.64256 -0.71059,-2.93622 -0.0203,-0.29388 -0.2925,-1.42239 -0.60513,-2.50762 -0.31263,-1.08527 -0.67319,-2.56722 -0.79978,-3.29359 -0.2177,-1.24794 -0.43537,-2.25798 -1.20928,-5.64184 -0.18115,-0.79159 -0.40277,-1.93997 -0.49292,-2.55114 -0.0862,-0.61118 -0.30303,-1.65713 -0.47086,-2.32444 -0.16771,-0.66751 -0.37399,-1.99676 -0.45838,-2.95503 -0.2484,-2.82495 -0.30975,-3.12383 -1.06783,-5.14881 -1.12767,-3.01393 -1.97867,-4.09088 -3.62504,-4.58949 -0.0959,-0.0279 -0.19766,-0.0413 -0.31552,-0.0424 z m 6.71931,14.80693 c -0.0384,-0.003 -0.048,0.061 -0.0575,0.17616 -0.002,0.14992 0.1018,0.70549 0.23216,1.23548 0.13041,0.52991 0.44209,2.0478 0.69144,3.37284 0.51688,2.7431 0.89664,4.46093 1.59854,7.21487 0.26945,1.05888 0.61756,2.50971 0.77197,3.22531 0.15452,0.71571 0.5543,2.3044 0.88896,3.52921 0.33373,1.22455 0.63965,2.51626 0.678,2.87092 0.0384,0.35402 0.47663,2.0719 0.97328,3.81832 0.49676,1.74637 1.01412,3.69497 1.14857,4.33008 0.13422,0.63506 0.64539,2.37518 1.13582,3.8678 0.49004,1.4926 1.22874,3.88753 1.64083,5.32208 0.41236,1.43454 1.23582,4.28929 1.82993,6.34268 0.59456,2.05343 1.37011,4.88964 1.72529,6.30312 0.35472,1.41371 0.9639,3.64635 1.35249,4.96073 0.38855,1.31442 0.8784,3.20387 1.08894,4.19943 0.43577,2.05926 1.55429,5.22471 2.94557,8.3375 0.79529,1.77846 1.49282,3.51776 3.83618,9.56109 0.5663,1.46103 1.59333,4.0591 2.2817,5.77451 0.68847,1.71536 1.64898,4.19883 2.13387,5.51903 0.48534,1.32003 1.12694,2.94008 1.42686,3.59953 0.29947,0.65955 1.29908,3.26916 2.22017,5.79921 4.72547,12.97584 5.00557,13.62029 5.58808,12.82403 0.32953,-0.45059 0.0327,-1.56721 -4.24201,-15.92956 -3.63267,-12.20319 -5.60824,-19.11601 -5.92601,-20.73678 -0.32491,-1.65413 -13.8502,-42.61477 -15.43472,-46.74324 -0.64827,-1.68782 -2.87349,-7.8767 -4.94538,-13.7526 -4.13665,-11.7339 -5.33789,-15.00282 -5.58625,-15.02177 z m 10.80889,47.8193 c -0.14969,0.008 -0.31837,0.0319 -0.50635,0.0756 -0.38358,0.089 -1.19854,0.22898 -1.81067,0.31092 -1.53867,0.206 -2.7071,0.54346 -2.82705,0.81766 -0.12662,0.28847 0.006,0.66637 0.26561,0.7613 0.30401,0.11162 3.79222,-0.48979 4.75619,-0.81973 1.26577,-0.43323 1.16994,-1.19546 0.1218,-1.14539 z m 0.0286,1.89975 c -0.39893,0.0191 -0.86022,0.10639 -1.32954,0.2861 -0.27236,0.10455 -0.99935,0.24538 -1.616,0.3138 -1.3319,0.14746 -1.47087,0.1926 -1.69585,0.55037 v 6e-4 c -0.4958,0.79079 0.54664,1.04829 2.25323,0.55636 0.60609,-0.17399 1.33644,-0.30354 1.62337,-0.28803 0.32221,0.0164 0.81993,-0.10484 1.30191,-0.31972 1.30758,-0.58355 0.66074,-1.15443 -0.53705,-1.09985 z m 1.30199,1.85224 c -0.29439,-0.0569 -0.77867,0.0113 -1.49388,0.19095 -0.68952,0.17562 -1.36665,0.3019 -1.50485,0.2811 -0.53509,-0.0807 -2.43965,0.56383 -2.4452,0.8276 -0.0105,0.61758 0.22048,0.70776 1.26624,0.49203 2.1017,-0.43362 2.94253,-0.59409 3.51937,-0.66916 0.84197,-0.10965 0.96146,-0.17645 1.01555,-0.57218 0.0383,-0.31245 -0.0575,-0.49319 -0.3577,-0.55048 z m -0.119,1.82547 c -0.257,0.0192 -0.561,0.0651 -0.91005,0.13977 -0.66363,0.14253 -1.68254,0.33188 -2.26427,0.42071 -1.36691,0.20901 -1.56544,0.29373 -1.61971,0.68901 -0.0766,0.56599 0.43153,0.6695 1.94751,0.39694 0.75376,-0.13539 1.71091,-0.30316 2.1274,-0.37222 1.48195,-0.24593 1.6937,-0.32838 1.76113,-0.68408 0.0853,-0.44613 -0.27036,-0.64487 -1.04219,-0.59007 z m 1.02564,1.72653 c -0.16672,0.006 -0.37314,0.0342 -0.62246,0.0859 -0.52266,0.1078 -1.2063,0.21393 -1.51875,0.23552 -0.31263,0.0219 -0.80459,0.13031 -1.0945,0.24158 -0.28961,0.11162 -0.84294,0.22076 -1.22757,0.24155 -0.38552,0.0219 -0.7039,0.0383 -0.70773,0.0383 -0.006,5.4e-4 -0.048,0.10342 -0.10555,0.22761 -0.34236,0.78384 0.39701,0.99692 2.01175,0.58014 0.678,-0.17508 1.35485,-0.29982 1.50492,-0.27824 0.54662,0.0796 2.15251,-0.45535 2.25138,-0.74939 0.1492,-0.44388 0.0105,-0.64033 -0.49116,-0.62369 z m 0.56005,1.78688 c -0.12584,-0.0487 -0.8576,0.0454 -1.62703,0.20982 -0.76908,0.16415 -1.46041,0.28384 -1.53607,0.26647 -0.35578,-0.0818 -2.02931,0.472 -2.18341,0.72172 -0.30592,0.49761 0.19182,0.67039 1.29923,0.45047 0.55427,-0.11048 1.34957,-0.25606 1.76646,-0.32374 1.17377,-0.19039 2.24825,-0.3809 2.46995,-0.43652 0.2645,-0.0674 0.11495,-0.76864 -0.18903,-0.88795 z m -0.07,1.75818 c -0.21846,0.0113 -0.47297,0.0466 -0.76027,0.10511 -0.5425,0.11106 -1.5996,0.30172 -2.34874,0.42476 -1.63661,0.26754 -1.53573,0.2328 -1.69596,0.59792 -0.16493,0.37609 0.17558,0.74755 0.61855,0.67717 0.16872,-0.0273 0.77388,-0.1187 1.34418,-0.2049 1.0521,-0.15841 2.81132,-0.52008 3.38264,-0.69596 0.17685,-0.0548 0.33918,-0.23007 0.37372,-0.40385 0.0728,-0.36232 -0.25921,-0.53531 -0.91449,-0.49994 z m 1.25519,1.6661 c -0.0641,-0.009 -0.14844,-6e-4 -0.25617,0.0141 -0.21009,0.029 -0.74827,0.0952 -1.19637,0.14746 -0.44786,0.0517 -1.32071,0.22268 -1.94012,0.38016 -0.61951,0.1573 -1.26173,0.26428 -1.42688,0.23746 -0.31742,-0.0506 -0.54279,0.0192 -0.76909,0.23773 -0.23292,0.22432 0.0576,0.78932 0.4555,0.89292 0.22049,0.0559 0.95035,-0.0632 1.7886,-0.29404 0.77966,-0.21449 1.58618,-0.3864 1.79237,-0.38215 0.69249,0.0141 1.56351,-0.36749 1.66191,-0.72761 0.0959,-0.35009 0.0844,-0.48514 -0.10934,-0.50591 z m -0.20579,1.69683 c -0.18446,0.0191 -0.40922,0.0639 -0.67666,0.13765 -0.53282,0.1458 -1.39193,0.33005 -1.90978,0.40986 -1.56152,0.23967 -2.36744,0.61003 -2.22943,1.02466 0.14767,0.44367 0.31072,0.46743 1.36079,0.19504 0.48524,-0.12506 1.34613,-0.30252 1.91532,-0.393 2.00235,-0.31979 2.17171,-0.37657 2.22203,-0.74445 0.0662,-0.48627 -0.12864,-0.68428 -0.68223,-0.62956 z m 0.69871,1.75716 c -0.0203,-0.0141 -0.5374,0.0952 -1.14681,0.24266 -0.61002,0.14663 -1.46542,0.30685 -1.90252,0.35639 -1.35227,0.1524 -1.87241,0.29696 -1.98423,0.55244 -0.30687,0.7008 0.0766,0.85964 1.45631,0.60881 4.14205,-0.7519 4.68883,-1.02126 3.57725,-1.7602 z m 0.32959,1.85223 c -0.60865,0.0219 -1.69433,0.17782 -2.3331,0.35444 -0.45256,0.1245 -1.13768,0.25004 -1.52234,0.27813 -0.85253,0.0632 -0.96052,0.10229 -1.08623,0.39012 -0.25323,0.57891 0.16872,0.84413 0.89471,0.56328 0.20527,-0.0796 0.62049,-0.14253 0.92255,-0.13977 0.30209,0.002 1.06465,-0.11516 1.695,-0.26236 0.63016,-0.14744 1.34056,-0.30159 1.57835,-0.34348 0.43989,-0.0765 0.63187,-0.66369 0.26631,-0.81476 -0.0623,-0.0247 -0.21211,-0.0332 -0.41505,-0.0247 z m 0.35905,1.62947 c -0.39903,-0.006 -1.14295,0.13921 -2.58652,0.43159 -0.67388,0.13623 -1.44068,0.28691 -1.70421,0.33563 -0.30976,0.0569 -0.51497,0.17399 -0.58115,0.32869 -0.27235,0.64268 0.34237,0.88949 1.46822,0.58903 0.47699,-0.12746 1.2704,-0.27905 1.76389,-0.33759 1.38003,-0.1636 2.2317,-0.50643 2.15774,-0.86819 -0.0641,-0.31505 -0.11874,-0.47306 -0.51783,-0.47916 z m 0.65472,1.73444 c -0.11268,-0.0383 -0.29711,0.009 -0.66662,0.0982 -0.40631,0.0993 -1.17644,0.24512 -1.70962,0.32373 -1.57301,0.23061 -2.43197,0.48325 -2.54803,0.74836 -0.23876,0.5446 0.3769,0.92506 1.06791,0.66132 0.24231,-0.0929 1.00155,-0.25304 1.6867,-0.35539 0.68507,-0.10228 1.54237,-0.27676 1.90523,-0.3871 l 0.65931,-0.20106 -0.16139,-0.48605 c -0.0805,-0.24237 -0.12077,-0.36375 -0.23318,-0.4019 z m 0.0538,1.78193 c -0.34477,-0.006 -0.82675,0.0982 -1.51136,0.2921 -0.54547,0.15458 -1.10743,0.26291 -1.24873,0.24046 -0.49859,-0.0796 -1.721,0.30532 -1.77213,0.55833 -0.0286,0.12831 1.11646,3.76592 2.53792,8.08407 1.42142,4.31816 3.03365,9.40456 3.58183,11.30342 0.54864,1.89874 2.1188,6.93122 3.49003,11.18267 1.37173,4.25123 2.76872,8.64553 3.1044,9.76502 2.87701,9.6 3.01538,9.9559 3.77468,9.66207 0.55313,-0.21394 0.5443,-0.56806 -0.0728,-2.97189 -0.32876,-1.28157 -1.14592,-4.5856 -1.8171,-7.34157 -0.67071,-2.75618 -1.4254,-5.81336 -1.67662,-6.79317 -0.25094,-0.97997 -0.71166,-2.84604 -1.02378,-4.14696 -0.69612,-2.90299 -1.24664,-5.11576 -2.15314,-8.65527 -0.38272,-1.49493 -0.76872,-3.14401 -0.85846,-3.66286 -0.0891,-0.51947 -0.3367,-1.47629 -0.54912,-2.12646 -0.21162,-0.65056 -0.48593,-1.67228 -0.60876,-2.271 -0.12255,-0.59887 -0.37227,-1.73563 -0.55554,-2.52635 -0.18293,-0.79088 -0.42465,-2.00156 -0.53626,-2.69078 -0.25221,-1.55614 -0.46012,-2.74241 -0.80985,-4.62113 -0.1492,-0.80388 -0.33136,-1.81008 -0.40405,-2.23535 -0.12281,-0.71953 -0.31694,-1.03551 -0.89156,-1.04542 z"
     style="baseline-shift:baseline;display:inline;overflow:visible;vector-effect:none;fill:#000080;fill-rule:evenodd;stroke-width:1.84495;enable-background:accumulate;stop-color:#000000"
     id="path10-8" /><path
     d="m 203.93224,202.55449 c -0.76721,-0.0651 -1.09412,0.52038 -3.60396,5.07059 -1.58443,2.87296 -8.4891,15.48072 -15.34284,28.01802 -6.85395,12.53704 -14.60482,26.6815 -17.22524,31.43341 -2.62012,4.75169 -4.84314,8.82785 -4.9398,9.05722 -0.0969,0.22924 1.60129,0.7102 3.77368,1.07014 l 3.95005,0.65439 -3.44871,-0.38909 -3.44965,-0.38908 -0.95131,2.0611 c -1.16274,2.51955 -4.85551,8.94842 -9.24063,16.08694 -3.07672,5.00864 -8.38659,14.69306 -12.46716,22.73755 l -1.78677,3.52134 1.20928,0.0765 c 3.55829,0.22542 8.61308,-2.22839 11.24318,-5.4577 3.72556,-4.57492 9.2209,-15.46872 10.98889,-21.78618 1.56774,-5.60101 7.43949,-16.23106 9.21764,-16.68587 0.64348,-0.1644 6.17144,-10.88308 5.86361,-11.36877 -0.12839,-0.20243 -0.0383,-0.37748 0.18903,-0.38908 0.9983,-0.0487 30.03711,-56.42285 29.87226,-57.99122 -0.21009,-1.9925 -2.21705,-5.02632 -3.48904,-5.27257 -0.13524,-0.0247 -0.25324,-0.0475 -0.36251,-0.0569 z m -28.81367,53.33937 c 0.0576,-0.0435 1.01268,0.23581 2.11828,0.62171 l 2.00984,0.7009 -1.99248,-0.42266 c -1.78187,-0.37876 -2.4569,-0.66329 -2.13564,-0.89988 z m -5.68083,9.88481 c 0.0977,0.0506 1.33231,0.3932 2.74356,0.76028 l 2.56634,0.6672 -2.53143,-0.42372 c -1.39217,-0.23337 -2.62674,-0.57582 -2.74356,-0.76026 -0.11697,-0.18466 -0.13245,-0.29445 -0.0383,-0.24347 z m -9.71535,24.75014 c 0.0383,0.0192 0.0766,0.0621 0.10936,0.1187 h -9.5e-4 c 0.4306,0.71054 -0.0673,1.92044 -3.3449,8.19695 -1.9479,3.7243 -3.53002,7.04681 -3.51574,7.38417 0.0203,0.48337 -0.12078,0.58398 -0.66744,0.47325 -1.29357,-0.26263 -0.80075,-1.67812 3.07871,-8.84637 3.44589,-6.36703 4.05802,-7.45718 4.34111,-7.32672 z"
     style="baseline-shift:baseline;display:inline;overflow:visible;vector-effect:none;fill:#000080;fill-rule:evenodd;stroke-width:1.84495;enable-background:accumulate;stop-color:#000000"
     id="path9-2" /><path
     d="m 216.66924,211.14243 c -0.0575,-0.008 -0.11216,-0.002 -0.17558,0.0164 -0.30496,0.0964 -0.73268,0.51658 -1.3791,1.20975 -2.66523,2.85898 -2.65535,2.83845 -5.01799,11.02525 -0.76238,2.64191 -2.588,8.98547 -3.90133,13.55761 -1.45438,5.06332 -2.11752,7.06043 -5.20612,15.67807 -0.88705,2.4751 -1.72856,4.8344 -1.86944,5.24387 -0.14107,0.40955 -0.43155,1.23087 -0.64539,1.82452 -0.2139,0.59369 -0.4114,1.13948 -0.43731,1.21367 -0.0286,0.0744 -0.46701,1.31569 -0.98063,2.75806 -0.912,2.56056 -2.59588,7.4054 -3.04018,8.74833 -0.46606,1.4088 -1.78985,6.44394 -2.77836,10.56889 -0.23875,0.99361 -0.5236,2.16871 -0.63486,2.61151 -0.11112,0.44274 -0.29439,1.20359 -0.4085,1.69188 -0.20045,0.86054 -1.66442,7.02427 -1.81805,7.65439 -0.0862,0.36199 -0.56484,2.35976 -1.23582,5.1795 -1.62999,6.84822 -2.10478,8.62023 -2.74453,10.2531 -0.67607,1.72532 -2.29494,5.33356 -4.55688,10.15703 -3.12063,6.65423 -3.41994,7.40839 -3.3735,8.49392 0.11418,2.67913 1.97473,11.70565 2.6417,12.81709 0.45552,0.75903 0.32317,-0.91308 -0.49676,-6.32191 -0.74703,-4.92851 -0.85254,-6.09095 -0.61662,-6.80306 0.25604,-0.7707 1.63218,-3.74896 3.55339,-7.68708 4.9946,-10.23817 4.55356,-9.24719 7.0847,-15.90578 0.94458,-2.48428 2.19586,-5.7509 2.78122,-7.25942 1.43781,-3.70578 3.79106,-9.89175 4.8398,-12.72108 0.47182,-1.27421 0.97192,-2.61627 1.11003,-2.98277 1.13744,-3.01798 1.61434,-4.52522 14.84981,-46.86203 1.92343,-6.15204 3.82961,-12.21563 4.23565,-13.47445 1.24734,-3.86781 1.40643,-5.19685 0.98247,-8.20878 -0.23216,-1.64476 -0.38741,-2.41767 -0.76335,-2.47788 z m -9.35074,41.84291 c 0.0576,-0.35816 -0.772,2.26153 -4.5451,14.303 -1.88938,6.03042 -3.45751,11.02529 -3.48447,11.09951 -0.0286,0.0744 -0.26275,0.74178 -0.52454,1.483 -0.52267,1.4832 -1.7352,4.78743 -2.53422,6.90895 -0.28292,0.7495 -0.57348,1.52257 -0.64732,1.71861 -0.80268,2.13223 -1.80702,4.75841 -3.23752,8.47212 -3.11419,8.08341 -3.21383,8.35947 -3.59197,9.86403 -1.15087,4.57974 -1.37334,5.1687 -5.64591,14.96629 -2.07821,4.76533 -2.42363,5.68049 -2.42775,6.4348 -0.006,1.03004 0.28961,3.7159 0.62141,5.64378 0.69527,4.04245 1.34691,6.85457 1.64448,7.09508 0.28386,0.22898 0.21872,-1.16327 -0.2111,-4.53303 -0.0576,-0.4167 -0.16289,-1.30518 -0.2446,-1.974 -0.0766,-0.66887 -0.17355,-1.39664 -0.20426,-1.61759 -0.33373,-2.3789 -0.44882,-4.43915 -0.27906,-4.98153 0.25017,-0.80101 1.12191,-2.68746 2.90324,-6.2843 4.49138,-9.07012 4.42375,-8.92217 5.33929,-11.60538 1.03033,-3.0203 2.66274,-7.75893 3.90958,-11.34897 0.12839,-0.3711 0.38935,-1.1254 0.57922,-1.676 0.18979,-0.5505 0.59363,-1.72512 0.89856,-2.61057 4.88508,-14.18403 6.502,-19.06252 6.94976,-20.96251 0.13727,-0.581 0.25987,-1.08704 0.27235,-1.12364 0.0286,-0.0744 0.49867,-2.15059 1.40761,-6.18231 0.71729,-3.17971 0.61661,-2.73865 1.14404,-5.00229 0.23698,-1.0171 0.47663,-2.0485 0.53129,-2.2918 0.0576,-0.24347 0.37879,-1.59329 0.71828,-2.99961 0.33947,-1.40637 0.63484,-2.66442 0.65785,-2.79564 z m -6.69544,3.14612 c 0.15528,-0.0539 0.54281,0.14006 1.84825,0.82466 1.28255,0.6727 1.66729,0.91731 1.70421,1.08502 0.11038,0.505 -0.17077,0.43748 -1.90157,-0.45442 -1.68092,-0.86645 -1.87863,-1.01636 -1.75378,-1.32951 0.0286,-0.0632 0.048,-0.10809 0.10253,-0.12563 z m -0.5984,1.70669 c 0.17939,-0.15484 3.48407,1.57326 3.5892,1.87697 0.19182,0.55347 -0.11595,0.48338 -1.8731,-0.42671 -1.73116,-0.89665 -2.0477,-1.16467 -1.7161,-1.45028 z m -0.64732,1.68889 c 0.17355,-0.2164 3.80073,1.66709 3.78204,1.96409 -0.0286,0.49869 -0.2446,0.42102 -3.21277,-1.16815 -0.65883,-0.35279 -0.78445,-0.52794 -0.56966,-0.79594 z m -0.55716,1.67899 c 0.20806,-0.16251 3.70906,1.62151 3.7756,1.92348 0.11978,0.54262 -0.1842,0.4685 -2.03283,-0.494 -1.81278,-0.94379 -2.08224,-1.16453 -1.74277,-1.42952 z m -0.42579,1.72055 c 0.80267,0.18767 3.61174,1.60993 3.68011,1.92253 0.10936,0.49711 -0.21009,0.41729 -2.06865,-0.51485 -1.86905,-0.93777 -2.03264,-1.06376 -1.81889,-1.40573 0.0203,-0.0301 0.0959,-0.029 0.20704,-0.002 z m -0.70005,1.58098 c 0.17838,-0.0982 3.82376,1.84447 3.86181,2.05811 0.0862,0.46416 -0.22252,0.38485 -2.11453,-0.54944 -1.91761,-0.94677 -2.00285,-1.00417 -1.9153,-1.28598 0.0286,-0.0858 0.10253,-0.1863 0.16772,-0.22267 z m -0.61184,1.67995 c 0.14665,-0.0192 0.52457,0.17318 2.07237,0.95829 1.64456,0.83387 2.13134,1.18409 1.89697,1.36613 -0.0384,0.031 -0.10454,0.0796 -0.14388,0.10695 -0.0383,0.0273 -0.93022,-0.37646 -1.98058,-0.89787 -1.89504,-0.94079 -2.18723,-1.1598 -1.94741,-1.45825 0.0286,-0.0395 0.0575,-0.0692 0.10252,-0.0756 z m -0.66074,1.74239 c 0.17837,-0.15403 4.01077,1.73784 4.07125,2.0096 0.11597,0.52235 -0.21287,0.43965 -2.17791,-0.54943 -1.93323,-0.97316 -2.21007,-1.18643 -1.89334,-1.46017 z m -0.62524,1.69184 c 0.12457,-0.2205 4.07654,1.69002 4.19332,2.02744 0.0384,0.11275 0.0576,0.21174 0.0384,0.22076 -0.0203,0.0113 -0.0766,0.0733 -0.13042,0.14148 -0.119,0.14747 -4.1284,-1.85611 -4.17031,-2.08386 -0.0105,-0.0756 0.0203,-0.21255 0.0672,-0.30592 z m -0.53318,1.66908 c 0.19562,-0.0723 0.68564,0.14689 2.14033,0.86717 1.96821,0.9748 2.26769,1.19411 2.03008,1.48988 -0.15148,0.18905 -0.29731,0.13356 -2.33955,-0.89499 -1.99437,-1.00414 -2.03716,-1.03279 -1.95391,-1.3008 0.0286,-0.0818 0.0575,-0.13708 0.12281,-0.1614 z m -0.42966,1.69678 c 0.9168,0.20326 4.02524,1.74013 4.10342,2.09576 0.11696,0.5327 -0.1563,0.46309 -2.25227,-0.57219 -2.03362,-1.00417 -2.33477,-1.22256 -2.09442,-1.52156 0.0286,-0.0332 0.11216,-0.031 0.24358,-0.002 z m -0.73456,1.66216 c 0.15146,-0.16797 4.19315,1.74839 4.2925,2.03537 0.19081,0.55231 -0.18801,0.45742 -2.26524,-0.56826 -2.03504,-1.0053 -2.28303,-1.18467 -2.02726,-1.46714 z m -0.35482,1.5513 c 0.19359,-0.10668 4.00152,1.80793 4.05197,2.03731 0.12281,0.5603 -0.23395,0.47645 -2.25054,-0.52865 -2.00293,-0.99828 -2.29005,-1.23941 -1.80143,-1.5087 z m -0.46992,1.73045 c 0.12078,-0.22349 3.89281,1.59621 3.9629,1.91159 0.10835,0.48888 -0.19766,0.41133 -2.1064,-0.5306 -1.8725,-0.92394 -2.03659,-1.04652 -1.8565,-1.38099 z m -0.37783,1.57204 c 0.21492,-0.16577 3.706,1.59731 3.7738,1.9057 0.11417,0.51851 -0.15454,0.45836 -1.99248,-0.44255 -1.86073,-0.91193 -2.16846,-1.16364 -1.78132,-1.46315 z m -0.27138,1.69979 c 0.74416,0.17344 3.40314,1.48338 3.4643,1.75917 0.10734,0.48223 -0.19766,0.41159 -1.95114,-0.4534 -1.72194,-0.84919 -1.8816,-0.97109 -1.70227,-1.30378 0.0203,-0.0278 0.0862,-0.0273 0.18903,-0.002 z m -0.56581,1.57204 c 0.23877,-0.18628 3.52369,1.51909 3.5048,1.81958 -0.0286,0.42103 -0.22735,0.37451 -1.88691,-0.43664 -1.69278,-0.82746 -1.9964,-1.08711 -1.61789,-1.38297 z m -0.31072,1.5711 c 0.8372,0.34761 3.25738,1.62355 3.27522,1.7265 0.0959,0.53879 -0.1218,0.49856 -1.81065,-0.33459 -1.71466,-0.84618 -1.8075,-0.91597 -1.61608,-1.22261 0.0673,-0.10115 0.13143,-0.17782 0.15148,-0.16932 z m -0.47469,1.69679 c 0.15529,-0.0548 0.53129,0.1187 1.72071,0.7118 1.48087,0.73831 1.70239,0.93994 1.3323,1.21269 -0.14007,0.10227 -0.43728,-0.008 -1.64818,-0.61479 -1.46514,-0.73371 -1.63565,-0.86759 -1.50859,-1.18597 0.0286,-0.0622 0.048,-0.10553 0.10357,-0.12393 z m -0.47854,1.67998 c 0.11697,-0.14607 3.02311,1.24925 3.10711,1.49188 0.18041,0.52205 -0.20146,0.45587 -1.70324,-0.29407 -1.48651,-0.74226 -1.65491,-0.88556 -1.40387,-1.19786 z m -0.26083,1.62752 c 0.60608,0.1051 2.71103,1.14227 2.77203,1.4176 0.11114,0.49963 -0.22912,0.45018 -1.61416,-0.23361 -1.35609,-0.66991 -1.50972,-0.80557 -1.31572,-1.16619 0.0203,-0.0278 0.0673,-0.0332 0.15833,-0.0164 z m -0.37976,1.58493 c 0.1804,0.0372 0.53991,0.21803 1.37547,0.63453 1.18886,0.59245 1.44213,0.83801 1.1368,1.10181 -0.13423,0.11572 -2.74817,-1.1026 -2.82166,-1.31467 -0.0203,-0.061 0.0101,-0.19341 0.0766,-0.29406 0.0383,-0.0569 0.0576,-0.10044 0.1025,-0.12068 0.0286,-0.0164 0.0672,-0.0192 0.13143,-0.008 z"
     style="baseline-shift:baseline;display:inline;overflow:visible;vector-effect:none;fill:#000080;fill-rule:evenodd;stroke-width:1.84495;enable-background:accumulate;stop-color:#000000"
     id="path8-4" /><path
     d="m 227.64343,211.86115 c -0.4325,0.0911 -0.55716,0.72615 -0.55526,2.81745 6e-4,1.12066 -0.0576,3.97401 -0.1256,6.34072 -0.0671,2.36721 -0.18317,7.38864 -0.2522,11.15991 -0.0672,3.77121 -0.16214,8.73213 -0.20705,11.02327 l -0.0862,4.16576 0.29537,-6e-4 c 0.2456,-5.4e-4 0.29441,-0.0867 0.29345,-0.50591 -9.5e-4,-0.60268 0.53416,-1.36164 1.15971,-1.64435 0.62718,-0.28422 0.82663,-0.78445 0.6262,-1.56909 -0.0862,-0.34956 -0.22354,-2.45944 -0.29824,-4.68946 -0.0766,-2.23002 -0.20146,-5.61317 -0.28098,-7.51881 -0.0766,-1.90561 -0.19182,-7.10097 -0.25119,-11.54397 -0.0969,-7.22108 -0.13042,-8.07505 -0.32127,-8.03459 z m 4.52851,0.0599 c -0.24155,0.0765 -0.28481,0.88477 -0.3644,4.76469 -0.0384,1.90591 -0.12839,4.59363 -0.19944,5.97247 -0.0672,1.37883 -0.21769,5.12793 -0.32509,8.33157 -0.34334,10.24348 -0.42675,12.00886 -0.58402,12.45575 -0.2177,0.61737 -1.02124,1.64079 -1.50485,1.9156 -0.22431,0.12774 -0.5936,0.33655 -0.81993,0.46527 -0.50442,0.2865 -0.81703,0.90501 -0.81513,1.61465 5.8e-4,0.29341 -0.0766,0.67824 -0.16316,0.85539 -0.28481,0.55912 -0.51113,3.41574 -0.63099,7.99099 -0.11596,4.41147 -0.17152,5.15597 -0.66362,8.92253 -0.50537,3.85937 -0.57538,4.3607 -0.75855,5.38347 -0.10169,0.56794 -0.2484,1.52991 -0.32607,2.13833 -0.13321,1.05049 -0.23773,1.73366 -0.56962,3.76185 -0.0766,0.48678 -0.2205,1.48248 -0.31455,2.21258 -0.2944,2.28254 -0.48334,3.64287 -0.68472,4.9409 -0.10733,0.68956 -0.25323,1.6853 -0.32507,2.21259 -0.3558,2.6086 -0.87462,5.87973 -1.49756,9.44033 -0.23393,1.33864 -0.48142,2.76521 -0.54949,3.17086 -0.0672,0.40561 -0.21111,1.16944 -0.31649,1.69682 -0.10656,0.5274 -0.32028,1.622 -0.47564,2.43331 -0.15528,0.81133 -0.34523,1.74149 -0.42194,2.06605 -0.0766,0.32455 -0.22354,1.05466 -0.32512,1.62257 -0.41043,2.28179 -0.96952,4.65076 -1.79319,7.59797 -1.37268,4.91152 -3.88225,6.27563 -8.85218,4.81223 -0.72881,-0.21422 -1.50559,-0.4079 -2.94185,-0.7306 -0.49005,-0.10992 -1.06373,-0.27029 -1.27546,-0.3564 -0.62812,-0.2566 -4.0088,-0.19149 -4.81035,0.092 -6.76225,2.39072 -9.5899,11.02264 -6.18676,18.88262 2.42008,5.58783 8.67715,8.81941 13.00522,6.71591 2.91665,-1.41758 4.41409,-2.95688 5.79562,-5.95958 1.1943,-2.59478 1.7627,-4.68589 2.31017,-8.484 0.50827,-3.53194 1.21802,-5.44477 2.31931,-6.25264 l 0.67992,-0.49899 2.70038,0.0725 c 2.44609,0.0651 3.10607,-5.1e-4 2.70309,-0.26837 -0.26563,-0.1759 -0.17456,-2.35786 0.11037,-2.63626 0.77487,-0.75902 1.14032,1.63446 0.38743,2.53528 -0.55523,0.66424 0.72404,0.89377 4.26133,0.76432 0.55526,-0.0219 0.98775,-2.10717 0.58018,-2.79864 -0.12559,-0.21257 -1.08211,-0.43117 -1.94385,-0.4445 l -0.49482,-0.008 -0.0576,1.17805 c -0.048,0.86231 -0.12762,1.25773 -0.30976,1.47507 -0.58114,0.69521 -0.8132,0.10497 -0.73649,-1.86512 l 0.048,-1.15428 -0.72401,-0.0435 c -0.47661,-0.0278 -0.75186,-0.11573 -0.80172,-0.25551 -0.0383,-0.11926 -0.25415,-0.21339 -0.48139,-0.21283 -1.65532,0.003 -3.24647,-2.23297 -2.93086,-4.12126 0.048,-0.28441 0.16975,-1.04776 0.27139,-1.69679 0.35386,-2.25634 0.59074,-3.6943 0.80268,-4.86764 0.11697,-0.64901 0.48523,-2.70664 0.818,-4.57268 0.33277,-1.86599 0.70391,-3.9236 0.82473,-4.57262 0.12078,-0.64913 0.304,-1.64566 0.40756,-2.21358 0.10357,-0.56796 0.28772,-1.56355 0.40854,-2.21255 0.12077,-0.64901 0.27236,-1.59375 0.33564,-2.09974 0.0672,-0.50654 0.17253,-1.03796 0.24079,-1.18103 0.0673,-0.14253 0.16593,-0.65771 0.21491,-1.14443 0.048,-0.48666 0.17633,-1.31592 0.28194,-1.8433 0.10555,-0.52732 0.25988,-1.39024 0.34333,-1.91757 0.19663,-1.24477 0.35385,-2.1776 0.59646,-3.54108 0.10834,-0.60849 0.32607,-1.86964 0.48334,-2.8026 0.43729,-2.59562 1.46562,-8.36477 1.68312,-9.44034 0.19943,-0.98524 0.6636,-3.61935 0.81416,-4.61718 0.11596,-0.77321 1.00339,-1.71892 1.51501,-1.61464 0.5466,0.1119 0.8084,1.09946 1.78312,6.7387 0.40949,2.36967 0.62622,3.55214 0.69527,3.78462 0.0384,0.13594 0.1563,0.76543 0.25987,1.39984 0.36827,2.2618 0.51497,3.08152 0.70677,3.95393 0.10732,0.48637 0.23595,1.24889 0.28577,1.69481 0.048,0.44594 0.14589,0.92787 0.2139,1.07015 0.0672,0.1428 0.17735,0.6728 0.24154,1.17905 0.0672,0.50571 0.21974,1.3848 0.34526,1.9522 0.42001,1.90183 0.51114,2.3518 0.70294,3.46291 0.10453,0.60798 0.47661,2.56454 0.82471,4.34792 0.3481,1.78341 0.72211,3.76643 0.8324,4.40635 0.11037,0.63991 0.23114,1.27061 0.26946,1.40082 0.0383,0.12972 0.16772,0.79983 0.28963,1.48889 0.51591,2.93816 0.60416,3.40114 0.66554,3.50741 0.0384,0.0621 0.13702,0.67364 0.22633,1.36024 0.0862,0.68665 0.21008,1.31489 0.27139,1.39586 0.0575,0.0818 0.17938,0.57881 0.26276,1.10579 0.15528,0.99361 0.29345,1.61603 0.7125,3.24214 0.959,3.71114 0.74706,6.21383 -0.58018,6.90106 -0.9024,0.46683 -5.10848,1.21506 -6.88452,1.22461 -0.41237,0.002 -0.50059,1.5572 -0.14488,2.56102 0.16593,0.46799 0.21186,0.46942 2.4965,0.10228 1.98711,-0.31916 7.48161,-0.238 8.22885,0.12181 1.63986,0.78913 2.22811,1.92787 2.85652,5.53787 1.4307,8.22017 3.6638,12.91588 7.02962,14.7802 0.36345,0.20135 0.75281,0.44255 0.86597,0.53559 0.11315,0.0929 0.48236,0.23635 0.82089,0.32073 0.3385,0.0847 0.86213,0.22241 1.16334,0.30594 0.85446,0.2372 2.21724,0.16115 3.48734,-0.19504 4.02341,-1.12711 7.40993,-4.74207 8.5336,-9.10867 0.51938,-2.01797 0.57541,-5.63602 0.1129,-7.29902 -0.5117,-1.83929 -0.82106,-2.81742 -0.95396,-3.0214 -0.0796,-0.12153 -0.32894,-0.60713 -0.55459,-1.08005 -1.21448,-2.54731 -4.01625,-4.97348 -6.22987,-5.3943 -0.41426,-0.0785 -1.03043,-0.20571 -1.36903,-0.28312 -1.22098,-0.27761 -2.6019,-0.1562 -5.12721,0.45051 -0.5658,0.13567 -0.96916,0.26263 -3.2797,1.03053 -5.07591,1.688 -6.83104,0.22923 -8.21868,-6.83275 -0.0959,-0.48637 -0.37015,-1.84598 -0.61279,-3.02137 -0.50634,-2.46579 -0.84102,-4.18775 -1.3185,-6.77927 -0.18598,-1.01337 -0.4325,-2.30745 -0.5476,-2.87487 -0.11417,-0.56743 -0.30013,-1.49469 -0.41522,-2.06211 -0.11418,-0.56744 -0.24638,-1.33097 -0.29247,-1.69578 -0.048,-0.36489 -0.16697,-0.96189 -0.26853,-1.32659 -0.10075,-0.36466 -0.22634,-0.99444 -0.27812,-1.3998 -0.048,-0.40541 -0.14563,-0.8406 -0.20806,-0.96714 -0.0671,-0.1262 -0.17735,-0.65668 -0.25321,-1.17907 -0.0766,-0.52246 -0.19943,-1.24791 -0.27426,-1.61265 -0.0766,-0.36481 -0.26659,-1.45853 -0.42579,-2.43136 -0.15908,-0.97284 -0.38265,-2.33328 -0.4958,-3.02237 -0.56291,-3.42107 -1.21955,-7.82784 -1.515,-10.16991 -0.10834,-0.85126 -0.25794,-1.97961 -0.33469,-2.50662 -0.24942,-1.71314 -0.60608,-4.55732 -0.98891,-7.88604 -0.0862,-0.72967 -0.21567,-1.79159 -0.29345,-2.35908 -0.0766,-0.56754 -0.22809,-1.92682 -0.33465,-3.0214 -0.10633,-1.09459 -0.25797,-2.38846 -0.33854,-2.87485 -0.0969,-0.59131 -0.16011,-7.85503 -0.187,-21.91588 -0.0383,-20.62217 -0.048,-21.0327 -0.30303,-21.1051 -0.048,-0.0142 -0.0862,-0.0164 -0.11697,-0.006 z m -28.37753,107.00151 c 2.43199,0.0867 4.87462,1.20555 6.73033,3.40744 6.41425,7.61046 -1.05286,22.62935 -9.52248,19.15288 -2.61774,-1.07478 -4.80287,-3.141 -5.81586,-5.50125 -0.17356,-0.40509 -0.39413,-0.90223 -0.48907,-1.1048 -1.30987,-2.78129 -0.82855,-8.00517 1.04126,-11.28266 1.81986,-3.19044 4.92935,-4.78366 8.05612,-4.67161 z m 17.73304,0.10991 c 0.14969,-0.0342 0.30206,0.0569 0.43537,0.3227 0.18116,0.36199 0.0576,2.00065 -0.16974,2.29971 -0.26084,0.34018 -0.77871,0.22542 -0.87653,-0.19396 -0.25509,-1.08515 0.16291,-2.32482 0.61183,-2.42839 z m 35.01595,0.11685 c 3.74118,0.16279 7.59823,2.55537 9.20665,6.76346 2.44837,6.4069 -1.24759,14.77709 -7.17102,16.24038 -0.53318,0.13128 -2.74421,0.0982 -3.35047,-0.0506 -1.8917,-0.46569 -4.08278,-2.42065 -5.4522,-4.86271 -0.39221,-0.69957 -0.71348,-1.31925 -0.71348,-1.37702 -1.1e-4,-0.0569 -0.0862,-0.313 -0.19184,-0.56825 -1.62699,-3.93826 -1.51019,-9.32043 0.2666,-12.28551 1.65675,-2.76495 4.49629,-3.98652 7.40612,-3.85986 z"
     style="baseline-shift:baseline;display:inline;overflow:visible;vector-effect:none;fill:#000080;fill-rule:evenodd;stroke-width:1.84495;enable-background:accumulate;stop-color:#000000"
     id="path5-0" /><path
     d="m 255.55911,203.72264 c -1.65701,-0.0273 -5.16987,1.89702 -6.04072,3.30947 -0.35578,0.57724 -0.0105,1.45138 2.06307,5.26858 1.44468,2.65485 2.01586,3.7489 6.08397,11.63111 2.17881,4.2222 4.46185,9.28826 8.70164,19.30832 9.24914,21.86137 18.25982,42.01495 19.2415,43.03679 1.02348,1.06524 1.66742,1.94498 2.7298,3.72819 1.80498,3.02875 2.68951,5.15728 5.51372,13.26259 2.38134,6.83379 4.98088,13.0561 6.74408,16.14144 1.60359,2.80614 1.68382,2.87084 2.20913,1.78982 1.15937,-2.3856 1.58243,-5.43406 1.11929,-8.0692 -0.23014,-1.31066 -5.93181,-13.79727 -7.83856,-17.16798 -3.06285,-5.41262 -3.79686,-7.2487 -4.43392,-11.09158 -0.21364,-1.29061 -0.47929,-2.54471 -0.58949,-2.78679 -0.11037,-0.24238 -0.33305,-0.95082 -0.49579,-1.57503 -0.95122,-3.65406 -9.37654,-22.24555 -14.88105,-32.83715 -0.73641,-1.41711 -2.45742,-4.90437 -3.82425,-7.74948 -1.36683,-2.84511 -3.27117,-6.71627 -4.23192,-8.60182 -1.76902,-3.47186 -2.87419,-6.09488 -5.88564,-13.96842 -0.44593,-1.16453 -1.29643,-3.33761 -1.89235,-4.82907 -0.59552,-1.49167 -1.40155,-3.63435 -1.79139,-4.76171 -1.25185,-3.62084 -1.50071,-4.02163 -2.50112,-4.03808 z"
     style="baseline-shift:baseline;display:inline;overflow:visible;vector-effect:none;fill:#000080;fill-rule:evenodd;stroke-width:1.84495;enable-background:accumulate;stop-color:#000000"
     id="path3-3" /><path
     d="m 228.0255,108.3872 c -0.89761,-0.28113 -2.68411,0.77706 -6.397,2.84913 v -7.8e-4 c -6.09029,3.3985 -5.61463,4.16785 1.33404,2.15711 2.01685,-0.5839 3.92165,-1.06507 4.23286,-1.07015 0.31166,-0.003 0.38838,1.85141 0.17254,4.1252 -0.40564,4.26981 -0.7106,20.02672 -1.4847,76.68078 -0.51018,37.35275 -0.24638,36.29347 -5.13085,20.54675 -8.33738,-26.88147 -6.93975,-59.5506 3.62506,-84.75891 2.2208,-5.29925 2.1137,-5.85795 -0.70964,-3.6906 -1.98998,1.52771 -2.86515,2.79355 -1.20565,1.74434 0.45841,-0.28993 -2.61754,3.33057 -6.83494,8.04544 -24.51399,27.40504 -39.59693,55.76929 -44.62477,83.91942 -1.63796,9.17321 -1.79368,13.04741 -0.50252,12.51318 0.4862,-0.20079 2.84128,-0.59101 5.23375,-0.86717 l 4.35031,-0.50292 0.42771,3.84702 c 0.23598,2.11563 0.43059,4.73673 0.43442,5.82395 l 0.006,1.97696 h -7.31148 c -6.72819,0 -7.37072,-0.11954 -8.05524,-1.49879 -1.19364,-2.40455 -4.71112,-3.53418 -11.00452,-3.53418 h -5.74243 l 0.45839,-2.33631 c 5.65923,-28.88664 35.09825,-74.73266 64.16385,-99.92422 7.33659,-6.35861 9.97898,-9.05969 5.00042,-5.11023 -31.07294,24.64875 -59.84373,65.84195 -70.59757,101.07852 l -1.91901,6.29025 -4.16766,6e-4 c -4.00057,6.1e-4 -4.16848,0.0733 -4.16848,1.79878 v 1.79678 h 7.30965 7.30964 l 1.03581,3.77474 c 2.2137,8.06723 4.53406,13.50284 7.11409,16.66311 l 2.68382,3.28767 66.7926,-0.003 c 74.48171,-0.006 66.72128,0.52867 73.0941,-5.02803 5.26104,-4.58663 20.11395,-28.03883 17.75775,-28.03883 -0.18852,0 -4.92922,0.80213 -10.53435,1.78291 -18.90181,3.3078 -44.58459,6.10423 -72.70568,7.91676 l -7.1683,0.46134 v -1.71556 c 0,-1.66807 0.23014,-1.74115 8.16815,-2.59369 25.93464,-2.7853 74.33793,-9.0124 74.91853,-9.63837 0.1705,-0.18385 -1.87522,-1.72336 -4.54595,-3.42034 -30.39412,-19.31003 -53.97927,-46.707 -69.9254,-81.22488 -7.15603,-15.49073 -9.51207,-22.42956 -9.82372,-28.93768 -0.15731,-3.28422 -0.16595,-4.90432 -1.06323,-5.18546 z m 1.10273,12.1954 1.86118,11.86276 c 1.02345,6.52436 2.33955,16.82876 2.92443,22.89793 2.71765,28.1993 1.51048,61.07251 -2.8427,77.39557 -0.53609,2.01018 -0.87844,-16.08571 -1.68398,-88.79008 z m -19.4444,54.43923 c 0.21389,0.15154 -0.85543,1.12119 -3.15217,2.94614 -12.19098,9.68359 -22.40432,23.11998 -30.37184,39.95899 -3.8036,8.03934 -3.98131,6.09341 -0.49099,-5.38145 4.67714,-15.37669 15.50022,-28.43656 29.47287,-35.56354 2.83292,-1.44508 4.32864,-2.11162 4.5423,-1.96014 z m 39.20374,5.91012 c 0.18497,-0.10201 1.438,2.44688 3.85548,7.59203 2.50804,5.33828 6.62303,13.1029 9.14428,17.25511 4.97466,8.1919 12.41628,18.04603 16.30879,21.5971 l 2.44698,2.23137 -2.22844,-1.30973 c -10.33164,-6.07524 -21.0356,-21.57245 -26.97542,-39.05515 -1.85391,-5.4561 -2.73674,-8.20868 -2.55167,-8.31073 z m -23.25858,46.41553 v 6.75751 6.75748 l -8.16821,0.493 c -4.49235,0.27111 -9.65522,0.38527 -11.47269,0.2525 l -3.30456,-0.24156 -1.77671,-6.62089 -1.77765,-6.61991 4.74887,-0.24649 c 2.61102,-0.13511 8.5733,-0.3105 13.24948,-0.3891 z m -29.00918,1.085 c 2.28572,0.18439 2.19943,1.40765 2.78123,5.033 1.45256,9.05103 2.19116,8.26125 -7.71836,8.26125 h -8.60791 l -0.95956,-5.5725 c -1.18379,-6.87306 -1.63324,-6.42034 7.17193,-7.22676 3.736,-0.34214 5.96122,-0.6057 7.33267,-0.49496 z m 110.872,10.53024 c 1.10963,-0.0632 1.58045,0.0301 1.3442,0.28517 -0.72777,0.78468 -19.22673,4.61647 -29.27822,6.06454 -27.30638,3.93378 -62.49009,5.34694 -90.39734,3.63021 -25.2732,-1.55458 -24.56509,-1.98142 3.46155,-2.08685 40.63081,-0.15292 83.14964,-2.95725 109.69215,-7.23467 2.31954,-0.37377 4.06801,-0.59485 5.17766,-0.65831 z"
     style="baseline-shift:baseline;display:inline;overflow:visible;vector-effect:none;fill:#000080;fill-rule:evenodd;stroke-width:1.84495;enable-background:accumulate;stop-color:#000000"
     id="path2-77" /></g><path
   style="clip-rule:evenodd;fill:none;fill-rule:evenodd;stroke:#000000;stroke-width:1.1749px;stroke-linecap:butt;stroke-linejoin:miter;stroke-miterlimit:2;stroke-opacity:1"
   d="m 40.056722,-141.99046 v 0"
   id="path1-3" /><path
   d="m 110.69666,12.767846 c -0.57189,0 -0.99329,0.17616 -1.43531,0.618136 -0.006,0.0066 -0.0133,0.01177 -0.0215,0.01814 -0.42283,0.398206 -0.59684,0.802615 -0.59684,1.41723 v 9.429053 c -9.2e-4,0.684442 -0.76874,1.087458 -1.33263,0.699567 -0.90449,-0.623775 -1.91854,-1.091769 -3.0576,-1.408176 -0.009,-0.0027 -0.0184,-0.0053 -0.0274,-0.0093 -1.1052,-0.347366 -2.2586,-0.521661 -3.46767,-0.521661 -1.657764,1.3e-5 -3.200229,0.317024 -4.655724,0.94984 -1.471577,0.639831 -2.735836,1.493537 -3.814434,2.572112 -1.078583,1.078576 -1.932265,2.345848 -2.572096,3.817451 -0.631916,1.453419 -0.949846,3.010146 -0.949846,4.703968 0,1.65779 0.317017,3.200234 0.949846,4.655729 0.639831,1.471605 1.493513,2.738862 2.572096,3.817439 1.078598,1.078577 2.342857,1.932274 3.814434,2.572116 1.455495,0.632813 2.99796,0.949827 4.655724,0.949827 1.69383,0 3.25357,-0.317903 4.70699,-0.949827 1.47161,-0.639842 2.73585,-1.493539 3.81443,-2.572116 1.07859,-1.078577 1.9353,-2.345834 2.57513,-3.817439 0.63282,-1.455495 0.94681,-2.997939 0.94681,-4.655729 V 14.82145 c 0,-0.614628 -0.17402,-1.019063 -0.59702,-1.41723 -0.006,-0.0053 -0.0118,-0.01177 -0.0184,-0.01814 -0.43605,-0.436102 -0.87493,-0.618149 -1.48958,-0.618149 z m 37.15534,0 c -0.57196,0 -0.99634,0.17616 -1.43832,0.618136 -0.006,0.0066 -0.0118,0.01177 -0.0183,0.01814 -0.42303,0.398195 -0.59703,0.802601 -0.59703,1.41723 v 24.463646 c 0,1.046828 0.19587,2.013145 0.59101,2.924904 0.401,0.925373 0.9358,1.731246 1.60719,2.43641 0.70517,0.671397 1.51102,1.206188 2.4364,1.607195 0.91176,0.395079 1.87505,0.591005 2.92191,0.591005 h 1.0192 c 0.61459,0 1.02205,-0.174023 1.4202,-0.597039 0.006,-0.0075 0.0118,-0.01398 0.0183,-0.02085 0.44203,-0.442014 0.61816,-0.863398 0.61816,-1.435318 0,-0.614607 -0.18203,-1.053483 -0.61816,-1.489586 -0.006,-0.0066 -0.0117,-0.01177 -0.0183,-0.01787 -0.39814,-0.423041 -0.80561,-0.597033 -1.4202,-0.597033 h -1.0192 c -0.90256,0 -1.76091,-0.333004 -2.41532,-0.943822 -0.007,-0.0066 -0.0133,-0.01398 -0.0213,-0.0209 -0.64936,-0.649989 -1.01254,-1.520356 -1.01254,-2.436396 v -24.46436 c 0,-0.614628 -0.17401,-1.019064 -0.59702,-1.417216 -0.0117,-0.0131 -0.0248,-0.02564 -0.0363,-0.03915 -0.39816,-0.423042 -0.80562,-0.597047 -1.42023,-0.597047 z m 14.67878,0 c -0.57196,0 -0.99633,0.17616 -1.43833,0.618136 -0.006,0.0066 -0.0118,0.01177 -0.0183,0.01814 -0.42305,0.398195 -0.60005,0.802601 -0.60005,1.41723 v 20.233085 c 0,1.657791 0.317,3.200235 0.94982,4.655729 0.63985,1.471591 1.49654,2.738863 2.57511,3.817439 1.0786,1.078594 2.34285,1.932272 3.81443,2.572115 1.45552,0.632813 2.99797,0.949836 4.65575,0.949836 1.69383,0 3.25356,-0.317903 4.70696,-0.949836 1.4716,-0.639843 2.73587,-1.493521 3.81446,-2.572115 1.07856,-1.078576 1.93227,-2.345848 2.5721,-3.817439 0.6328,-1.455494 0.94985,-2.997938 0.94985,-4.655729 0,-1.693809 -0.31797,-3.25055 -0.94985,-4.703954 -0.63954,-1.471606 -1.49324,-2.738864 -2.57182,-3.817453 -1.0786,-1.078576 -2.34284,-1.932279 -3.81444,-2.572098 -1.45344,-0.631921 -3.01315,-0.949838 -4.70697,-0.949838 -1.20907,0 -2.36246,0.17428 -3.46768,0.521645 -0.007,0.0027 -0.0133,0.004 -0.0215,0.0066 -1.1069,0.316263 -2.1259,0.789079 -3.07264,1.420239 -0.56582,0.378587 -1.32503,-0.02799 -1.32374,-0.708608 v -9.429029 c 0,-0.614627 -0.17404,-1.019061 -0.59705,-1.41723 -0.0133,-0.0131 -0.0268,-0.02562 -0.0388,-0.03903 -0.3982,-0.423055 -0.80259,-0.597059 -1.41722,-0.597059 z M 34.95976,23.011036 c -1.578096,0 -2.849605,0.243439 -3.826505,0.687504 -0.003,0.0013 -0.0064,0.004 -0.009,0.0053 -0.996988,0.436167 -1.775974,0.981414 -2.364051,1.628289 -0.0046,0.0053 -0.0075,0.0093 -0.01191,0.01511 -0.608167,0.638571 -1.071938,1.340583 -1.405157,2.122816 v 0.0027 c -0.320237,0.801156 -0.54231,1.559607 -0.666392,2.273589 -0.129826,0.746637 -0.192948,1.38275 -0.192948,1.893648 v 1.019194 12.332844 c 0,0.571895 0.176162,0.996334 0.61815,1.438322 0.442012,0.442012 0.866406,0.618153 1.438326,0.618153 0.614618,0 1.050467,-0.182068 1.486576,-0.618153 0.442015,-0.442012 0.618154,-0.866416 0.618154,-1.438322 v -6.268809 c 0,-0.769159 -0.01838,-1.518398 -0.05135,-2.252485 -2.94e-4,-0.01177 -2.94e-4,-0.02628 0,-0.03903 v -2.038433 -1.477518 -0.56087 c 0,-0.283243 0.04122,-0.59882 0.111601,-1.088537 0.07917,-0.554273 0.236552,-1.104792 0.467391,-1.643388 0.0046,-0.008 0.0075,-0.01629 0.01191,-0.02392 0.292076,-0.625969 0.73803,-1.169139 1.296601,-1.613219 0.657203,-0.559701 1.524892,-0.814138 2.478632,-0.814138 0.979507,0 1.859283,0.245015 2.499735,0.829222 0.550362,0.474567 0.974617,1.036001 1.233293,1.670512 0.268387,0.580648 0.437444,1.167181 0.47941,1.754938 0.03427,0.480004 0.0543,0.732326 0.0543,0.928735 v 12.637386 c 0,0.571896 0.176208,0.996339 0.618144,1.438327 0.436103,0.436103 0.871963,0.618149 1.486575,0.618149 0.571956,0 0.996338,-0.176161 1.438331,-0.618149 0.0064,-0.0064 0.01191,-0.01252 0.01838,-0.01787 0.472359,-0.446135 0.6483,-0.860641 0.6483,-1.420229 V 32.355115 c 0,-0.196408 0.01986,-0.448715 0.0543,-0.928749 0.04072,-0.574746 0.184355,-1.154566 0.416089,-1.73382 0.0064,-0.01413 0.01191,-0.02799 0.01838,-0.04205 0.286415,-0.613748 0.696579,-1.167458 1.212179,-1.643377 0.0075,-0.0066 0.01589,-0.01177 0.02383,-0.01812 0.665637,-0.570555 1.556414,-0.817161 2.541961,-0.817161 0.946682,0 1.804789,0.25516 2.436407,0.826201 0.555443,0.444751 0.987627,0.993625 1.245342,1.628304 0.261283,0.533434 0.445042,1.082755 0.524693,1.640353 0.06993,0.489742 0.108512,0.805282 0.108512,1.08855 V 44.99263 c 0,0.571895 0.176209,0.996327 0.618154,1.438327 0.442013,0.442013 0.866421,0.618142 1.438328,0.618142 0.614611,0 1.050476,-0.182071 1.486573,-0.618142 0.442014,-0.442014 0.618144,-0.866423 0.618144,-1.438327 V 32.659782 31.640588 c 0,-0.510924 -0.06004,-1.147012 -0.189966,-1.893647 -0.122322,-0.703063 -0.355249,-1.453246 -0.705588,-2.249463 -0.0046,-0.01177 -0.01089,-0.02392 -0.0154,-0.03613 -0.299082,-0.777699 -0.743418,-1.475928 -1.350882,-2.113775 -0.0046,-0.0053 -0.01089,-0.0093 -0.0154,-0.01511 -0.583334,-0.641656 -1.372577,-1.188021 -2.403243,-1.62528 -0.01089,-0.004 -0.02037,-0.008 -0.03029,-0.01177 -0.936194,-0.43885 -2.188101,-0.684484 -3.76618,-0.684484 -1.447101,0 -2.605803,0.214019 -3.482748,0.594025 -0.943886,0.409035 -1.704922,0.899446 -2.300735,1.465469 -0.32853,0.312635 -0.844478,0.312635 -1.172968,0 -0.590695,-0.561161 -1.365779,-1.052678 -2.342934,-1.46246 -0.003,-9.75e-4 -0.0064,-0.0027 -0.009,-0.0027 -0.880755,-0.381413 -2.023882,-0.594049 -3.435126,-0.594049 z m 38.023755,0 c -1.657784,0 -3.200234,0.317025 -4.65573,0.94984 -1.471621,0.639832 -2.738896,1.493521 -3.817465,2.572111 -1.078549,1.078563 -1.932241,2.345834 -2.572086,3.817452 -0.631926,1.453404 -0.949852,3.010133 -0.949852,4.703953 0,1.65779 0.317006,3.200236 0.949852,4.65573 0.639845,1.471592 1.493537,2.738862 2.572086,3.817438 1.078569,1.078578 2.345844,1.932277 3.817465,2.572119 1.455496,0.632814 2.997946,0.949831 4.65573,0.949831 1.693815,0 3.25055,-0.317902 4.703956,-0.949831 1.471622,-0.639842 2.738882,-1.493541 3.817464,-2.572119 1.078583,-1.078576 1.932266,-2.345846 2.572083,-3.817438 0.632843,-1.455494 0.949875,-2.997952 0.949875,-4.65573 0,-1.693808 -0.317915,-3.250549 -0.949875,-4.703953 -0.639817,-1.471618 -1.4935,-2.738889 -2.572083,-3.817452 -1.078582,-1.07859 -2.345842,-1.932279 -3.817464,-2.572111 -1.453406,-0.631922 -3.010141,-0.94984 -4.703956,-0.94984 z m 56.112925,0 c -1.65779,0 -3.20024,0.317025 -4.65574,0.94984 -1.47158,0.639832 -2.73587,1.493521 -3.81444,2.572111 -1.0786,1.078563 -1.93529,2.345834 -2.57512,3.817452 -0.63192,1.453404 -0.94682,3.010145 -0.94682,4.703953 0,1.657778 0.31399,3.200236 0.94682,4.65573 0.63983,1.471592 1.49652,2.738862 2.57512,3.817438 1.07857,1.078578 2.34286,1.932277 3.81444,2.572119 1.4555,0.632814 2.99795,0.949831 4.65574,0.949831 1.532,0 2.94967,-0.254481 4.27277,-0.756849 h 0.004 c 1.37403,-0.543538 2.57425,-1.27216 3.61845,-2.189157 v -0.0027 h 0.004 c 0.46352,-0.41325 0.65679,-0.819789 0.68149,-1.38707 7.8e-4,-0.01042 9.7e-4,-0.02233 0.004,-0.03326 0.0514,-0.616586 -0.0968,-1.060679 -0.46739,-1.510711 -0.40457,-0.449663 -0.81826,-0.653247 -1.42327,-0.678451 -0.0118,2.63e-4 -0.0239,2.63e-4 -0.0364,0 -0.56739,-0.04967 -0.98942,0.08818 -1.45341,0.500531 -0.69208,0.61518 -1.49909,1.095934 -2.40325,1.435323 h -0.004 c -0.87948,0.342426 -1.81798,0.512607 -2.79525,0.512607 -1.5756,0 -3.03404,-0.423594 -4.2939,-1.263435 -0.006,-0.0027 -0.0103,-0.0066 -0.0153,-0.0093 -1.23553,-0.861325 -2.19263,-1.991911 -2.83112,-3.34403 -0.26463,-0.56367 0.14624,-1.211333 0.76892,-1.212162 h 14.88382 c 0.49691,0 0.94519,-0.09593 1.37804,-0.283463 0.46977,-0.222676 0.85677,-0.515588 1.18503,-0.898578 0,0 0.004,-0.0027 0.004,-0.0027 0.7057,-0.818606 0.95783,-1.676213 0.81718,-2.792225 -0.22289,-1.419752 -0.69208,-2.735592 -1.41722,-3.965203 -9.8e-4,-0.0053 -0.006,-0.0093 -0.006,-0.01511 -0.70099,-1.242475 -1.57062,-2.298567 -2.61445,-3.18423 -0.004,-0.0027 -0.006,-0.0053 -0.01,-0.0093 -1.04192,-0.915608 -2.23911,-1.625006 -3.60938,-2.134878 -0.007,-0.0027 -0.0165,-0.0066 -0.0239,-0.0093 -1.32512,-0.536102 -2.72144,-0.80502 -4.21582,-0.80502 z m 71.19878,0 c -1.6578,0 -3.20025,0.317025 -4.65574,0.94984 -1.47161,0.639832 -2.73585,1.493521 -3.81442,2.572111 -1.07858,1.078563 -1.93228,2.345834 -2.57211,3.817452 -0.63193,1.453404 -0.94985,3.010133 -0.94985,4.703953 0,1.65779 0.31703,3.200236 0.94985,4.65573 0.63983,1.471592 1.49353,2.738862 2.57211,3.817438 1.07857,1.078578 2.34281,1.932277 3.81442,2.572119 1.45549,0.632814 2.99794,0.949831 4.65574,0.949831 1.69381,0 3.25357,-0.317902 4.70697,-0.949831 1.47161,-0.639842 2.73589,-1.493541 3.81447,-2.572119 1.07854,-1.078576 1.93526,-2.345846 2.57509,-3.817438 0.63283,-1.455494 0.94983,-2.997952 0.94983,-4.65573 0,-1.693808 -0.31835,-3.250549 -0.94983,-4.703953 -0.63983,-1.471618 -1.49655,-2.738889 -2.57509,-3.817452 -1.07858,-1.07859 -2.34286,-1.932279 -3.81447,-2.572111 -1.4534,-0.631922 -3.01316,-0.94984 -4.70697,-0.94984 z m 18.6048,0 c -0.57198,0 -0.99636,0.17616 -1.43834,0.618149 -0.43606,0.436116 -0.61811,0.871945 -0.61811,1.486572 v 9.938635 c 0,1.65779 0.31736,3.200236 0.94977,4.65573 0.63989,1.471592 1.49356,2.738862 2.57217,3.817438 1.07852,1.078578 2.34581,1.932277 3.81741,2.572119 1.45546,0.632814 2.99795,0.949831 4.65569,0.949831 1.6938,0 3.25059,-0.317902 4.70397,-0.949831 1.47161,-0.639842 2.7389,-1.493541 3.81746,-2.572119 1.07861,-1.078576 1.93234,-2.345846 2.57212,-3.817438 0.63288,-1.455494 0.94983,-2.99794 0.94983,-4.65573 v -9.938635 c 0,-0.614627 -0.18227,-1.050482 -0.61813,-1.486572 -0.43654,-0.436116 -0.87196,-0.618149 -1.4866,-0.618149 -0.57192,0 -0.99631,0.17616 -1.43828,0.618149 -0.43655,0.436116 -0.61817,0.871945 -0.61817,1.486572 v 9.938635 c 0,1.062769 -0.21057,2.100387 -0.62722,3.084719 -9.7e-4,0.0053 -0.005,0.008 -0.006,0.01177 -0.4147,0.941982 -0.98429,1.780298 -1.70368,2.499747 -0.68954,0.689568 -1.51437,1.243094 -2.45153,1.655426 -0.96036,0.422595 -2.00085,0.633222 -3.09369,0.633222 -1.06283,0 -2.10047,-0.210773 -3.08477,-0.627191 -0.006,-0.0013 -0.0105,-0.0053 -0.0105,-0.0066 -0.93326,-0.410622 -1.76667,-0.957133 -2.48467,-1.637356 -0.0105,-0.01042 -0.0199,-0.02181 -0.0349,-0.03325 -0.68025,-0.71799 -1.22676,-1.551366 -1.63734,-2.48465 -9.7e-4,-0.0053 -0.006,-0.008 -0.006,-0.01178 -0.41669,-0.984332 -0.62723,-2.021949 -0.62723,-3.084718 V 25.11507 c 0,-0.614628 -0.18225,-1.050481 -0.61817,-1.486572 -0.006,-0.0053 -0.0105,-0.01177 -0.0199,-0.01814 -0.3983,-0.423041 -0.80257,-0.600055 -1.41722,-0.600055 z m 29.55957,0 c -0.57188,0 -0.99631,0.17616 -1.43829,0.618149 -0.43603,0.436116 -0.61513,0.871945 -0.61513,1.486572 v 12.335848 1.019194 c 0,0.472753 0.0596,1.093715 0.18971,1.842388 0.12316,0.70958 0.34517,1.482144 0.66331,2.312786 0.33128,0.7492 0.79474,1.460199 1.40821,2.137885 l 0.004,0.003 c 0.58754,0.616067 1.37362,1.164 2.37004,1.634338 0.98142,0.415343 2.26019,0.648299 3.8416,0.648299 1.41409,0 2.56129,-0.199054 3.44657,-0.551821 0.96588,-0.406106 1.73433,-0.905065 2.32185,-1.492614 0.33176,-0.332258 0.87092,-0.332258 1.20312,0 0.59201,0.591979 1.34517,1.090615 2.27663,1.495623 0.88178,0.350383 2.04468,0.548791 3.49181,0.548791 1.58001,0 2.83777,-0.229398 3.77825,-0.63925 l 0.004,-0.003 c 1.03804,-0.472357 1.83764,-1.023401 2.42438,-1.637341 0.61504,-0.678392 1.06515,-1.38729 1.36294,-2.131861 9.7e-4,-0.0053 0.005,-0.0093 0.006,-0.01484 0.3531,-0.834596 0.58907,-1.60465 0.71159,-2.309763 0.13007,-0.748687 0.19021,-1.369648 0.19021,-1.842386 V 37.451547 25.115698 c 0,-0.614629 -0.18227,-1.050469 -0.61813,-1.486572 -0.43555,-0.436116 -0.87196,-0.618149 -1.48655,-0.618149 -0.57189,0 -0.99636,0.176159 -1.43837,0.618149 -0.43557,0.436116 -0.6151,0.871943 -0.6151,1.486572 v 12.589143 c 0,0.283293 -0.0397,0.598833 -0.11166,1.088549 -0.0801,0.562027 -0.26123,1.127326 -0.52172,1.691614 -0.26023,0.640698 -0.68795,1.210925 -1.24527,1.688606 0,0 -0.004,0.0027 -0.004,0.0027 -0.63875,0.540504 -1.49093,0.762904 -2.43645,0.762904 -0.98544,0 -1.87623,-0.246631 -2.54192,-0.817173 -0.006,-0.008 -0.0105,-0.01398 -0.0248,-0.0209 -0.51585,-0.475892 -0.92877,-1.026606 -1.21519,-1.640353 -0.0105,-0.01985 -0.0148,-0.03967 -0.0248,-0.06044 -0.22747,-0.60547 -0.36901,-1.193687 -0.41022,-1.767001 -0.0349,-0.480004 -0.0527,-0.732339 -0.0527,-0.928735 V 25.115313 c 0,-0.602813 -0.18473,-1.028063 -0.65129,-1.468488 -0.006,-0.0066 -0.0105,-0.01177 -0.0148,-0.01814 -0.44201,-0.442004 -0.86639,-0.61815 -1.43832,-0.61815 -0.61461,0 -1.05047,0.182059 -1.48657,0.61815 -0.43554,0.436116 -0.61816,0.871956 -0.61816,1.486583 v 12.58913 c 0,0.196409 -0.0148,0.448784 -0.0527,0.928735 -0.0397,0.589466 -0.21106,1.187904 -0.47628,1.797158 -0.25775,0.635982 -0.68035,1.197707 -1.23028,1.67352 -0.64098,0.588835 -1.52276,0.835269 -2.50578,0.835269 -0.94539,0 -1.80227,-0.222151 -2.46354,-0.741787 -0.0105,-0.008 -0.0148,-0.01591 -0.0299,-0.02379 -0.55549,-0.476128 -0.99452,-1.033649 -1.28755,-1.661469 -0.006,-0.01484 -0.0105,-0.02982 -0.0248,-0.04573 -0.22598,-0.564131 -0.37994,-1.122032 -0.45839,-1.673533 -0.0694,-0.489742 -0.11167,-0.805283 -0.11167,-1.088538 v -0.56079 -1.426244 -2.038402 c 7e-4,-0.01177 9.8e-4,-0.02628 0.004,-0.03903 0.0298,-0.734062 0.0508,-1.486308 0.0508,-2.25548 v -6.269316 c 0,-0.614628 -0.18177,-1.050482 -0.61813,-1.486585 -0.43655,-0.436103 -0.87195,-0.61815 -1.48656,-0.61815 z m 44.44351,0 c -1.65779,0 -3.20027,0.317025 -4.65577,0.94984 -1.47162,0.639832 -2.73583,1.493521 -3.8144,2.572111 -1.07861,1.078563 -1.93533,2.345834 -2.57515,3.817452 -0.63187,1.453404 -0.94983,3.010145 -0.94983,4.703953 0,1.657778 0.31686,3.200236 0.94983,4.65573 0.63982,1.471592 1.49654,2.738862 2.57515,3.817438 1.07857,1.078578 2.34278,1.932277 3.8144,2.572119 1.4555,0.632814 2.99798,0.949831 4.65577,0.949831 1.53304,0 2.94893,-0.253784 4.2727,-0.756849 l 0.004,-0.003 c 1.37338,-0.543485 2.57455,-1.269498 3.61841,-2.186152 v -0.0027 h 0.004 c 0.46387,-0.413252 0.65675,-0.819775 0.68148,-1.387072 7.5e-4,-0.01042 9.8e-4,-0.02233 0.004,-0.03325 0.0527,-0.616575 -0.0968,-1.060666 -0.46733,-1.510698 -0.40427,-0.449718 -0.81828,-0.653235 -1.42329,-0.678451 -0.0105,2.89e-4 -0.0248,2.89e-4 -0.0397,0 -0.56723,-0.04967 -0.98644,0.08817 -1.45042,0.50053 -0.69207,0.61518 -1.49905,1.095947 -2.40324,1.435323 h -0.004 c -0.8795,0.342478 -1.81792,0.512608 -2.79527,0.512608 -1.57555,0 -3.03399,-0.42358 -4.29388,-1.263449 -0.005,-0.0027 -0.0105,-0.0066 -0.0148,-0.0093 -1.23584,-0.861327 -2.19292,-1.991924 -2.83143,-3.344018 -0.26519,-0.563734 0.14654,-1.211358 0.76891,-1.212187 h 14.88111 c 0.4969,0 0.9482,-0.09593 1.38098,-0.283411 0.46982,-0.222664 0.85681,-0.515591 1.1851,-0.898579 0,0 0.004,-0.0027 0.004,-0.0027 0.70728,-0.820472 0.95997,-1.678513 0.81718,-2.798258 -0.22349,-1.417571 -0.69301,-2.731228 -1.4172,-3.959184 -9.8e-4,-0.0053 -0.006,-0.0093 -0.006,-0.01511 -0.70086,-1.242478 -1.57048,-2.29857 -2.61432,-3.184218 -0.005,-0.0027 -0.006,-0.0053 -0.0105,-0.0093 -1.04191,-0.915622 -2.23611,-1.625005 -3.60639,-2.134878 -0.006,-0.0027 -0.0148,-0.0053 -0.0248,-0.0093 -1.32483,-0.536246 -2.7211,-0.805098 -4.21556,-0.805098 z m 24.25865,0.256278 c -1.00962,0 -1.97698,0.196934 -2.931,0.597033 -0.006,0.0011 -0.0105,0.0013 -0.0148,0.0027 -0.91487,0.365986 -1.71224,0.892101 -2.41529,1.595138 -0.70147,0.701458 -1.24812,1.520881 -1.64936,2.475608 -0.36504,0.916765 -0.54915,1.873832 -0.54915,2.888729 V 44.99279 c 0,0.571901 0.17632,0.996338 0.61818,1.438326 0.44201,0.442014 0.86644,0.618153 1.43833,0.618153 0.61461,0 1.01902,-0.176952 1.41723,-0.600054 0.006,-0.0064 0.0105,-0.01252 0.0148,-0.01787 0.44202,-0.442015 0.61822,-0.866421 0.61822,-1.438332 V 30.826538 c 0,-0.869421 0.36354,-1.704743 0.97696,-2.400236 0.0248,-0.02564 0.0447,-0.04954 0.0756,-0.0724 0.69553,-0.613682 1.52772,-0.979996 2.39719,-0.979996 h 3.77221 c 0.57945,0 1.01,-0.171142 1.4444,-0.575918 0.4281,-0.432502 0.60909,-0.868039 0.60909,-1.47753 0,-0.614628 -0.17384,-1.022072 -0.59702,-1.420238 -0.006,-0.0066 -0.0105,-0.01177 -0.0148,-0.01814 -0.44201,-0.442003 -0.86639,-0.615141 -1.43827,-0.615141 z m -244.178235,3.9049 c 1.092883,0 2.133345,0.21064 3.093755,0.633221 0.938443,0.412886 1.761258,0.98591 2.448479,1.7067 0.720782,0.687215 1.293788,1.510054 1.706704,2.448473 0.422596,0.960405 0.633211,2.000873 0.633211,3.093759 0,1.062754 -0.210777,2.100386 -0.627194,3.084718 -0.0013,0.0053 -0.0059,0.008 -0.0059,0.01177 -0.414505,0.941981 -0.98726,1.780298 -1.706703,2.499748 -0.689547,0.689553 -1.511362,1.243093 -2.44848,1.655411 -0.960395,0.422595 -2.000857,0.633236 -3.093741,0.633236 -1.06278,0 -2.100403,-0.210772 -3.084737,-0.627191 -0.0059,-0.0013 -0.0074,-0.0053 -0.01177,-0.0066 -0.93328,-0.410624 -1.766674,-0.957147 -2.484674,-1.637358 -0.0103,-0.01042 -0.02237,-0.02129 -0.03325,-0.03326 -0.680218,-0.71799 -1.226696,-1.551379 -1.637346,-2.48465 -0.0013,-0.0053 -0.0059,-0.008 -0.0059,-0.01177 -0.416446,-0.98432 -0.627208,-2.021963 -0.627208,-3.084719 0,-1.092885 0.21063,-2.133353 0.63324,-3.093758 0.412314,-0.937093 0.965882,-1.761941 1.65543,-2.451497 0.719413,-0.719435 1.557765,-1.289202 2.499739,-1.703675 0.0059,-0.0027 0.0074,-0.004 0.01177,-0.0066 0.98432,-0.416444 2.021956,-0.627204 3.084723,-0.627204 z m 27.774515,0 c 1.09291,0 2.13637,0.21064 3.09678,0.633221 0.93843,0.412886 1.76125,0.98591 2.44848,1.7067 0.72077,0.687215 1.29379,1.510054 1.7067,2.448473 0.42254,0.960405 0.63322,2.000846 0.63322,3.093759 0,1.062767 -0.21078,2.100386 -0.62719,3.084718 -9.8e-4,0.0053 -0.006,0.008 -0.006,0.01177 -0.4145,0.941981 -0.98729,1.780298 -1.7067,2.499748 -0.68958,0.689553 -1.51138,1.243093 -2.44848,1.655411 -0.9604,0.422595 -2.00387,0.633236 -3.09677,0.633236 -1.062768,0 -2.097403,-0.210772 -3.081706,-0.627191 -0.0059,-0.0013 -0.0074,-0.0053 -0.01177,-0.0066 -0.933279,-0.410624 -1.766658,-0.957147 -2.484644,-1.637358 -0.0103,-0.01042 -0.02237,-0.02129 -0.03325,-0.03326 -0.680175,-0.71799 -1.229699,-1.551379 -1.640362,-2.48465 -9.76e-4,-0.0053 -0.0013,-0.008 -0.0029,-0.01177 -0.416433,-0.98432 -0.627194,-2.021963 -0.627194,-3.084719 0,-1.092885 0.207584,-2.133353 0.630195,-3.093758 0.412372,-0.937093 0.965868,-1.761941 1.655459,-2.451497 0.719427,-0.719435 1.56075,-1.289202 2.502739,-1.703675 0.0059,-0.0027 0.0074,-0.004 0.01178,-0.0066 0.984288,-0.416444 2.018939,-0.627204 3.081693,-0.627204 z m 28.33841,0 c 1.57662,0 3.03678,0.445681 4.29389,1.317704 1.27319,0.826622 2.25707,1.942083 2.89775,3.298815 0.26459,0.563722 -0.14625,1.211333 -0.76893,1.212174 h -12.79419 c -0.62272,-8.41e-4 -1.03353,-0.648478 -0.76891,-1.212174 0.63854,-1.352213 1.60064,-2.467396 2.84046,-3.295792 1.25837,-0.874598 2.72095,-1.320727 4.29993,-1.320727 z m 43.373,0 c 1.0929,0 2.13336,0.21064 3.09375,0.633221 0.93843,0.412886 1.76126,0.98591 2.44847,1.7067 0.72079,0.687215 1.29379,1.510054 1.7067,2.448473 0.42253,0.960405 0.63323,2.000846 0.63323,3.093759 0,1.062767 -0.21077,2.100386 -0.62719,3.084718 -9.7e-4,0.0053 -0.006,0.008 -0.006,0.01177 -0.41448,0.941981 -0.98424,1.780298 -1.70365,2.499748 -0.68957,0.689553 -1.51438,1.243093 -2.45151,1.655411 -0.96039,0.422595 -2.00084,0.633236 -3.09376,0.633236 -1.06275,0 -2.10041,-0.210772 -3.08472,-0.627191 -0.006,-0.0013 -0.007,-0.0053 -0.0118,-0.0066 -0.93326,-0.410624 -1.76667,-0.957147 -2.48466,-1.637358 -0.0105,-0.01042 -0.0203,-0.02233 -0.0303,-0.03326 -0.68021,-0.71799 -1.22972,-1.551379 -1.64037,-2.48465 -9.7e-4,-0.0053 -0.006,-0.008 -0.006,-0.01177 -0.41643,-0.98432 -0.62719,-2.021963 -0.62719,-3.084719 0,-1.092885 0.21063,-2.133353 0.63321,-3.093758 0.41237,-0.937093 0.96586,-1.761941 1.65546,-2.451497 0.71943,-0.719435 1.55773,-1.289202 2.49972,-1.703675 0.006,-0.0027 0.007,-0.004 0.0118,-0.0066 0.98432,-0.416444 2.02197,-0.627204 3.08474,-0.627204 z m 27.82578,0 c 1.09288,0 2.13636,0.21064 3.09678,0.633221 0.93841,0.412886 1.76124,0.98591 2.44846,1.7067 0.72081,0.687215 1.2938,1.510054 1.70672,2.448473 0.42265,0.960405 0.63319,2.000873 0.63319,3.093759 0,1.062754 -0.21057,2.100386 -0.62718,3.084718 -9.8e-4,0.0053 -0.006,0.008 -0.006,0.01177 -0.41461,0.941981 -0.98725,1.780298 -1.7067,2.499748 -0.68955,0.689553 -1.51139,1.243093 -2.44846,1.655411 -0.96043,0.422595 -2.00392,0.633236 -3.0968,0.633236 -1.06277,0 -2.09737,-0.210772 -3.0817,-0.627191 -0.006,-0.0013 -0.007,-0.0053 -0.0118,-0.0066 -0.93328,-0.410624 -1.76667,-0.957147 -2.48466,-1.637358 -0.0105,-0.01042 -0.0223,-0.02129 -0.0333,-0.03326 -0.6802,-0.71799 -1.22669,-1.551379 -1.63736,-2.48465 -9.8e-4,-0.0053 -0.006,-0.008 -0.006,-0.01177 -0.41643,-0.98432 -0.6272,-2.021963 -0.6272,-3.084719 0,-1.092885 0.21062,-2.133353 0.63322,-3.093758 0.41235,-0.937093 0.96286,-1.761941 1.65243,-2.451497 0.71944,-0.719435 1.56077,-1.289202 2.50273,-1.703675 0.006,-0.0027 0.007,-0.004 0.0118,-0.0066 0.98434,-0.416444 2.01894,-0.627204 3.08171,-0.627204 z m 92.60788,0 c 1.57661,0 3.03684,0.445681 4.29389,1.317704 1.2732,0.826622 2.25407,1.942083 2.8947,3.298815 0.26421,0.563722 -0.14609,1.211333 -0.76892,1.212174 h -12.79112 c -0.62273,-8.41e-4 -1.0336,-0.648478 -0.76894,-1.212174 0.63853,-1.352213 1.60062,-2.467396 2.84044,-3.295792 1.25835,-0.874598 2.72093,-1.320727 4.29995,-1.320727 z"
   style="-inkscape-font-specification:'Boldena, Normal';clip-rule:nonzero;fill:#000080;fill-rule:nonzero;stroke-width:1.54387;stroke-linejoin:miter;stroke-miterlimit:2"
   id="path17-9" /><path
   d="m 31.470669,431.95777 c -0.571895,0 -0.996337,0.17615 -1.438331,0.61814 -0.0064,0.006 -0.01191,0.0118 -0.01838,0.0183 -0.423042,0.3981 -0.600055,0.8056 -0.600055,1.42023 v 9.42904 c -0.0011,0.68446 -0.768881,1.08745 -1.33279,0.69958 -0.904479,-0.62379 -1.918532,-1.09481 -3.057586,-1.4112 -0.009,-9.8e-4 -0.01838,-0.004 -0.02731,-0.006 -1.105229,-0.34733 -2.255597,-0.52165 -3.464652,-0.52165 -1.657793,0 -3.200252,0.31398 -4.655717,0.94683 -1.471619,0.63981 -2.73887,1.49654 -3.817463,2.57511 -1.078571,1.07858 -1.932269,2.34283 -2.572106,3.81443 -0.631925,1.45342 -0.9498369,3.01318 -0.9498369,4.707 0,1.65776 0.3170084,3.20025 0.9498369,4.65571 0.639837,1.47163 1.493535,2.73587 2.572106,3.81444 1.078593,1.07857 2.345844,1.93226 3.817463,2.57212 1.455465,0.63281 2.997924,0.94984 4.655717,0.94984 1.693801,0 3.250542,-0.31796 4.703974,-0.94984 1.471579,-0.63986 2.738846,-1.49355 3.817435,-2.57212 1.078578,-1.07857 1.932275,-2.34281 2.572111,-3.81444 0.63282,-1.45546 0.949838,-2.99795 0.949838,-4.65571 v -20.23309 c 0,-0.61464 -0.177006,-1.02208 -0.600056,-1.42024 -0.0064,-0.006 -0.01192,-0.0118 -0.01838,-0.0183 -0.436053,-0.43611 -0.871948,-0.61816 -1.486575,-0.61816 z m 37.1523,0 c -0.571889,0 -0.993308,0.17615 -1.435297,0.61814 -0.0059,0.006 -0.01177,0.0118 -0.01839,0.0183 -0.423082,0.3981 -0.600047,0.8056 -0.600047,1.42023 v 30.17175 c 0,0.57191 0.1762,0.99329 0.618145,1.43531 0.442017,0.44197 0.863392,0.61816 1.435294,0.61816 0.614629,0 1.022072,-0.17706 1.420261,-0.60009 0.0059,-0.006 0.01177,-0.0118 0.01839,-0.0183 0.442002,-0.44202 0.618144,-0.86342 0.618144,-1.43531 v -4.28182 c -1.9e-4,-0.23224 0.0946,-0.45449 0.262316,-0.61514 l 3.464665,-3.31387 c 0.339293,-0.32283 0.875752,-0.31077 1.200111,0.0274 l 9.266198,9.61899 c 0.44202,0.44198 0.863424,0.61817 1.435327,0.61817 0.01177,-2.8e-4 0.02383,-2.8e-4 0.03619,0 0.6068,0.0253 1.023189,-0.13654 1.453407,-0.5669 0.442017,-0.442 0.618158,-0.86339 0.618158,-1.43533 -2.64e-4,-0.0118 -2.64e-4,-0.0239 0,-0.0362 0.02531,-0.60679 -0.136682,-1.02318 -0.566885,-1.45338 -0.0059,-0.006 -0.0074,-0.007 -0.01177,-0.0118 l -9.223988,-9.57979 c -0.327788,-0.3392 -0.316931,-0.88032 0.02383,-1.20614 l 7.185615,-6.88107 c 0.0013,-9.8e-4 0.0059,-9.8e-4 0.0059,-0.004 0.435602,-0.40989 0.626016,-0.82412 0.651337,-1.40516 0.0253,-0.6068 -0.139625,-1.02321 -0.569917,-1.4534 -0.442018,-0.44202 -0.899277,-0.64045 -1.522763,-0.66639 -0.563442,-0.0249 -0.96603,0.1308 -1.402133,0.56687 -0.0059,0.006 -0.0088,0.007 -0.01545,0.0118 L 72.1143,452.4675 c -0.542359,0.51315 -1.435457,0.12844 -1.435324,-0.61814 v -17.83588 c 0,-0.61464 -0.176996,-1.02207 -0.600034,-1.42022 -0.01177,-0.0117 -0.02486,-0.0239 -0.03634,-0.0363 -0.398176,-0.42304 -0.805633,-0.60006 -1.420276,-0.60006 z m 26.146246,0 c -0.571903,0 -0.996354,0.17615 -1.438342,0.61814 -0.0059,0.006 -0.01178,0.0118 -0.01839,0.0183 -0.423039,0.3981 -0.597047,0.8056 -0.597047,1.42023 v 20.23311 c 0,1.65778 0.313987,3.20023 0.946815,4.6557 0.639831,1.47164 1.496559,2.73586 2.575127,3.81445 1.078584,1.07857 2.342828,1.93225 3.814452,2.57209 1.45547,0.63283 2.99793,0.94987 4.65571,0.94987 1.69383,0 3.25357,-0.31796 4.70699,-0.94987 1.47161,-0.63984 2.73587,-1.49352 3.81444,-2.57209 1.07858,-1.07859 1.93529,-2.34281 2.57512,-3.81445 0.63282,-1.45547 0.94681,-2.99792 0.94681,-4.6557 0,-1.69382 -0.31492,-3.25356 -0.94681,-4.707 -0.63983,-1.4716 -1.49654,-2.73584 -2.57512,-3.81443 -1.07857,-1.07857 -2.34283,-1.9353 -3.81444,-2.57512 -1.45342,-0.63194 -3.01316,-0.94681 -4.70699,-0.94681 -1.20907,0 -2.35944,0.17425 -3.46463,0.52164 -0.007,9.7e-4 -0.0132,0.006 -0.0215,0.006 -1.10692,0.31628 -2.128937,0.78608 -3.075678,1.41724 -0.564723,0.37784 -1.322596,-0.0263 -1.323744,-0.7056 v -9.42932 c 0,-0.61464 -0.174038,-1.02208 -0.597046,-1.42024 -0.01177,-0.0118 -0.02486,-0.0239 -0.03619,-0.0362 -0.398175,-0.42305 -0.805615,-0.60005 -1.420245,-0.60005 z m 85.114705,0 c -0.57192,0 -0.99637,0.17615 -1.43837,0.61814 -0.006,0.006 -0.0118,0.0118 -0.0183,0.0183 -0.42303,0.3981 -0.59704,0.8056 -0.59704,1.42023 v 24.46364 c 0,1.04685 0.19592,2.01016 0.59099,2.92189 0.401,0.92539 0.93581,1.73127 1.60721,2.43644 0.70518,0.67137 1.51106,1.20618 2.43642,1.60717 0.91177,0.39508 1.87505,0.59102 2.92188,0.59102 h 1.01919 c 0.61464,0 1.02207,-0.17401 1.42024,-0.59706 0.006,-0.006 0.0118,-0.0117 0.0183,-0.0183 0.44202,-0.44201 0.61817,-0.86644 0.61817,-1.43832 0,-0.61464 -0.18207,-1.05048 -0.61817,-1.48659 -0.006,-0.006 -0.0118,-0.0133 -0.0183,-0.0215 -0.39817,-0.42305 -0.80562,-0.59705 -1.42024,-0.59705 h -1.01915 c -0.90256,0 -1.7609,-0.333 -2.41533,-0.94381 -0.007,-0.006 -0.0133,-0.0118 -0.0213,-0.0183 -0.65002,-0.65003 -1.01318,-1.52039 -1.01318,-2.43643 v -24.46362 c 0,-0.61462 -0.17402,-1.02208 -0.59703,-1.42024 -0.0118,-0.0118 -0.0248,-0.0239 -0.0363,-0.0362 -0.39816,-0.42304 -0.80561,-0.60008 -1.42023,-0.60008 z m 71.75966,0 c -0.57184,0 -0.99339,0.17615 -1.43534,0.61814 -0.006,0.006 -0.0105,0.0118 -0.0199,0.0183 -0.42314,0.3981 -0.60005,0.80559 -0.60005,1.42023 v 30.17175 c 0,0.57191 0.17632,0.99329 0.61813,1.43531 0.44201,0.44197 0.86347,0.61816 1.43535,0.61816 0.61465,0 1.02205,-0.17706 1.42024,-0.60009 0.006,-0.006 0.0105,-0.0118 0.0148,-0.0183 0.44202,-0.44202 0.61822,-0.86342 0.61822,-1.43531 v -4.28182 c -1.9e-4,-0.23224 0.0943,-0.45449 0.26272,-0.61514 l 3.46472,-3.31387 c 0.33871,-0.32283 0.87577,-0.31077 1.20012,0.0274 l 9.26614,9.61899 c 0.44202,0.44198 0.86343,0.61817 1.43531,0.61817 0.0105,-2.8e-4 0.0248,-2.8e-4 0.0347,0 0.6068,0.0253 1.02325,-0.13654 1.45338,-0.5669 0.44202,-0.442 0.61816,-0.86338 0.61816,-1.43533 -1.8e-4,-0.0118 -1.8e-4,-0.0239 0,-0.0362 0.0248,-0.60679 -0.13653,-1.02318 -0.56662,-1.45338 -0.006,-0.006 -0.006,-0.007 -0.0105,-0.0118 l -9.22393,-9.57979 c -0.32779,-0.3392 -0.31734,-0.88032 0.0248,-1.20614 l 7.18554,-6.88107 c 9.8e-4,-9.8e-4 0.006,-9.8e-4 0.006,-0.004 0.43557,-0.40989 0.62618,-0.82412 0.65131,-1.40516 0.0248,-0.6068 -0.13964,-1.02321 -0.5701,-1.4534 -0.44201,-0.44202 -0.89917,-0.64045 -1.52272,-0.66639 -0.56366,-0.0249 -0.96601,0.1308 -1.40217,0.56687 -0.005,0.006 -0.006,0.007 -0.0105,0.0118 l -10.85833,10.3487 c -0.54263,0.51315 -1.43551,0.12844 -1.43531,-0.61814 v -17.83588 c 0,-0.61462 -0.1768,-1.02207 -0.60009,-1.42022 -0.0105,-0.0117 -0.0248,-0.0239 -0.0349,-0.0363 -0.39781,-0.42304 -0.80556,-0.60006 -1.42016,-0.60006 z m 27.37046,0 c -0.8924,0 -1.54833,0.26977 -2.14997,0.87144 -0.006,0.006 -0.0105,0.0105 -0.0148,0.0154 -0.59139,0.5645 -0.85939,1.19428 -0.85939,2.08662 0,0.89238 0.27316,1.54828 0.87443,2.14998 0.60173,0.60168 1.25765,0.87142 2.15003,0.87142 0.85205,0 1.49241,-0.26521 2.09862,-0.87142 0.60173,-0.6017 0.87147,-1.2576 0.87147,-2.14998 0,-0.89234 -0.26522,-1.5221 -0.85636,-2.08662 -0.006,-0.006 -0.0105,-0.01 -0.0148,-0.0154 -0.60625,-0.60627 -1.24662,-0.87144 -2.09867,-0.87144 z m 58.81465,9.58282 c -0.58423,0 -0.98751,0.16735 -1.38711,0.56688 -0.006,0.006 -0.0105,0.0118 -0.0148,0.0183 -0.39828,0.37338 -0.59893,0.78774 -0.65124,1.39011 -0.0585,0.6411 -0.77696,0.98976 -1.31478,0.63622 -0.91327,-0.59838 -1.94037,-1.07385 -3.09373,-1.42627 -0.004,4e-5 -0.006,4e-5 -0.0105,0 -1.10524,-0.34735 -2.25557,-0.52164 -3.46466,-0.52164 -1.65779,0 -3.20027,0.31396 -4.6558,0.94681 -1.47154,0.63982 -2.7358,1.49655 -3.81437,2.57512 -1.0786,1.07859 -1.93532,2.34283 -2.57515,3.81443 -0.63193,1.45344 -0.9468,3.01318 -0.9468,4.707 0,1.65778 0.3144,3.20023 0.9468,4.6557 0.63983,1.47164 1.49655,2.73589 2.57515,3.81445 1.07857,1.07857 2.34283,1.93225 3.81437,2.57209 1.45553,0.63283 2.99801,0.94987 4.6558,0.94987 1.21223,0 2.36624,-0.15824 3.47368,-0.4734 l 0.004,-0.004 c 1.14476,-0.3502 2.16382,-0.83565 3.07264,-1.46245 0.56429,-0.3918 1.33648,0.0118 1.33582,0.69956 v 0.20501 c 0,1.06074 -0.21404,2.08143 -0.63321,3.03647 -0.41073,0.96962 -0.98287,1.80842 -1.70672,2.49974 -0.68796,0.72282 -1.51115,1.30203 -2.4515,1.71575 -0.96039,0.42258 -2.00083,0.63019 -3.09375,0.63019 -1.21131,0 -2.37024,-0.26837 -3.4375,-0.80206 -1.04917,-0.5246 -1.94933,-1.23041 -2.6716,-2.10473 -0.006,-0.006 -0.006,-0.01 -0.0105,-0.0153 -0.38194,-0.48377 -0.78213,-0.70017 -1.39012,-0.75081 0,0 -0.004,0 -0.004,0 -0.5906,-0.0514 -1.03294,0.083 -1.48955,0.43721 -0.48769,0.38559 -0.71427,0.79196 -0.79303,1.35387 -0.0447,0.61015 0.0924,1.08315 0.4763,1.57101 v 0.004 c 1.11197,1.3633 2.44875,2.43402 4.03755,3.22946 l 0.006,0.004 c 1.61279,0.78952 3.35863,1.18505 5.27688,1.18505 1.6938,0 3.25351,-0.31791 4.70701,-0.94984 1.47148,-0.63982 2.73579,-1.49351 3.81437,-2.57212 1.0785,-1.07857 1.93526,-2.3428 2.57514,-3.81441 0.63278,-1.4555 0.9468,-2.99794 0.9468,-4.65573 v -21.61148 c 0,-0.57196 -0.17332,-0.99332 -0.61513,-1.43533 -0.43557,-0.43611 -0.87499,-0.61814 -1.48958,-0.61814 z m -287.961274,0.66339 c -1.65779,0 -3.200237,0.31396 -4.655734,0.94681 -1.471611,0.63983 -2.735853,1.49655 -3.814427,2.57512 -1.078591,1.07857 -1.93229,2.34283 -2.572115,3.81444 -0.631921,1.45343 -0.949833,3.01317 -0.949833,4.707 0,1.65775 0.317006,3.20025 0.949833,4.6557 0.639825,1.47162 1.493524,2.73586 2.572115,3.81444 1.078574,1.07857 2.342816,1.93228 3.814427,2.57211 1.455497,0.63281 2.997944,0.94984 4.655734,0.94984 1.533056,0 2.951914,-0.25374 4.275779,-0.75686 l 0.003,-0.004 c 1.373406,-0.54348 2.574609,-1.2695 3.618436,-2.18615 v -0.004 h 0.003 c 0.463519,-0.41321 0.653768,-0.81679 0.678472,-1.38406 7.83e-4,-0.0105 0.0017,-0.0223 0.003,-0.0333 0.05135,-0.61657 -0.09372,-1.06066 -0.464314,-1.51068 -0.404566,-0.44967 -0.81826,-0.65332 -1.423258,-0.67848 -0.01191,-7e-4 -0.02632,-9.7e-4 -0.03874,-0.004 -0.567351,-0.0498 -0.986401,0.0882 -1.450389,0.50054 -0.692069,0.61517 -1.502105,1.09594 -2.406258,1.43531 h -0.003 c -0.879447,0.3424 -1.817951,0.51262 -2.795233,0.51262 -1.575575,0 -3.034056,-0.42358 -4.293878,-1.26344 -0.0046,-0.004 -0.01089,-0.006 -0.0154,-0.01 -1.235834,-0.86134 -2.192928,-1.98894 -2.831419,-3.34102 -0.26774,-0.56455 0.14417,-1.21542 0.768905,-1.21518 h 14.88388 c 0.496952,0 0.948212,-0.096 1.381039,-0.28348 0.467986,-0.22252 0.857693,-0.51671 1.185037,-0.89859 0.70645,-0.81941 0.958719,-1.67758 0.817145,-2.79524 -0.222888,-1.41974 -0.68903,-2.73562 -1.414185,-3.96523 -0.003,-0.006 -0.0064,-0.007 -0.009,-0.0118 -0.700884,-1.24248 -1.567503,-2.29856 -2.61131,-3.18421 -0.0046,-0.006 -0.0075,-0.007 -0.01192,-0.0118 -1.041909,-0.91563 -2.239112,-1.62502 -3.60939,-2.13488 -0.0075,-0.004 -0.01398,-0.006 -0.02134,-0.01 -1.324774,-0.53619 -2.724125,-0.8021 -4.218497,-0.8021 z m 82.669224,0 c -1.65777,0 -3.20023,0.31396 -4.65571,0.94681 -1.47161,0.63983 -2.73587,1.49655 -3.81444,2.57512 -1.07858,1.07857 -1.93529,2.34283 -2.57513,3.81444 -0.63189,1.45343 -0.94984,3.01317 -0.94984,4.707 0,1.65775 0.31702,3.20025 0.94984,4.6557 0.63984,1.47162 1.49655,2.73586 2.57513,3.81444 1.07857,1.07857 2.34283,1.93228 3.81444,2.57211 1.45548,0.63281 2.99794,0.94984 4.65571,0.94984 1.53311,0 2.94891,-0.25374 4.27278,-0.75686 l 0.004,-0.004 c 1.3734,-0.54348 2.57462,-1.2695 3.61845,-2.18615 v -0.004 h 0.004 c 0.46351,-0.41321 0.65675,-0.81679 0.68144,-1.38406 -2e-4,-0.0105 -2e-4,-0.0223 0,-0.0333 0.0514,-0.61657 -0.0937,-1.06066 -0.46429,-1.51068 -0.40462,-0.44967 -0.81829,-0.65332 -1.42325,-0.67848 -0.0117,-7e-4 -0.0263,-9.7e-4 -0.0388,-0.004 -0.56735,-0.0498 -0.9864,0.0882 -1.4504,0.50054 -0.69207,0.61517 -1.49909,1.09594 -2.40324,1.43531 h -0.004 c -0.87947,0.3424 -1.81794,0.51262 -2.79525,0.51262 -1.57557,0 -3.03403,-0.42358 -4.29386,-1.26344 -0.006,-0.004 -0.0105,-0.006 -0.0154,-0.01 -1.23585,-0.86134 -2.19295,-1.98894 -2.83145,-3.34102 -0.2677,-0.56455 0.14419,-1.21542 0.76893,-1.21518 h 14.88082 c 0.49929,0 0.95241,-0.0972 1.38708,-0.28642 0.46615,-0.22225 0.85259,-0.51477 1.179,-0.89558 0,0 0.004,0 0.004,0 0.70726,-0.82045 0.95996,-1.67848 0.81716,-2.79825 -0.22303,-1.41868 -0.69255,-2.73343 -1.4172,-3.9622 -0.004,-0.006 -0.006,-0.007 -0.01,-0.0118 -0.70086,-1.24247 -1.56748,-2.29857 -2.61131,-3.18424 -0.006,-0.006 -0.007,-0.007 -0.0117,-0.0117 -1.04191,-0.91564 -2.23611,-1.62501 -3.60637,-2.13486 -0.007,-0.004 -0.0165,-0.006 -0.0239,-0.01 -1.32478,-0.5362 -2.7211,-0.80208 -4.21549,-0.80208 z m 28.48918,0 c -1.65779,0 -3.20024,0.31396 -4.65573,0.94681 -1.47163,0.63983 -2.73586,1.49655 -3.81445,2.57512 -1.07858,1.07857 -1.93528,2.34283 -2.5751,3.81444 -0.63193,1.45343 -0.94683,3.01317 -0.94683,4.707 v 20.89644 c 0,0.61463 0.17398,1.01907 0.59704,1.41723 0.006,0.006 0.0118,0.0117 0.0183,0.0183 0.44203,0.44202 0.86642,0.61815 1.43834,0.61815 0.61462,0 1.02206,-0.177 1.42022,-0.60005 0.0118,-0.0117 0.0239,-0.0248 0.0362,-0.0363 0.42305,-0.39816 0.59703,-0.80259 0.59703,-1.41722 v -10.14367 c -9.7e-4,-0.68081 0.75792,-1.08719 1.32376,-0.70862 0.94953,0.63303 1.9764,1.12433 3.08772,1.47452 1.10745,0.31522 2.26146,0.4734 3.4737,0.4734 1.69382,0 3.25358,-0.31795 4.70697,-0.94984 1.47162,-0.63985 2.73587,-1.49355 3.81444,-2.57209 1.0786,-1.07859 1.93531,-2.34283 2.57513,-3.81446 0.63282,-1.45547 0.94684,-2.99794 0.94684,-4.65571 0,-1.69383 -0.31493,-3.25357 -0.94684,-4.70699 -0.63982,-1.4716 -1.49653,-2.73586 -2.57513,-3.81443 -1.07865,-1.07854 -2.3429,-1.93526 -3.81451,-2.57509 -1.45339,-0.63193 -3.01318,-0.94681 -4.70697,-0.94681 z m 41.94673,0 c -1.65778,0 -3.20025,0.31396 -4.65574,0.94681 -1.47159,0.63983 -2.73886,1.49655 -3.81744,2.57512 -1.07857,1.07857 -1.93229,2.34283 -2.57212,3.81444 -0.63191,1.45343 -0.9498,3.01317 -0.9498,4.707 0,1.65775 0.31699,3.20025 0.9498,4.6557 0.63983,1.47162 1.49355,2.73586 2.57212,3.81444 1.07858,1.07857 2.34585,1.93228 3.81744,2.57211 1.45549,0.63281 2.99796,0.94984 4.65574,0.94984 1.24516,0 2.4129,-0.17497 3.5159,-0.52165 9.8e-4,-9.8e-4 0.006,-9.8e-4 0.006,-0.004 1.14856,-0.35092 2.19044,-0.83912 3.13901,-1.47148 0.48175,-0.32311 1.13872,-0.0796 1.29357,0.4794 0.12419,0.44724 0.34567,0.78464 0.72976,1.09158 0.36553,0.29258 0.74492,0.42512 1.25437,0.42512 0.61466,0 1.05045,-0.18205 1.48655,-0.61814 0.44202,-0.44201 0.61813,-0.86341 0.61813,-1.43531 v -9.93822 c 0,-1.69382 -0.31835,-3.25356 -0.94977,-4.707 -0.63983,-1.4716 -1.49356,-2.73583 -2.57218,-3.81443 -1.07855,-1.07858 -2.34582,-1.93528 -3.81739,-2.57511 -1.45343,-0.63194 -3.01015,-0.94682 -4.704,-0.94682 z m 29.05,0 c -1.65775,0 -3.20022,0.31396 -4.65569,0.94681 -1.4716,0.63983 -2.73586,1.49655 -3.81443,2.57512 -1.0786,1.07857 -1.93531,2.34283 -2.57514,3.81444 -0.63193,1.45343 -0.94681,3.01317 -0.94681,4.707 v 9.93863 c 0,0.5719 0.17333,0.99331 0.61513,1.43532 0.44202,0.44196 0.86642,0.61814 1.43829,0.61814 0.61466,0 1.02209,-0.17705 1.42026,-0.60006 0.006,-0.006 0.0105,-0.0118 0.0199,-0.0183 0.44203,-0.44202 0.61517,-0.86339 0.61517,-1.43533 v -9.93861 c 0,-1.09289 0.21056,-2.13636 0.63322,-3.09679 0.4127,-0.93711 0.96587,-1.75892 1.65541,-2.44846 0.71944,-0.71945 1.5608,-1.29224 2.50277,-1.70672 0.004,-9.7e-4 0.006,-0.006 0.0105,-0.006 0.98436,-0.41642 2.02199,-0.62719 3.08472,-0.62719 1.09286,0 2.13332,0.21063 3.09374,0.63322 0.93842,0.41285 1.76125,0.98591 2.44845,1.70669 0.72082,0.68722 1.29684,1.51005 1.70975,2.44849 0.42264,0.9604 0.63322,2.00388 0.63322,3.09677 v 9.93866 c 0,0.57189 0.17333,0.9933 0.61516,1.4353 0.44199,0.44196 0.86643,0.61815 1.43831,0.61815 0.61461,0 1.05046,-0.18203 1.48657,-0.61815 0.44201,-0.442 0.61816,-0.8634 0.61816,-1.4353 v -9.93866 c 0,-1.69382 -0.31835,-3.25356 -0.94983,-4.70699 -0.63987,-1.4716 -1.49356,-2.73587 -2.5721,-3.81443 -1.07858,-1.07859 -2.34283,-1.9353 -3.81444,-2.57513 -1.45338,-0.63193 -3.01321,-0.94681 -4.70699,-0.94681 z m 46.99149,0 c -0.60951,0 -1.04514,0.18082 -1.47756,0.60909 -0.39929,0.42885 -0.57889,0.87439 -0.57889,1.49564 v 19.87727 c 0,0.57924 0.17383,1.00696 0.57889,1.44134 0.43208,0.42819 0.86805,0.61212 1.47756,0.61212 0.57181,0 0.9933,-0.17615 1.43533,-0.61814 0.44198,-0.44202 0.61805,-0.86341 0.61805,-1.43532 v -19.87727 c 0,-0.61464 -0.18226,-1.05351 -0.61805,-1.48962 -0.44203,-0.44201 -0.86344,-0.61511 -1.43533,-0.61511 z m 20.2843,0 c -1.65774,0 -3.20021,0.31396 -4.65568,0.94681 -1.47161,0.63983 -2.73592,1.49655 -3.81449,2.57512 -1.07856,1.07857 -1.93523,2.34283 -2.57515,3.81444 -0.63193,1.45343 -0.94679,3.01317 -0.94679,4.707 v 9.93863 c 0,0.5719 0.17331,0.99331 0.61518,1.43532 0.44202,0.44196 0.86636,0.61814 1.43834,0.61814 0.61458,0 1.02199,-0.17705 1.42021,-0.60006 0.006,-0.006 0.0105,-0.0118 0.0148,-0.0183 0.44203,-0.44202 0.61515,-0.86339 0.61515,-1.43533 v -9.93861 c 0,-1.09289 0.21058,-2.13636 0.63321,-3.09679 0.41273,-0.93711 0.96588,-1.75892 1.65547,-2.44846 0.71943,-0.71945 1.56071,-1.29224 2.5028,-1.70672 0.004,-9.7e-4 0.006,-0.006 0.0105,-0.006 0.98429,-0.41642 2.02194,-0.62719 3.08465,-0.62719 1.09298,0 2.13344,0.21063 3.0938,0.63322 0.93846,0.41285 1.76129,0.98591 2.4485,1.70669 0.72078,0.68722 1.2968,1.51005 1.70971,2.44849 0.42263,0.9604 0.63018,2.00388 0.63018,3.09677 v 9.93866 c 0,0.57189 0.1763,0.9933 0.61819,1.4353 0.442,0.44196 0.8664,0.61815 1.43838,0.61815 0.61458,0 1.0504,-0.18203 1.4865,-0.61815 0.442,-0.442 0.61816,-0.8634 0.61816,-1.4353 v -9.93866 c 0,-1.69382 -0.31832,-3.25356 -0.94982,-4.70699 -0.63983,-1.4716 -1.49357,-2.73587 -2.57212,-3.81443 -1.07852,-1.07859 -2.34281,-1.9353 -3.81448,-2.57513 -1.45338,-0.63193 -3.01313,-0.94681 -4.707,-0.94681 z m -277.766312,4.15818 c 1.092905,0 2.133363,0.21062 3.093771,0.63322 0.938424,0.41286 1.761259,0.98593 2.448462,1.70669 0.720785,0.68722 1.293806,1.51005 1.706696,2.4485 0.422595,0.96041 0.633238,2.00386 0.633238,3.09678 0,1.06273 -0.210775,2.09736 -0.627198,3.08169 -0.0017,0.006 -0.0046,0.007 -0.0064,0.0118 -0.414498,0.94195 -0.984249,1.78331 -1.703679,2.50275 -0.689564,0.68956 -1.514378,1.2431 -2.45148,1.65541 -0.960412,0.42257 -2.000887,0.63023 -3.093771,0.63023 -1.06277,0 -2.100405,-0.21079 -3.084724,-0.62718 -0.0046,-9.8e-4 -0.0075,-9.8e-4 -0.01192,-0.004 -0.933278,-0.4106 -1.766657,-0.96014 -2.484647,-1.64035 -0.01089,-0.0105 -0.02235,-0.0217 -0.03327,-0.0333 -0.680199,-0.71799 -1.226706,-1.55138 -1.637333,-2.48466 -0.0016,-0.006 -0.0046,-0.007 -0.0065,-0.0118 -0.416436,-0.98431 -0.627196,-2.01894 -0.627196,-3.08167 0,-1.09292 0.210626,-2.13638 0.633226,-3.09679 0.412315,-0.93712 0.965859,-1.75893 1.655424,-2.44848 0.719444,-0.71946 1.55775,-1.29225 2.499741,-1.7067 0.0046,-9.7e-4 0.0075,-0.006 0.01192,-0.006 0.984326,-0.41643 2.021954,-0.62718 3.084724,-0.62718 z m 28.335388,0 c 1.577952,0 3.039085,0.45025 4.296886,1.32374 1.270465,0.82624 2.255019,1.93804 2.894752,3.29278 0.264613,0.56366 -0.146261,1.21135 -0.768924,1.21218 H 43.495941 c -0.622718,-8.3e-4 -1.033524,-0.64849 -0.768912,-1.21218 0.637925,-1.35091 1.599385,-2.46463 2.837455,-3.29278 1.258884,-0.87572 2.722933,-1.32374 4.302932,-1.32374 z m 54.840434,0 c 1.09291,0 2.13333,0.21062 3.09377,0.63322 0.94026,0.41365 1.76343,0.98991 2.45148,1.71272 0.71909,0.68653 1.29448,1.50558 1.70671,2.44247 0.42259,0.96041 0.6332,2.00386 0.6332,3.09678 0,1.06273 -0.2138,2.09736 -0.63019,3.08169 -9.8e-4,0.006 -9.8e-4,0.007 -0.003,0.0118 -0.41449,0.94195 -0.98727,1.78331 -1.70668,2.50275 -0.68958,0.68954 -1.51441,1.2431 -2.4515,1.65541 -0.96044,0.42257 -2.00089,0.63023 -3.09377,0.63023 -1.06277,0 -2.10038,-0.21079 -3.08472,-0.62718 -0.003,-9.8e-4 -0.006,-9.8e-4 -0.009,-0.004 -0.93328,-0.4106 -1.766661,-0.96014 -2.484661,-1.64035 -0.0103,-0.0105 -0.02237,-0.0217 -0.03325,-0.0333 -0.680175,-0.71799 -1.229715,-1.55138 -1.640364,-2.48466 -0.0011,-0.006 -0.0013,-0.007 -0.0029,-0.0118 -0.416433,-0.98431 -0.630208,-2.01894 -0.630208,-3.08167 0,-1.09292 0.210628,-2.13638 0.63321,-3.09679 0.41237,-0.93712 0.965883,-1.75893 1.655443,-2.44848 0.719443,-0.71946 1.56078,-1.29225 2.50275,-1.7067 0.003,-9.7e-4 0.006,-0.006 0.009,-0.006 0.98434,-0.41643 2.02196,-0.62718 3.08473,-0.62718 z m 27.82879,0 c 1.57799,0 3.03912,0.45025 4.29691,1.32374 1.27043,0.82624 2.25199,1.93804 2.89172,3.29278 0.26463,0.56366 -0.14625,1.21135 -0.76891,1.21218 h -12.79117 c -0.62273,-8.3e-4 -1.03353,-0.64849 -0.76892,-1.21218 0.63792,-1.35091 1.5994,-2.46463 2.83744,-3.29278 1.25891,-0.87572 2.72295,-1.32374 4.30293,-1.32374 z m 28.48918,0 c 1.09286,0 2.13334,0.21062 3.09375,0.63322 0.94029,0.41365 1.76345,0.98991 2.45148,1.71272 0.71912,0.68653 1.29447,1.50558 1.7067,2.44247 0.4226,0.96041 0.63325,2.00386 0.63325,3.09678 0,1.06273 -0.21381,2.09736 -0.63022,3.08169 -9.8e-4,0.006 -9.8e-4,0.007 -0.004,0.0118 -0.4145,0.94195 -0.98724,1.78331 -1.70669,2.50275 -0.68954,0.68954 -1.5144,1.2431 -2.45149,1.65541 -0.96039,0.42257 -2.00089,0.63023 -3.09376,0.63023 -1.06277,0 -2.10041,-0.21079 -3.08472,-0.62718 -0.004,-9.8e-4 -0.006,-9.8e-4 -0.01,-0.004 -0.93327,-0.4106 -1.76668,-0.96015 -2.48468,-1.64035 -0.0105,-0.0105 -0.0223,-0.0217 -0.0333,-0.0333 -0.68019,-0.71799 -1.22974,-1.55138 -1.64035,-2.48466 -9.8e-4,-0.006 -9.8e-4,-0.007 -0.004,-0.0118 -0.41643,-0.98431 -0.63022,-2.01894 -0.63022,-3.08167 0,-1.09292 0.21062,-2.13638 0.63324,-3.09679 0.41231,-0.93712 0.96587,-1.75893 1.65544,-2.44848 0.71942,-0.71946 1.56076,-1.29225 2.50275,-1.7067 0.004,-9.7e-4 0.006,-0.006 0.01,-0.006 0.98434,-0.41643 2.02194,-0.62718 3.08472,-0.62718 z m 41.94673,0 c 1.0929,0 2.13335,0.21062 3.09375,0.63322 0.93842,0.41286 1.76125,0.98593 2.44848,1.70669 0.72076,0.68722 1.29382,1.51005 1.70669,2.4485 0.42268,0.96041 0.63327,2.00386 0.63327,3.09678 0,1.06273 -0.2106,2.09736 -0.62721,3.08169 -9.7e-4,0.006 -0.006,0.007 -0.006,0.0118 -0.41459,0.94195 -0.98425,1.78331 -1.70372,2.50275 -0.68953,0.68956 -1.51437,1.2431 -2.45149,1.65541 -0.96038,0.42257 -2.00084,0.63023 -3.09375,0.63023 -1.06277,0 -2.10038,-0.21079 -3.08473,-0.62718 -0.006,-9.8e-4 -0.007,-9.8e-4 -0.0118,-0.004 -0.93329,-0.4106 -1.76666,-0.96014 -2.48467,-1.64035 -0.0105,-0.0105 -0.0223,-0.0217 -0.0333,-0.0333 -0.6802,-0.71799 -1.22669,-1.55138 -1.63735,-2.48466 -9.7e-4,-0.006 -0.006,-0.007 -0.006,-0.0118 -0.41643,-0.98431 -0.6272,-2.01894 -0.6272,-3.08167 0,-1.09292 0.21064,-2.13638 0.63321,-3.09679 0.41232,-0.93712 0.96587,-1.75893 1.65545,-2.44848 0.71942,-0.71946 1.55775,-1.29225 2.49974,-1.7067 0.006,-9.7e-4 0.007,-0.006 0.0118,-0.006 0.98434,-0.41643 2.02195,-0.62718 3.08473,-0.62718 z m 124.91747,0 c 1.09297,0 2.13338,0.21062 3.09379,0.63322 0.94029,0.41365 1.76348,0.98991 2.4515,1.71272 0.71914,0.68653 1.29443,1.50558 1.7067,2.44247 0.42266,0.96041 0.63323,2.00386 0.63323,3.09678 0,1.06273 -0.21356,2.09736 -0.63018,3.08169 -9.8e-4,0.006 -9.8e-4,0.007 -0.004,0.0118 -0.41471,0.94195 -0.98733,1.78331 -1.70673,2.50275 -0.68954,0.68956 -1.51442,1.2431 -2.45149,1.65541 -0.9604,0.42257 -2.00083,0.63023 -3.0938,0.63023 -1.0627,0 -2.10036,-0.21079 -3.08468,-0.62718 -0.004,-9.8e-4 -0.006,-9.8e-4 -0.0105,-0.004 -0.93325,-0.4106 -1.76662,-0.96014 -2.48461,-1.64035 -0.0105,-0.0105 -0.0248,-0.0217 -0.0349,-0.0333 -0.68027,-0.71799 -1.22975,-1.55138 -1.64042,-2.48466 -9.8e-4,-0.006 -9.8e-4,-0.007 -0.004,-0.0118 -0.41668,-0.98431 -0.6302,-2.01894 -0.6302,-3.08167 0,-1.09292 0.2106,-2.13638 0.63322,-3.09679 0.41273,-0.93712 0.96589,-1.75893 1.65542,-2.44848 0.71949,-0.71946 1.56076,-1.29225 2.5028,-1.7067 0.004,-9.7e-4 0.006,-0.006 0.0105,-0.006 0.98433,-0.41643 2.02197,-0.62718 3.0847,-0.62718 z"
   style="-inkscape-font-specification:'Boldena, Normal';clip-rule:nonzero;fill:#000080;fill-rule:nonzero;stroke-width:1.54387;stroke-linejoin:miter;stroke-miterlimit:2"
   id="path13-7" /></svg>
