<?xml version="1.0" encoding="UTF-8" standalone="no"?>
<!-- Created with Inkscape (http://www.inkscape.org/) -->

<svg
   width="166.1311mm"
   height="100.81017mm"
   viewBox="0 0 166.1311 100.81017"
   version="1.1"
   id="svg1"
   xml:space="preserve"
   xmlns="http://www.w3.org/2000/svg"
   xmlns:svg="http://www.w3.org/2000/svg"><defs
     id="defs1" /><g
     id="layer1"
     transform="translate(-16.411999,-85.150564)"><path
       style="color:#000000;fill:#e9d98e;stroke:#e9d98e;stroke-opacity:1;-inkscape-stroke:none"
       d="M 16.911999,94.378976 H 182.01707 v 6.157144 H 16.911999 Z"
       id="path59" /><path
       style="fill:#4d4d4d;fill-opacity:1;stroke:#4d4d4d;stroke-width:0.595705;stroke-dasharray:none;stroke-dashoffset:0;stroke-opacity:1"
       d="m 16.419756,100.01769 c 165.931514,0 166.123344,0 166.123344,0"
       id="path60" /><path
       style="color:#000000;fill:#e9d98e;stroke:#e9d98e;stroke-opacity:1;-inkscape-stroke:none"
       d="M 16.911999,87.081306 H 182.01707 v 6.157146 H 16.911999 Z"
       id="path6" /><path
       style="fill:#4d4d4d;fill-opacity:1;stroke:#4d4d4d;stroke-width:0.595705;stroke-dasharray:none;stroke-dashoffset:0;stroke-opacity:1"
       d="m 16.419756,86.659825 c 165.931514,0 166.123344,0 166.123344,0"
       id="path7" /><path
       style="fill:#4d4d4d;fill-opacity:1;stroke:#4d4d4d;stroke-width:0.595705;stroke-dasharray:none;stroke-dashoffset:0;stroke-opacity:1"
       d="m 16.419756,93.484498 c 165.931514,0 166.123344,0 166.123344,0"
       id="path8" /><path
       style="color:#000000;fill:#e9d98e;stroke:#e9d98e;stroke-opacity:1;-inkscape-stroke:none"
       d="M 16.911999,113.02581 H 182.01707 v 6.15714 H 16.911999 Z"
       id="path19" /><path
       style="fill:#4d4d4d;fill-opacity:1;stroke:#4d4d4d;stroke-width:0.595705;stroke-dasharray:none;stroke-dashoffset:0;stroke-opacity:1"
       d="m 16.419756,112.60432 c 165.931514,0 166.123344,0 166.123344,0"
       id="path20" /><path
       style="fill:#4d4d4d;fill-opacity:1;stroke:#4d4d4d;stroke-width:0.595705;stroke-dasharray:none;stroke-dashoffset:0;stroke-opacity:1"
       d="m 16.419756,119.429 c 165.931514,0 166.123344,0 166.123344,0"
       id="path21" /><path
       style="color:#000000;fill:#e9d98e;stroke:#e9d98e;stroke-opacity:1;-inkscape-stroke:none"
       d="M 16.911999,138.79297 H 182.01707 v 6.15714 H 16.911999 Z"
       id="path32" /><path
       style="fill:#4d4d4d;fill-opacity:1;stroke:#4d4d4d;stroke-width:0.595705;stroke-dasharray:none;stroke-dashoffset:0;stroke-opacity:1"
       d="m 16.419756,138.37148 c 165.931514,0 166.123344,0 166.123344,0"
       id="path33" /><path
       style="fill:#4d4d4d;fill-opacity:1;stroke:#4d4d4d;stroke-width:0.595705;stroke-dasharray:none;stroke-dashoffset:0;stroke-opacity:1"
       d="m 16.419756,145.19616 c 165.931514,0 166.123344,0 166.123344,0"
       id="path34" /><path
       style="color:#000000;fill:#e9d98e;stroke:#e9d98e;stroke-opacity:1;-inkscape-stroke:none"
       d="M 16.911999,164.78525 H 182.01707 v 6.15714 H 16.911999 Z"
       id="path45" /><path
       style="fill:#4d4d4d;fill-opacity:1;stroke:#4d4d4d;stroke-width:0.595705;stroke-dasharray:none;stroke-dashoffset:0;stroke-opacity:1"
       d="m 16.419756,164.36376 c 165.931514,0 166.123344,0 166.123344,0"
       id="path46" /><path
       style="fill:#4d4d4d;fill-opacity:1;stroke:#4d4d4d;stroke-width:0.595705;stroke-dasharray:none;stroke-dashoffset:0;stroke-opacity:1"
       d="m 16.419756,171.18844 c 165.931514,0 166.123344,0 166.123344,0"
       id="path47" /><path
       style="fill:#4d4d4d;fill-opacity:1;stroke:#4d4d4d;stroke-width:0.25;stroke-dasharray:none;stroke-dashoffset:0;stroke-opacity:1"
       id="path53"
       d="m 145.12564,168.84035 a 0.20271304,0.18582028 0 0 1 -0.19668,0.18574 0.20271304,0.18582028 0 0 1 -0.20839,-0.17469 0.20271304,0.18582028 0 0 1 0.18429,-0.19613 0.20271304,0.18582028 0 0 1 0.21935,0.16301" /><path
       style="color:#000000;fill:#e9d98e;stroke:#e9d98e;stroke-opacity:1;-inkscape-stroke:none"
       d="M 16.911999,120.27569 H 182.01707 v 6.15715 H 16.911999 Z"
       id="path66" /><path
       style="fill:#4d4d4d;fill-opacity:1;stroke:#4d4d4d;stroke-width:0.595705;stroke-dasharray:none;stroke-dashoffset:0;stroke-opacity:1"
       d="m 16.419756,125.91441 c 165.931514,0 166.123344,0 166.123344,0"
       id="path67" /><path
       style="color:#000000;fill:#e9d98e;stroke:#e9d98e;stroke-opacity:1;-inkscape-stroke:none"
       d="M 16.911999,145.93351 H 182.01707 v 6.15715 H 16.911999 Z"
       id="path73" /><path
       style="fill:#4d4d4d;fill-opacity:1;stroke:#4d4d4d;stroke-width:0.595705;stroke-dasharray:none;stroke-dashoffset:0;stroke-opacity:1"
       d="m 16.419756,151.57223 c 165.931514,0 166.123344,0 166.123344,0"
       id="path74" /><path
       style="color:#000000;fill:#e9d98e;stroke:#e9d98e;stroke-opacity:1;-inkscape-stroke:none"
       d="M 16.911999,172.02135 H 182.01707 v 6.15715 H 16.911999 Z"
       id="path80" /><path
       style="fill:#4d4d4d;fill-opacity:1;stroke:#4d4d4d;stroke-width:0.595705;stroke-dasharray:none;stroke-dashoffset:0;stroke-opacity:1"
       d="m 16.419756,177.66007 c 165.931514,0 166.123344,0 166.123344,0"
       id="path81" /><path
       style="fill:#4d4d4d;fill-opacity:1;stroke:#4d4d4d;stroke-width:0.595705;stroke-dasharray:none;stroke-dashoffset:0;stroke-opacity:1"
       d="m 16.419756,106.77479 c 165.931514,0 166.123344,0 166.123344,0"
       id="path142" /><path
       style="color:#000000;fill:#e9d98e;stroke:#e9d98e;stroke-opacity:1;-inkscape-stroke:none"
       d="M 16.911999,126.94821 H 182.01707 v 6.15714 H 16.911999 Z"
       id="path143" /><path
       style="fill:#4d4d4d;fill-opacity:1;stroke:#4d4d4d;stroke-width:0.595705;stroke-dasharray:none;stroke-dashoffset:0;stroke-opacity:1"
       d="m 16.419756,132.58692 c 165.931514,0 166.123344,0 166.123344,0"
       id="path144" /><path
       style="color:#000000;fill:#e9d98e;stroke:#e9d98e;stroke-opacity:1;-inkscape-stroke:none"
       d="M 16.911999,152.49005 H 182.01707 v 6.15714 H 16.911999 Z"
       id="path145" /><path
       style="fill:#4d4d4d;fill-opacity:1;stroke:#4d4d4d;stroke-width:0.595705;stroke-dasharray:none;stroke-dashoffset:0;stroke-opacity:1"
       d="m 16.419756,158.12876 c 165.931514,0 166.123344,0 166.123344,0"
       id="path146" /><path
       style="color:#000000;fill:#e9d98e;stroke:#e9d98e;stroke-opacity:1;-inkscape-stroke:none"
       d="M 16.911999,178.57246 H 182.01707 v 6.15714 H 16.911999 Z"
       id="path147" /><path
       style="fill:#4d4d4d;fill-opacity:1;stroke:#4d4d4d;stroke-width:0.595705;stroke-dasharray:none;stroke-dashoffset:0;stroke-opacity:1"
       d="m 16.419756,184.21117 c 165.931514,0 166.123344,0 166.123344,0"
       id="path148" /><path
       style="color:#000000;fill:#e9d98e;stroke:#e9d98e;stroke-width:0.847441;stroke-opacity:1;-inkscape-stroke:none"
       d="m 16.83572,107.41148 h 165.25763 v 4.41771 H 16.83572 Z"
       id="path149" /><path
       style="color:#000000;fill:#e9d98e;stroke:#e9d98e;stroke-width:0.835564;stroke-opacity:1;-inkscape-stroke:none"
       d="M 16.829782,133.35281 H 182.09929 v 4.29445 H 16.829782 Z"
       id="path150" /><path
       style="color:#000000;fill:#e9d98e;stroke:#e9d98e;stroke-width:0.835564;stroke-opacity:1;-inkscape-stroke:none"
       d="M 16.829782,159.43522 H 182.09929 v 4.29445 H 16.829782 Z"
       id="path151" /><path
       style="color:#000000;fill:#e9d98e;stroke:#e9d98e;stroke-width:0.89349;stroke-opacity:1;-inkscape-stroke:none"
       d="M 16.858744,101.08283 H 182.07032 v 4.91222 H 16.858744 Z"
       id="path141" /></g><g
     id="g88"
     transform="translate(-16.411999,-85.150564)"><path
       style="fill:#4d4d4d;fill-opacity:1;stroke:#4d4d4d;stroke-width:0.25;stroke-dasharray:none;stroke-dashoffset:0;stroke-opacity:1"
       id="path10"
       d="m 19.39288,88.737633 a 0.20271304,0.18582028 0 0 1 -0.196682,0.185738 0.20271304,0.18582028 0 0 1 -0.208386,-0.174686 0.20271304,0.18582028 0 0 1 0.184282,-0.196133 0.20271304,0.18582028 0 0 1 0.219351,0.163015" /><path
       style="fill:#4d4d4d;fill-opacity:1;stroke:#4d4d4d;stroke-width:0.25;stroke-dasharray:none;stroke-dashoffset:0;stroke-opacity:1"
       id="path11"
       d="m 19.39288,91.136398 a 0.20271304,0.18582028 0 0 1 -0.196682,0.185738 0.20271304,0.18582028 0 0 1 -0.208386,-0.174685 0.20271304,0.18582028 0 0 1 0.184282,-0.196133 0.20271304,0.18582028 0 0 1 0.219351,0.163014" /><path
       style="fill:#4d4d4d;fill-opacity:1;stroke:#4d4d4d;stroke-width:0.25;stroke-dasharray:none;stroke-dashoffset:0;stroke-opacity:1"
       id="path12"
       d="m 22.028149,88.737633 a 0.20271304,0.18582028 0 0 1 -0.196682,0.185738 0.20271304,0.18582028 0 0 1 -0.208386,-0.174686 0.20271304,0.18582028 0 0 1 0.184282,-0.196133 0.20271304,0.18582028 0 0 1 0.219351,0.163015" /><path
       style="fill:#4d4d4d;fill-opacity:1;stroke:#4d4d4d;stroke-width:0.25;stroke-dasharray:none;stroke-dashoffset:0;stroke-opacity:1"
       id="path13"
       d="m 22.028149,91.136398 a 0.20271304,0.18582028 0 0 1 -0.196682,0.185738 0.20271304,0.18582028 0 0 1 -0.208386,-0.174685 0.20271304,0.18582028 0 0 1 0.184282,-0.196133 0.20271304,0.18582028 0 0 1 0.219351,0.163014" /><path
       style="fill:#4d4d4d;fill-opacity:1;stroke:#4d4d4d;stroke-width:0.25;stroke-dasharray:none;stroke-dashoffset:0;stroke-opacity:1"
       id="path15"
       d="m 145.12564,88.737633 a 0.20271304,0.18582028 0 0 1 -0.19668,0.185738 0.20271304,0.18582028 0 0 1 -0.20839,-0.174686 0.20271304,0.18582028 0 0 1 0.18429,-0.196133 0.20271304,0.18582028 0 0 1 0.21935,0.163015" /><path
       style="fill:#4d4d4d;fill-opacity:1;stroke:#4d4d4d;stroke-width:0.25;stroke-dasharray:none;stroke-dashoffset:0;stroke-opacity:1"
       id="path16"
       d="m 145.12564,91.136398 a 0.20271304,0.18582028 0 0 1 -0.19668,0.185738 0.20271304,0.18582028 0 0 1 -0.20839,-0.174685 0.20271304,0.18582028 0 0 1 0.18429,-0.196133 0.20271304,0.18582028 0 0 1 0.21935,0.163014" /><path
       style="fill:#4d4d4d;fill-opacity:1;stroke:#4d4d4d;stroke-width:0.25;stroke-dasharray:none;stroke-dashoffset:0;stroke-opacity:1"
       id="path17"
       d="m 147.76091,88.737633 a 0.20271304,0.18582028 0 0 1 -0.19668,0.185738 0.20271304,0.18582028 0 0 1 -0.20839,-0.174686 0.20271304,0.18582028 0 0 1 0.18428,-0.196133 0.20271304,0.18582028 0 0 1 0.21936,0.163015" /><path
       style="fill:#4d4d4d;fill-opacity:1;stroke:#4d4d4d;stroke-width:0.25;stroke-dasharray:none;stroke-dashoffset:0;stroke-opacity:1"
       id="path18"
       d="m 147.76091,91.136398 a 0.20271304,0.18582028 0 0 1 -0.19668,0.185738 0.20271304,0.18582028 0 0 1 -0.20839,-0.174685 0.20271304,0.18582028 0 0 1 0.18428,-0.196133 0.20271304,0.18582028 0 0 1 0.21936,0.163014" /><path
       style="fill:#4d4d4d;fill-opacity:1;stroke:#4d4d4d;stroke-width:0.25;stroke-dasharray:none;stroke-dashoffset:0;stroke-opacity:1"
       id="path22"
       d="m 19.39288,114.68213 a 0.20271304,0.18582028 0 0 1 -0.196682,0.18574 0.20271304,0.18582028 0 0 1 -0.208386,-0.17469 0.20271304,0.18582028 0 0 1 0.184282,-0.19613 0.20271304,0.18582028 0 0 1 0.219351,0.16301" /><path
       style="fill:#4d4d4d;fill-opacity:1;stroke:#4d4d4d;stroke-width:0.25;stroke-dasharray:none;stroke-dashoffset:0;stroke-opacity:1"
       id="path23"
       d="m 19.39288,117.0809 a 0.20271304,0.18582028 0 0 1 -0.196682,0.18574 0.20271304,0.18582028 0 0 1 -0.208386,-0.17469 0.20271304,0.18582028 0 0 1 0.184282,-0.19613 0.20271304,0.18582028 0 0 1 0.219351,0.16302" /><path
       style="fill:#4d4d4d;fill-opacity:1;stroke:#4d4d4d;stroke-width:0.25;stroke-dasharray:none;stroke-dashoffset:0;stroke-opacity:1"
       id="path24"
       d="m 22.028149,114.68213 a 0.20271304,0.18582028 0 0 1 -0.196682,0.18574 0.20271304,0.18582028 0 0 1 -0.208386,-0.17469 0.20271304,0.18582028 0 0 1 0.184282,-0.19613 0.20271304,0.18582028 0 0 1 0.219351,0.16301" /><path
       style="fill:#4d4d4d;fill-opacity:1;stroke:#4d4d4d;stroke-width:0.25;stroke-dasharray:none;stroke-dashoffset:0;stroke-opacity:1"
       id="path25"
       d="m 22.028149,117.0809 a 0.20271304,0.18582028 0 0 1 -0.196682,0.18574 0.20271304,0.18582028 0 0 1 -0.208386,-0.17469 0.20271304,0.18582028 0 0 1 0.184282,-0.19613 0.20271304,0.18582028 0 0 1 0.219351,0.16302" /><path
       style="fill:#4d4d4d;fill-opacity:1;stroke:#4d4d4d;stroke-width:0.25;stroke-dasharray:none;stroke-dashoffset:0;stroke-opacity:1"
       id="path26"
       d="m 145.12564,114.68213 a 0.20271304,0.18582028 0 0 1 -0.19668,0.18574 0.20271304,0.18582028 0 0 1 -0.20839,-0.17469 0.20271304,0.18582028 0 0 1 0.18429,-0.19613 0.20271304,0.18582028 0 0 1 0.21935,0.16301" /><path
       style="fill:#4d4d4d;fill-opacity:1;stroke:#4d4d4d;stroke-width:0.25;stroke-dasharray:none;stroke-dashoffset:0;stroke-opacity:1"
       id="path27"
       d="m 145.12564,117.0809 a 0.20271304,0.18582028 0 0 1 -0.19668,0.18574 0.20271304,0.18582028 0 0 1 -0.20839,-0.17469 0.20271304,0.18582028 0 0 1 0.18429,-0.19613 0.20271304,0.18582028 0 0 1 0.21935,0.16302" /><path
       style="fill:#4d4d4d;fill-opacity:1;stroke:#4d4d4d;stroke-width:0.25;stroke-dasharray:none;stroke-dashoffset:0;stroke-opacity:1"
       id="path28"
       d="m 147.76091,114.68213 a 0.20271304,0.18582028 0 0 1 -0.19668,0.18574 0.20271304,0.18582028 0 0 1 -0.20839,-0.17469 0.20271304,0.18582028 0 0 1 0.18428,-0.19613 0.20271304,0.18582028 0 0 1 0.21936,0.16301" /><path
       style="fill:#4d4d4d;fill-opacity:1;stroke:#4d4d4d;stroke-width:0.25;stroke-dasharray:none;stroke-dashoffset:0;stroke-opacity:1"
       id="path29"
       d="m 147.76091,117.0809 a 0.20271304,0.18582028 0 0 1 -0.19668,0.18574 0.20271304,0.18582028 0 0 1 -0.20839,-0.17469 0.20271304,0.18582028 0 0 1 0.18428,-0.19613 0.20271304,0.18582028 0 0 1 0.21936,0.16302" /><path
       style="fill:#4d4d4d;fill-opacity:1;stroke:#4d4d4d;stroke-width:0.25;stroke-dasharray:none;stroke-dashoffset:0;stroke-opacity:1"
       id="path35"
       d="m 19.39288,140.4493 a 0.20271304,0.18582028 0 0 1 -0.196682,0.18573 0.20271304,0.18582028 0 0 1 -0.208386,-0.17468 0.20271304,0.18582028 0 0 1 0.184282,-0.19614 0.20271304,0.18582028 0 0 1 0.219351,0.16302" /><path
       style="fill:#4d4d4d;fill-opacity:1;stroke:#4d4d4d;stroke-width:0.25;stroke-dasharray:none;stroke-dashoffset:0;stroke-opacity:1"
       id="path36"
       d="m 19.39288,142.84807 a 0.20271304,0.18582028 0 0 1 -0.196682,0.18574 0.20271304,0.18582028 0 0 1 -0.208386,-0.17469 0.20271304,0.18582028 0 0 1 0.184282,-0.19613 0.20271304,0.18582028 0 0 1 0.219351,0.16301" /><path
       style="fill:#4d4d4d;fill-opacity:1;stroke:#4d4d4d;stroke-width:0.25;stroke-dasharray:none;stroke-dashoffset:0;stroke-opacity:1"
       id="path37"
       d="m 22.028149,140.4493 a 0.20271304,0.18582028 0 0 1 -0.196682,0.18573 0.20271304,0.18582028 0 0 1 -0.208386,-0.17468 0.20271304,0.18582028 0 0 1 0.184282,-0.19614 0.20271304,0.18582028 0 0 1 0.219351,0.16302" /><path
       style="fill:#4d4d4d;fill-opacity:1;stroke:#4d4d4d;stroke-width:0.25;stroke-dasharray:none;stroke-dashoffset:0;stroke-opacity:1"
       id="path38"
       d="m 22.028149,142.84807 a 0.20271304,0.18582028 0 0 1 -0.196682,0.18574 0.20271304,0.18582028 0 0 1 -0.208386,-0.17469 0.20271304,0.18582028 0 0 1 0.184282,-0.19613 0.20271304,0.18582028 0 0 1 0.219351,0.16301" /><path
       style="fill:#4d4d4d;fill-opacity:1;stroke:#4d4d4d;stroke-width:0.25;stroke-dasharray:none;stroke-dashoffset:0;stroke-opacity:1"
       id="path39"
       d="m 145.12564,140.4493 a 0.20271304,0.18582028 0 0 1 -0.19668,0.18573 0.20271304,0.18582028 0 0 1 -0.20839,-0.17468 0.20271304,0.18582028 0 0 1 0.18429,-0.19614 0.20271304,0.18582028 0 0 1 0.21935,0.16302" /><path
       style="fill:#4d4d4d;fill-opacity:1;stroke:#4d4d4d;stroke-width:0.25;stroke-dasharray:none;stroke-dashoffset:0;stroke-opacity:1"
       id="path40"
       d="m 145.12564,142.84807 a 0.20271304,0.18582028 0 0 1 -0.19668,0.18574 0.20271304,0.18582028 0 0 1 -0.20839,-0.17469 0.20271304,0.18582028 0 0 1 0.18429,-0.19613 0.20271304,0.18582028 0 0 1 0.21935,0.16301" /><path
       style="fill:#4d4d4d;fill-opacity:1;stroke:#4d4d4d;stroke-width:0.25;stroke-dasharray:none;stroke-dashoffset:0;stroke-opacity:1"
       id="path41"
       d="m 147.76091,140.4493 a 0.20271304,0.18582028 0 0 1 -0.19668,0.18573 0.20271304,0.18582028 0 0 1 -0.20839,-0.17468 0.20271304,0.18582028 0 0 1 0.18428,-0.19614 0.20271304,0.18582028 0 0 1 0.21936,0.16302" /><path
       style="fill:#4d4d4d;fill-opacity:1;stroke:#4d4d4d;stroke-width:0.25;stroke-dasharray:none;stroke-dashoffset:0;stroke-opacity:1"
       id="path42"
       d="m 147.76091,142.84807 a 0.20271304,0.18582028 0 0 1 -0.19668,0.18574 0.20271304,0.18582028 0 0 1 -0.20839,-0.17469 0.20271304,0.18582028 0 0 1 0.18428,-0.19613 0.20271304,0.18582028 0 0 1 0.21936,0.16301" /><path
       style="fill:#4d4d4d;fill-opacity:1;stroke:#4d4d4d;stroke-width:0.25;stroke-dasharray:none;stroke-dashoffset:0;stroke-opacity:1"
       id="path48"
       d="m 19.39288,166.44157 a 0.20271304,0.18582028 0 0 1 -0.196682,0.18574 0.20271304,0.18582028 0 0 1 -0.208386,-0.17468 0.20271304,0.18582028 0 0 1 0.184282,-0.19614 0.20271304,0.18582028 0 0 1 0.219351,0.16302" /><path
       style="fill:#4d4d4d;fill-opacity:1;stroke:#4d4d4d;stroke-width:0.25;stroke-dasharray:none;stroke-dashoffset:0;stroke-opacity:1"
       id="path49"
       d="m 19.39288,168.84035 a 0.20271304,0.18582028 0 0 1 -0.196682,0.18574 0.20271304,0.18582028 0 0 1 -0.208386,-0.17469 0.20271304,0.18582028 0 0 1 0.184282,-0.19613 0.20271304,0.18582028 0 0 1 0.219351,0.16301" /><path
       style="fill:#4d4d4d;fill-opacity:1;stroke:#4d4d4d;stroke-width:0.25;stroke-dasharray:none;stroke-dashoffset:0;stroke-opacity:1"
       id="path50"
       d="m 22.028149,166.44157 a 0.20271304,0.18582028 0 0 1 -0.196682,0.18574 0.20271304,0.18582028 0 0 1 -0.208386,-0.17468 0.20271304,0.18582028 0 0 1 0.184282,-0.19614 0.20271304,0.18582028 0 0 1 0.219351,0.16302" /><path
       style="fill:#4d4d4d;fill-opacity:1;stroke:#4d4d4d;stroke-width:0.25;stroke-dasharray:none;stroke-dashoffset:0;stroke-opacity:1"
       id="path51"
       d="m 22.028149,168.84035 a 0.20271304,0.18582028 0 0 1 -0.196682,0.18574 0.20271304,0.18582028 0 0 1 -0.208386,-0.17469 0.20271304,0.18582028 0 0 1 0.184282,-0.19613 0.20271304,0.18582028 0 0 1 0.219351,0.16301" /><path
       style="fill:#4d4d4d;fill-opacity:1;stroke:#4d4d4d;stroke-width:0.25;stroke-dasharray:none;stroke-dashoffset:0;stroke-opacity:1"
       id="path52"
       d="m 145.12564,166.44157 a 0.20271304,0.18582028 0 0 1 -0.19668,0.18574 0.20271304,0.18582028 0 0 1 -0.20839,-0.17468 0.20271304,0.18582028 0 0 1 0.18429,-0.19614 0.20271304,0.18582028 0 0 1 0.21935,0.16302" /><path
       style="fill:#4d4d4d;fill-opacity:1;stroke:#4d4d4d;stroke-width:0.25;stroke-dasharray:none;stroke-dashoffset:0;stroke-opacity:1"
       id="path54"
       d="m 147.76091,166.44157 a 0.20271304,0.18582028 0 0 1 -0.19668,0.18574 0.20271304,0.18582028 0 0 1 -0.20839,-0.17468 0.20271304,0.18582028 0 0 1 0.18428,-0.19614 0.20271304,0.18582028 0 0 1 0.21936,0.16302" /><path
       style="fill:#4d4d4d;fill-opacity:1;stroke:#4d4d4d;stroke-width:0.25;stroke-dasharray:none;stroke-dashoffset:0;stroke-opacity:1"
       id="path55"
       d="m 147.76091,168.84035 a 0.20271304,0.18582028 0 0 1 -0.19668,0.18574 0.20271304,0.18582028 0 0 1 -0.20839,-0.17469 0.20271304,0.18582028 0 0 1 0.18428,-0.19613 0.20271304,0.18582028 0 0 1 0.21936,0.16301" /><path
       style="fill:#4d4d4d;fill-opacity:1;stroke:#4d4d4d;stroke-width:0.25;stroke-dasharray:none;stroke-dashoffset:0;stroke-opacity:1"
       id="path61"
       d="m 114.00338,95.644859 a 0.20271304,0.18582028 0 0 1 -0.19668,0.185738 0.20271304,0.18582028 0 0 1 -0.20839,-0.174685 0.20271304,0.18582028 0 0 1 0.18428,-0.196133 0.20271304,0.18582028 0 0 1 0.21936,0.163014" /><path
       style="fill:#4d4d4d;fill-opacity:1;stroke:#4d4d4d;stroke-width:0.25;stroke-dasharray:none;stroke-dashoffset:0;stroke-opacity:1"
       id="path62"
       d="m 114.00338,98.043625 a 0.20271304,0.18582028 0 0 1 -0.19668,0.185738 0.20271304,0.18582028 0 0 1 -0.20839,-0.174686 0.20271304,0.18582028 0 0 1 0.18428,-0.196132 0.20271304,0.18582028 0 0 1 0.21936,0.163014" /><path
       style="fill:#4d4d4d;fill-opacity:1;stroke:#4d4d4d;stroke-width:0.25;stroke-dasharray:none;stroke-dashoffset:0;stroke-opacity:1"
       id="path63"
       d="m 116.63866,95.644859 a 0.20271304,0.18582028 0 0 1 -0.19668,0.185738 0.20271304,0.18582028 0 0 1 -0.20838,-0.174685 0.20271304,0.18582028 0 0 1 0.18428,-0.196133 0.20271304,0.18582028 0 0 1 0.21935,0.163014" /><path
       style="fill:#4d4d4d;fill-opacity:1;stroke:#4d4d4d;stroke-width:0.25;stroke-dasharray:none;stroke-dashoffset:0;stroke-opacity:1"
       id="path64"
       d="m 116.63866,98.043625 a 0.20271304,0.18582028 0 0 1 -0.19668,0.185738 0.20271304,0.18582028 0 0 1 -0.20838,-0.174686 0.20271304,0.18582028 0 0 1 0.18428,-0.196132 0.20271304,0.18582028 0 0 1 0.21935,0.163014" /><path
       style="fill:#4d4d4d;fill-opacity:1;stroke:#4d4d4d;stroke-width:0.25;stroke-dasharray:none;stroke-dashoffset:0;stroke-opacity:1"
       id="path68"
       d="m 114.00338,121.54158 a 0.20271304,0.18582028 0 0 1 -0.19668,0.18574 0.20271304,0.18582028 0 0 1 -0.20839,-0.17469 0.20271304,0.18582028 0 0 1 0.18428,-0.19613 0.20271304,0.18582028 0 0 1 0.21936,0.16301" /><path
       style="fill:#4d4d4d;fill-opacity:1;stroke:#4d4d4d;stroke-width:0.25;stroke-dasharray:none;stroke-dashoffset:0;stroke-opacity:1"
       id="path69"
       d="m 114.00338,123.94035 a 0.20271304,0.18582028 0 0 1 -0.19668,0.18574 0.20271304,0.18582028 0 0 1 -0.20839,-0.17468 0.20271304,0.18582028 0 0 1 0.18428,-0.19614 0.20271304,0.18582028 0 0 1 0.21936,0.16302" /><path
       style="fill:#4d4d4d;fill-opacity:1;stroke:#4d4d4d;stroke-width:0.25;stroke-dasharray:none;stroke-dashoffset:0;stroke-opacity:1"
       id="path70"
       d="m 116.63866,121.54158 a 0.20271304,0.18582028 0 0 1 -0.19668,0.18574 0.20271304,0.18582028 0 0 1 -0.20838,-0.17469 0.20271304,0.18582028 0 0 1 0.18428,-0.19613 0.20271304,0.18582028 0 0 1 0.21935,0.16301" /><path
       style="fill:#4d4d4d;fill-opacity:1;stroke:#4d4d4d;stroke-width:0.25;stroke-dasharray:none;stroke-dashoffset:0;stroke-opacity:1"
       id="path71"
       d="m 116.63866,123.94035 a 0.20271304,0.18582028 0 0 1 -0.19668,0.18574 0.20271304,0.18582028 0 0 1 -0.20838,-0.17468 0.20271304,0.18582028 0 0 1 0.18428,-0.19614 0.20271304,0.18582028 0 0 1 0.21935,0.16302" /><path
       style="fill:#4d4d4d;fill-opacity:1;stroke:#4d4d4d;stroke-width:0.25;stroke-dasharray:none;stroke-dashoffset:0;stroke-opacity:1"
       id="path75"
       d="m 114.00338,147.1994 a 0.20271304,0.18582028 0 0 1 -0.19668,0.18574 0.20271304,0.18582028 0 0 1 -0.20839,-0.17469 0.20271304,0.18582028 0 0 1 0.18428,-0.19613 0.20271304,0.18582028 0 0 1 0.21936,0.16302" /><path
       style="fill:#4d4d4d;fill-opacity:1;stroke:#4d4d4d;stroke-width:0.25;stroke-dasharray:none;stroke-dashoffset:0;stroke-opacity:1"
       id="path76"
       d="m 114.00338,149.59818 a 0.20271304,0.18582028 0 0 1 -0.19668,0.18573 0.20271304,0.18582028 0 0 1 -0.20839,-0.17468 0.20271304,0.18582028 0 0 1 0.18428,-0.19614 0.20271304,0.18582028 0 0 1 0.21936,0.16302" /><path
       style="fill:#4d4d4d;fill-opacity:1;stroke:#4d4d4d;stroke-width:0.25;stroke-dasharray:none;stroke-dashoffset:0;stroke-opacity:1"
       id="path77"
       d="m 116.63866,147.1994 a 0.20271304,0.18582028 0 0 1 -0.19668,0.18574 0.20271304,0.18582028 0 0 1 -0.20838,-0.17469 0.20271304,0.18582028 0 0 1 0.18428,-0.19613 0.20271304,0.18582028 0 0 1 0.21935,0.16302" /><path
       style="fill:#4d4d4d;fill-opacity:1;stroke:#4d4d4d;stroke-width:0.25;stroke-dasharray:none;stroke-dashoffset:0;stroke-opacity:1"
       id="path78"
       d="m 116.63866,149.59818 a 0.20271304,0.18582028 0 0 1 -0.19668,0.18573 0.20271304,0.18582028 0 0 1 -0.20838,-0.17468 0.20271304,0.18582028 0 0 1 0.18428,-0.19614 0.20271304,0.18582028 0 0 1 0.21935,0.16302" /><path
       style="fill:#4d4d4d;fill-opacity:1;stroke:#4d4d4d;stroke-width:0.25;stroke-dasharray:none;stroke-dashoffset:0;stroke-opacity:1"
       id="path82"
       d="m 114.00338,173.28725 a 0.20271304,0.18582028 0 0 1 -0.19668,0.18573 0.20271304,0.18582028 0 0 1 -0.20839,-0.17468 0.20271304,0.18582028 0 0 1 0.18428,-0.19613 0.20271304,0.18582028 0 0 1 0.21936,0.16301" /><path
       style="fill:#4d4d4d;fill-opacity:1;stroke:#4d4d4d;stroke-width:0.25;stroke-dasharray:none;stroke-dashoffset:0;stroke-opacity:1"
       id="path83"
       d="m 114.00338,175.68602 a 0.20271304,0.18582028 0 0 1 -0.19668,0.18574 0.20271304,0.18582028 0 0 1 -0.20839,-0.17469 0.20271304,0.18582028 0 0 1 0.18428,-0.19613 0.20271304,0.18582028 0 0 1 0.21936,0.16301" /><path
       style="fill:#4d4d4d;fill-opacity:1;stroke:#4d4d4d;stroke-width:0.25;stroke-dasharray:none;stroke-dashoffset:0;stroke-opacity:1"
       id="path84"
       d="m 116.63866,173.28725 a 0.20271304,0.18582028 0 0 1 -0.19668,0.18573 0.20271304,0.18582028 0 0 1 -0.20838,-0.17468 0.20271304,0.18582028 0 0 1 0.18428,-0.19613 0.20271304,0.18582028 0 0 1 0.21935,0.16301" /><path
       style="fill:#4d4d4d;fill-opacity:1;stroke:#4d4d4d;stroke-width:0.25;stroke-dasharray:none;stroke-dashoffset:0;stroke-opacity:1"
       id="path85"
       d="m 116.63866,175.68602 a 0.20271304,0.18582028 0 0 1 -0.19668,0.18574 0.20271304,0.18582028 0 0 1 -0.20838,-0.17469 0.20271304,0.18582028 0 0 1 0.18428,-0.19613 0.20271304,0.18582028 0 0 1 0.21935,0.16301" /><path
       style="fill:#4d4d4d;fill-opacity:1;stroke:#4d4d4d;stroke-width:0.25;stroke-dasharray:none;stroke-dashoffset:0;stroke-opacity:1"
       id="path90"
       d="m 177.89758,101.77884 a 0.20271304,0.18582028 0 0 1 -0.19668,0.18574 0.20271304,0.18582028 0 0 1 -0.20838,-0.17469 0.20271304,0.18582028 0 0 1 0.18428,-0.19613 0.20271304,0.18582028 0 0 1 0.21935,0.16301" /><path
       style="fill:#4d4d4d;fill-opacity:1;stroke:#4d4d4d;stroke-width:0.25;stroke-dasharray:none;stroke-dashoffset:0;stroke-opacity:1"
       id="path91"
       d="m 177.89758,104.1776 a 0.20271304,0.18582028 0 0 1 -0.19668,0.18574 0.20271304,0.18582028 0 0 1 -0.20838,-0.17469 0.20271304,0.18582028 0 0 1 0.18428,-0.19613 0.20271304,0.18582028 0 0 1 0.21935,0.16301" /><path
       style="fill:#4d4d4d;fill-opacity:1;stroke:#4d4d4d;stroke-width:0.25;stroke-dasharray:none;stroke-dashoffset:0;stroke-opacity:1"
       id="path92"
       d="m 180.53285,101.77884 a 0.20271304,0.18582028 0 0 1 -0.19668,0.18574 0.20271304,0.18582028 0 0 1 -0.20838,-0.17469 0.20271304,0.18582028 0 0 1 0.18428,-0.19613 0.20271304,0.18582028 0 0 1 0.21935,0.16301" /><path
       style="fill:#4d4d4d;fill-opacity:1;stroke:#4d4d4d;stroke-width:0.25;stroke-dasharray:none;stroke-dashoffset:0;stroke-opacity:1"
       id="path93"
       d="m 180.53285,104.1776 a 0.20271304,0.18582028 0 0 1 -0.19668,0.18574 0.20271304,0.18582028 0 0 1 -0.20838,-0.17469 0.20271304,0.18582028 0 0 1 0.18428,-0.19613 0.20271304,0.18582028 0 0 1 0.21935,0.16301" /><path
       style="fill:#4d4d4d;fill-opacity:1;stroke:#4d4d4d;stroke-width:0.25;stroke-dasharray:none;stroke-dashoffset:0;stroke-opacity:1"
       id="path94"
       d="m 177.89758,127.92883 a 0.20271304,0.18582028 0 0 1 -0.19668,0.18574 0.20271304,0.18582028 0 0 1 -0.20838,-0.17468 0.20271304,0.18582028 0 0 1 0.18428,-0.19614 0.20271304,0.18582028 0 0 1 0.21935,0.16302" /><path
       style="fill:#4d4d4d;fill-opacity:1;stroke:#4d4d4d;stroke-width:0.25;stroke-dasharray:none;stroke-dashoffset:0;stroke-opacity:1"
       id="path95"
       d="m 177.89758,130.32758 a 0.20271304,0.18582028 0 0 1 -0.19668,0.18573 0.20271304,0.18582028 0 0 1 -0.20838,-0.17468 0.20271304,0.18582028 0 0 1 0.18428,-0.19613 0.20271304,0.18582028 0 0 1 0.21935,0.16301" /><path
       style="fill:#4d4d4d;fill-opacity:1;stroke:#4d4d4d;stroke-width:0.25;stroke-dasharray:none;stroke-dashoffset:0;stroke-opacity:1"
       id="path96"
       d="m 180.53285,127.92883 a 0.20271304,0.18582028 0 0 1 -0.19668,0.18574 0.20271304,0.18582028 0 0 1 -0.20838,-0.17468 0.20271304,0.18582028 0 0 1 0.18428,-0.19614 0.20271304,0.18582028 0 0 1 0.21935,0.16302" /><path
       style="fill:#4d4d4d;fill-opacity:1;stroke:#4d4d4d;stroke-width:0.25;stroke-dasharray:none;stroke-dashoffset:0;stroke-opacity:1"
       id="path97"
       d="m 180.53285,130.32758 a 0.20271304,0.18582028 0 0 1 -0.19668,0.18573 0.20271304,0.18582028 0 0 1 -0.20838,-0.17468 0.20271304,0.18582028 0 0 1 0.18428,-0.19613 0.20271304,0.18582028 0 0 1 0.21935,0.16301" /><path
       style="fill:#4d4d4d;fill-opacity:1;stroke:#4d4d4d;stroke-width:0.25;stroke-dasharray:none;stroke-dashoffset:0;stroke-opacity:1"
       id="path98"
       d="m 177.89758,153.80853 a 0.20271304,0.18582028 0 0 1 -0.19668,0.18574 0.20271304,0.18582028 0 0 1 -0.20838,-0.17468 0.20271304,0.18582028 0 0 1 0.18428,-0.19614 0.20271304,0.18582028 0 0 1 0.21935,0.16302" /><path
       style="fill:#4d4d4d;fill-opacity:1;stroke:#4d4d4d;stroke-width:0.25;stroke-dasharray:none;stroke-dashoffset:0;stroke-opacity:1"
       id="path99"
       d="m 177.89758,156.20728 a 0.20271304,0.18582028 0 0 1 -0.19668,0.18573 0.20271304,0.18582028 0 0 1 -0.20838,-0.17468 0.20271304,0.18582028 0 0 1 0.18428,-0.19613 0.20271304,0.18582028 0 0 1 0.21935,0.16301" /><path
       style="fill:#4d4d4d;fill-opacity:1;stroke:#4d4d4d;stroke-width:0.25;stroke-dasharray:none;stroke-dashoffset:0;stroke-opacity:1"
       id="path100"
       d="m 180.53285,153.80853 a 0.20271304,0.18582028 0 0 1 -0.19668,0.18574 0.20271304,0.18582028 0 0 1 -0.20838,-0.17468 0.20271304,0.18582028 0 0 1 0.18428,-0.19614 0.20271304,0.18582028 0 0 1 0.21935,0.16302" /><path
       style="fill:#4d4d4d;fill-opacity:1;stroke:#4d4d4d;stroke-width:0.25;stroke-dasharray:none;stroke-dashoffset:0;stroke-opacity:1"
       id="path101"
       d="m 180.53285,156.20728 a 0.20271304,0.18582028 0 0 1 -0.19668,0.18573 0.20271304,0.18582028 0 0 1 -0.20838,-0.17468 0.20271304,0.18582028 0 0 1 0.18428,-0.19613 0.20271304,0.18582028 0 0 1 0.21935,0.16301" /><path
       style="fill:#4d4d4d;fill-opacity:1;stroke:#4d4d4d;stroke-width:0.25;stroke-dasharray:none;stroke-dashoffset:0;stroke-opacity:1"
       id="path102"
       d="m 177.89758,179.68823 a 0.20271304,0.18582028 0 0 1 -0.19668,0.18574 0.20271304,0.18582028 0 0 1 -0.20838,-0.17469 0.20271304,0.18582028 0 0 1 0.18428,-0.19613 0.20271304,0.18582028 0 0 1 0.21935,0.16302" /><path
       style="fill:#4d4d4d;fill-opacity:1;stroke:#4d4d4d;stroke-width:0.25;stroke-dasharray:none;stroke-dashoffset:0;stroke-opacity:1"
       id="path103"
       d="m 177.89758,182.08698 a 0.20271304,0.18582028 0 0 1 -0.19668,0.18573 0.20271304,0.18582028 0 0 1 -0.20838,-0.17468 0.20271304,0.18582028 0 0 1 0.18428,-0.19614 0.20271304,0.18582028 0 0 1 0.21935,0.16302" /><path
       style="fill:#4d4d4d;fill-opacity:1;stroke:#4d4d4d;stroke-width:0.25;stroke-dasharray:none;stroke-dashoffset:0;stroke-opacity:1"
       id="path104"
       d="m 180.53285,179.68823 a 0.20271304,0.18582028 0 0 1 -0.19668,0.18574 0.20271304,0.18582028 0 0 1 -0.20838,-0.17469 0.20271304,0.18582028 0 0 1 0.18428,-0.19613 0.20271304,0.18582028 0 0 1 0.21935,0.16302" /><path
       style="fill:#4d4d4d;fill-opacity:1;stroke:#4d4d4d;stroke-width:0.25;stroke-dasharray:none;stroke-dashoffset:0;stroke-opacity:1"
       id="path105"
       d="m 180.53285,182.08698 a 0.20271304,0.18582028 0 0 1 -0.19668,0.18573 0.20271304,0.18582028 0 0 1 -0.20838,-0.17468 0.20271304,0.18582028 0 0 1 0.18428,-0.19614 0.20271304,0.18582028 0 0 1 0.21935,0.16302" /><path
       style="fill:#4d4d4d;fill-opacity:1;stroke:#4d4d4d;stroke-width:0.25;stroke-dasharray:none;stroke-dashoffset:0;stroke-opacity:1"
       id="path110"
       d="m 50.712044,101.82933 a 0.20271304,0.18582028 0 0 1 -0.196682,0.18574 0.20271304,0.18582028 0 0 1 -0.208385,-0.17469 0.20271304,0.18582028 0 0 1 0.184281,-0.19613 0.20271304,0.18582028 0 0 1 0.219351,0.16301" /><path
       style="fill:#4d4d4d;fill-opacity:1;stroke:#4d4d4d;stroke-width:0.25;stroke-dasharray:none;stroke-dashoffset:0;stroke-opacity:1"
       id="path111"
       d="m 50.712044,104.2281 a 0.20271304,0.18582028 0 0 1 -0.196682,0.18574 0.20271304,0.18582028 0 0 1 -0.208385,-0.17468 0.20271304,0.18582028 0 0 1 0.184281,-0.19614 0.20271304,0.18582028 0 0 1 0.219351,0.16302" /><path
       style="fill:#4d4d4d;fill-opacity:1;stroke:#4d4d4d;stroke-width:0.25;stroke-dasharray:none;stroke-dashoffset:0;stroke-opacity:1"
       id="path112"
       d="m 53.347313,101.82933 a 0.20271304,0.18582028 0 0 1 -0.196682,0.18574 0.20271304,0.18582028 0 0 1 -0.208385,-0.17469 0.20271304,0.18582028 0 0 1 0.184281,-0.19613 0.20271304,0.18582028 0 0 1 0.219352,0.16301" /><path
       style="fill:#4d4d4d;fill-opacity:1;stroke:#4d4d4d;stroke-width:0.25;stroke-dasharray:none;stroke-dashoffset:0;stroke-opacity:1"
       id="path113"
       d="m 53.347313,104.2281 a 0.20271304,0.18582028 0 0 1 -0.196682,0.18574 0.20271304,0.18582028 0 0 1 -0.208385,-0.17468 0.20271304,0.18582028 0 0 1 0.184281,-0.19614 0.20271304,0.18582028 0 0 1 0.219352,0.16302" /><path
       style="fill:#4d4d4d;fill-opacity:1;stroke:#4d4d4d;stroke-width:0.25;stroke-dasharray:none;stroke-dashoffset:0;stroke-opacity:1"
       id="path114"
       d="m 82.342354,108.51852 a 0.20271304,0.18582028 0 0 1 -0.196682,0.18573 0.20271304,0.18582028 0 0 1 -0.208385,-0.17468 0.20271304,0.18582028 0 0 1 0.184281,-0.19613 0.20271304,0.18582028 0 0 1 0.219352,0.16301" /><path
       style="fill:#4d4d4d;fill-opacity:1;stroke:#4d4d4d;stroke-width:0.25;stroke-dasharray:none;stroke-dashoffset:0;stroke-opacity:1"
       id="path115"
       d="m 82.342354,110.91729 a 0.20271304,0.18582028 0 0 1 -0.196682,0.18574 0.20271304,0.18582028 0 0 1 -0.208385,-0.17469 0.20271304,0.18582028 0 0 1 0.184281,-0.19613 0.20271304,0.18582028 0 0 1 0.219352,0.16301" /><path
       style="fill:#4d4d4d;fill-opacity:1;stroke:#4d4d4d;stroke-width:0.25;stroke-dasharray:none;stroke-dashoffset:0;stroke-opacity:1"
       id="path116"
       d="m 84.977623,108.51852 a 0.20271304,0.18582028 0 0 1 -0.196682,0.18573 0.20271304,0.18582028 0 0 1 -0.208385,-0.17468 0.20271304,0.18582028 0 0 1 0.184281,-0.19613 0.20271304,0.18582028 0 0 1 0.219352,0.16301" /><path
       style="fill:#4d4d4d;fill-opacity:1;stroke:#4d4d4d;stroke-width:0.25;stroke-dasharray:none;stroke-dashoffset:0;stroke-opacity:1"
       id="path117"
       d="m 84.977623,110.91729 a 0.20271304,0.18582028 0 0 1 -0.196682,0.18574 0.20271304,0.18582028 0 0 1 -0.208385,-0.17469 0.20271304,0.18582028 0 0 1 0.184281,-0.19613 0.20271304,0.18582028 0 0 1 0.219352,0.16301" /><path
       style="fill:#4d4d4d;fill-opacity:1;stroke:#4d4d4d;stroke-width:0.25;stroke-dasharray:none;stroke-dashoffset:0;stroke-opacity:1"
       id="path121"
       d="m 50.712044,127.7766 a 0.20271304,0.18582028 0 0 1 -0.196682,0.18574 0.20271304,0.18582028 0 0 1 -0.208385,-0.17468 0.20271304,0.18582028 0 0 1 0.184281,-0.19614 0.20271304,0.18582028 0 0 1 0.219351,0.16302" /><path
       style="fill:#4d4d4d;fill-opacity:1;stroke:#4d4d4d;stroke-width:0.25;stroke-dasharray:none;stroke-dashoffset:0;stroke-opacity:1"
       id="path122"
       d="m 50.712044,130.17537 a 0.20271304,0.18582028 0 0 1 -0.196682,0.18574 0.20271304,0.18582028 0 0 1 -0.208385,-0.17469 0.20271304,0.18582028 0 0 1 0.184281,-0.19613 0.20271304,0.18582028 0 0 1 0.219351,0.16301" /><path
       style="fill:#4d4d4d;fill-opacity:1;stroke:#4d4d4d;stroke-width:0.25;stroke-dasharray:none;stroke-dashoffset:0;stroke-opacity:1"
       id="path123"
       d="m 53.347313,127.7766 a 0.20271304,0.18582028 0 0 1 -0.196682,0.18574 0.20271304,0.18582028 0 0 1 -0.208385,-0.17468 0.20271304,0.18582028 0 0 1 0.184281,-0.19614 0.20271304,0.18582028 0 0 1 0.219352,0.16302" /><path
       style="fill:#4d4d4d;fill-opacity:1;stroke:#4d4d4d;stroke-width:0.25;stroke-dasharray:none;stroke-dashoffset:0;stroke-opacity:1"
       id="path124"
       d="m 53.347313,130.17537 a 0.20271304,0.18582028 0 0 1 -0.196682,0.18574 0.20271304,0.18582028 0 0 1 -0.208385,-0.17469 0.20271304,0.18582028 0 0 1 0.184281,-0.19613 0.20271304,0.18582028 0 0 1 0.219352,0.16301" /><path
       style="fill:#4d4d4d;fill-opacity:1;stroke:#4d4d4d;stroke-width:0.25;stroke-dasharray:none;stroke-dashoffset:0;stroke-opacity:1"
       id="path125"
       d="m 82.342354,134.46579 a 0.20271304,0.18582028 0 0 1 -0.196682,0.18574 0.20271304,0.18582028 0 0 1 -0.208385,-0.17469 0.20271304,0.18582028 0 0 1 0.184281,-0.19613 0.20271304,0.18582028 0 0 1 0.219352,0.16301" /><path
       style="fill:#4d4d4d;fill-opacity:1;stroke:#4d4d4d;stroke-width:0.25;stroke-dasharray:none;stroke-dashoffset:0;stroke-opacity:1"
       id="path126"
       d="m 82.342354,136.86456 a 0.20271304,0.18582028 0 0 1 -0.196682,0.18574 0.20271304,0.18582028 0 0 1 -0.208385,-0.17468 0.20271304,0.18582028 0 0 1 0.184281,-0.19614 0.20271304,0.18582028 0 0 1 0.219352,0.16302" /><path
       style="fill:#4d4d4d;fill-opacity:1;stroke:#4d4d4d;stroke-width:0.25;stroke-dasharray:none;stroke-dashoffset:0;stroke-opacity:1"
       id="path127"
       d="m 84.977623,134.46579 a 0.20271304,0.18582028 0 0 1 -0.196682,0.18574 0.20271304,0.18582028 0 0 1 -0.208385,-0.17469 0.20271304,0.18582028 0 0 1 0.184281,-0.19613 0.20271304,0.18582028 0 0 1 0.219352,0.16301" /><path
       style="fill:#4d4d4d;fill-opacity:1;stroke:#4d4d4d;stroke-width:0.25;stroke-dasharray:none;stroke-dashoffset:0;stroke-opacity:1"
       id="path128"
       d="m 84.977623,136.86456 a 0.20271304,0.18582028 0 0 1 -0.196682,0.18574 0.20271304,0.18582028 0 0 1 -0.208385,-0.17468 0.20271304,0.18582028 0 0 1 0.184281,-0.19614 0.20271304,0.18582028 0 0 1 0.219352,0.16302" /><path
       style="fill:#4d4d4d;fill-opacity:1;stroke:#4d4d4d;stroke-width:0.25;stroke-dasharray:none;stroke-dashoffset:0;stroke-opacity:1"
       id="path129"
       d="m 50.712044,153.58873 a 0.20271304,0.18582028 0 0 1 -0.196682,0.18574 0.20271304,0.18582028 0 0 1 -0.208385,-0.17469 0.20271304,0.18582028 0 0 1 0.184281,-0.19613 0.20271304,0.18582028 0 0 1 0.219351,0.16301" /><path
       style="fill:#4d4d4d;fill-opacity:1;stroke:#4d4d4d;stroke-width:0.25;stroke-dasharray:none;stroke-dashoffset:0;stroke-opacity:1"
       id="path130"
       d="m 50.712044,155.9875 a 0.20271304,0.18582028 0 0 1 -0.196682,0.18574 0.20271304,0.18582028 0 0 1 -0.208385,-0.17468 0.20271304,0.18582028 0 0 1 0.184281,-0.19614 0.20271304,0.18582028 0 0 1 0.219351,0.16302" /><path
       style="fill:#4d4d4d;fill-opacity:1;stroke:#4d4d4d;stroke-width:0.25;stroke-dasharray:none;stroke-dashoffset:0;stroke-opacity:1"
       id="path131"
       d="m 53.347313,153.58873 a 0.20271304,0.18582028 0 0 1 -0.196682,0.18574 0.20271304,0.18582028 0 0 1 -0.208385,-0.17469 0.20271304,0.18582028 0 0 1 0.184281,-0.19613 0.20271304,0.18582028 0 0 1 0.219352,0.16301" /><path
       style="fill:#4d4d4d;fill-opacity:1;stroke:#4d4d4d;stroke-width:0.25;stroke-dasharray:none;stroke-dashoffset:0;stroke-opacity:1"
       id="path132"
       d="m 53.347313,155.9875 a 0.20271304,0.18582028 0 0 1 -0.196682,0.18574 0.20271304,0.18582028 0 0 1 -0.208385,-0.17468 0.20271304,0.18582028 0 0 1 0.184281,-0.19614 0.20271304,0.18582028 0 0 1 0.219352,0.16302" /><path
       style="fill:#4d4d4d;fill-opacity:1;stroke:#4d4d4d;stroke-width:0.25;stroke-dasharray:none;stroke-dashoffset:0;stroke-opacity:1"
       id="path133"
       d="m 82.342354,160.27792 a 0.20271304,0.18582028 0 0 1 -0.196682,0.18574 0.20271304,0.18582028 0 0 1 -0.208385,-0.17468 0.20271304,0.18582028 0 0 1 0.184281,-0.19614 0.20271304,0.18582028 0 0 1 0.219352,0.16302" /><path
       style="fill:#4d4d4d;fill-opacity:1;stroke:#4d4d4d;stroke-width:0.25;stroke-dasharray:none;stroke-dashoffset:0;stroke-opacity:1"
       id="path134"
       d="m 82.342354,162.6767 a 0.20271304,0.18582028 0 0 1 -0.196682,0.18573 0.20271304,0.18582028 0 0 1 -0.208385,-0.17468 0.20271304,0.18582028 0 0 1 0.184281,-0.19613 0.20271304,0.18582028 0 0 1 0.219352,0.16301" /><path
       style="fill:#4d4d4d;fill-opacity:1;stroke:#4d4d4d;stroke-width:0.25;stroke-dasharray:none;stroke-dashoffset:0;stroke-opacity:1"
       id="path135"
       d="m 84.977623,160.27792 a 0.20271304,0.18582028 0 0 1 -0.196682,0.18574 0.20271304,0.18582028 0 0 1 -0.208385,-0.17468 0.20271304,0.18582028 0 0 1 0.184281,-0.19614 0.20271304,0.18582028 0 0 1 0.219352,0.16302" /><path
       style="fill:#4d4d4d;fill-opacity:1;stroke:#4d4d4d;stroke-width:0.25;stroke-dasharray:none;stroke-dashoffset:0;stroke-opacity:1"
       id="path136"
       d="m 84.977623,162.6767 a 0.20271304,0.18582028 0 0 1 -0.196682,0.18573 0.20271304,0.18582028 0 0 1 -0.208385,-0.17468 0.20271304,0.18582028 0 0 1 0.184281,-0.19613 0.20271304,0.18582028 0 0 1 0.219352,0.16301" /><path
       style="fill:#4d4d4d;fill-opacity:1;stroke:#4d4d4d;stroke-width:0.25;stroke-dasharray:none;stroke-dashoffset:0;stroke-opacity:1"
       id="path137"
       d="m 50.712044,179.26572 a 0.20271304,0.18582028 0 0 1 -0.196682,0.18573 0.20271304,0.18582028 0 0 1 -0.208385,-0.17468 0.20271304,0.18582028 0 0 1 0.184281,-0.19613 0.20271304,0.18582028 0 0 1 0.219351,0.16301" /><path
       style="fill:#4d4d4d;fill-opacity:1;stroke:#4d4d4d;stroke-width:0.25;stroke-dasharray:none;stroke-dashoffset:0;stroke-opacity:1"
       id="path138"
       d="m 50.712044,181.66449 a 0.20271304,0.18582028 0 0 1 -0.196682,0.18574 0.20271304,0.18582028 0 0 1 -0.208385,-0.17469 0.20271304,0.18582028 0 0 1 0.184281,-0.19613 0.20271304,0.18582028 0 0 1 0.219351,0.16301" /><path
       style="fill:#4d4d4d;fill-opacity:1;stroke:#4d4d4d;stroke-width:0.25;stroke-dasharray:none;stroke-dashoffset:0;stroke-opacity:1"
       id="path139"
       d="m 53.347313,179.26572 a 0.20271304,0.18582028 0 0 1 -0.196682,0.18573 0.20271304,0.18582028 0 0 1 -0.208385,-0.17468 0.20271304,0.18582028 0 0 1 0.184281,-0.19613 0.20271304,0.18582028 0 0 1 0.219352,0.16301" /><path
       style="fill:#4d4d4d;fill-opacity:1;stroke:#4d4d4d;stroke-width:0.25;stroke-dasharray:none;stroke-dashoffset:0;stroke-opacity:1"
       id="path140"
       d="m 53.347313,181.66449 a 0.20271304,0.18582028 0 0 1 -0.196682,0.18574 0.20271304,0.18582028 0 0 1 -0.208385,-0.17469 0.20271304,0.18582028 0 0 1 0.184281,-0.19613 0.20271304,0.18582028 0 0 1 0.219352,0.16301" /></g><g
     id="g86"
     style="display:inline"
     transform="translate(-16.411999,-85.150564)"><path
       style="fill:#000080;fill-opacity:1;stroke:#000080;stroke-width:0.246173;stroke-dasharray:0.738518, 0.738518;stroke-dashoffset:0;stroke-opacity:1"
       d="m 20.432876,85.150564 c 0,100.810176 0,100.810176 0,100.810176"
       id="path5" /><path
       style="fill:#000080;fill-opacity:1;stroke:#000080;stroke-width:0.246173;stroke-dasharray:0.738518, 0.738518;stroke-dashoffset:0;stroke-opacity:1"
       d="m 146.21632,85.150564 c 0,100.810176 0,100.810176 0,100.810176"
       id="path4" /><path
       style="fill:#000080;fill-opacity:1;stroke:#000080;stroke-width:0.246173;stroke-dasharray:0.738518, 0.738518;stroke-dashoffset:0;stroke-opacity:1"
       d="m 115.13365,85.150564 c 0,100.810176 0,100.810176 0,100.810176"
       id="path3" /><path
       style="fill:#000080;fill-opacity:1;stroke:#000080;stroke-width:0.246173;stroke-dasharray:0.738518, 0.738518;stroke-dashoffset:0;stroke-opacity:1"
       d="m 83.510412,85.150564 c 0,100.810176 0,100.810176 0,100.810176"
       id="path2" /><path
       style="fill:#000080;fill-opacity:1;stroke:#000080;stroke-width:0.246173;stroke-dasharray:0.738518, 0.738518;stroke-dashoffset:0;stroke-opacity:1"
       d="m 51.887177,85.150564 c 0,100.810176 0,100.810176 0,100.810176"
       id="path1" /></g><g
     id="g87"
     style="display:inline"
     transform="translate(-16.411999,-85.150564)"><path
       style="fill:#4d4d4d;fill-opacity:1;stroke:#4d4d4d;stroke-width:0.25;stroke-dasharray:none;stroke-dashoffset:0;stroke-opacity:1"
       d="m 20.507803,86.761181 c 0,6.757101 0,6.757101 0,6.757101"
       id="path9" /><path
       style="fill:#4d4d4d;fill-opacity:1;stroke:#4d4d4d;stroke-width:0.25;stroke-dasharray:none;stroke-dashoffset:0;stroke-opacity:1"
       d="m 146.24056,86.761181 c 0,6.757101 0,6.757101 0,6.757101"
       id="path14" /><path
       style="fill:#4d4d4d;fill-opacity:1;stroke:#4d4d4d;stroke-width:0.25;stroke-dasharray:none;stroke-dashoffset:0;stroke-opacity:1"
       d="m 20.507803,112.70568 c 0,6.7571 0,6.7571 0,6.7571"
       id="path30" /><path
       style="fill:#4d4d4d;fill-opacity:1;stroke:#4d4d4d;stroke-width:0.25;stroke-dasharray:none;stroke-dashoffset:0;stroke-opacity:1"
       d="m 146.24056,112.70568 c 0,6.7571 0,6.7571 0,6.7571"
       id="path31" /><path
       style="fill:#4d4d4d;fill-opacity:1;stroke:#4d4d4d;stroke-width:0.25;stroke-dasharray:none;stroke-dashoffset:0;stroke-opacity:1"
       d="m 20.507803,138.47284 c 0,6.7571 0,6.7571 0,6.7571"
       id="path43" /><path
       style="fill:#4d4d4d;fill-opacity:1;stroke:#4d4d4d;stroke-width:0.25;stroke-dasharray:none;stroke-dashoffset:0;stroke-opacity:1"
       d="m 146.24056,138.47284 c 0,6.7571 0,6.7571 0,6.7571"
       id="path44" /><path
       style="fill:#4d4d4d;fill-opacity:1;stroke:#4d4d4d;stroke-width:0.25;stroke-dasharray:none;stroke-dashoffset:0;stroke-opacity:1"
       d="m 20.507803,164.46512 c 0,6.7571 0,6.7571 0,6.7571"
       id="path56" /><path
       style="fill:#4d4d4d;fill-opacity:1;stroke:#4d4d4d;stroke-width:0.25;stroke-dasharray:none;stroke-dashoffset:0;stroke-opacity:1"
       d="m 146.24056,164.46512 c 0,6.7571 0,6.7571 0,6.7571"
       id="path57" /><path
       style="fill:#4d4d4d;fill-opacity:1;stroke:#4d4d4d;stroke-width:0.25;stroke-dasharray:none;stroke-dashoffset:0;stroke-opacity:1"
       d="m 115.11831,93.668414 c 0,6.757096 0,6.757096 0,6.757096"
       id="path65" /><path
       style="fill:#4d4d4d;fill-opacity:1;stroke:#4d4d4d;stroke-width:0.25;stroke-dasharray:none;stroke-dashoffset:0;stroke-opacity:1"
       d="m 115.11831,119.56513 c 0,6.7571 0,6.7571 0,6.7571"
       id="path72" /><path
       style="fill:#4d4d4d;fill-opacity:1;stroke:#4d4d4d;stroke-width:0.25;stroke-dasharray:none;stroke-dashoffset:0;stroke-opacity:1"
       d="m 115.11831,145.22295 c 0,6.7571 0,6.7571 0,6.7571"
       id="path79" /><path
       style="fill:#4d4d4d;fill-opacity:1;stroke:#4d4d4d;stroke-width:0.25;stroke-dasharray:none;stroke-dashoffset:0;stroke-opacity:1"
       d="m 115.11831,171.31079 c 0,6.7571 0,6.7571 0,6.7571"
       id="path86" /><path
       style="fill:#4d4d4d;fill-opacity:1;stroke:#4d4d4d;stroke-width:0.25;stroke-dasharray:none;stroke-dashoffset:0;stroke-opacity:1"
       d="m 179.04049,177.73004 c 0,6.7571 0,6.7571 0,6.7571"
       id="path106" /><path
       style="fill:#4d4d4d;fill-opacity:1;stroke:#4d4d4d;stroke-width:0.25;stroke-dasharray:none;stroke-dashoffset:0;stroke-opacity:1"
       d="m 179.04049,151.64763 c 0,6.7571 0,6.7571 0,6.7571"
       id="path107" /><path
       style="fill:#4d4d4d;fill-opacity:1;stroke:#4d4d4d;stroke-width:0.25;stroke-dasharray:none;stroke-dashoffset:0;stroke-opacity:1"
       d="m 179.04049,125.90307 c 0,6.7571 0,6.7571 0,6.7571"
       id="path108" /><path
       style="fill:#4d4d4d;fill-opacity:1;stroke:#4d4d4d;stroke-width:0.25;stroke-dasharray:none;stroke-dashoffset:0;stroke-opacity:1"
       d="m 179.04049,100.29366 c 0,6.7571 0,6.7571 0,6.7571"
       id="path109" /></g></svg>
