<?xml version="1.0" encoding="UTF-8" standalone="no"?>
<!-- Created with Inkscape (http://www.inkscape.org/) -->

<svg
   width="138.28975mm"
   height="71.71965mm"
   viewBox="0 0 138.28975 71.71965"
   version="1.1"
   id="svg1"
   xml:space="preserve"
   inkscape:version="1.4-beta (62f545ba5e, 2024-04-22)"
   sodipodi:docname="HN-Software Logo White.svg"
   xmlns:inkscape="http://www.inkscape.org/namespaces/inkscape"
   xmlns:sodipodi="http://sodipodi.sourceforge.net/DTD/sodipodi-0.dtd"
   xmlns="http://www.w3.org/2000/svg"
   xmlns:svg="http://www.w3.org/2000/svg"><sodipodi:namedview
     id="namedview1"
     pagecolor="#ffffff"
     bordercolor="#000000"
     borderopacity="0.25"
     inkscape:showpageshadow="2"
     inkscape:pageopacity="0.0"
     inkscape:pagecheckerboard="0"
     inkscape:deskcolor="#d1d1d1"
     inkscape:document-units="mm"
     inkscape:zoom="1.3772587"
     inkscape:cx="218.18704"
     inkscape:cy="93.30128"
     inkscape:window-width="1920"
     inkscape:window-height="1009"
     inkscape:window-x="1912"
     inkscape:window-y="-8"
     inkscape:window-maximized="1"
     inkscape:current-layer="layer1" /><defs
     id="defs1" /><g
     inkscape:label="Laag 1"
     inkscape:groupmode="layer"
     id="layer1"
     transform="translate(-42.426351,-205.16784)"><path
       d="m 62.243229,208.82188 c -0.258988,0 -0.512169,0.0134 -0.766878,0.0233 v 0.45011 l -2.116667,0.21187 c -2.540001,0.28222 -3.880418,0.91718 -4.79764,2.25774 -0.635001,0.91722 -0.670587,1.97566 -0.846976,13.33511 -0.211667,13.68778 -0.246842,14.04007 -2.539897,15.20424 l -0.650606,0.33589 v 0.53744 l 0.454752,0.31677 c 0.458611,0.35278 0.879413,0.69235 0.965833,0.75345 0.09944,0.0703 0.53554,0.49065 0.888318,1.09037 0.670278,1.09361 0.705211,2.04656 0.8816,13.51184 0.176389,11.35944 0.211975,12.41736 0.846976,13.33458 0.917222,1.34055 2.257639,1.97553 4.79764,2.25775 l 2.116667,0.21187 v 0.50126 c 0.254709,0.01 0.50789,0.0233 0.766878,0.0233 h 98.936081 c 0.16439,0 0.32408,-0.0105 0.48679,-0.0145 v -0.51004 l 2.11667,-0.21187 c 2.54,-0.28222 3.88042,-0.9172 4.79764,-2.25775 0.63501,-0.91722 0.67058,-1.97514 0.84697,-13.33458 0.17639,-11.46528 0.21132,-12.41823 0.8816,-13.51184 0.35277,-0.59972 0.78888,-1.02007 0.88832,-1.09037 0.0864,-0.0611 0.50722,-0.40067 0.96583,-0.75345 l 0.73484,-0.51211 v -0.1974 l -0.93069,-0.48059 c -2.29305,-1.16417 -2.32823,-1.51646 -2.5399,-15.20424 -0.17639,-11.35945 -0.21196,-12.41789 -0.84697,-13.33511 -0.91722,-1.34056 -2.25764,-1.97552 -4.79764,-2.25774 l -2.11667,-0.21187 v -0.45889 c -0.16271,-0.004 -0.3224,-0.0145 -0.48679,-0.0145 z m 11.580172,0.3824 c 5.785556,0 5.821005,4e-5 4.586283,0.60979 -2.328334,1.084 -2.610659,2.26937 -2.75177,10.70425 l -0.141076,7.45278 1.093473,-0.88109 c 2.469445,-1.99862 4.727222,-2.03216 10.583333,-0.10128 4.938889,1.626 7.126387,1.49041 8.396387,-0.54209 l 0.494027,-0.81287 -0.247014,0.84646 c -0.352778,1.32112 -1.128958,2.33777 -2.36368,3.08302 -0.917222,0.54197 -1.587396,0.64347 -3.59823,0.57567 -2.081389,-0.10162 -3.034233,-0.37254 -5.997566,-1.72754 -4.092223,-1.82924 -5.432605,-2.16804 -6.526217,-1.59215 -0.9525,0.47425 -1.763717,2.26938 -1.763717,3.89537 v 1.18597 h -1.728576 -1.728577 l -0.141077,-9.41751 c -0.105833,-8.57037 -0.176836,-9.48498 -0.811836,-10.73836 -0.423333,-0.84687 -1.163823,-1.59188 -1.939934,-1.93063 -1.234722,-0.60975 -1.199789,-0.60979 4.585767,-0.60979 z m 25.4,0 c 5.785559,0 5.821009,4e-5 4.586279,0.60979 -0.77611,0.33875 -1.51711,1.08376 -1.94045,1.93063 -0.635,1.25338 -0.70548,2.16799 -0.81132,10.73836 l -0.14107,9.41751 h -1.693439 -1.69292 l -0.141077,-9.41751 c -0.105833,-8.53649 -0.176836,-9.51886 -0.811836,-10.73836 -0.423334,-0.84687 -1.163823,-1.59188 -1.939934,-1.93063 -1.234723,-0.60975 -1.199789,-0.60979 4.585767,-0.60979 z m 12.568229,0.30696 c 0.0116,0.0368 0.024,0.72236 0.0367,2.12597 0.09,5.03559 0.09,13.21809 0,18.20871 -0.0449,5.03558 -0.0899,0.94408 -0.0899,-9.08213 0,-7.20633 0.0235,-11.34665 0.0532,-11.25255 z m 7.36389,16.46411 h 3.77496 3.77445 l 1.02319,1.48208 c 0.56445,0.84666 1.44642,2.18688 1.97559,2.99827 l 0.91726,1.51722 h -2.2934 -2.25775 l -1.26969,-1.83451 -1.23506,-1.86966 -0.0351,1.93994 c -0.0353,2.04612 -0.1056,1.94034 -0.98754,-1.34049 -0.35278,-1.30528 -0.67059,-1.62288 -1.90531,-2.2226 z m 32.19183,0.0615 c 3.78568,-0.0101 3.92803,0.0712 2.90938,0.50333 -1.51694,0.635 -2.11646,1.5167 -2.43396,3.63337 -0.21166,1.48166 -0.3177,1.62273 -1.2702,1.72857 -0.9525,0.10583 -1.16413,-0.0705 -1.72858,-1.34048 -0.81139,-1.86972 -2.57517,-3.63351 -4.1274,-4.1274 -0.9525,-0.31755 -0.0354,-0.38809 4.79764,-0.38809 0.69674,-0.004 1.31231,-0.008 1.85312,-0.009 z m -90.316967,9.07541 h 7.293095 c 0.287984,0 0.556434,0.0556 0.802535,0.16227 h 0.0021 c 0.256073,0.10693 0.481564,0.25678 0.673861,0.44907 0.192684,0.19269 0.342103,0.41715 0.449068,0.67386 0.107206,0.24658 0.160197,0.51387 0.160197,0.80253 v 0.66611 0.0274 H 68.645972 V 237.2 c 0,-0.0884 -0.03272,-0.15732 -0.101802,-0.21652 l -0.0021,-0.002 v -0.002 c -0.05921,-0.0691 -0.130251,-0.10128 -0.218591,-0.10128 h -7.293095 c -0.08834,0 -0.166131,0.0333 -0.236161,0.10335 -0.05879,0.0588 -0.08785,0.12929 -0.08785,0.21859 v 2.44326 c 0,0.0878 0.0301,0.16375 0.08785,0.23255 0.06978,0.0597 0.146851,0.0899 0.236161,0.0899 h 7.293095 c 0.287984,0 0.556434,0.0535 0.802535,0.1602 h 0.0021 c 0.256073,0.10692 0.481564,0.25677 0.673861,0.44907 0.192684,0.19268 0.342103,0.41715 0.449068,0.67386 0.107206,0.24658 0.160197,0.51595 0.160197,0.8046 v 2.44171 c 0,0.28865 -0.05314,0.56111 -0.160197,0.81804 -0.107008,0.24611 -0.256556,0.46585 -0.449068,0.65836 -0.192683,0.19269 -0.419214,0.34211 -0.675928,0.44907 -0.246101,0.10671 -0.514551,0.16226 -0.802535,0.16226 h -7.293095 c -0.288657,0 -0.563176,-0.0552 -0.820105,-0.16226 -0.246118,-0.107 -0.465846,-0.25655 -0.658357,-0.44907 -0.192512,-0.19251 -0.342061,-0.41225 -0.449069,-0.65836 -0.107056,-0.25693 -0.160197,-0.52939 -0.160197,-0.81804 v -0.69349 h 1.763717 v 0.69349 c 0,0.0884 0.02924,0.1649 0.08785,0.2341 l 0.0021,0.002 c 0.06924,0.0585 0.145664,0.0858 0.234094,0.0858 h 7.293095 c 0.08932,0 0.161869,-0.0291 0.220659,-0.0879 0.07002,-0.07 0.101802,-0.1458 0.101802,-0.2341 v -2.44171 c 0,-0.0883 -0.03272,-0.15939 -0.101802,-0.21859 l -0.0021,-0.002 c -0.05921,-0.0691 -0.130251,-0.10335 -0.218591,-0.10335 h -7.293095 c -0.288657,0 -0.563176,-0.0532 -0.820105,-0.1602 -0.246117,-0.10701 -0.465846,-0.25655 -0.658357,-0.44906 -0.192512,-0.19251 -0.342061,-0.41224 -0.449069,-0.65836 -0.107056,-0.25692 -0.160197,-0.52991 -0.160197,-0.81856 v -2.44326 c 0,-0.28866 0.05299,-0.55595 0.160197,-0.80253 0.106964,-0.25671 0.256385,-0.48117 0.449069,-0.67386 0.192511,-0.19251 0.41224,-0.34258 0.658357,-0.44959 0.256929,-0.107 0.531448,-0.16175 0.820105,-0.16175 z m 13.082406,0 h 7.292578 c 0.288658,0 0.556476,0.0546 0.803052,0.16175 0.256714,0.10697 0.482728,0.25691 0.675411,0.44959 0.192684,0.19269 0.342621,0.41715 0.449585,0.67386 0.107206,0.24658 0.160197,0.51387 0.160197,0.80253 v 7.29516 c 0,0.28865 -0.05314,0.56111 -0.160197,0.81804 -0.107008,0.24611 -0.257073,0.46585 -0.449585,0.65836 -0.192683,0.19269 -0.418696,0.34211 -0.675411,0.44907 -0.246576,0.10721 -0.514394,0.16226 -0.803052,0.16226 h -7.292578 c -0.288658,0 -0.563692,-0.0552 -0.820622,-0.16226 -0.246118,-0.107 -0.465846,-0.25655 -0.658358,-0.44907 -0.192512,-0.19251 -0.34206,-0.41225 -0.449068,-0.65836 -0.107056,-0.25693 -0.160197,-0.52939 -0.160197,-0.81804 v -7.29516 c 0,-0.28866 0.05299,-0.55595 0.160197,-0.80253 0.106965,-0.25671 0.256384,-0.48117 0.449068,-0.67386 0.192512,-0.19251 0.412241,-0.34258 0.658358,-0.44959 0.25693,-0.107 0.531965,-0.16175 0.820622,-0.16175 z m 11.103198,0 h 10.492383 0.02739 v 1.76527 h -8.753987 v 3.08818 h 7.040914 v 1.76372 h -7.040914 v 4.85345 h -1.765784 z m 11.495939,0 h 11.443744 0.0274 v 1.76527 h -4.85397 v 9.70535 h -1.7632 v -9.70535 h -4.853964 z m 12.263854,0 h 1.87895 l 3.00964,8.2734 3.01015,-8.2734 h 1.86087 l 3.01015,8.2734 3.00964,-8.2734 h 1.84174 0.0372 l -4.17184,11.47062 h -1.4335 l -3.23081,-8.84752 -3.20859,8.82788 0.0191,0.0196 h -0.0274 l -0.004,0.01 -0.0196,-0.01 h -1.41025 z m 20.9982,0 h 7.29464 c 0.28866,0 0.55648,0.0546 0.80306,0.16175 0.25672,0.10697 0.48118,0.25691 0.67386,0.44959 0.19268,0.19269 0.34417,0.41715 0.45113,0.67386 0.10716,0.24658 0.1602,0.51387 0.1602,0.80253 v 9.38289 h -1.76579 v -3.99614 h -7.93956 v 3.99614 h -1.76372 v -9.38289 c 0,-0.28866 0.053,-0.55595 0.1602,-0.80253 0.10696,-0.25671 0.25639,-0.48117 0.44907,-0.67386 0.19252,-0.19251 0.41223,-0.34258 0.65835,-0.44959 0.25693,-0.107 0.5299,-0.16175 0.81856,-0.16175 z m 24.25175,0 h 10.5177 v 1.73995 0.0253 h -8.75399 v 3.08818 h 7.04092 v 1.76372 h -7.04092 v 3.08767 h 8.75399 v 1.76578 h -10.5177 z m -13.13098,0.0176 h 9.38289 c 0.28831,0 0.55678,0.0582 0.80305,0.1757 h 0.002 c 0.25607,0.10692 0.47949,0.25678 0.67179,0.44907 0.19299,0.18228 0.34412,0.40152 0.45113,0.65836 h -0.002 c 0.10721,0.24657 0.16226,0.51387 0.16226,0.80253 v 3.20343 c 0,0.28865 -0.0531,0.56317 -0.1602,0.8201 h -0.002 c -0.107,0.24611 -0.25656,0.46585 -0.44907,0.65836 -0.19246,0.18177 -0.41776,0.33169 -0.67386,0.44907 -0.24658,0.10716 -0.51439,0.16019 -0.80305,0.16019 h -1.10123 l 3.18947,3.80287 v 0.27337 h -2.06861 l -3.42563,-4.07624 h -3.88865 -0.1912 -0.004 c -0.0425,-0.008 -0.0847,-0.0173 -0.12712,-0.0253 v 4.10156 h -1.76578 z m -11.12077,1.7477 c -0.0884,0 -0.16461,0.0339 -0.23461,0.10387 -0.0588,0.0588 -0.0879,0.12929 -0.0879,0.21859 v 3.62097 h 7.93956 v -3.62097 c 0,-0.0884 -0.0327,-0.15732 -0.1018,-0.21652 l -0.002,-0.002 v -0.002 c -0.0592,-0.0691 -0.13071,-0.1018 -0.21911,-0.1018 z m 13.20901,0.016 c -0.0883,0 -0.16461,0.0333 -0.23461,0.10335 -0.0588,0.0588 -0.0878,0.12929 -0.0878,0.21859 v 3.20343 c 0,0.0884 0.0292,0.16696 0.0878,0.23616 0.0692,0.0586 0.14621,0.0879 0.23461,0.0879 h 7.29465 c 0.0893,0 0.1603,-0.0291 0.2191,-0.0879 0.07,-0.07 0.10336,-0.14786 0.10336,-0.23616 v -3.20343 c 0,-0.0883 -0.0327,-0.15732 -0.1018,-0.21652 l -0.002,-0.002 -0.002,-0.002 c -0.0592,-0.0691 -0.12864,-0.10129 -0.21704,-0.10129 z m -7.23522,12.72946 h 2.36368 l 2.36368,0.0351 5.11494,7.90236 5.11545,7.90184 0.17621,-8.00778 c 0.21172,-7.97278 0.21217,-7.97305 0.28267,3.77445 0.0353,6.94972 -0.0706,11.67711 -0.24701,11.46545 -0.17639,-0.17639 -3.6692,-5.4325 -7.72614,-11.71195 z m -64.064302,0.0858 h 1.939933 1.94045 l 0.635103,1.72858 c 0.493889,1.41111 0.846839,1.8344 1.94045,2.25774 1.27,0.52914 1.093164,0.56431 -4.516003,0.56431 -5.609167,0 -5.785488,-0.0351 -4.515487,-0.56431 1.093611,-0.42334 1.446562,-0.84663 1.94045,-2.25774 z m 25.557096,0 h 1.94045 1.940446 l 0.63459,1.72858 c 0.49389,1.41111 0.84684,1.8344 1.94045,2.25774 1.27,0.52914 1.09368,0.56431 -4.515486,0.56431 -5.609167,0 -5.785488,-0.0351 -4.515487,-0.56431 1.093611,-0.42334 1.446046,-0.84663 1.939934,-2.25774 z m 25.942086,0.003 c 0.049,-0.0606 0.11004,1.38416 0.21807,3.96669 0.24695,6.73485 1.02285,11.25147 2.43396,14.42082 1.16416,2.57508 1.94053,3.44651 3.77497,4.19923 1.23472,0.47542 0.81098,0.51521 -4.65708,0.51521 -5.11527,0 -5.82083,-0.0793 -4.7625,-0.47542 0.88195,-0.35655 1.44656,-0.91145 1.94045,-2.06034 0.635,-1.4262 0.70535,-2.57494 0.84646,-12.08298 0.0992,-5.83853 0.14273,-8.4053 0.20567,-8.48321 z m -11.58947,0.17829 c 0.0117,0.0372 0.0244,0.72897 0.0372,2.14612 0.0909,5.08415 0.0909,13.34617 0,18.38492 -0.0452,5.08414 -0.0904,0.9529 -0.0904,-9.16998 0,-7.27581 0.0232,-11.45607 0.0532,-11.36106 z"
       style="baseline-shift:baseline;display:inline;overflow:visible;vector-effect:none;fill:#ffffff;stroke-linejoin:round;enable-background:accumulate;stop-color:#000000;stop-opacity:1"
       id="path29" /><path
       d="m 61.476351,205.16784 -1.481563,0.0351 c -0.846667,0.0353 -2.39882,0.1767 -3.457154,0.31781 -1.058333,0.14111 -2.363817,0.42292 -2.857706,0.63459 -1.552222,0.59972 -3.563159,2.61079 -4.33927,4.30413 -0.705556,1.48166 -0.740626,2.29288 -0.84646,13.40538 -0.03528,6.49112 -0.176459,12.17111 -0.247014,12.62972 -0.352778,1.55222 -1.41111,2.18695 -3.704166,2.18695 h -2.116667 v 2.2934 2.29288 h 2.116667 c 2.293056,0 3.351388,0.63472 3.704166,2.18695 0.07055,0.45861 0.211737,6.13861 0.247014,12.62972 0.141111,13.44083 0.11882,13.78707 2.905765,16.22123 1.763889,1.5875 3.23243,1.98197 7.183541,2.33474 l 2.892847,0.24701 v -2.11666 -2.11667 l -2.116667,-0.21187 c -2.540001,-0.28222 -3.880418,-0.9172 -4.79764,-2.25775 -0.635001,-0.91722 -0.670587,-1.97514 -0.846976,-13.33458 -0.176389,-11.46528 -0.211322,-12.41823 -0.8816,-13.51184 -0.352778,-0.59972 -0.788876,-1.02007 -0.888318,-1.09037 -0.08642,-0.0611 -0.507222,-0.40067 -0.965833,-0.75345 l -0.897619,-0.62528 1.093473,-0.56482 c 2.293055,-1.16417 2.32823,-1.51646 2.539897,-15.20424 0.176389,-11.35945 0.211975,-12.41789 0.846976,-13.33511 0.917222,-1.34056 2.257639,-1.97552 4.79764,-2.25774 l 2.116667,-0.21187 v -2.04587 z"
       style="baseline-shift:baseline;display:inline;overflow:visible;vector-effect:none;fill:#0196b1;enable-background:accumulate;stop-color:#000000;stop-opacity:1"
       id="path28" /><path
       d="m 111.79163,209.51124 c -0.0298,-0.0941 -0.0532,4.04622 -0.0532,11.25255 0,10.02621 0.045,14.11771 0.0899,9.08213 0.09,-4.99062 0.09,-13.17312 0,-18.20871 -0.0127,-1.40361 -0.0251,-2.08914 -0.0367,-2.12597 z"
       style="baseline-shift:baseline;display:inline;overflow:visible;vector-effect:none;fill:#034bac;enable-background:accumulate;stop-color:#000000;stop-opacity:1"
       id="path27" /><path
       d="m 73.823401,209.20428 c -5.785556,0 -5.820489,4e-5 -4.585767,0.60979 0.776111,0.33875 1.516601,1.08376 1.939934,1.93063 0.635,1.25338 0.706003,2.16799 0.811836,10.73836 l 0.141077,9.41751 h 1.728577 1.728576 v -1.18597 c 0,-1.62599 0.811217,-3.42112 1.763717,-3.89537 1.093612,-0.57589 2.433994,-0.23709 6.526217,1.59215 2.963333,1.355 3.916177,1.62592 5.997566,1.72754 2.010834,0.0678 2.681008,-0.0337 3.59823,-0.57567 1.234722,-0.74525 2.010902,-1.7619 2.36368,-3.08302 l 0.247014,-0.84646 -0.494027,0.81287 c -1.27,2.0325 -3.457498,2.16809 -8.396387,0.54209 -5.856111,-1.93088 -8.113888,-1.89734 -10.583333,0.10128 l -1.093473,0.88109 0.141076,-7.45278 c 0.141111,-8.43488 0.423436,-9.62025 2.75177,-10.70425 1.234722,-0.60975 1.199273,-0.60979 -4.586283,-0.60979 z"
       style="baseline-shift:baseline;display:inline;overflow:visible;vector-effect:none;fill:#034bac;enable-background:accumulate;stop-color:#000000;stop-opacity:1"
       id="path26" /><path
       d="m 99.223401,209.20428 c -5.785556,0 -5.82049,4e-5 -4.585767,0.60979 0.776111,0.33875 1.5166,1.08376 1.939934,1.93063 0.635,1.2195 0.706003,2.20187 0.811836,10.73836 l 0.141077,9.41751 h 1.69292 1.693439 l 0.14107,-9.41751 c 0.10584,-8.57037 0.17632,-9.48498 0.81132,-10.73836 0.42334,-0.84687 1.16434,-1.59188 1.94045,-1.93063 1.23473,-0.60975 1.19928,-0.60979 -4.586279,-0.60979 z"
       style="baseline-shift:baseline;display:inline;overflow:visible;vector-effect:none;fill:#034bac;enable-background:accumulate;stop-color:#000000;stop-opacity:1"
       id="path25" /><path
       d="m 119.15552,225.97535 1.48156,0.67025 c 1.23472,0.59972 1.55253,0.91732 1.90531,2.2226 0.88194,3.28083 0.95226,3.38661 0.98754,1.34049 l 0.0351,-1.93994 1.23506,1.86966 1.26969,1.83451 h 2.25775 2.2934 l -0.91726,-1.51722 c -0.52917,-0.81139 -1.41114,-2.15161 -1.97559,-2.99827 l -1.02319,-1.48208 h -3.77445 z"
       style="baseline-shift:baseline;display:inline;overflow:visible;vector-effect:none;fill:#034bac;enable-background:accumulate;stop-color:#000000;stop-opacity:1"
       id="path24" /><path
       d="m 151.34735,226.03685 c -0.54081,0.001 -1.15638,0.005 -1.85312,0.009 -4.83305,0 -5.75014,0.0705 -4.79764,0.38809 1.55223,0.49389 3.31601,2.25768 4.1274,4.1274 0.56445,1.27 0.77608,1.44631 1.72858,1.34048 0.9525,-0.10584 1.05854,-0.24691 1.2702,-1.72857 0.3175,-2.11667 0.91702,-2.99837 2.43396,-3.63337 1.01865,-0.43216 0.8763,-0.51346 -2.90938,-0.50333 z"
       style="baseline-shift:baseline;display:inline;overflow:visible;vector-effect:none;fill:#034bac;enable-background:accumulate;stop-color:#000000;stop-opacity:1"
       id="path23" /><path
       d="m 71.883468,249.70879 -0.635104,1.72858 c -0.493888,1.41111 -0.846839,1.8344 -1.94045,2.25774 -1.270001,0.52917 -1.09368,0.56431 4.515487,0.56431 5.609167,0 5.786003,-0.0352 4.516003,-0.56431 -1.093611,-0.42334 -1.446561,-0.84663 -1.94045,-2.25774 l -0.635103,-1.72858 h -1.94045 z"
       style="baseline-shift:baseline;display:inline;overflow:visible;vector-effect:none;fill:#034bac;enable-background:accumulate;stop-color:#000000;stop-opacity:1"
       id="path22" /><path
       d="m 123.38265,249.71137 c -0.0629,0.0779 -0.10645,2.64468 -0.20567,8.48321 -0.14111,9.50804 -0.21146,10.65678 -0.84646,12.08298 -0.49389,1.14889 -1.0585,1.70379 -1.94045,2.06034 -1.05833,0.39617 -0.35277,0.47542 4.7625,0.47542 5.46806,0 5.8918,-0.0398 4.65708,-0.51521 -1.83444,-0.75272 -2.61081,-1.62415 -3.77497,-4.19923 -1.41111,-3.16935 -2.18701,-7.68597 -2.43396,-14.42082 -0.10803,-2.58253 -0.16912,-4.02728 -0.21807,-3.96669 z"
       style="baseline-shift:baseline;display:inline;overflow:visible;vector-effect:none;fill:#034bac;enable-background:accumulate;stop-color:#000000;stop-opacity:1"
       id="path21" /><path
       d="m 135.94777,249.62301 7.44348,11.35951 c 4.05694,6.27945 7.54975,11.53556 7.72614,11.71195 0.17639,0.21166 0.28229,-4.51573 0.24701,-11.46545 -0.0705,-11.7475 -0.0709,-11.74723 -0.28267,-3.77445 l -0.17621,8.00778 -5.11545,-7.90184 -5.11494,-7.90236 -2.36368,-0.0351 z"
       style="baseline-shift:baseline;display:inline;overflow:visible;vector-effect:none;fill:#034bac;enable-background:accumulate;stop-color:#000000;stop-opacity:1"
       id="path20" /><path
       d="m 111.79318,249.88966 c -0.03,-0.095 -0.0532,4.08525 -0.0532,11.36106 0,10.12288 0.0452,14.25412 0.0904,9.16998 0.0909,-5.03875 0.0909,-13.30077 0,-18.38492 -0.0128,-1.41715 -0.0255,-2.10895 -0.0372,-2.14612 z"
       style="baseline-shift:baseline;display:inline;overflow:visible;vector-effect:none;fill:#034bac;enable-background:accumulate;stop-color:#000000;stop-opacity:1"
       id="path19" /><path
       d="m 61.030383,235.16497 c -0.282183,0 -0.547916,0.0517 -0.798401,0.15607 -0.240154,0.10442 -0.454806,0.25171 -0.642854,0.43976 -0.187877,0.18788 -0.332725,0.40559 -0.437183,0.65629 v 0.002 c -0.10422,0.2397 -0.15658,0.49864 -0.15658,0.78083 v 2.44378 c 0,0.28218 0.05221,0.54637 0.15658,0.79685 0.104415,0.24015 0.249134,0.45429 0.437183,0.64234 0.188048,0.18805 0.4027,0.33328 0.642854,0.4377 0.250485,0.1044 0.516218,0.15813 0.798401,0.15813 h 7.293095 c 0.02698,0 0.04328,0.0259 0.06821,0.0315 1.64e-4,4e-5 3.53e-4,-3e-5 5.17e-4,0 0.04136,0.009 0.07895,0.0267 0.113171,0.0522 0.02335,0.0165 0.05603,0.0119 0.07596,0.0351 0.02436,0.0212 0.01985,0.0556 0.03669,0.0806 0.02169,0.0309 0.03803,0.0642 0.04651,0.10077 0.0067,0.0271 0.03411,0.0454 0.03411,0.0749 v 2.44119 c 0,0.0355 -0.0313,0.0617 -0.04082,0.0946 -0.0074,0.0251 -0.01808,0.0495 -0.03152,0.0729 -0.01849,0.0336 -0.0151,0.074 -0.04496,0.10387 -0.0285,0.0285 -0.07286,0.0265 -0.108004,0.0434 -0.01235,0.006 -0.02507,0.0112 -0.03824,0.0155 -0.03846,0.0131 -0.06792,0.045 -0.111621,0.045 h -7.293095 c -0.0498,0 -0.08895,-0.0335 -0.133842,-0.0501 -10e-4,-3.8e-4 -0.0021,-6.5e-4 -0.0031,-0.001 -0.04497,-0.0171 -0.09561,-0.0175 -0.134359,-0.0507 l -0.0021,-0.002 v -0.002 c -0.03011,-0.0351 -0.02873,-0.0811 -0.04548,-0.12092 -0.004,-0.009 -0.0077,-0.0188 -0.01085,-0.0284 -0.01344,-0.0405 -0.04496,-0.075 -0.04496,-0.11989 v -0.64078 h -1.660364 v 0.64078 c 0,0.28218 0.0517,0.54843 0.156063,0.79892 0.104415,0.24015 0.249651,0.45222 0.4377,0.64027 0.188048,0.18806 0.402185,0.33536 0.642338,0.43977 0.250485,0.10435 0.516734,0.15606 0.798917,0.15606 h 7.293095 c 0.282184,0 0.54372,-0.0518 0.783415,-0.15606 0.2507,-0.10445 0.469965,-0.25189 0.657841,-0.43977 0.188049,-0.18805 0.333285,-0.40012 0.437699,-0.64027 0.10437,-0.25049 0.156064,-0.51674 0.156063,-0.79892 v -2.44171 c 0,-0.28218 -0.05185,-0.5432 -0.156063,-0.7829 -0.104458,-0.2507 -0.249821,-0.47048 -0.437699,-0.65835 -0.187876,-0.18788 -0.407141,-0.33324 -0.657841,-0.4377 -0.239695,-0.10425 -0.501231,-0.15607 -0.783415,-0.15607 h -7.293095 c -0.100964,0 -0.193091,-0.0343 -0.271301,-0.10128 l -0.0021,-0.002 v -0.002 c -0.03097,-0.0361 -0.0302,-0.0833 -0.04703,-0.12454 -0.0031,-0.008 -0.0056,-0.0155 -0.0083,-0.0232 -0.01388,-0.0412 -0.04599,-0.0763 -0.04599,-0.12196 v -2.44326 c 10e-7,-0.0422 0.03064,-0.07 0.04237,-0.10697 0.0046,-0.0148 0.01034,-0.0291 0.01705,-0.0429 0.01635,-0.0343 0.01367,-0.0778 0.04186,-0.10594 0.02951,-0.0295 0.06978,-0.0267 0.103353,-0.0455 0.02333,-0.0136 0.04781,-0.024 0.07286,-0.0315 0.03377,-0.0102 0.06093,-0.0424 0.09715,-0.0424 h 7.293095 c 0.03084,0 0.04989,0.0291 0.07803,0.0367 0.037,0.009 0.07119,0.0252 0.102319,0.0481 0.0239,0.017 0.05716,0.0129 0.07752,0.0367 0.02451,0.0215 0.02072,0.0559 0.03772,0.0811 0.02018,0.029 0.03485,0.0606 0.04341,0.0946 0.0076,0.0281 0.03617,0.0471 0.03617,0.078 v 0.64079 h 1.659847 v -0.64079 c 0,-0.28219 -0.05185,-0.54165 -0.156063,-0.78135 v -0.002 c -0.104458,-0.2507 -0.249821,-0.46841 -0.437699,-0.65629 -0.187876,-0.18787 -0.407141,-0.33479 -0.657841,-0.43925 -0.239695,-0.10425 -0.501231,-0.15607 -0.783415,-0.15607 z"
       style="font-family:Orbitron;-inkscape-font-specification:'Orbitron, Normal';baseline-shift:baseline;display:inline;overflow:visible;vector-effect:none;fill:#37b5fd;paint-order:markers fill stroke;enable-background:accumulate;stop-color:#000000;stop-opacity:1"
       id="path18" /><path
       d="m 61.030383,235.11226 c -0.288657,0 -0.563176,0.0548 -0.820105,0.16175 -0.246117,0.10701 -0.465846,0.25708 -0.658357,0.44959 -0.192684,0.19269 -0.342105,0.41715 -0.449069,0.67386 -0.107207,0.24658 -0.160197,0.51387 -0.160197,0.80253 v 2.44326 c 0,0.28865 0.05314,0.56164 0.160197,0.81856 0.107008,0.24612 0.256557,0.46585 0.449069,0.65836 0.192511,0.19251 0.41224,0.34205 0.658357,0.44906 0.256929,0.10705 0.531448,0.1602 0.820105,0.1602 h 7.293095 c 0.08834,0 0.15938,0.0342 0.218591,0.10335 l 0.0021,0.002 c 0.06908,0.0592 0.101802,0.13025 0.101802,0.21859 v 2.44171 c 0,0.0883 -0.03178,0.16408 -0.101802,0.2341 -0.05879,0.0588 -0.131343,0.0879 -0.220659,0.0879 h -7.293095 c -0.08843,0 -0.164853,-0.0273 -0.234094,-0.0858 l -0.0021,-0.002 c -0.05861,-0.0692 -0.08785,-0.14568 -0.08785,-0.2341 v -0.69349 h -1.763717 v 0.69349 c 0,0.28865 0.05314,0.56111 0.160197,0.81804 0.107008,0.24611 0.256557,0.46585 0.449069,0.65836 0.192511,0.19252 0.412239,0.34207 0.658357,0.44907 0.256929,0.10706 0.531448,0.16226 0.820105,0.16226 h 7.293095 c 0.287984,0 0.556434,-0.0555 0.802535,-0.16226 0.256714,-0.10696 0.483245,-0.25638 0.675928,-0.44907 0.192512,-0.19251 0.34206,-0.41225 0.449068,-0.65836 0.107053,-0.25693 0.160197,-0.52939 0.160197,-0.81804 v -2.44171 c 0,-0.28865 -0.05299,-0.55802 -0.160197,-0.8046 -0.106965,-0.25671 -0.256384,-0.48118 -0.449068,-0.67386 -0.192297,-0.1923 -0.417788,-0.34215 -0.673861,-0.44907 h -0.0021 c -0.246101,-0.1067 -0.514551,-0.1602 -0.802535,-0.1602 h -7.293095 c -0.08931,0 -0.166379,-0.0302 -0.236161,-0.0899 -0.05775,-0.0688 -0.08785,-0.14478 -0.08785,-0.23255 v -2.44326 c 0,-0.0893 0.02906,-0.15983 0.08785,-0.21859 0.07003,-0.07 0.14782,-0.10335 0.236161,-0.10335 h 7.293095 c 0.08834,0 0.15938,0.0322 0.218591,0.10128 v 0.002 l 0.0021,0.002 c 0.06908,0.0592 0.101802,0.12817 0.101802,0.21652 v 0.6935 h 1.765267 v -0.0274 -0.66611 c 0,-0.28866 -0.05299,-0.55595 -0.160197,-0.80253 -0.106965,-0.25671 -0.256384,-0.48117 -0.449068,-0.67386 -0.192297,-0.19229 -0.417788,-0.34214 -0.673861,-0.44907 h -0.0021 c -0.246101,-0.1067 -0.514551,-0.16227 -0.802535,-0.16227 z m 0,0.0527 h 7.293095 c 0.282184,0 0.54372,0.0518 0.783415,0.15607 0.2507,0.10446 0.469965,0.25138 0.657841,0.43925 0.187878,0.18788 0.333241,0.40559 0.437699,0.65629 v 0.002 c 0.104216,0.2397 0.156063,0.49916 0.156063,0.78135 v 0.64079 h -1.659847 v -0.64079 c 0,-0.10037 -0.04074,-0.18651 -0.117305,-0.25373 -0.06764,-0.0789 -0.155928,-0.12144 -0.257866,-0.12144 h -7.293095 c -0.101937,0 -0.195397,0.0414 -0.273368,0.11937 -0.06807,0.068 -0.101285,0.1548 -0.101286,0.2558 v 2.44326 c 0,0.10096 0.03424,0.19153 0.101286,0.26975 v 0.002 l 0.0021,0.002 c 0.07821,0.067 0.170337,0.10128 0.271301,0.10128 h 7.293095 c 0.282184,0 0.54372,0.0518 0.783415,0.15607 0.2507,0.10446 0.469965,0.24982 0.657841,0.4377 0.187878,0.18787 0.333241,0.40765 0.437699,0.65835 0.104216,0.2397 0.156063,0.50072 0.156063,0.7829 v 2.44171 c 10e-7,0.28218 -0.05169,0.54843 -0.156063,0.79892 -0.104414,0.24015 -0.24965,0.45222 -0.437699,0.64027 -0.187876,0.18788 -0.407141,0.33532 -0.657841,0.43977 -0.239695,0.10422 -0.501231,0.15606 -0.783415,0.15606 h -7.293095 c -0.282183,0 -0.548432,-0.0517 -0.798917,-0.15606 -0.240153,-0.10441 -0.45429,-0.25171 -0.642338,-0.43977 -0.188049,-0.18805 -0.333285,-0.40012 -0.4377,-0.64027 -0.104368,-0.25049 -0.156063,-0.51674 -0.156063,-0.79892 v -0.64078 h 1.660364 v 0.64078 c 10e-7,0.10096 0.03424,0.19102 0.101286,0.26924 v 0.002 l 0.0021,0.002 c 0.07821,0.067 0.170337,0.1018 0.271301,0.1018 h 7.293095 c 0.100964,0 0.189803,-0.0358 0.257866,-0.10386 0.07797,-0.078 0.117305,-0.16937 0.117305,-0.27131 v -2.44119 c 0,-0.10101 -0.03979,-0.18892 -0.117305,-0.25632 -0.06764,-0.0789 -0.155928,-0.11885 -0.257866,-0.11885 h -7.293095 c -0.282183,0 -0.547916,-0.0537 -0.798401,-0.15813 -0.240154,-0.10442 -0.454806,-0.24965 -0.642854,-0.4377 -0.188049,-0.18805 -0.332768,-0.40219 -0.437183,-0.64234 -0.104368,-0.25048 -0.15658,-0.51467 -0.15658,-0.79685 v -2.44378 c 0,-0.28219 0.05236,-0.54113 0.15658,-0.78083 v -0.002 c 0.104458,-0.2507 0.249306,-0.46841 0.437183,-0.65629 0.188048,-0.18805 0.4027,-0.33534 0.642854,-0.43976 0.250485,-0.10436 0.516218,-0.15607 0.798401,-0.15607 z"
       style="font-family:Orbitron;-inkscape-font-specification:'Orbitron, Normal';baseline-shift:baseline;display:inline;overflow:visible;vector-effect:none;fill:#37b5fd;paint-order:markers fill stroke;enable-background:accumulate;stop-color:#000000;stop-opacity:1"
       id="path17" /><path
       d="m 74.112789,235.16497 c -0.282184,0 -0.548433,0.0517 -0.798918,0.15607 -0.240154,0.10442 -0.454806,0.2512 -0.642855,0.43925 -0.187877,0.18788 -0.332723,0.40765 -0.437182,0.65835 -0.10422,0.2397 -0.15658,0.49916 -0.15658,0.78135 v 7.29465 c 0,0.28218 0.05221,0.54842 0.15658,0.79891 0.104415,0.24015 0.249134,0.45274 0.437182,0.64079 0.188049,0.18806 0.402701,0.33484 0.642855,0.43925 0.250484,0.10435 0.516734,0.15658 0.798918,0.15658 h 7.292578 c 0.282184,0 0.543719,-0.0524 0.783415,-0.15658 0.250699,-0.10445 0.47048,-0.25137 0.658357,-0.43925 0.188049,-0.18805 0.332768,-0.40064 0.437183,-0.64079 0.10437,-0.25049 0.15658,-0.51673 0.15658,-0.79891 v -7.29465 c 0,-0.28219 -0.05236,-0.54165 -0.15658,-0.78135 -0.104458,-0.2507 -0.249306,-0.47047 -0.437183,-0.65835 -0.187877,-0.18787 -0.407658,-0.33479 -0.658357,-0.43925 -0.239696,-0.10425 -0.501231,-0.15607 -0.783415,-0.15607 z m 0,1.65985 h 7.292578 c 0.101938,0 0.190225,0.0425 0.257865,0.12144 0.02451,0.0215 0.02072,0.0559 0.03772,0.0811 0.02018,0.029 0.03485,0.0606 0.04341,0.0946 0.0076,0.0281 0.03617,0.0471 0.03617,0.078 v 7.29516 c 0,0.0338 -0.03044,0.0586 -0.03927,0.0899 -0.0082,0.0296 -0.02115,0.058 -0.03772,0.0853 -0.01814,0.0308 -0.01426,0.0685 -0.04186,0.0961 -0.02701,0.027 -0.06908,0.0243 -0.101802,0.0408 -0.01541,0.008 -0.03135,0.0145 -0.04806,0.0196 -0.03681,0.012 -0.06452,0.0429 -0.106453,0.0429 h -7.292578 c -0.04855,0 -0.08672,-0.0329 -0.130741,-0.0486 -0.0033,-0.001 -0.0065,-0.003 -0.0098,-0.004 -0.04377,-0.0169 -0.09352,-0.0163 -0.131258,-0.0486 l -0.0021,-0.002 h -0.0015 c -0.0329,-0.0384 -0.03254,-0.0887 -0.04909,-0.13333 -9.8e-4,-0.003 -0.0017,-0.005 -0.0026,-0.008 -0.01532,-0.044 -0.04806,-0.0822 -0.04806,-0.13074 v -7.29465 c 0,-0.0422 0.03064,-0.07 0.04238,-0.10697 0.0046,-0.0148 0.01034,-0.0291 0.01705,-0.0429 0.01635,-0.0343 0.01368,-0.0778 0.04186,-0.10594 0.02929,-0.0293 0.06946,-0.0262 0.102836,-0.045 0.02386,-0.0139 0.04875,-0.025 0.07441,-0.0326 0.0336,-0.0101 0.0607,-0.0419 0.09664,-0.0419 z"
       style="font-family:Orbitron;-inkscape-font-specification:'Orbitron, Normal';baseline-shift:baseline;display:inline;overflow:visible;vector-effect:none;fill:#37b5fd;paint-order:markers fill stroke;enable-background:accumulate;stop-color:#000000;stop-opacity:1"
       id="path16" /><path
       d="m 74.112789,235.11226 c -0.288657,0 -0.563692,0.0548 -0.820622,0.16175 -0.246117,0.10701 -0.465846,0.25708 -0.658358,0.44959 -0.192684,0.19269 -0.342103,0.41715 -0.449068,0.67386 -0.107207,0.24658 -0.160197,0.51387 -0.160197,0.80253 v 7.29516 c 0,0.28865 0.05314,0.56111 0.160197,0.81804 0.107008,0.24611 0.256556,0.46585 0.449068,0.65836 0.192512,0.19252 0.41224,0.34207 0.658358,0.44907 0.25693,0.10706 0.531964,0.16226 0.820622,0.16226 h 7.292578 c 0.288658,0 0.556476,-0.055 0.803052,-0.16226 0.256715,-0.10696 0.482728,-0.25638 0.675411,-0.44907 0.192512,-0.19251 0.342577,-0.41225 0.449585,-0.65836 0.107054,-0.25693 0.160197,-0.52939 0.160197,-0.81804 v -7.29516 c 0,-0.28866 -0.05299,-0.55595 -0.160197,-0.80253 -0.106964,-0.25671 -0.256901,-0.48117 -0.449585,-0.67386 -0.192683,-0.19268 -0.418697,-0.34262 -0.675411,-0.44959 -0.246576,-0.1072 -0.514394,-0.16175 -0.803052,-0.16175 z m 0,0.0527 h 7.292578 c 0.282184,0 0.543719,0.0518 0.783415,0.15607 0.250699,0.10446 0.47048,0.25138 0.658357,0.43925 0.187877,0.18788 0.332725,0.40765 0.437183,0.65835 0.104215,0.2397 0.15658,0.49916 0.15658,0.78135 v 7.29465 c 0,0.28218 -0.05221,0.54842 -0.15658,0.79891 -0.104415,0.24015 -0.249134,0.45274 -0.437183,0.64079 -0.187877,0.18788 -0.407658,0.3348 -0.658357,0.43925 -0.239696,0.10422 -0.501231,0.15658 -0.783415,0.15658 h -7.292578 c -0.282184,0 -0.548434,-0.0522 -0.798918,-0.15658 -0.240154,-0.10441 -0.454806,-0.25119 -0.642855,-0.43925 -0.188048,-0.18805 -0.332767,-0.40064 -0.437182,-0.64079 -0.104368,-0.25049 -0.15658,-0.51673 -0.15658,-0.79891 v -7.29465 c 0,-0.28219 0.05236,-0.54165 0.15658,-0.78135 0.104459,-0.2507 0.249305,-0.47047 0.437182,-0.65835 0.188049,-0.18805 0.402701,-0.33483 0.642855,-0.43925 0.250485,-0.10436 0.516734,-0.15607 0.798918,-0.15607 z m 0,1.65985 c -0.101938,0 -0.195914,0.0414 -0.273885,0.11937 -0.06807,0.068 -0.101286,0.1548 -0.101286,0.2558 v 7.29465 c 0,0.10096 0.0327,0.19361 0.09974,0.27182 h 0.0015 l 0.0021,0.002 c 0.07821,0.067 0.170854,0.10129 0.271818,0.10129 h 7.292578 c 0.100965,0 0.188252,-0.0353 0.256315,-0.10335 0.07797,-0.078 0.118856,-0.16937 0.118856,-0.27131 v -7.29516 c 0,-0.10037 -0.04075,-0.18651 -0.117306,-0.25373 -0.06764,-0.0789 -0.155927,-0.12144 -0.257865,-0.12144 z m 0,0.0527 h 7.292578 c 0.08834,0 0.159898,0.0327 0.219108,0.1018 v 0.002 l 0.0015,0.002 c 0.06908,0.0592 0.101803,0.12817 0.101803,0.21652 v 7.29516 c 0,0.0883 -0.03333,0.16408 -0.103353,0.2341 -0.05879,0.0588 -0.129792,0.0879 -0.219108,0.0879 h -7.292578 c -0.08779,0 -0.16576,-0.0281 -0.234611,-0.0858 -0.05981,-0.0698 -0.08992,-0.14686 -0.08992,-0.23617 v -7.29516 c 0,-0.0893 0.02906,-0.15983 0.08785,-0.21859 0.07003,-0.07 0.148336,-0.10335 0.236678,-0.10335 z"
       style="font-family:Orbitron;-inkscape-font-specification:'Orbitron, Normal';baseline-shift:baseline;display:inline;overflow:visible;vector-effect:none;fill:#37b5fd;paint-order:markers fill stroke;enable-background:accumulate;stop-color:#000000;stop-opacity:1"
       id="path15" /><path
       d="m 85.268697,235.16497 v 11.3652 h 1.660364 v -4.8519 h 7.040914 v -1.65985 h -7.040914 v -3.1936 h 8.753988 v -1.65985 z"
       style="font-family:Orbitron;-inkscape-font-specification:'Orbitron, Normal';baseline-shift:baseline;display:inline;overflow:visible;vector-effect:none;fill:#37b5fd;paint-order:markers fill stroke;enable-background:accumulate;stop-color:#000000;stop-opacity:1"
       id="path14" /><path
       d="m 85.215987,235.11226 v 11.47062 h 1.765784 v -4.85345 h 7.040914 v -1.76372 h -7.040914 v -3.08818 h 8.753987 v -1.76527 h -0.02739 z m 0.05271,0.0527 h 10.414352 v 1.65985 h -8.753988 v 3.1936 h 7.040914 v 1.65985 h -7.040914 v 4.8519 h -1.660364 z"
       style="font-family:Orbitron;-inkscape-font-specification:'Orbitron, Normal';baseline-shift:baseline;display:inline;overflow:visible;vector-effect:none;fill:#37b5fd;paint-order:markers fill stroke;enable-background:accumulate;stop-color:#000000;stop-opacity:1"
       id="path13" /><path
       d="m 96.764636,235.16497 v 1.65985 h 4.853964 v 9.70535 h 1.65985 v -9.70535 h 4.8519 v -1.65985 z"
       style="font-family:Orbitron;-inkscape-font-specification:'Orbitron, Normal';baseline-shift:baseline;display:inline;overflow:visible;vector-effect:none;fill:#37b5fd;paint-order:markers fill stroke;enable-background:accumulate;stop-color:#000000;stop-opacity:1"
       id="path12" /><path
       d="m 96.711926,235.11226 v 1.76527 h 4.853964 v 9.70535 h 1.7632 v -9.70535 h 4.85397 v -1.76527 h -0.0274 z m 0.05271,0.0527 h 11.365714 v 1.65985 h -4.8519 v 9.70535 h -1.65985 v -9.70535 h -4.853964 z"
       style="font-family:Orbitron;-inkscape-font-specification:'Orbitron, Normal';baseline-shift:baseline;display:inline;overflow:visible;vector-effect:none;fill:#37b5fd;paint-order:markers fill stroke;enable-background:accumulate;stop-color:#000000;stop-opacity:1"
       id="path11" /><path
       d="m 109.05019,235.16497 4.13412,11.3652 h 1.34772 l 0.01,-0.0139 0.006,0.004 3.24786,-8.93537 3.26957,8.94519 h 1.35961 l 4.13463,-11.3652 h -1.76734 l -3.04684,8.37469 -3.04684,-8.37469 h -1.78749 l -3.04684,8.37469 -3.04684,-8.37469 z"
       style="font-family:Orbitron;-inkscape-font-specification:'Orbitron, Normal';baseline-shift:baseline;display:inline;overflow:visible;vector-effect:none;fill:#37b5fd;paint-order:markers fill stroke;enable-background:accumulate;stop-color:#000000;stop-opacity:1"
       id="path10" /><path
       d="m 108.97578,235.11226 4.17184,11.47062 h 1.41025 l 0.0196,0.01 0.004,-0.01 h 0.0274 l -0.0191,-0.0196 3.20859,-8.82788 3.23081,8.84752 h 1.4335 l 4.17184,-11.47062 h -0.0372 -1.84174 l -3.00964,8.2734 -3.01015,-8.2734 h -1.86087 l -3.01015,8.2734 -3.00964,-8.2734 z m 0.0744,0.0527 h 1.76734 l 3.04684,8.37469 3.04684,-8.37469 h 1.78749 l 3.04684,8.37469 3.04684,-8.37469 h 1.76734 l -4.13463,11.3652 h -1.35961 l -3.26957,-8.94519 -3.24786,8.93537 -0.006,-0.004 -0.01,0.0139 h -1.34772 z"
       style="font-family:Orbitron;-inkscape-font-specification:'Orbitron, Normal';baseline-shift:baseline;display:inline;overflow:visible;vector-effect:none;fill:#37b5fd;paint-order:markers fill stroke;enable-background:accumulate;stop-color:#000000;stop-opacity:1"
       id="path9" /><path
       d="m 129.97398,235.16497 c -0.28219,0 -0.54636,0.0517 -0.79685,0.15607 -0.24016,0.10442 -0.45481,0.25121 -0.64286,0.43925 -0.18787,0.18788 -0.33272,0.40765 -0.43718,0.65835 -0.1042,0.2397 -0.15813,0.49916 -0.15813,0.78135 v 9.33018 h 1.65985 v -3.99614 h 8.04498 v 3.99614 h 1.66037 v -9.33018 c 0,-0.28219 -0.0524,-0.54165 -0.15658,-0.78135 -0.10445,-0.2507 -0.25137,-0.47047 -0.43925,-0.65835 -0.18787,-0.18787 -0.40559,-0.33479 -0.65629,-0.43925 -0.2397,-0.10425 -0.50124,-0.15607 -0.78342,-0.15607 z m 0,1.65985 h 7.29464 c 0.10196,0 0.19027,0.0425 0.25787,0.12144 0.0766,0.0672 0.1173,0.15336 0.1173,0.25373 v 3.64836 0.0253 h -8.04498 v -3.67368 c 0,-0.10099 0.0354,-0.1878 0.10335,-0.2558 0.078,-0.0779 0.16988,-0.11937 0.27182,-0.11937 z"
       style="font-family:Orbitron;-inkscape-font-specification:'Orbitron, Normal';baseline-shift:baseline;display:inline;overflow:visible;vector-effect:none;fill:#37b5fd;paint-order:markers fill stroke;enable-background:accumulate;stop-color:#000000;stop-opacity:1"
       id="path8" /><path
       d="m 129.97398,235.11226 c -0.28866,0 -0.56163,0.0548 -0.81856,0.16175 -0.24612,0.10701 -0.46583,0.25708 -0.65835,0.44959 -0.19268,0.19269 -0.34211,0.41715 -0.44907,0.67386 -0.10721,0.24658 -0.1602,0.51387 -0.1602,0.80253 v 9.38289 h 1.76372 v -3.99614 h 7.93956 v 3.99614 h 1.76579 v -9.38289 c 0,-0.28866 -0.053,-0.55595 -0.1602,-0.80253 -0.10696,-0.25671 -0.25845,-0.48117 -0.45113,-0.67386 -0.19268,-0.19268 -0.41714,-0.34262 -0.67386,-0.44959 -0.24658,-0.1072 -0.5144,-0.16175 -0.80306,-0.16175 z m 0,0.0527 h 7.29464 c 0.28218,0 0.54372,0.0518 0.78342,0.15607 0.2507,0.10446 0.46842,0.25138 0.65629,0.43925 0.18788,0.18788 0.3348,0.40765 0.43925,0.65835 0.10422,0.2397 0.15658,0.49916 0.15658,0.78135 v 9.33018 h -1.66037 v -3.99614 h -8.04498 v 3.99614 h -1.65985 v -9.33018 c 0,-0.28219 0.0539,-0.54165 0.15813,-0.78135 0.10446,-0.2507 0.24931,-0.47047 0.43718,-0.65835 0.18805,-0.18804 0.4027,-0.33483 0.64286,-0.43925 0.25049,-0.10436 0.51466,-0.15607 0.79685,-0.15607 z m 0,1.65985 c -0.10194,0 -0.19384,0.0414 -0.27182,0.11937 -0.068,0.068 -0.10335,0.15481 -0.10335,0.2558 v 3.67368 h 8.04498 V 240.84836 237.2 c 0,-0.10037 -0.0407,-0.18651 -0.1173,-0.25373 -0.0676,-0.0789 -0.15591,-0.12144 -0.25787,-0.12144 z m 0,0.0527 h 7.29464 c 0.0884,0 0.15993,0.0327 0.21911,0.1018 v 0.002 l 0.002,0.002 c 0.0691,0.0592 0.1018,0.12817 0.1018,0.21652 v 3.62097 h -7.93956 v -3.62097 c 0,-0.0893 0.029,-0.15983 0.0879,-0.21859 0.07,-0.07 0.14626,-0.10387 0.23461,-0.10387 z"
       style="font-family:Orbitron;-inkscape-font-specification:'Orbitron, Normal';baseline-shift:baseline;display:inline;overflow:visible;vector-effect:none;fill:#37b5fd;paint-order:markers fill stroke;enable-background:accumulate;stop-color:#000000;stop-opacity:1"
       id="path7" /><path
       d="m 141.14746,235.18048 5.1e-4,11.34969 h 1.65985 v -4.11344 l 0.0315,0.006 c 0.0509,0.0101 0.1031,0.0208 0.154,0.031 h 0.18965 3.91397 l 3.42408,4.07624 h 1.99213 v -0.20309 l -3.24993,-3.87315 h 1.2144 c 0.28219,0 0.54164,-0.0518 0.78134,-0.15606 0.2508,-0.11494 0.47051,-0.26053 0.65836,-0.4377 0.18804,-0.18805 0.33484,-0.40218 0.43925,-0.64234 0.10435,-0.25048 0.15658,-0.51673 0.15658,-0.79891 v -3.20343 c 0,-0.28218 -0.0524,-0.54114 -0.15658,-0.78083 -0.1044,-0.25058 -0.24962,-0.4657 -0.43718,-0.64285 h -0.002 c -0.18788,-0.18787 -0.40559,-0.33324 -0.65629,-0.4377 h -0.002 v -0.002 c -0.23953,-0.11458 -0.49948,-0.17208 -0.78134,-0.17208 z m 2.03553,1.66036 h 7.29465 c 0.10104,0 0.1884,0.0414 0.2558,0.11886 0.0775,0.0674 0.11937,0.15478 0.11937,0.25579 v 3.20343 c 0,0.10193 -0.0414,0.19537 -0.11937,0.27337 -0.0681,0.0681 -0.15483,0.10128 -0.2558,0.10128 h -7.29465 c -0.0453,0 -0.08,-0.0318 -0.12092,-0.0455 -0.009,-0.003 -0.0177,-0.006 -0.0264,-0.01 -0.0404,-0.0168 -0.087,-0.0156 -0.12247,-0.046 h -0.002 l -0.002,-0.002 c -0.0332,-0.0388 -0.0336,-0.0894 -0.0506,-0.13436 -3.8e-4,-0.001 -6.6e-4,-0.002 -0.001,-0.003 -0.0166,-0.0449 -0.0501,-0.0841 -0.0501,-0.13384 v -3.20343 c 0,-0.10099 0.0353,-0.18779 0.10335,-0.25579 0.078,-0.0779 0.16988,-0.11886 0.27182,-0.11886 z"
       style="font-family:Orbitron;-inkscape-font-specification:'Orbitron, Normal';baseline-shift:baseline;display:inline;overflow:visible;vector-effect:none;fill:#37b5fd;paint-order:markers fill stroke;enable-background:accumulate;stop-color:#000000;stop-opacity:1"
       id="path6" /><path
       d="m 141.09475,235.12983 v 11.45305 h 1.76578 v -4.10156 c 0.0424,0.008 0.0847,0.0168 0.12712,0.0253 h 0.004 0.1912 3.88865 l 3.42563,4.07624 h 2.06861 v -0.27337 l -3.18947,-3.80287 h 1.10123 c 0.28866,0 0.55647,-0.053 0.80305,-0.16019 0.2561,-0.11738 0.4814,-0.2673 0.67386,-0.44907 0.19251,-0.19251 0.34207,-0.41225 0.44907,-0.65836 h 0.002 c 0.10705,-0.25693 0.1602,-0.53145 0.1602,-0.8201 v -3.20343 c 0,-0.28866 -0.055,-0.55596 -0.16226,-0.80253 h 0.002 c -0.10701,-0.25684 -0.25814,-0.47608 -0.45113,-0.65836 -0.1923,-0.19229 -0.41572,-0.34215 -0.67179,-0.44907 h -0.002 c -0.24627,-0.11746 -0.51474,-0.1757 -0.80305,-0.1757 z m 0.0527,0.0506 h 9.33018 c 0.28186,0 0.54181,0.0575 0.78134,0.17208 v 0.002 h 0.002 c 0.2507,0.10446 0.46841,0.24983 0.65629,0.4377 h 0.002 c 0.18756,0.17715 0.33278,0.39227 0.43718,0.64285 0.10422,0.23969 0.15658,0.49865 0.15658,0.78083 v 3.20343 c 0,0.28218 -0.0522,0.54843 -0.15658,0.79891 -0.10441,0.24016 -0.25121,0.45429 -0.43925,0.64234 -0.18785,0.17717 -0.40756,0.32276 -0.65836,0.4377 -0.2397,0.10422 -0.49915,0.15606 -0.78134,0.15606 h -1.2144 l 3.24993,3.87315 v 0.20309 h -1.99213 l -3.42408,-4.07624 h -3.91397 -0.18965 c -0.0509,-0.0102 -0.10312,-0.0209 -0.154,-0.031 l -0.0315,-0.006 v 4.11344 h -1.65985 z m 2.03553,1.66036 c -0.10194,0 -0.19385,0.0409 -0.27182,0.11886 -0.068,0.068 -0.10335,0.1548 -0.10335,0.25579 v 3.20343 c 0,0.10096 0.0347,0.19309 0.1018,0.2713 l 0.002,0.002 h 0.002 c 0.0782,0.067 0.16879,0.10128 0.26975,0.10128 h 7.29465 c 0.10097,0 0.18774,-0.0332 0.2558,-0.10128 0.078,-0.078 0.11937,-0.17144 0.11937,-0.27337 v -3.20343 c 0,-0.10101 -0.0418,-0.18839 -0.11937,-0.25579 -0.0674,-0.0775 -0.15476,-0.11886 -0.2558,-0.11886 z m 0,0.0527 h 7.29465 c 0.0884,0 0.15786,0.0322 0.21704,0.10129 l 0.002,0.002 0.002,0.002 c 0.0691,0.0592 0.1018,0.12818 0.1018,0.21652 v 3.20343 c 0,0.0883 -0.0333,0.16614 -0.10336,0.23616 -0.0588,0.0588 -0.12978,0.0879 -0.2191,0.0879 h -7.29465 c -0.0884,0 -0.16537,-0.0292 -0.23461,-0.0879 -0.0586,-0.0692 -0.0878,-0.14773 -0.0878,-0.23616 v -3.20343 c 0,-0.0893 0.029,-0.15983 0.0878,-0.21859 0.07,-0.07 0.14627,-0.10335 0.23461,-0.10335 z"
       style="font-family:Orbitron;-inkscape-font-specification:'Orbitron, Normal';baseline-shift:baseline;display:inline;overflow:visible;vector-effect:none;fill:#37b5fd;paint-order:markers fill stroke;enable-background:accumulate;stop-color:#000000;stop-opacity:1"
       id="path5" /><path
       d="m 154.27844,235.16497 v 11.3652 h 10.41228 v -1.66036 h -8.75192 v -3.19154 h 7.03885 v -1.65985 h -7.03885 v -3.1936 h 8.75192 v -1.65985 z"
       style="font-family:Orbitron;-inkscape-font-specification:'Orbitron, Normal';baseline-shift:baseline;display:inline;overflow:visible;vector-effect:none;fill:#37b5fd;paint-order:markers fill stroke;enable-background:accumulate;stop-color:#000000;stop-opacity:1"
       id="path4" /><path
       d="m 154.22573,235.11226 v 11.47062 h 10.5177 v -1.76578 h -8.75399 v -3.08767 h 7.04092 v -1.76372 h -7.04092 v -3.08818 h 8.75399 v -0.0253 -1.73995 z m 0.0527,0.0527 h 10.41228 v 1.65985 h -8.75192 v 3.1936 h 7.03885 v 1.65985 h -7.03885 v 3.19154 h 8.75192 v 1.66036 h -10.41228 z"
       style="font-family:Orbitron;-inkscape-font-specification:'Orbitron, Normal';baseline-shift:baseline;display:inline;overflow:visible;vector-effect:none;fill:#37b5fd;paint-order:markers fill stroke;enable-background:accumulate;stop-color:#000000;stop-opacity:1"
       id="path3" /><path
       d="m 161.6661,205.16784 v 2.08153 2.04587 l 2.11667,0.21187 c 2.54,0.28222 3.88042,0.91718 4.79764,2.25774 0.63501,0.91722 0.67058,1.97566 0.84697,13.33511 0.21167,13.68778 0.24685,14.04007 2.5399,15.20424 l 1.09347,0.56482 -0.89762,0.62528 c -0.45861,0.35278 -0.87943,0.69235 -0.96583,0.75345 -0.0994,0.0703 -0.53555,0.49065 -0.88832,1.09037 -0.67028,1.09361 -0.70521,2.04656 -0.8816,13.51184 -0.17639,11.35944 -0.21196,12.41736 -0.84697,13.33458 -0.91722,1.34055 -2.25764,1.97553 -4.79764,2.25775 l -2.11667,0.21187 v 2.11667 2.11666 l 2.89285,-0.24701 c 3.95111,-0.35277 5.41965,-0.74724 7.18354,-2.33474 2.78695,-2.43416 2.76465,-2.7804 2.90576,-16.22123 0.0353,-6.49111 0.17642,-12.17111 0.24702,-12.62972 0.35278,-1.55223 1.41111,-2.18695 3.70416,-2.18695 h 2.11667 v -2.29288 -2.2934 h -2.11667 c -2.29305,0 -3.35138,-0.63473 -3.70416,-2.18695 -0.0706,-0.45861 -0.21172,-6.1386 -0.24702,-12.62972 -0.10583,-11.1125 -0.14091,-11.92372 -0.84646,-13.40538 -0.77611,-1.69334 -2.78705,-3.70441 -4.33927,-4.30413 -0.49389,-0.21167 -1.79937,-0.49348 -2.8577,-0.63459 -1.05833,-0.14111 -2.6105,-0.28251 -3.45716,-0.31781 z"
       style="baseline-shift:baseline;display:inline;overflow:visible;vector-effect:none;fill:#0196b1;enable-background:accumulate;stop-color:#000000;stop-opacity:1"
       id="path2" /><path
       d="m 97.440564,249.70879 -0.635103,1.72858 c -0.493888,1.41111 -0.846323,1.8344 -1.939934,2.25774 -1.270001,0.52917 -1.09368,0.56431 4.515487,0.56431 5.609166,0 5.785486,-0.0352 4.515486,-0.56431 -1.09361,-0.42334 -1.44656,-0.84663 -1.94045,-2.25774 l -0.63459,-1.72858 h -1.940446 z"
       style="baseline-shift:baseline;display:inline;overflow:visible;vector-effect:none;fill:#034bac;enable-background:accumulate;stop-color:#000000;stop-opacity:1"
       id="path1" /></g></svg>
