<?xml version="1.0" encoding="UTF-8" standalone="no"?>
<svg
   width="96"
   height="96"
   viewBox="0 0 96 96"
   fill="none"
   version="1.1"
   id="svg8"
   xmlns="http://www.w3.org/2000/svg"
   xmlns:svg="http://www.w3.org/2000/svg">
  <defs
     id="defs8" />
  <g
     id="layer1"
     transform="matrix(0.49274287,0,0,0.65413604,0.27537077,-40.015212)">
    <path
       style="color:#000000;fill:#e9d98e;stroke:#e9d98e;stroke-opacity:1;-inkscape-stroke:none"
       d="M 16.911999,94.378976 H 182.01707 v 6.157144 H 16.911999 Z"
       id="path59" />
    <path
       style="fill:#4d4d4d;fill-opacity:1;stroke:#4d4d4d;stroke-width:0.595705;stroke-dasharray:none;stroke-dashoffset:0;stroke-opacity:1"
       d="m 16.419756,100.01769 c 165.931514,0 166.123344,0 166.123344,0"
       id="path60" />
    <path
       style="color:#000000;fill:#e9d98e;stroke:#e9d98e;stroke-opacity:1;-inkscape-stroke:none"
       d="M 16.911999,87.081306 H 182.01707 v 6.157146 H 16.911999 Z"
       id="path6" />
    <path
       style="fill:#4d4d4d;fill-opacity:1;stroke:#4d4d4d;stroke-width:0.595705;stroke-dasharray:none;stroke-dashoffset:0;stroke-opacity:1"
       d="m 16.419756,86.659825 c 165.931514,0 166.123344,0 166.123344,0"
       id="path7" />
    <path
       style="fill:#4d4d4d;fill-opacity:1;stroke:#4d4d4d;stroke-width:0.595705;stroke-dasharray:none;stroke-dashoffset:0;stroke-opacity:1"
       d="m 16.419756,93.484498 c 165.931514,0 166.123344,0 166.123344,0"
       id="path8" />
    <path
       style="color:#000000;fill:#e9d98e;stroke:#e9d98e;stroke-opacity:1;-inkscape-stroke:none"
       d="M 16.911999,113.02581 H 182.01707 v 6.15714 H 16.911999 Z"
       id="path19" />
    <path
       style="fill:#4d4d4d;fill-opacity:1;stroke:#4d4d4d;stroke-width:0.595705;stroke-dasharray:none;stroke-dashoffset:0;stroke-opacity:1"
       d="m 16.419756,112.60432 c 165.931514,0 166.123344,0 166.123344,0"
       id="path20" />
    <path
       style="fill:#4d4d4d;fill-opacity:1;stroke:#4d4d4d;stroke-width:0.595705;stroke-dasharray:none;stroke-dashoffset:0;stroke-opacity:1"
       d="m 16.419756,119.429 c 165.931514,0 166.123344,0 166.123344,0"
       id="path21" />
    <path
       style="color:#000000;fill:#e9d98e;stroke:#e9d98e;stroke-opacity:1;-inkscape-stroke:none"
       d="M 16.911999,138.79297 H 182.01707 v 6.15714 H 16.911999 Z"
       id="path32" />
    <path
       style="fill:#4d4d4d;fill-opacity:1;stroke:#4d4d4d;stroke-width:0.595705;stroke-dasharray:none;stroke-dashoffset:0;stroke-opacity:1"
       d="m 16.419756,138.37148 c 165.931514,0 166.123344,0 166.123344,0"
       id="path33" />
    <path
       style="fill:#4d4d4d;fill-opacity:1;stroke:#4d4d4d;stroke-width:0.595705;stroke-dasharray:none;stroke-dashoffset:0;stroke-opacity:1"
       d="m 16.419756,145.19616 c 165.931514,0 166.123344,0 166.123344,0"
       id="path34" />
    <path
       style="color:#000000;fill:#e9d98e;stroke:#e9d98e;stroke-opacity:1;-inkscape-stroke:none"
       d="M 16.911999,164.78525 H 182.01707 v 6.15714 H 16.911999 Z"
       id="path45" />
    <path
       style="fill:#4d4d4d;fill-opacity:1;stroke:#4d4d4d;stroke-width:0.595705;stroke-dasharray:none;stroke-dashoffset:0;stroke-opacity:1"
       d="m 16.419756,164.36376 c 165.931514,0 166.123344,0 166.123344,0"
       id="path46" />
    <path
       style="fill:#4d4d4d;fill-opacity:1;stroke:#4d4d4d;stroke-width:0.595705;stroke-dasharray:none;stroke-dashoffset:0;stroke-opacity:1"
       d="m 16.419756,171.18844 c 165.931514,0 166.123344,0 166.123344,0"
       id="path47" />
    <path
       style="fill:#4d4d4d;fill-opacity:1;stroke:#4d4d4d;stroke-width:0.25;stroke-dasharray:none;stroke-dashoffset:0;stroke-opacity:1"
       id="path53"
       d="m 145.12564,168.84035 a 0.20271304,0.18582028 0 0 1 -0.19668,0.18574 0.20271304,0.18582028 0 0 1 -0.20839,-0.17469 0.20271304,0.18582028 0 0 1 0.18429,-0.19613 0.20271304,0.18582028 0 0 1 0.21935,0.16301" />
    <path
       style="color:#000000;fill:#e9d98e;stroke:#e9d98e;stroke-opacity:1;-inkscape-stroke:none"
       d="M 16.911999,120.27569 H 182.01707 v 6.15715 H 16.911999 Z"
       id="path66" />
    <path
       style="fill:#4d4d4d;fill-opacity:1;stroke:#4d4d4d;stroke-width:0.595705;stroke-dasharray:none;stroke-dashoffset:0;stroke-opacity:1"
       d="m 16.419756,125.91441 c 165.931514,0 166.123344,0 166.123344,0"
       id="path67" />
    <path
       style="color:#000000;fill:#e9d98e;stroke:#e9d98e;stroke-opacity:1;-inkscape-stroke:none"
       d="M 16.911999,145.93351 H 182.01707 v 6.15715 H 16.911999 Z"
       id="path73" />
    <path
       style="fill:#4d4d4d;fill-opacity:1;stroke:#4d4d4d;stroke-width:0.595705;stroke-dasharray:none;stroke-dashoffset:0;stroke-opacity:1"
       d="m 16.419756,151.57223 c 165.931514,0 166.123344,0 166.123344,0"
       id="path74" />
    <path
       style="color:#000000;fill:#e9d98e;stroke:#e9d98e;stroke-opacity:1;-inkscape-stroke:none"
       d="M 16.911999,172.02135 H 182.01707 v 6.15715 H 16.911999 Z"
       id="path80" />
    <path
       style="fill:#4d4d4d;fill-opacity:1;stroke:#4d4d4d;stroke-width:0.595705;stroke-dasharray:none;stroke-dashoffset:0;stroke-opacity:1"
       d="m 16.419756,177.66007 c 165.931514,0 166.123344,0 166.123344,0"
       id="path81" />
    <path
       style="fill:#4d4d4d;fill-opacity:1;stroke:#4d4d4d;stroke-width:0.595705;stroke-dasharray:none;stroke-dashoffset:0;stroke-opacity:1"
       d="m 16.419756,106.77479 c 165.931514,0 166.123344,0 166.123344,0"
       id="path142" />
    <path
       style="color:#000000;fill:#e9d98e;stroke:#e9d98e;stroke-opacity:1;-inkscape-stroke:none"
       d="M 16.911999,126.94821 H 182.01707 v 6.15714 H 16.911999 Z"
       id="path143" />
    <path
       style="fill:#4d4d4d;fill-opacity:1;stroke:#4d4d4d;stroke-width:0.595705;stroke-dasharray:none;stroke-dashoffset:0;stroke-opacity:1"
       d="m 16.419756,132.58692 c 165.931514,0 166.123344,0 166.123344,0"
       id="path144" />
    <path
       style="color:#000000;fill:#e9d98e;stroke:#e9d98e;stroke-opacity:1;-inkscape-stroke:none"
       d="M 16.911999,152.49005 H 182.01707 v 6.15714 H 16.911999 Z"
       id="path145" />
    <path
       style="fill:#4d4d4d;fill-opacity:1;stroke:#4d4d4d;stroke-width:0.595705;stroke-dasharray:none;stroke-dashoffset:0;stroke-opacity:1"
       d="m 16.419756,158.12876 c 165.931514,0 166.123344,0 166.123344,0"
       id="path146" />
    <path
       style="color:#000000;fill:#e9d98e;stroke:#e9d98e;stroke-opacity:1;-inkscape-stroke:none"
       d="M 16.911999,178.57246 H 182.01707 v 6.15714 H 16.911999 Z"
       id="path147" />
    <path
       style="fill:#4d4d4d;fill-opacity:1;stroke:#4d4d4d;stroke-width:0.595705;stroke-dasharray:none;stroke-dashoffset:0;stroke-opacity:1"
       d="m 16.419756,184.21117 c 165.931514,0 166.123344,0 166.123344,0"
       id="path148" />
    <path
       style="color:#000000;fill:#e9d98e;stroke:#e9d98e;stroke-width:0.847441;stroke-opacity:1;-inkscape-stroke:none"
       d="m 16.83572,107.41148 h 165.25763 v 4.41771 H 16.83572 Z"
       id="path149" />
    <path
       style="color:#000000;fill:#e9d98e;stroke:#e9d98e;stroke-width:0.835564;stroke-opacity:1;-inkscape-stroke:none"
       d="M 16.829782,133.35281 H 182.09929 v 4.29445 H 16.829782 Z"
       id="path150" />
    <path
       style="color:#000000;fill:#e9d98e;stroke:#e9d98e;stroke-width:0.835564;stroke-opacity:1;-inkscape-stroke:none"
       d="M 16.829782,159.43522 H 182.09929 v 4.29445 H 16.829782 Z"
       id="path151" />
    <path
       style="color:#000000;fill:#e9d98e;stroke:#e9d98e;stroke-width:0.89349;stroke-opacity:1;-inkscape-stroke:none"
       d="M 16.858744,101.08283 H 182.07032 v 4.91222 H 16.858744 Z"
       id="path141" />
  </g>
  <g
     id="g88"
     transform="matrix(0.49274287,0,0,0.65413604,0.27537077,-40.015212)">
    <path
       style="fill:#4d4d4d;fill-opacity:1;stroke:#4d4d4d;stroke-width:0.25;stroke-dasharray:none;stroke-dashoffset:0;stroke-opacity:1"
       id="path10"
       d="m 19.39288,88.737633 a 0.20271304,0.18582028 0 0 1 -0.196682,0.185738 0.20271304,0.18582028 0 0 1 -0.208386,-0.174686 0.20271304,0.18582028 0 0 1 0.184282,-0.196133 0.20271304,0.18582028 0 0 1 0.219351,0.163015" />
    <path
       style="fill:#4d4d4d;fill-opacity:1;stroke:#4d4d4d;stroke-width:0.25;stroke-dasharray:none;stroke-dashoffset:0;stroke-opacity:1"
       id="path11"
       d="m 19.39288,91.136398 a 0.20271304,0.18582028 0 0 1 -0.196682,0.185738 0.20271304,0.18582028 0 0 1 -0.208386,-0.174685 0.20271304,0.18582028 0 0 1 0.184282,-0.196133 0.20271304,0.18582028 0 0 1 0.219351,0.163014" />
    <path
       style="fill:#4d4d4d;fill-opacity:1;stroke:#4d4d4d;stroke-width:0.25;stroke-dasharray:none;stroke-dashoffset:0;stroke-opacity:1"
       id="path12"
       d="m 22.028149,88.737633 a 0.20271304,0.18582028 0 0 1 -0.196682,0.185738 0.20271304,0.18582028 0 0 1 -0.208386,-0.174686 0.20271304,0.18582028 0 0 1 0.184282,-0.196133 0.20271304,0.18582028 0 0 1 0.219351,0.163015" />
    <path
       style="fill:#4d4d4d;fill-opacity:1;stroke:#4d4d4d;stroke-width:0.25;stroke-dasharray:none;stroke-dashoffset:0;stroke-opacity:1"
       id="path13"
       d="m 22.028149,91.136398 a 0.20271304,0.18582028 0 0 1 -0.196682,0.185738 0.20271304,0.18582028 0 0 1 -0.208386,-0.174685 0.20271304,0.18582028 0 0 1 0.184282,-0.196133 0.20271304,0.18582028 0 0 1 0.219351,0.163014" />
    <path
       style="fill:#4d4d4d;fill-opacity:1;stroke:#4d4d4d;stroke-width:0.25;stroke-dasharray:none;stroke-dashoffset:0;stroke-opacity:1"
       id="path15"
       d="m 145.12564,88.737633 a 0.20271304,0.18582028 0 0 1 -0.19668,0.185738 0.20271304,0.18582028 0 0 1 -0.20839,-0.174686 0.20271304,0.18582028 0 0 1 0.18429,-0.196133 0.20271304,0.18582028 0 0 1 0.21935,0.163015" />
    <path
       style="fill:#4d4d4d;fill-opacity:1;stroke:#4d4d4d;stroke-width:0.25;stroke-dasharray:none;stroke-dashoffset:0;stroke-opacity:1"
       id="path16"
       d="m 145.12564,91.136398 a 0.20271304,0.18582028 0 0 1 -0.19668,0.185738 0.20271304,0.18582028 0 0 1 -0.20839,-0.174685 0.20271304,0.18582028 0 0 1 0.18429,-0.196133 0.20271304,0.18582028 0 0 1 0.21935,0.163014" />
    <path
       style="fill:#4d4d4d;fill-opacity:1;stroke:#4d4d4d;stroke-width:0.25;stroke-dasharray:none;stroke-dashoffset:0;stroke-opacity:1"
       id="path17"
       d="m 147.76091,88.737633 a 0.20271304,0.18582028 0 0 1 -0.19668,0.185738 0.20271304,0.18582028 0 0 1 -0.20839,-0.174686 0.20271304,0.18582028 0 0 1 0.18428,-0.196133 0.20271304,0.18582028 0 0 1 0.21936,0.163015" />
    <path
       style="fill:#4d4d4d;fill-opacity:1;stroke:#4d4d4d;stroke-width:0.25;stroke-dasharray:none;stroke-dashoffset:0;stroke-opacity:1"
       id="path18"
       d="m 147.76091,91.136398 a 0.20271304,0.18582028 0 0 1 -0.19668,0.185738 0.20271304,0.18582028 0 0 1 -0.20839,-0.174685 0.20271304,0.18582028 0 0 1 0.18428,-0.196133 0.20271304,0.18582028 0 0 1 0.21936,0.163014" />
    <path
       style="fill:#4d4d4d;fill-opacity:1;stroke:#4d4d4d;stroke-width:0.25;stroke-dasharray:none;stroke-dashoffset:0;stroke-opacity:1"
       id="path22"
       d="m 19.39288,114.68213 a 0.20271304,0.18582028 0 0 1 -0.196682,0.18574 0.20271304,0.18582028 0 0 1 -0.208386,-0.17469 0.20271304,0.18582028 0 0 1 0.184282,-0.19613 0.20271304,0.18582028 0 0 1 0.219351,0.16301" />
    <path
       style="fill:#4d4d4d;fill-opacity:1;stroke:#4d4d4d;stroke-width:0.25;stroke-dasharray:none;stroke-dashoffset:0;stroke-opacity:1"
       id="path23"
       d="m 19.39288,117.0809 a 0.20271304,0.18582028 0 0 1 -0.196682,0.18574 0.20271304,0.18582028 0 0 1 -0.208386,-0.17469 0.20271304,0.18582028 0 0 1 0.184282,-0.19613 0.20271304,0.18582028 0 0 1 0.219351,0.16302" />
    <path
       style="fill:#4d4d4d;fill-opacity:1;stroke:#4d4d4d;stroke-width:0.25;stroke-dasharray:none;stroke-dashoffset:0;stroke-opacity:1"
       id="path24"
       d="m 22.028149,114.68213 a 0.20271304,0.18582028 0 0 1 -0.196682,0.18574 0.20271304,0.18582028 0 0 1 -0.208386,-0.17469 0.20271304,0.18582028 0 0 1 0.184282,-0.19613 0.20271304,0.18582028 0 0 1 0.219351,0.16301" />
    <path
       style="fill:#4d4d4d;fill-opacity:1;stroke:#4d4d4d;stroke-width:0.25;stroke-dasharray:none;stroke-dashoffset:0;stroke-opacity:1"
       id="path25"
       d="m 22.028149,117.0809 a 0.20271304,0.18582028 0 0 1 -0.196682,0.18574 0.20271304,0.18582028 0 0 1 -0.208386,-0.17469 0.20271304,0.18582028 0 0 1 0.184282,-0.19613 0.20271304,0.18582028 0 0 1 0.219351,0.16302" />
    <path
       style="fill:#4d4d4d;fill-opacity:1;stroke:#4d4d4d;stroke-width:0.25;stroke-dasharray:none;stroke-dashoffset:0;stroke-opacity:1"
       id="path26"
       d="m 145.12564,114.68213 a 0.20271304,0.18582028 0 0 1 -0.19668,0.18574 0.20271304,0.18582028 0 0 1 -0.20839,-0.17469 0.20271304,0.18582028 0 0 1 0.18429,-0.19613 0.20271304,0.18582028 0 0 1 0.21935,0.16301" />
    <path
       style="fill:#4d4d4d;fill-opacity:1;stroke:#4d4d4d;stroke-width:0.25;stroke-dasharray:none;stroke-dashoffset:0;stroke-opacity:1"
       id="path27"
       d="m 145.12564,117.0809 a 0.20271304,0.18582028 0 0 1 -0.19668,0.18574 0.20271304,0.18582028 0 0 1 -0.20839,-0.17469 0.20271304,0.18582028 0 0 1 0.18429,-0.19613 0.20271304,0.18582028 0 0 1 0.21935,0.16302" />
    <path
       style="fill:#4d4d4d;fill-opacity:1;stroke:#4d4d4d;stroke-width:0.25;stroke-dasharray:none;stroke-dashoffset:0;stroke-opacity:1"
       id="path28"
       d="m 147.76091,114.68213 a 0.20271304,0.18582028 0 0 1 -0.19668,0.18574 0.20271304,0.18582028 0 0 1 -0.20839,-0.17469 0.20271304,0.18582028 0 0 1 0.18428,-0.19613 0.20271304,0.18582028 0 0 1 0.21936,0.16301" />
    <path
       style="fill:#4d4d4d;fill-opacity:1;stroke:#4d4d4d;stroke-width:0.25;stroke-dasharray:none;stroke-dashoffset:0;stroke-opacity:1"
       id="path29"
       d="m 147.76091,117.0809 a 0.20271304,0.18582028 0 0 1 -0.19668,0.18574 0.20271304,0.18582028 0 0 1 -0.20839,-0.17469 0.20271304,0.18582028 0 0 1 0.18428,-0.19613 0.20271304,0.18582028 0 0 1 0.21936,0.16302" />
    <path
       style="fill:#4d4d4d;fill-opacity:1;stroke:#4d4d4d;stroke-width:0.25;stroke-dasharray:none;stroke-dashoffset:0;stroke-opacity:1"
       id="path35"
       d="m 19.39288,140.4493 a 0.20271304,0.18582028 0 0 1 -0.196682,0.18573 0.20271304,0.18582028 0 0 1 -0.208386,-0.17468 0.20271304,0.18582028 0 0 1 0.184282,-0.19614 0.20271304,0.18582028 0 0 1 0.219351,0.16302" />
    <path
       style="fill:#4d4d4d;fill-opacity:1;stroke:#4d4d4d;stroke-width:0.25;stroke-dasharray:none;stroke-dashoffset:0;stroke-opacity:1"
       id="path36"
       d="m 19.39288,142.84807 a 0.20271304,0.18582028 0 0 1 -0.196682,0.18574 0.20271304,0.18582028 0 0 1 -0.208386,-0.17469 0.20271304,0.18582028 0 0 1 0.184282,-0.19613 0.20271304,0.18582028 0 0 1 0.219351,0.16301" />
    <path
       style="fill:#4d4d4d;fill-opacity:1;stroke:#4d4d4d;stroke-width:0.25;stroke-dasharray:none;stroke-dashoffset:0;stroke-opacity:1"
       id="path37"
       d="m 22.028149,140.4493 a 0.20271304,0.18582028 0 0 1 -0.196682,0.18573 0.20271304,0.18582028 0 0 1 -0.208386,-0.17468 0.20271304,0.18582028 0 0 1 0.184282,-0.19614 0.20271304,0.18582028 0 0 1 0.219351,0.16302" />
    <path
       style="fill:#4d4d4d;fill-opacity:1;stroke:#4d4d4d;stroke-width:0.25;stroke-dasharray:none;stroke-dashoffset:0;stroke-opacity:1"
       id="path38"
       d="m 22.028149,142.84807 a 0.20271304,0.18582028 0 0 1 -0.196682,0.18574 0.20271304,0.18582028 0 0 1 -0.208386,-0.17469 0.20271304,0.18582028 0 0 1 0.184282,-0.19613 0.20271304,0.18582028 0 0 1 0.219351,0.16301" />
    <path
       style="fill:#4d4d4d;fill-opacity:1;stroke:#4d4d4d;stroke-width:0.25;stroke-dasharray:none;stroke-dashoffset:0;stroke-opacity:1"
       id="path39"
       d="m 145.12564,140.4493 a 0.20271304,0.18582028 0 0 1 -0.19668,0.18573 0.20271304,0.18582028 0 0 1 -0.20839,-0.17468 0.20271304,0.18582028 0 0 1 0.18429,-0.19614 0.20271304,0.18582028 0 0 1 0.21935,0.16302" />
    <path
       style="fill:#4d4d4d;fill-opacity:1;stroke:#4d4d4d;stroke-width:0.25;stroke-dasharray:none;stroke-dashoffset:0;stroke-opacity:1"
       id="path40"
       d="m 145.12564,142.84807 a 0.20271304,0.18582028 0 0 1 -0.19668,0.18574 0.20271304,0.18582028 0 0 1 -0.20839,-0.17469 0.20271304,0.18582028 0 0 1 0.18429,-0.19613 0.20271304,0.18582028 0 0 1 0.21935,0.16301" />
    <path
       style="fill:#4d4d4d;fill-opacity:1;stroke:#4d4d4d;stroke-width:0.25;stroke-dasharray:none;stroke-dashoffset:0;stroke-opacity:1"
       id="path41"
       d="m 147.76091,140.4493 a 0.20271304,0.18582028 0 0 1 -0.19668,0.18573 0.20271304,0.18582028 0 0 1 -0.20839,-0.17468 0.20271304,0.18582028 0 0 1 0.18428,-0.19614 0.20271304,0.18582028 0 0 1 0.21936,0.16302" />
    <path
       style="fill:#4d4d4d;fill-opacity:1;stroke:#4d4d4d;stroke-width:0.25;stroke-dasharray:none;stroke-dashoffset:0;stroke-opacity:1"
       id="path42"
       d="m 147.76091,142.84807 a 0.20271304,0.18582028 0 0 1 -0.19668,0.18574 0.20271304,0.18582028 0 0 1 -0.20839,-0.17469 0.20271304,0.18582028 0 0 1 0.18428,-0.19613 0.20271304,0.18582028 0 0 1 0.21936,0.16301" />
    <path
       style="fill:#4d4d4d;fill-opacity:1;stroke:#4d4d4d;stroke-width:0.25;stroke-dasharray:none;stroke-dashoffset:0;stroke-opacity:1"
       id="path48"
       d="m 19.39288,166.44157 a 0.20271304,0.18582028 0 0 1 -0.196682,0.18574 0.20271304,0.18582028 0 0 1 -0.208386,-0.17468 0.20271304,0.18582028 0 0 1 0.184282,-0.19614 0.20271304,0.18582028 0 0 1 0.219351,0.16302" />
    <path
       style="fill:#4d4d4d;fill-opacity:1;stroke:#4d4d4d;stroke-width:0.25;stroke-dasharray:none;stroke-dashoffset:0;stroke-opacity:1"
       id="path49"
       d="m 19.39288,168.84035 a 0.20271304,0.18582028 0 0 1 -0.196682,0.18574 0.20271304,0.18582028 0 0 1 -0.208386,-0.17469 0.20271304,0.18582028 0 0 1 0.184282,-0.19613 0.20271304,0.18582028 0 0 1 0.219351,0.16301" />
    <path
       style="fill:#4d4d4d;fill-opacity:1;stroke:#4d4d4d;stroke-width:0.25;stroke-dasharray:none;stroke-dashoffset:0;stroke-opacity:1"
       id="path50"
       d="m 22.028149,166.44157 a 0.20271304,0.18582028 0 0 1 -0.196682,0.18574 0.20271304,0.18582028 0 0 1 -0.208386,-0.17468 0.20271304,0.18582028 0 0 1 0.184282,-0.19614 0.20271304,0.18582028 0 0 1 0.219351,0.16302" />
    <path
       style="fill:#4d4d4d;fill-opacity:1;stroke:#4d4d4d;stroke-width:0.25;stroke-dasharray:none;stroke-dashoffset:0;stroke-opacity:1"
       id="path51"
       d="m 22.028149,168.84035 a 0.20271304,0.18582028 0 0 1 -0.196682,0.18574 0.20271304,0.18582028 0 0 1 -0.208386,-0.17469 0.20271304,0.18582028 0 0 1 0.184282,-0.19613 0.20271304,0.18582028 0 0 1 0.219351,0.16301" />
    <path
       style="fill:#4d4d4d;fill-opacity:1;stroke:#4d4d4d;stroke-width:0.25;stroke-dasharray:none;stroke-dashoffset:0;stroke-opacity:1"
       id="path52"
       d="m 145.12564,166.44157 a 0.20271304,0.18582028 0 0 1 -0.19668,0.18574 0.20271304,0.18582028 0 0 1 -0.20839,-0.17468 0.20271304,0.18582028 0 0 1 0.18429,-0.19614 0.20271304,0.18582028 0 0 1 0.21935,0.16302" />
    <path
       style="fill:#4d4d4d;fill-opacity:1;stroke:#4d4d4d;stroke-width:0.25;stroke-dasharray:none;stroke-dashoffset:0;stroke-opacity:1"
       id="path54"
       d="m 147.76091,166.44157 a 0.20271304,0.18582028 0 0 1 -0.19668,0.18574 0.20271304,0.18582028 0 0 1 -0.20839,-0.17468 0.20271304,0.18582028 0 0 1 0.18428,-0.19614 0.20271304,0.18582028 0 0 1 0.21936,0.16302" />
    <path
       style="fill:#4d4d4d;fill-opacity:1;stroke:#4d4d4d;stroke-width:0.25;stroke-dasharray:none;stroke-dashoffset:0;stroke-opacity:1"
       id="path55"
       d="m 147.76091,168.84035 a 0.20271304,0.18582028 0 0 1 -0.19668,0.18574 0.20271304,0.18582028 0 0 1 -0.20839,-0.17469 0.20271304,0.18582028 0 0 1 0.18428,-0.19613 0.20271304,0.18582028 0 0 1 0.21936,0.16301" />
    <path
       style="fill:#4d4d4d;fill-opacity:1;stroke:#4d4d4d;stroke-width:0.25;stroke-dasharray:none;stroke-dashoffset:0;stroke-opacity:1"
       id="path61"
       d="m 114.00338,95.644859 a 0.20271304,0.18582028 0 0 1 -0.19668,0.185738 0.20271304,0.18582028 0 0 1 -0.20839,-0.174685 0.20271304,0.18582028 0 0 1 0.18428,-0.196133 0.20271304,0.18582028 0 0 1 0.21936,0.163014" />
    <path
       style="fill:#4d4d4d;fill-opacity:1;stroke:#4d4d4d;stroke-width:0.25;stroke-dasharray:none;stroke-dashoffset:0;stroke-opacity:1"
       id="path62"
       d="m 114.00338,98.043625 a 0.20271304,0.18582028 0 0 1 -0.19668,0.185738 0.20271304,0.18582028 0 0 1 -0.20839,-0.174686 0.20271304,0.18582028 0 0 1 0.18428,-0.196132 0.20271304,0.18582028 0 0 1 0.21936,0.163014" />
    <path
       style="fill:#4d4d4d;fill-opacity:1;stroke:#4d4d4d;stroke-width:0.25;stroke-dasharray:none;stroke-dashoffset:0;stroke-opacity:1"
       id="path63"
       d="m 116.63866,95.644859 a 0.20271304,0.18582028 0 0 1 -0.19668,0.185738 0.20271304,0.18582028 0 0 1 -0.20838,-0.174685 0.20271304,0.18582028 0 0 1 0.18428,-0.196133 0.20271304,0.18582028 0 0 1 0.21935,0.163014" />
    <path
       style="fill:#4d4d4d;fill-opacity:1;stroke:#4d4d4d;stroke-width:0.25;stroke-dasharray:none;stroke-dashoffset:0;stroke-opacity:1"
       id="path64"
       d="m 116.63866,98.043625 a 0.20271304,0.18582028 0 0 1 -0.19668,0.185738 0.20271304,0.18582028 0 0 1 -0.20838,-0.174686 0.20271304,0.18582028 0 0 1 0.18428,-0.196132 0.20271304,0.18582028 0 0 1 0.21935,0.163014" />
    <path
       style="fill:#4d4d4d;fill-opacity:1;stroke:#4d4d4d;stroke-width:0.25;stroke-dasharray:none;stroke-dashoffset:0;stroke-opacity:1"
       id="path68"
       d="m 114.00338,121.54158 a 0.20271304,0.18582028 0 0 1 -0.19668,0.18574 0.20271304,0.18582028 0 0 1 -0.20839,-0.17469 0.20271304,0.18582028 0 0 1 0.18428,-0.19613 0.20271304,0.18582028 0 0 1 0.21936,0.16301" />
    <path
       style="fill:#4d4d4d;fill-opacity:1;stroke:#4d4d4d;stroke-width:0.25;stroke-dasharray:none;stroke-dashoffset:0;stroke-opacity:1"
       id="path69"
       d="m 114.00338,123.94035 a 0.20271304,0.18582028 0 0 1 -0.19668,0.18574 0.20271304,0.18582028 0 0 1 -0.20839,-0.17468 0.20271304,0.18582028 0 0 1 0.18428,-0.19614 0.20271304,0.18582028 0 0 1 0.21936,0.16302" />
    <path
       style="fill:#4d4d4d;fill-opacity:1;stroke:#4d4d4d;stroke-width:0.25;stroke-dasharray:none;stroke-dashoffset:0;stroke-opacity:1"
       id="path70"
       d="m 116.63866,121.54158 a 0.20271304,0.18582028 0 0 1 -0.19668,0.18574 0.20271304,0.18582028 0 0 1 -0.20838,-0.17469 0.20271304,0.18582028 0 0 1 0.18428,-0.19613 0.20271304,0.18582028 0 0 1 0.21935,0.16301" />
    <path
       style="fill:#4d4d4d;fill-opacity:1;stroke:#4d4d4d;stroke-width:0.25;stroke-dasharray:none;stroke-dashoffset:0;stroke-opacity:1"
       id="path71"
       d="m 116.63866,123.94035 a 0.20271304,0.18582028 0 0 1 -0.19668,0.18574 0.20271304,0.18582028 0 0 1 -0.20838,-0.17468 0.20271304,0.18582028 0 0 1 0.18428,-0.19614 0.20271304,0.18582028 0 0 1 0.21935,0.16302" />
    <path
       style="fill:#4d4d4d;fill-opacity:1;stroke:#4d4d4d;stroke-width:0.25;stroke-dasharray:none;stroke-dashoffset:0;stroke-opacity:1"
       id="path75"
       d="m 114.00338,147.1994 a 0.20271304,0.18582028 0 0 1 -0.19668,0.18574 0.20271304,0.18582028 0 0 1 -0.20839,-0.17469 0.20271304,0.18582028 0 0 1 0.18428,-0.19613 0.20271304,0.18582028 0 0 1 0.21936,0.16302" />
    <path
       style="fill:#4d4d4d;fill-opacity:1;stroke:#4d4d4d;stroke-width:0.25;stroke-dasharray:none;stroke-dashoffset:0;stroke-opacity:1"
       id="path76"
       d="m 114.00338,149.59818 a 0.20271304,0.18582028 0 0 1 -0.19668,0.18573 0.20271304,0.18582028 0 0 1 -0.20839,-0.17468 0.20271304,0.18582028 0 0 1 0.18428,-0.19614 0.20271304,0.18582028 0 0 1 0.21936,0.16302" />
    <path
       style="fill:#4d4d4d;fill-opacity:1;stroke:#4d4d4d;stroke-width:0.25;stroke-dasharray:none;stroke-dashoffset:0;stroke-opacity:1"
       id="path77"
       d="m 116.63866,147.1994 a 0.20271304,0.18582028 0 0 1 -0.19668,0.18574 0.20271304,0.18582028 0 0 1 -0.20838,-0.17469 0.20271304,0.18582028 0 0 1 0.18428,-0.19613 0.20271304,0.18582028 0 0 1 0.21935,0.16302" />
    <path
       style="fill:#4d4d4d;fill-opacity:1;stroke:#4d4d4d;stroke-width:0.25;stroke-dasharray:none;stroke-dashoffset:0;stroke-opacity:1"
       id="path78"
       d="m 116.63866,149.59818 a 0.20271304,0.18582028 0 0 1 -0.19668,0.18573 0.20271304,0.18582028 0 0 1 -0.20838,-0.17468 0.20271304,0.18582028 0 0 1 0.18428,-0.19614 0.20271304,0.18582028 0 0 1 0.21935,0.16302" />
    <path
       style="fill:#4d4d4d;fill-opacity:1;stroke:#4d4d4d;stroke-width:0.25;stroke-dasharray:none;stroke-dashoffset:0;stroke-opacity:1"
       id="path82"
       d="m 114.00338,173.28725 a 0.20271304,0.18582028 0 0 1 -0.19668,0.18573 0.20271304,0.18582028 0 0 1 -0.20839,-0.17468 0.20271304,0.18582028 0 0 1 0.18428,-0.19613 0.20271304,0.18582028 0 0 1 0.21936,0.16301" />
    <path
       style="fill:#4d4d4d;fill-opacity:1;stroke:#4d4d4d;stroke-width:0.25;stroke-dasharray:none;stroke-dashoffset:0;stroke-opacity:1"
       id="path83"
       d="m 114.00338,175.68602 a 0.20271304,0.18582028 0 0 1 -0.19668,0.18574 0.20271304,0.18582028 0 0 1 -0.20839,-0.17469 0.20271304,0.18582028 0 0 1 0.18428,-0.19613 0.20271304,0.18582028 0 0 1 0.21936,0.16301" />
    <path
       style="fill:#4d4d4d;fill-opacity:1;stroke:#4d4d4d;stroke-width:0.25;stroke-dasharray:none;stroke-dashoffset:0;stroke-opacity:1"
       id="path84"
       d="m 116.63866,173.28725 a 0.20271304,0.18582028 0 0 1 -0.19668,0.18573 0.20271304,0.18582028 0 0 1 -0.20838,-0.17468 0.20271304,0.18582028 0 0 1 0.18428,-0.19613 0.20271304,0.18582028 0 0 1 0.21935,0.16301" />
    <path
       style="fill:#4d4d4d;fill-opacity:1;stroke:#4d4d4d;stroke-width:0.25;stroke-dasharray:none;stroke-dashoffset:0;stroke-opacity:1"
       id="path85"
       d="m 116.63866,175.68602 a 0.20271304,0.18582028 0 0 1 -0.19668,0.18574 0.20271304,0.18582028 0 0 1 -0.20838,-0.17469 0.20271304,0.18582028 0 0 1 0.18428,-0.19613 0.20271304,0.18582028 0 0 1 0.21935,0.16301" />
    <path
       style="fill:#4d4d4d;fill-opacity:1;stroke:#4d4d4d;stroke-width:0.25;stroke-dasharray:none;stroke-dashoffset:0;stroke-opacity:1"
       id="path90"
       d="m 177.89758,101.77884 a 0.20271304,0.18582028 0 0 1 -0.19668,0.18574 0.20271304,0.18582028 0 0 1 -0.20838,-0.17469 0.20271304,0.18582028 0 0 1 0.18428,-0.19613 0.20271304,0.18582028 0 0 1 0.21935,0.16301" />
    <path
       style="fill:#4d4d4d;fill-opacity:1;stroke:#4d4d4d;stroke-width:0.25;stroke-dasharray:none;stroke-dashoffset:0;stroke-opacity:1"
       id="path91"
       d="m 177.89758,104.1776 a 0.20271304,0.18582028 0 0 1 -0.19668,0.18574 0.20271304,0.18582028 0 0 1 -0.20838,-0.17469 0.20271304,0.18582028 0 0 1 0.18428,-0.19613 0.20271304,0.18582028 0 0 1 0.21935,0.16301" />
    <path
       style="fill:#4d4d4d;fill-opacity:1;stroke:#4d4d4d;stroke-width:0.25;stroke-dasharray:none;stroke-dashoffset:0;stroke-opacity:1"
       id="path92"
       d="m 180.53285,101.77884 a 0.20271304,0.18582028 0 0 1 -0.19668,0.18574 0.20271304,0.18582028 0 0 1 -0.20838,-0.17469 0.20271304,0.18582028 0 0 1 0.18428,-0.19613 0.20271304,0.18582028 0 0 1 0.21935,0.16301" />
    <path
       style="fill:#4d4d4d;fill-opacity:1;stroke:#4d4d4d;stroke-width:0.25;stroke-dasharray:none;stroke-dashoffset:0;stroke-opacity:1"
       id="path93"
       d="m 180.53285,104.1776 a 0.20271304,0.18582028 0 0 1 -0.19668,0.18574 0.20271304,0.18582028 0 0 1 -0.20838,-0.17469 0.20271304,0.18582028 0 0 1 0.18428,-0.19613 0.20271304,0.18582028 0 0 1 0.21935,0.16301" />
    <path
       style="fill:#4d4d4d;fill-opacity:1;stroke:#4d4d4d;stroke-width:0.25;stroke-dasharray:none;stroke-dashoffset:0;stroke-opacity:1"
       id="path94"
       d="m 177.89758,127.92883 a 0.20271304,0.18582028 0 0 1 -0.19668,0.18574 0.20271304,0.18582028 0 0 1 -0.20838,-0.17468 0.20271304,0.18582028 0 0 1 0.18428,-0.19614 0.20271304,0.18582028 0 0 1 0.21935,0.16302" />
    <path
       style="fill:#4d4d4d;fill-opacity:1;stroke:#4d4d4d;stroke-width:0.25;stroke-dasharray:none;stroke-dashoffset:0;stroke-opacity:1"
       id="path95"
       d="m 177.89758,130.32758 a 0.20271304,0.18582028 0 0 1 -0.19668,0.18573 0.20271304,0.18582028 0 0 1 -0.20838,-0.17468 0.20271304,0.18582028 0 0 1 0.18428,-0.19613 0.20271304,0.18582028 0 0 1 0.21935,0.16301" />
    <path
       style="fill:#4d4d4d;fill-opacity:1;stroke:#4d4d4d;stroke-width:0.25;stroke-dasharray:none;stroke-dashoffset:0;stroke-opacity:1"
       id="path96"
       d="m 180.53285,127.92883 a 0.20271304,0.18582028 0 0 1 -0.19668,0.18574 0.20271304,0.18582028 0 0 1 -0.20838,-0.17468 0.20271304,0.18582028 0 0 1 0.18428,-0.19614 0.20271304,0.18582028 0 0 1 0.21935,0.16302" />
    <path
       style="fill:#4d4d4d;fill-opacity:1;stroke:#4d4d4d;stroke-width:0.25;stroke-dasharray:none;stroke-dashoffset:0;stroke-opacity:1"
       id="path97"
       d="m 180.53285,130.32758 a 0.20271304,0.18582028 0 0 1 -0.19668,0.18573 0.20271304,0.18582028 0 0 1 -0.20838,-0.17468 0.20271304,0.18582028 0 0 1 0.18428,-0.19613 0.20271304,0.18582028 0 0 1 0.21935,0.16301" />
    <path
       style="fill:#4d4d4d;fill-opacity:1;stroke:#4d4d4d;stroke-width:0.25;stroke-dasharray:none;stroke-dashoffset:0;stroke-opacity:1"
       id="path98"
       d="m 177.89758,153.80853 a 0.20271304,0.18582028 0 0 1 -0.19668,0.18574 0.20271304,0.18582028 0 0 1 -0.20838,-0.17468 0.20271304,0.18582028 0 0 1 0.18428,-0.19614 0.20271304,0.18582028 0 0 1 0.21935,0.16302" />
    <path
       style="fill:#4d4d4d;fill-opacity:1;stroke:#4d4d4d;stroke-width:0.25;stroke-dasharray:none;stroke-dashoffset:0;stroke-opacity:1"
       id="path99"
       d="m 177.89758,156.20728 a 0.20271304,0.18582028 0 0 1 -0.19668,0.18573 0.20271304,0.18582028 0 0 1 -0.20838,-0.17468 0.20271304,0.18582028 0 0 1 0.18428,-0.19613 0.20271304,0.18582028 0 0 1 0.21935,0.16301" />
    <path
       style="fill:#4d4d4d;fill-opacity:1;stroke:#4d4d4d;stroke-width:0.25;stroke-dasharray:none;stroke-dashoffset:0;stroke-opacity:1"
       id="path100"
       d="m 180.53285,153.80853 a 0.20271304,0.18582028 0 0 1 -0.19668,0.18574 0.20271304,0.18582028 0 0 1 -0.20838,-0.17468 0.20271304,0.18582028 0 0 1 0.18428,-0.19614 0.20271304,0.18582028 0 0 1 0.21935,0.16302" />
    <path
       style="fill:#4d4d4d;fill-opacity:1;stroke:#4d4d4d;stroke-width:0.25;stroke-dasharray:none;stroke-dashoffset:0;stroke-opacity:1"
       id="path101"
       d="m 180.53285,156.20728 a 0.20271304,0.18582028 0 0 1 -0.19668,0.18573 0.20271304,0.18582028 0 0 1 -0.20838,-0.17468 0.20271304,0.18582028 0 0 1 0.18428,-0.19613 0.20271304,0.18582028 0 0 1 0.21935,0.16301" />
    <path
       style="fill:#4d4d4d;fill-opacity:1;stroke:#4d4d4d;stroke-width:0.25;stroke-dasharray:none;stroke-dashoffset:0;stroke-opacity:1"
       id="path102"
       d="m 177.89758,179.68823 a 0.20271304,0.18582028 0 0 1 -0.19668,0.18574 0.20271304,0.18582028 0 0 1 -0.20838,-0.17469 0.20271304,0.18582028 0 0 1 0.18428,-0.19613 0.20271304,0.18582028 0 0 1 0.21935,0.16302" />
    <path
       style="fill:#4d4d4d;fill-opacity:1;stroke:#4d4d4d;stroke-width:0.25;stroke-dasharray:none;stroke-dashoffset:0;stroke-opacity:1"
       id="path103"
       d="m 177.89758,182.08698 a 0.20271304,0.18582028 0 0 1 -0.19668,0.18573 0.20271304,0.18582028 0 0 1 -0.20838,-0.17468 0.20271304,0.18582028 0 0 1 0.18428,-0.19614 0.20271304,0.18582028 0 0 1 0.21935,0.16302" />
    <path
       style="fill:#4d4d4d;fill-opacity:1;stroke:#4d4d4d;stroke-width:0.25;stroke-dasharray:none;stroke-dashoffset:0;stroke-opacity:1"
       id="path104"
       d="m 180.53285,179.68823 a 0.20271304,0.18582028 0 0 1 -0.19668,0.18574 0.20271304,0.18582028 0 0 1 -0.20838,-0.17469 0.20271304,0.18582028 0 0 1 0.18428,-0.19613 0.20271304,0.18582028 0 0 1 0.21935,0.16302" />
    <path
       style="fill:#4d4d4d;fill-opacity:1;stroke:#4d4d4d;stroke-width:0.25;stroke-dasharray:none;stroke-dashoffset:0;stroke-opacity:1"
       id="path105"
       d="m 180.53285,182.08698 a 0.20271304,0.18582028 0 0 1 -0.19668,0.18573 0.20271304,0.18582028 0 0 1 -0.20838,-0.17468 0.20271304,0.18582028 0 0 1 0.18428,-0.19614 0.20271304,0.18582028 0 0 1 0.21935,0.16302" />
    <path
       style="fill:#4d4d4d;fill-opacity:1;stroke:#4d4d4d;stroke-width:0.25;stroke-dasharray:none;stroke-dashoffset:0;stroke-opacity:1"
       id="path110"
       d="m 50.712044,101.82933 a 0.20271304,0.18582028 0 0 1 -0.196682,0.18574 0.20271304,0.18582028 0 0 1 -0.208385,-0.17469 0.20271304,0.18582028 0 0 1 0.184281,-0.19613 0.20271304,0.18582028 0 0 1 0.219351,0.16301" />
    <path
       style="fill:#4d4d4d;fill-opacity:1;stroke:#4d4d4d;stroke-width:0.25;stroke-dasharray:none;stroke-dashoffset:0;stroke-opacity:1"
       id="path111"
       d="m 50.712044,104.2281 a 0.20271304,0.18582028 0 0 1 -0.196682,0.18574 0.20271304,0.18582028 0 0 1 -0.208385,-0.17468 0.20271304,0.18582028 0 0 1 0.184281,-0.19614 0.20271304,0.18582028 0 0 1 0.219351,0.16302" />
    <path
       style="fill:#4d4d4d;fill-opacity:1;stroke:#4d4d4d;stroke-width:0.25;stroke-dasharray:none;stroke-dashoffset:0;stroke-opacity:1"
       id="path112"
       d="m 53.347313,101.82933 a 0.20271304,0.18582028 0 0 1 -0.196682,0.18574 0.20271304,0.18582028 0 0 1 -0.208385,-0.17469 0.20271304,0.18582028 0 0 1 0.184281,-0.19613 0.20271304,0.18582028 0 0 1 0.219352,0.16301" />
    <path
       style="fill:#4d4d4d;fill-opacity:1;stroke:#4d4d4d;stroke-width:0.25;stroke-dasharray:none;stroke-dashoffset:0;stroke-opacity:1"
       id="path113"
       d="m 53.347313,104.2281 a 0.20271304,0.18582028 0 0 1 -0.196682,0.18574 0.20271304,0.18582028 0 0 1 -0.208385,-0.17468 0.20271304,0.18582028 0 0 1 0.184281,-0.19614 0.20271304,0.18582028 0 0 1 0.219352,0.16302" />
    <path
       style="fill:#4d4d4d;fill-opacity:1;stroke:#4d4d4d;stroke-width:0.25;stroke-dasharray:none;stroke-dashoffset:0;stroke-opacity:1"
       id="path114"
       d="m 82.342354,108.51852 a 0.20271304,0.18582028 0 0 1 -0.196682,0.18573 0.20271304,0.18582028 0 0 1 -0.208385,-0.17468 0.20271304,0.18582028 0 0 1 0.184281,-0.19613 0.20271304,0.18582028 0 0 1 0.219352,0.16301" />
    <path
       style="fill:#4d4d4d;fill-opacity:1;stroke:#4d4d4d;stroke-width:0.25;stroke-dasharray:none;stroke-dashoffset:0;stroke-opacity:1"
       id="path115"
       d="m 82.342354,110.91729 a 0.20271304,0.18582028 0 0 1 -0.196682,0.18574 0.20271304,0.18582028 0 0 1 -0.208385,-0.17469 0.20271304,0.18582028 0 0 1 0.184281,-0.19613 0.20271304,0.18582028 0 0 1 0.219352,0.16301" />
    <path
       style="fill:#4d4d4d;fill-opacity:1;stroke:#4d4d4d;stroke-width:0.25;stroke-dasharray:none;stroke-dashoffset:0;stroke-opacity:1"
       id="path116"
       d="m 84.977623,108.51852 a 0.20271304,0.18582028 0 0 1 -0.196682,0.18573 0.20271304,0.18582028 0 0 1 -0.208385,-0.17468 0.20271304,0.18582028 0 0 1 0.184281,-0.19613 0.20271304,0.18582028 0 0 1 0.219352,0.16301" />
    <path
       style="fill:#4d4d4d;fill-opacity:1;stroke:#4d4d4d;stroke-width:0.25;stroke-dasharray:none;stroke-dashoffset:0;stroke-opacity:1"
       id="path117"
       d="m 84.977623,110.91729 a 0.20271304,0.18582028 0 0 1 -0.196682,0.18574 0.20271304,0.18582028 0 0 1 -0.208385,-0.17469 0.20271304,0.18582028 0 0 1 0.184281,-0.19613 0.20271304,0.18582028 0 0 1 0.219352,0.16301" />
    <path
       style="fill:#4d4d4d;fill-opacity:1;stroke:#4d4d4d;stroke-width:0.25;stroke-dasharray:none;stroke-dashoffset:0;stroke-opacity:1"
       id="path121"
       d="m 50.712044,127.7766 a 0.20271304,0.18582028 0 0 1 -0.196682,0.18574 0.20271304,0.18582028 0 0 1 -0.208385,-0.17468 0.20271304,0.18582028 0 0 1 0.184281,-0.19614 0.20271304,0.18582028 0 0 1 0.219351,0.16302" />
    <path
       style="fill:#4d4d4d;fill-opacity:1;stroke:#4d4d4d;stroke-width:0.25;stroke-dasharray:none;stroke-dashoffset:0;stroke-opacity:1"
       id="path122"
       d="m 50.712044,130.17537 a 0.20271304,0.18582028 0 0 1 -0.196682,0.18574 0.20271304,0.18582028 0 0 1 -0.208385,-0.17469 0.20271304,0.18582028 0 0 1 0.184281,-0.19613 0.20271304,0.18582028 0 0 1 0.219351,0.16301" />
    <path
       style="fill:#4d4d4d;fill-opacity:1;stroke:#4d4d4d;stroke-width:0.25;stroke-dasharray:none;stroke-dashoffset:0;stroke-opacity:1"
       id="path123"
       d="m 53.347313,127.7766 a 0.20271304,0.18582028 0 0 1 -0.196682,0.18574 0.20271304,0.18582028 0 0 1 -0.208385,-0.17468 0.20271304,0.18582028 0 0 1 0.184281,-0.19614 0.20271304,0.18582028 0 0 1 0.219352,0.16302" />
    <path
       style="fill:#4d4d4d;fill-opacity:1;stroke:#4d4d4d;stroke-width:0.25;stroke-dasharray:none;stroke-dashoffset:0;stroke-opacity:1"
       id="path124"
       d="m 53.347313,130.17537 a 0.20271304,0.18582028 0 0 1 -0.196682,0.18574 0.20271304,0.18582028 0 0 1 -0.208385,-0.17469 0.20271304,0.18582028 0 0 1 0.184281,-0.19613 0.20271304,0.18582028 0 0 1 0.219352,0.16301" />
    <path
       style="fill:#4d4d4d;fill-opacity:1;stroke:#4d4d4d;stroke-width:0.25;stroke-dasharray:none;stroke-dashoffset:0;stroke-opacity:1"
       id="path125"
       d="m 82.342354,134.46579 a 0.20271304,0.18582028 0 0 1 -0.196682,0.18574 0.20271304,0.18582028 0 0 1 -0.208385,-0.17469 0.20271304,0.18582028 0 0 1 0.184281,-0.19613 0.20271304,0.18582028 0 0 1 0.219352,0.16301" />
    <path
       style="fill:#4d4d4d;fill-opacity:1;stroke:#4d4d4d;stroke-width:0.25;stroke-dasharray:none;stroke-dashoffset:0;stroke-opacity:1"
       id="path126"
       d="m 82.342354,136.86456 a 0.20271304,0.18582028 0 0 1 -0.196682,0.18574 0.20271304,0.18582028 0 0 1 -0.208385,-0.17468 0.20271304,0.18582028 0 0 1 0.184281,-0.19614 0.20271304,0.18582028 0 0 1 0.219352,0.16302" />
    <path
       style="fill:#4d4d4d;fill-opacity:1;stroke:#4d4d4d;stroke-width:0.25;stroke-dasharray:none;stroke-dashoffset:0;stroke-opacity:1"
       id="path127"
       d="m 84.977623,134.46579 a 0.20271304,0.18582028 0 0 1 -0.196682,0.18574 0.20271304,0.18582028 0 0 1 -0.208385,-0.17469 0.20271304,0.18582028 0 0 1 0.184281,-0.19613 0.20271304,0.18582028 0 0 1 0.219352,0.16301" />
    <path
       style="fill:#4d4d4d;fill-opacity:1;stroke:#4d4d4d;stroke-width:0.25;stroke-dasharray:none;stroke-dashoffset:0;stroke-opacity:1"
       id="path128"
       d="m 84.977623,136.86456 a 0.20271304,0.18582028 0 0 1 -0.196682,0.18574 0.20271304,0.18582028 0 0 1 -0.208385,-0.17468 0.20271304,0.18582028 0 0 1 0.184281,-0.19614 0.20271304,0.18582028 0 0 1 0.219352,0.16302" />
    <path
       style="fill:#4d4d4d;fill-opacity:1;stroke:#4d4d4d;stroke-width:0.25;stroke-dasharray:none;stroke-dashoffset:0;stroke-opacity:1"
       id="path129"
       d="m 50.712044,153.58873 a 0.20271304,0.18582028 0 0 1 -0.196682,0.18574 0.20271304,0.18582028 0 0 1 -0.208385,-0.17469 0.20271304,0.18582028 0 0 1 0.184281,-0.19613 0.20271304,0.18582028 0 0 1 0.219351,0.16301" />
    <path
       style="fill:#4d4d4d;fill-opacity:1;stroke:#4d4d4d;stroke-width:0.25;stroke-dasharray:none;stroke-dashoffset:0;stroke-opacity:1"
       id="path130"
       d="m 50.712044,155.9875 a 0.20271304,0.18582028 0 0 1 -0.196682,0.18574 0.20271304,0.18582028 0 0 1 -0.208385,-0.17468 0.20271304,0.18582028 0 0 1 0.184281,-0.19614 0.20271304,0.18582028 0 0 1 0.219351,0.16302" />
    <path
       style="fill:#4d4d4d;fill-opacity:1;stroke:#4d4d4d;stroke-width:0.25;stroke-dasharray:none;stroke-dashoffset:0;stroke-opacity:1"
       id="path131"
       d="m 53.347313,153.58873 a 0.20271304,0.18582028 0 0 1 -0.196682,0.18574 0.20271304,0.18582028 0 0 1 -0.208385,-0.17469 0.20271304,0.18582028 0 0 1 0.184281,-0.19613 0.20271304,0.18582028 0 0 1 0.219352,0.16301" />
    <path
       style="fill:#4d4d4d;fill-opacity:1;stroke:#4d4d4d;stroke-width:0.25;stroke-dasharray:none;stroke-dashoffset:0;stroke-opacity:1"
       id="path132"
       d="m 53.347313,155.9875 a 0.20271304,0.18582028 0 0 1 -0.196682,0.18574 0.20271304,0.18582028 0 0 1 -0.208385,-0.17468 0.20271304,0.18582028 0 0 1 0.184281,-0.19614 0.20271304,0.18582028 0 0 1 0.219352,0.16302" />
    <path
       style="fill:#4d4d4d;fill-opacity:1;stroke:#4d4d4d;stroke-width:0.25;stroke-dasharray:none;stroke-dashoffset:0;stroke-opacity:1"
       id="path133"
       d="m 82.342354,160.27792 a 0.20271304,0.18582028 0 0 1 -0.196682,0.18574 0.20271304,0.18582028 0 0 1 -0.208385,-0.17468 0.20271304,0.18582028 0 0 1 0.184281,-0.19614 0.20271304,0.18582028 0 0 1 0.219352,0.16302" />
    <path
       style="fill:#4d4d4d;fill-opacity:1;stroke:#4d4d4d;stroke-width:0.25;stroke-dasharray:none;stroke-dashoffset:0;stroke-opacity:1"
       id="path134"
       d="m 82.342354,162.6767 a 0.20271304,0.18582028 0 0 1 -0.196682,0.18573 0.20271304,0.18582028 0 0 1 -0.208385,-0.17468 0.20271304,0.18582028 0 0 1 0.184281,-0.19613 0.20271304,0.18582028 0 0 1 0.219352,0.16301" />
    <path
       style="fill:#4d4d4d;fill-opacity:1;stroke:#4d4d4d;stroke-width:0.25;stroke-dasharray:none;stroke-dashoffset:0;stroke-opacity:1"
       id="path135"
       d="m 84.977623,160.27792 a 0.20271304,0.18582028 0 0 1 -0.196682,0.18574 0.20271304,0.18582028 0 0 1 -0.208385,-0.17468 0.20271304,0.18582028 0 0 1 0.184281,-0.19614 0.20271304,0.18582028 0 0 1 0.219352,0.16302" />
    <path
       style="fill:#4d4d4d;fill-opacity:1;stroke:#4d4d4d;stroke-width:0.25;stroke-dasharray:none;stroke-dashoffset:0;stroke-opacity:1"
       id="path136"
       d="m 84.977623,162.6767 a 0.20271304,0.18582028 0 0 1 -0.196682,0.18573 0.20271304,0.18582028 0 0 1 -0.208385,-0.17468 0.20271304,0.18582028 0 0 1 0.184281,-0.19613 0.20271304,0.18582028 0 0 1 0.219352,0.16301" />
    <path
       style="fill:#4d4d4d;fill-opacity:1;stroke:#4d4d4d;stroke-width:0.25;stroke-dasharray:none;stroke-dashoffset:0;stroke-opacity:1"
       id="path137"
       d="m 50.712044,179.26572 a 0.20271304,0.18582028 0 0 1 -0.196682,0.18573 0.20271304,0.18582028 0 0 1 -0.208385,-0.17468 0.20271304,0.18582028 0 0 1 0.184281,-0.19613 0.20271304,0.18582028 0 0 1 0.219351,0.16301" />
    <path
       style="fill:#4d4d4d;fill-opacity:1;stroke:#4d4d4d;stroke-width:0.25;stroke-dasharray:none;stroke-dashoffset:0;stroke-opacity:1"
       id="path138"
       d="m 50.712044,181.66449 a 0.20271304,0.18582028 0 0 1 -0.196682,0.18574 0.20271304,0.18582028 0 0 1 -0.208385,-0.17469 0.20271304,0.18582028 0 0 1 0.184281,-0.19613 0.20271304,0.18582028 0 0 1 0.219351,0.16301" />
    <path
       style="fill:#4d4d4d;fill-opacity:1;stroke:#4d4d4d;stroke-width:0.25;stroke-dasharray:none;stroke-dashoffset:0;stroke-opacity:1"
       id="path139"
       d="m 53.347313,179.26572 a 0.20271304,0.18582028 0 0 1 -0.196682,0.18573 0.20271304,0.18582028 0 0 1 -0.208385,-0.17468 0.20271304,0.18582028 0 0 1 0.184281,-0.19613 0.20271304,0.18582028 0 0 1 0.219352,0.16301" />
    <path
       style="fill:#4d4d4d;fill-opacity:1;stroke:#4d4d4d;stroke-width:0.25;stroke-dasharray:none;stroke-dashoffset:0;stroke-opacity:1"
       id="path140"
       d="m 53.347313,181.66449 a 0.20271304,0.18582028 0 0 1 -0.196682,0.18574 0.20271304,0.18582028 0 0 1 -0.208385,-0.17469 0.20271304,0.18582028 0 0 1 0.184281,-0.19613 0.20271304,0.18582028 0 0 1 0.219352,0.16301" />
  </g>
  <g
     id="g86"
     style="display:inline"
     transform="matrix(0.49274287,0,0,0.65413604,0.27537077,-40.015212)">
    <path
       style="fill:#000080;fill-opacity:1;stroke:#000080;stroke-width:0.246173;stroke-dasharray:0.738518, 0.738518;stroke-dashoffset:0;stroke-opacity:1"
       d="m 20.432876,85.150564 c 0,100.810176 0,100.810176 0,100.810176"
       id="path5" />
    <path
       style="fill:#000080;fill-opacity:1;stroke:#000080;stroke-width:0.246173;stroke-dasharray:0.738518, 0.738518;stroke-dashoffset:0;stroke-opacity:1"
       d="m 146.21632,85.150564 c 0,100.810176 0,100.810176 0,100.810176"
       id="path4" />
    <path
       style="fill:#000080;fill-opacity:1;stroke:#000080;stroke-width:0.246173;stroke-dasharray:0.738518, 0.738518;stroke-dashoffset:0;stroke-opacity:1"
       d="m 115.13365,85.150564 c 0,100.810176 0,100.810176 0,100.810176"
       id="path3-0" />
    <path
       style="fill:#000080;fill-opacity:1;stroke:#000080;stroke-width:0.246173;stroke-dasharray:0.738518, 0.738518;stroke-dashoffset:0;stroke-opacity:1"
       d="m 83.510412,85.150564 c 0,100.810176 0,100.810176 0,100.810176"
       id="path2-1" />
    <path
       style="fill:#000080;fill-opacity:1;stroke:#000080;stroke-width:0.246173;stroke-dasharray:0.738518, 0.738518;stroke-dashoffset:0;stroke-opacity:1"
       d="m 51.887177,85.150564 c 0,100.810176 0,100.810176 0,100.810176"
       id="path1-8" />
  </g>
  <g
     id="g87"
     style="display:inline"
     transform="matrix(0.49274287,0,0,0.65413604,0.27537077,-40.015212)">
    <path
       style="fill:#4d4d4d;fill-opacity:1;stroke:#4d4d4d;stroke-width:0.25;stroke-dasharray:none;stroke-dashoffset:0;stroke-opacity:1"
       d="m 20.507803,86.761181 c 0,6.757101 0,6.757101 0,6.757101"
       id="path9" />
    <path
       style="fill:#4d4d4d;fill-opacity:1;stroke:#4d4d4d;stroke-width:0.25;stroke-dasharray:none;stroke-dashoffset:0;stroke-opacity:1"
       d="m 146.24056,86.761181 c 0,6.757101 0,6.757101 0,6.757101"
       id="path14" />
    <path
       style="fill:#4d4d4d;fill-opacity:1;stroke:#4d4d4d;stroke-width:0.25;stroke-dasharray:none;stroke-dashoffset:0;stroke-opacity:1"
       d="m 20.507803,112.70568 c 0,6.7571 0,6.7571 0,6.7571"
       id="path30" />
    <path
       style="fill:#4d4d4d;fill-opacity:1;stroke:#4d4d4d;stroke-width:0.25;stroke-dasharray:none;stroke-dashoffset:0;stroke-opacity:1"
       d="m 146.24056,112.70568 c 0,6.7571 0,6.7571 0,6.7571"
       id="path31" />
    <path
       style="fill:#4d4d4d;fill-opacity:1;stroke:#4d4d4d;stroke-width:0.25;stroke-dasharray:none;stroke-dashoffset:0;stroke-opacity:1"
       d="m 20.507803,138.47284 c 0,6.7571 0,6.7571 0,6.7571"
       id="path43" />
    <path
       style="fill:#4d4d4d;fill-opacity:1;stroke:#4d4d4d;stroke-width:0.25;stroke-dasharray:none;stroke-dashoffset:0;stroke-opacity:1"
       d="m 146.24056,138.47284 c 0,6.7571 0,6.7571 0,6.7571"
       id="path44" />
    <path
       style="fill:#4d4d4d;fill-opacity:1;stroke:#4d4d4d;stroke-width:0.25;stroke-dasharray:none;stroke-dashoffset:0;stroke-opacity:1"
       d="m 20.507803,164.46512 c 0,6.7571 0,6.7571 0,6.7571"
       id="path56" />
    <path
       style="fill:#4d4d4d;fill-opacity:1;stroke:#4d4d4d;stroke-width:0.25;stroke-dasharray:none;stroke-dashoffset:0;stroke-opacity:1"
       d="m 146.24056,164.46512 c 0,6.7571 0,6.7571 0,6.7571"
       id="path57" />
    <path
       style="fill:#4d4d4d;fill-opacity:1;stroke:#4d4d4d;stroke-width:0.25;stroke-dasharray:none;stroke-dashoffset:0;stroke-opacity:1"
       d="m 115.11831,93.668414 c 0,6.757096 0,6.757096 0,6.757096"
       id="path65" />
    <path
       style="fill:#4d4d4d;fill-opacity:1;stroke:#4d4d4d;stroke-width:0.25;stroke-dasharray:none;stroke-dashoffset:0;stroke-opacity:1"
       d="m 115.11831,119.56513 c 0,6.7571 0,6.7571 0,6.7571"
       id="path72" />
    <path
       style="fill:#4d4d4d;fill-opacity:1;stroke:#4d4d4d;stroke-width:0.25;stroke-dasharray:none;stroke-dashoffset:0;stroke-opacity:1"
       d="m 115.11831,145.22295 c 0,6.7571 0,6.7571 0,6.7571"
       id="path79" />
    <path
       style="fill:#4d4d4d;fill-opacity:1;stroke:#4d4d4d;stroke-width:0.25;stroke-dasharray:none;stroke-dashoffset:0;stroke-opacity:1"
       d="m 115.11831,171.31079 c 0,6.7571 0,6.7571 0,6.7571"
       id="path86" />
    <path
       style="fill:#4d4d4d;fill-opacity:1;stroke:#4d4d4d;stroke-width:0.25;stroke-dasharray:none;stroke-dashoffset:0;stroke-opacity:1"
       d="m 179.04049,177.73004 c 0,6.7571 0,6.7571 0,6.7571"
       id="path106" />
    <path
       style="fill:#4d4d4d;fill-opacity:1;stroke:#4d4d4d;stroke-width:0.25;stroke-dasharray:none;stroke-dashoffset:0;stroke-opacity:1"
       d="m 179.04049,151.64763 c 0,6.7571 0,6.7571 0,6.7571"
       id="path107" />
    <path
       style="fill:#4d4d4d;fill-opacity:1;stroke:#4d4d4d;stroke-width:0.25;stroke-dasharray:none;stroke-dashoffset:0;stroke-opacity:1"
       d="m 179.04049,125.90307 c 0,6.7571 0,6.7571 0,6.7571"
       id="path108" />
    <path
       style="fill:#4d4d4d;fill-opacity:1;stroke:#4d4d4d;stroke-width:0.25;stroke-dasharray:none;stroke-dashoffset:0;stroke-opacity:1"
       d="m 179.04049,100.29366 c 0,6.7571 0,6.7571 0,6.7571"
       id="path109" />
  </g>
  <path
     style="color:#000000;-inkscape-font-specification:'Noto Sans Hebrew, Normal';clip-rule:nonzero;fill:#000080;fill-rule:nonzero;stroke-width:0.40957;stroke-linejoin:miter;stroke-miterlimit:2;-inkscape-stroke:none"
     d="m 13.563691,38.599138 -2.0291,-11.49562 h -0.0266 q 0.0177,0.50305 0.0266,1.13652 0.0177,0.61484 0.0177,1.24831 v 9.11079 h -0.71771 v -13.30287 h 1.08986 l 2.00253,11.29067 h 0.0266 l 2.00252,-11.29067 h 1.07213 v 13.30287 h -0.73544 v -9.20395 q 0,-0.52168 0.009,-1.13651 0.009,-0.63348 0.0266,-1.13652 h -0.0266 l -2.02024,11.47698 z m 9.12654,-5.01187 q 0,1.54641 -0.2481,2.7202 -0.2481,1.17378 -0.73544,1.82588 -0.48733,0.6521 -1.20505,0.6521 -0.69114,0 -1.17848,-0.6521 -0.47848,-0.6521 -0.73545,-1.82588 -0.25695,-1.17379 -0.25695,-2.7202 0,-2.42209 0.58481,-3.80082 0.5848,-1.37873 1.63037,-1.37873 0.69999,0 1.17847,0.6521 0.47848,0.65211 0.71772,1.82589 0.2481,1.17378 0.2481,2.70156 z m -3.57087,0 q 0,1.76999 0.3367,2.85062 0.33672,1.06199 1.04558,1.06199 0.73543,0 1.06328,-1.08063 0.32785,-1.08062 0.32785,-2.83198 0,-1.13652 -0.14178,-2.0122 -0.1329,-0.89431 -0.43417,-1.39736 -0.2924,-0.50305 -0.77974,-0.50305 -0.69114,0 -1.05443,1.02473 -0.36329,1.02473 -0.36329,2.88788 z m 6.39744,5.19818 q -0.91266,0 -1.4,-1.3042 -0.48733,-1.30421 -0.48733,-3.76356 0,-2.58977 0.51392,-3.94987 0.52278,-1.3601 1.44429,-1.3601 0.58481,0 0.93924,0.57758 0.35443,0.57757 0.52278,1.41599 h 0.0266 q -0.0266,-0.52168 -0.0354,-1.15515 -0.009,-0.63347 -0.009,-1.24831 v -3.55861 h 0.77974 v 14.15992 h -0.60246 l -0.14178,-1.80726 h -0.0355 q -0.16835,0.81979 -0.53164,1.41599 -0.35443,0.57758 -0.98354,0.57758 z m 0.25696,-1.34146 q 0.70886,0 1.00126,-0.96884 0.30126,-0.96884 0.31012,-2.75746 v -0.13042 q 0,-1.84452 -0.31012,-2.83199 -0.30126,-0.98746 -0.95696,-0.98746 -0.66456,0 -1.0367,0.98746 -0.36329,0.98747 -0.36329,2.98104 0,3.70766 1.35569,3.70766 z m 5.39618,-9.03627 q 0.95696,0 1.43543,1.26694 0.48735,1.26694 0.48735,3.3723 v 0.87568 h -3.30505 q 0,1.71409 0.39873,2.6643 0.39873,0.9502 1.16962,0.9502 0.43417,0 0.76202,-0.14905 0.3367,-0.14905 0.7443,-0.54031 v 1.26694 q -0.33671,0.354 -0.70886,0.50305 -0.37215,0.16768 -0.87721,0.16768 -1.10759,0 -1.69239,-1.36009 -0.58481,-1.3601 -0.58481,-3.74493 0,-1.56505 0.24809,-2.75746 0.2481,-1.19241 0.73545,-1.84451 0.48733,-0.67074 1.18733,-0.67074 z m 0.0177,1.19241 q -0.57595,0 -0.94809,0.81979 -0.37216,0.80115 -0.43418,2.38483 h 2.56961 q 0,-1.41599 -0.30127,-2.3103 -0.2924,-0.89432 -0.88607,-0.89432 z m 3.88985,8.99901 h -0.77974 v -14.15992 h 0.77975 z m 2.20632,-10.22868 q 0,0.48442 -0.009,1.08063 -0.009,0.5962 -0.0266,1.04336 h 0.0354 q 0.1595,-0.89432 0.55823,-1.49052 0.4076,-0.61484 1.01898,-0.61484 0.86836,0 1.34683,1.32284 0.48734,1.32283 0.48734,3.83808 0,1.54641 -0.22151,2.73883 -0.21266,1.17378 -0.64684,1.84451 -0.43417,0.6521 -1.07215,0.6521 -0.59367,0 -0.93923,-0.52168 -0.34557,-0.52168 -0.51392,-1.24831 h -0.0532 l -0.12405,1.58368 h -0.62024 v -14.15992 h 0.77975 z m 1.34683,1.3601 q -0.69113,0 -1.01898,0.98747 -0.32785,0.96883 -0.32785,2.73882 v 0.29811 q 0,1.80725 0.30127,2.73882 0.31012,0.93158 0.95695,0.93158 0.66456,0 1.01013,-1.00611 0.34556,-1.00609 0.34556,-2.86924 0,-3.81945 -1.26708,-3.81945 z m 7.20378,-1.13652 v 10.0051 h -0.59367 l -0.0975,-1.76999 h -0.0532 q -0.17722,0.81978 -0.58481,1.39736 -0.39873,0.55894 -1.02784,0.55894 -0.76203,0 -1.20507,-0.91294 -0.43417,-0.91294 -0.43417,-2.73883 v -6.53964 h 0.77974 v 6.09249 q 0,2.75746 1.07215,2.75746 0.6557,0 1.01013,-0.89432 0.35442,-0.91294 0.35442,-2.75745 v -5.19818 z m 1.84302,-3.81945 q 0.48734,0 0.48734,0.96884 0,0.93157 -0.48734,0.93157 -0.23038,0 -0.35443,-0.22358 -0.12405,-0.22358 -0.12405,-0.70799 0,-0.50305 0.12405,-0.72663 0.12405,-0.24221 0.35443,-0.24221 z m 0.38101,3.81945 v 10.0051 h -0.77974 v -10.0051 z m 2.23289,10.0051 h -0.77974 v -14.15992 h 0.77974 z m 3.07467,0.18631 q -0.91265,0 -1.4,-1.3042 -0.48734,-1.30421 -0.48734,-3.76356 0,-2.58977 0.51393,-3.94987 0.52277,-1.3601 1.44429,-1.3601 0.58481,0 0.93923,0.57758 0.35443,0.57757 0.52279,1.41599 h 0.0266 q -0.0266,-0.52168 -0.0354,-1.15515 -0.009,-0.63347 -0.009,-1.24831 v -3.55861 h 0.77974 v 14.15992 h -0.60253 l -0.14177,-1.80726 h -0.0354 q -0.16836,0.81979 -0.53164,1.41599 -0.35443,0.57758 -0.98354,0.57758 z m 0.25695,-1.34146 q 0.70886,0 1.00127,-0.96884 0.30126,-0.96884 0.31012,-2.75746 v -0.13042 q 0,-1.84452 -0.31012,-2.83199 -0.30127,-0.98746 -0.95696,-0.98746 -0.66456,0 -1.03671,0.98746 -0.36328,0.98747 -0.36328,2.98104 0,3.70766 1.35568,3.70766 z m 5.39619,-9.03627 q 0.95696,0 1.43544,1.26694 0.48735,1.26694 0.48735,3.3723 v 0.87568 h -3.30504 q 0,1.71409 0.39873,2.6643 0.39873,0.9502 1.16961,0.9502 0.43417,0 0.76202,-0.14905 0.33671,-0.14905 0.7443,-0.54031 v 1.26694 q -0.3367,0.354 -0.70885,0.50305 -0.37216,0.16768 -0.87722,0.16768 -1.10758,0 -1.6924,-1.36009 -0.5848,-1.3601 -0.5848,-3.74493 0,-1.56505 0.2481,-2.75746 0.2481,-1.19241 0.73544,-1.84451 0.48734,-0.67074 1.18734,-0.67074 z m 0.0177,1.19241 q -0.57595,0 -0.9481,0.81979 -0.37214,0.80115 -0.43417,2.38483 h 2.56961 q 0,-1.41599 -0.30127,-2.3103 -0.2924,-0.89432 -0.88607,-0.89432 z m 5.25441,-1.17377 q 0.18607,0 0.34556,0.0559 0.16836,0.0372 0.29241,0.11179 l -0.0886,1.52778 q -0.13291,-0.0745 -0.27468,-0.11179 -0.14178,-0.0372 -0.35443,-0.0372 -0.58481,0 -0.93923,0.80115 -0.34558,0.80115 -0.34558,2.45936 v 5.36586 h -0.77972 v -10.0051 h 0.60254 l 0.10633,1.78862 h 0.0443 q 0.15064,-0.81979 0.51393,-1.37873 0.36328,-0.57757 0.87721,-0.57757 z m 5.44933,9.01763 q 0.22153,0 0.39874,-0.0745 0.17722,-0.0931 0.34556,-0.22358 v 1.26694 q -0.19493,0.16768 -0.41644,0.26085 -0.21266,0.11179 -0.54051,0.11179 -0.65569,0 -0.96582,-0.74526 -0.30126,-0.74526 -0.30126,-2.34757 v -5.81301 h -0.67342 v -0.80116 l 0.72657,-0.46578 0.19493,-2.32893 h 0.53166 v 2.3103 h 1.40885 v 1.28557 h -1.40885 v 5.6826 q 0,0.91293 0.15063,1.39736 0.15949,0.48442 0.54935,0.48441 z m 5.83036,-3.85672 q 0,1.54641 -0.2481,2.7202 -0.2481,1.17378 -0.73544,1.82588 -0.48734,0.6521 -1.20506,0.6521 -0.69113,0 -1.17847,-0.6521 -0.47848,-0.6521 -0.73544,-1.82588 -0.25696,-1.17379 -0.25696,-2.7202 0,-2.42209 0.5848,-3.80082 0.58481,-1.37873 1.63037,-1.37873 0.7,0 1.17849,0.6521 0.47848,0.65211 0.71771,1.82589 0.2481,1.17378 0.2481,2.70156 z m -3.57086,0 q 0,1.76999 0.3367,2.85062 0.33671,1.06199 1.04556,1.06199 0.73544,0 1.06328,-1.08063 0.32786,-1.08062 0.32786,-2.83198 0,-1.13652 -0.14178,-2.0122 -0.13291,-0.89431 -0.43417,-1.39736 -0.2924,-0.50305 -0.77975,-0.50305 -0.69113,0 -1.05442,1.02473 -0.36328,1.02473 -0.36328,2.88788 z m 8.86956,0 q 0,1.54641 -0.24809,2.7202 -0.24811,1.17378 -0.73544,1.82588 -0.48735,0.6521 -1.20506,0.6521 -0.69114,0 -1.17848,-0.6521 -0.47847,-0.6521 -0.73544,-1.82588 -0.25696,-1.17379 -0.25696,-2.7202 0,-2.42209 0.58481,-3.80082 0.5848,-1.37873 1.63036,-1.37873 0.70001,0 1.17848,0.6521 0.47849,0.65211 0.71773,1.82589 0.24809,1.17378 0.24809,2.70156 z m -3.57087,0 q 0,1.76999 0.33671,2.85062 0.33671,1.06199 1.04557,1.06199 0.73544,0 1.06328,-1.08063 0.32785,-1.08062 0.32785,-2.83198 0,-1.13652 -0.14177,-2.0122 -0.13292,-0.89431 -0.43417,-1.39736 -0.29241,-0.50305 -0.77975,-0.50305 -0.69113,0 -1.05442,1.02473 -0.3633,1.02473 -0.3633,2.88788 z m 5.54681,5.01187 h -0.77969 v -14.15992 h 0.77975 z m 4.58099,-2.75746 q 0,1.34146 -0.46075,2.14262 -0.45191,0.80115 -1.41772,0.80115 -0.4962,0 -0.9038,-0.16768 -0.40758,-0.16768 -0.71771,-0.44716 v -1.41599 q 0.38988,0.39126 0.80632,0.57757 0.42532,0.18632 0.7886,0.18632 0.6114,0 0.87722,-0.40989 0.27467,-0.42853 0.27467,-1.17378 0,-0.54032 -0.15061,-0.85705 -0.15064,-0.33537 -0.44305,-0.57758 -0.28354,-0.26084 -0.68228,-0.54031 -0.40758,-0.29811 -0.72657,-0.61484 -0.31013,-0.33536 -0.48734,-0.85704 -0.16836,-0.54032 -0.16836,-1.416 0,-1.28557 0.47848,-1.97493 0.47848,-0.68937 1.28481,-0.68937 0.44303,0 0.82405,0.18632 0.38987,0.16768 0.73543,0.48442 l -0.23038,1.15515 q -0.2924,-0.29811 -0.65568,-0.46579 -0.3633,-0.16769 -0.67342,-0.16769 -0.46962,0 -0.7443,0.35401 -0.26582,0.33537 -0.26582,1.02473 0,0.55894 0.14177,0.87568 0.14177,0.2981 0.40759,0.50305 0.27468,0.20494 0.64683,0.48441 0.4076,0.31673 0.73544,0.6521 0.32786,0.33537 0.52279,0.89432 0.20379,0.54031 0.20379,1.45325 z"
     id="path58" />
  <path
     style="color:#000000;-inkscape-font-specification:'Noto Sans Hebrew, Normal';clip-rule:nonzero;fill:#000080;fill-rule:nonzero;stroke-width:0.480792;stroke-linejoin:miter;stroke-miterlimit:2;-inkscape-stroke:none"
     d="m 33.122221,52.222287 c -0.26862,2.8e-4 -0.48635,0.33249 -0.486528,0.74239 v 14.15977 c -2.34e-4,0.41034 0.217604,0.74327 0.486528,0.74354 h 1.07492 c 0.268922,-3.5e-4 0.486762,-0.3332 0.486528,-0.74354 v -2.7503 l 0.501742,-0.77486 1.83817,3.9555 c 0.09122,0.19631 0.239102,0.31304 0.396818,0.3132 h 1.233807 c 0.241334,-0.004 0.44447,-0.27664 0.477392,-0.64147 v 4.27681 c 1.78e-4,0.4099 0.217908,0.74212 0.486542,0.74239 h 1.074934 c 0.26862,-3.5e-4 0.486348,-0.33249 0.486514,-0.74239 v -3.93114 c 0,-0.0655 -0.0042,-0.12397 -0.0042,-0.18908 0.426997,0.45655 0.962074,0.67047 1.581223,0.67047 0.918031,0 1.729223,-0.5741 2.284405,-1.63904 0.572145,-1.08188 0.827853,-2.56287 0.827853,-4.35801 0,-1.77431 -0.229181,-3.21778 -0.760191,-4.26985 -0.520442,-1.04648 -1.327404,-1.59612 -2.253992,-1.59612 -0.672053,0 -1.270932,0.25381 -1.731746,0.81313 -0.0028,0.002 -0.0028,0.004 -0.0042,0.006 -0.04768,0.0594 -0.07978,0.13374 -0.124712,0.19603 l -0.01101,-0.16356 c -0.02618,-0.37791 -0.235106,-0.6647 -0.484158,-0.66469 h -0.879543 c -0.268633,3.4e-4 -0.486362,0.33249 -0.486541,0.74238 v 10.05348 c 0.0096,-0.16828 -0.01902,-0.33644 -0.08048,-0.47676 l -2.428836,-5.24423 2.19165,-3.8453 c 0.273415,-0.48107 0.04947,-1.2297 -0.367908,-1.22957 h -1.233035 c -0.140821,3e-5 -0.274738,0.0931 -0.36719,0.25519 l -2.177966,3.82559 c 0.0028,-0.35182 0.01598,-0.69045 0.01598,-1.04746 v -6.44599 c -1.78e-4,-0.4099 -0.217908,-0.74211 -0.486542,-0.74238 z m 13.895716,0 c -0.268634,2.8e-4 -0.486348,0.33249 -0.486528,0.74239 v 14.15977 c -2.34e-4,0.41034 0.217605,0.74327 0.486528,0.74354 h 1.074162 c 0.269227,3.4e-4 0.487535,-0.33274 0.487286,-0.74354 v -14.15977 c -1.79e-4,-0.41035 -0.218363,-0.74276 -0.487286,-0.74239 z m 17.241372,0 c -0.268923,-3.8e-4 -0.487121,0.33203 -0.4873,0.74239 v 14.15977 c -1.79e-4,0.4108 0.218074,0.74391 0.4873,0.74354 h 1.074162 c 0.268922,-3.5e-4 0.486762,-0.3332 0.486514,-0.74354 v -2.7503 l 0.501742,-0.77486 1.838156,3.9555 c 0.09122,0.19631 0.239103,0.31303 0.396832,0.3132 h 1.233807 c 0.260628,-0.0133 0.46809,-0.33755 0.470571,-0.73543 0.0028,0.40404 0.21642,0.73076 0.481195,0.73543 h 1.074934 c 0.268922,-3.5e-4 0.486762,-0.3332 0.486514,-0.74354 v -10.00476 c -1.66e-4,-0.40989 -0.217894,-0.7421 -0.486514,-0.74238 h -1.074934 c -0.268634,3.4e-4 -0.486349,0.33249 -0.486528,0.74238 v 9.98039 c 0.0028,-0.14164 -0.0204,-0.28171 -0.06766,-0.40367 l -2.429608,-5.24423 2.191663,-3.8453 c 0.273167,-0.48067 0.04974,-1.22873 -0.367177,-1.22957 h -1.233793 c -0.140821,3e-5 -0.274725,0.0931 -0.367177,0.25519 l -2.17798,3.82559 c 0.0028,-0.35182 0.01598,-0.69044 0.01598,-1.04746 v -6.44595 c -1.8e-4,-0.4099 -0.217895,-0.74212 -0.486528,-0.74239 z m 7.032607,0.33523 c -0.290104,0 -0.588448,0.12622 -0.811909,0.43731 -0.243291,0.32827 -0.333718,0.81613 -0.333718,1.27365 0,0.45627 0.09468,0.95093 0.340567,1.27249 0.227017,0.29692 0.518526,0.40251 0.80506,0.40251 0.297614,0 0.600202,-0.10465 0.83167,-0.42571 0.23144,-0.32106 0.32687,-0.80259 0.32687,-1.24929 0,-0.45388 -0.0904,-0.93422 -0.320048,-1.26553 -0.229636,-0.33131 -0.53793,-0.44543 -0.838492,-0.44543 z m -59.684151,0.52199 c -0.268634,2.8e-4 -0.48635,0.33249 -0.486528,0.74238 v 13.30256 c -1.8e-4,0.41034 0.217604,0.74327 0.486528,0.74354 h 2.235002 c 1.555853,0 2.827088,-0.61684 3.718909,-1.92092 5.24e-4,-0.001 0.001,-0.002 0.0014,-0.003 0.895445,-1.32364 1.320472,-3.26596 1.320472,-5.65718 0,-2.22819 -0.395344,-4.05731 -1.22773,-5.32891 l -8.96e-4,-10e-4 c -0.82974,-1.27966 -2.049588,-1.87678 -3.556205,-1.87678 z m 1.573616,2.86397 h 0.843824 c 1.041048,0 1.703881,0.38929 2.107287,1.06254 0.415036,0.69266 0.654524,1.7645 0.654524,3.33723 0,1.69645 -0.259801,2.83397 -0.707744,3.54719 -0.438104,0.69799 -1.130524,1.09386 -2.18786,1.09386 h -0.710031 z m 9.574746,0.24708 c -0.71615,0 -1.363825,0.25605 -1.900514,0.79109 -0.527744,0.51406 -0.933864,1.25825 -1.195029,2.16915 -0.259276,0.90427 -0.383148,1.92947 -0.383148,3.05537 0,1.71755 0.299832,3.17623 0.932005,4.24317 0.639792,1.07977 1.581098,1.60424 2.69339,1.60424 0.487342,0 0.919851,-0.0583 1.304514,-0.18328 0.382997,-0.11209 0.751097,-0.30102 1.098485,-0.56606 0.164744,-0.12569 0.268882,-0.38247 0.269116,-0.66351 v -1.26784 c -3.58e-4,-0.54022 -0.366584,-0.89913 -0.688754,-0.67511 -0.349621,0.24355 -0.660339,0.40353 -0.924397,0.48835 -8.96e-4,3.4e-4 -0.0014,8.6e-4 -0.0014,0.001 -0.257802,0.085 -0.574833,0.13224 -0.947204,0.13224 -0.613087,0 -0.983406,-0.24291 -1.246734,-0.6983 -0.192676,-0.3332 -0.301555,-0.83292 -0.363387,-1.43025 h 4.003225 c 0.268936,3.5e-4 0.48712,-0.33203 0.4873,-0.74238 v -0.87578 c 0,-1.52266 -0.249604,-2.83532 -0.779208,-3.83603 -0.537902,-1.03211 -1.376724,-1.54623 -2.357386,-1.54623 z m 7.265233,0 c -0.7339,0 -1.403968,0.23611 -1.981088,0.72614 -0.5757,0.47653 -1.036844,1.18918 -1.353916,2.08562 -8.12e-4,0.003 -0.001,0.005 -0.0028,0.008 -0.311862,0.90844 -0.45916,1.9727 -0.45916,3.1586 0,1.71368 0.288256,3.16955 0.900089,4.24897 0.001,0.002 0.0014,0.003 0.0028,0.005 0.632048,1.09795 1.576992,1.63092 2.697952,1.63092 0.417116,0 0.804495,-0.0677 1.161584,-0.21112 0.338803,-0.13604 0.642439,-0.30902 0.911486,-0.52894 0.158074,-0.12922 0.256796,-0.38059 0.256947,-0.65423 v -1.34208 c -1.24e-4,-0.55165 -0.38035,-0.91065 -0.703953,-0.66466 -0.224206,0.17105 -0.473354,0.30849 -0.749553,0.40831 -10e-4,-1e-5 -0.0028,-1e-5 -0.0028,0 -0.264004,0.098 -0.529606,0.14731 -0.8005,0.14731 -0.612204,0 -0.952647,-0.24974 -1.196559,-0.7447 -0.26844,-0.55736 -0.416579,-1.29376 -0.416579,-2.29442 0,-1.06604 0.169636,-1.81467 0.480437,-2.36635 0.309231,-0.54888 0.681423,-0.80385 1.255085,-0.80386 0.40328,0 0.825248,0.14446 1.277146,0.45587 0.260544,0.17929 0.565778,-0.0209 0.659856,-0.43267 l 0.292667,-1.28638 c 0.0835,-0.36627 -0.0317,-0.7689 -0.264527,-0.92447 -0.29071,-0.19406 -0.597914,-0.34438 -0.91985,-0.45354 -0.32534,-0.11308 -0.673554,-0.16704 -1.045279,-0.16704 z m 22.613711,0 c -0.489284,0 -0.954783,0.0799 -1.394223,0.24359 -0.421362,0.14767 -0.823954,0.35601 -1.20491,0.62638 -0.235354,0.16711 -0.343392,0.58661 -0.245552,0.9535 l 0.31776,1.19245 c 0.106243,0.39818 0.411206,0.57599 0.664432,0.38743 0.633812,-0.47206 1.2005,-0.68786 1.703606,-0.68787 0.356249,1e-5 0.530598,0.12624 0.65225,0.33176 0.09316,0.15741 0.168313,0.61089 0.190059,1.22029 l -0.720684,0.0557 c -10e-4,0 -0.0028,0 -0.0042,0 -1.003593,0.0916 -1.822379,0.40164 -2.452401,1.00802 -10e-4,8.7e-4 -0.0028,0.002 -0.0028,0.002 -0.645098,0.63058 -1.005742,1.70556 -1.005742,2.91733 0,1.05257 0.221353,2.00093 0.675814,2.66213 10e-4,0.002 0.0028,0.004 0.0042,0.006 0.456142,0.64744 1.085269,0.94422 1.796361,0.94422 0.678446,0 1.256572,-0.18361 1.711212,-0.6461 8.82e-4,-8.7e-4 0.0014,-0.002 0.0014,-0.002 0.121267,-0.12485 0.18868,-0.33373 0.297242,-0.48022 l 0.0372,0.32711 c 0.04052,0.35599 0.242906,0.61594 0.479694,0.61595 h 0.769328 c 0.268922,-3.5e-4 0.486762,-0.3332 0.486528,-0.74354 v -6.61434 c 0,-1.32671 -0.221519,-2.44948 -0.731322,-3.21196 -0.498172,-0.7575 -1.208258,-1.10777 -2.025942,-1.10777 z m 7.447685,0 c -0.677758,0 -1.270808,0.22192 -1.734777,0.73426 -0.08902,0.0958 -0.123196,0.25013 -0.203729,0.35611 l -0.02054,-0.25404 c -0.03086,-0.37109 -0.237602,-0.64938 -0.48274,-0.64958 h -0.817972 c -0.268922,-3.5e-4 -0.487106,0.33204 -0.487286,0.74238 v 10.00476 c -2.34e-4,0.41079 0.21806,0.7439 0.487286,0.74354 h 1.074153 c 0.269227,3.4e-4 0.487534,-0.33274 0.4873,-0.74354 v -5.2164 c 0,-1.11619 0.153513,-1.84819 0.378587,-2.2689 0.231344,-0.43245 0.522522,-0.6403 1.027034,-0.64031 0.371406,0 0.563228,0.13938 0.717624,0.41296 0.0014,0.003 0.0028,0.005 0.0056,0.008 0.148964,0.25572 0.267572,0.74932 0.267572,1.57524 v 6.1293 c -2.34e-4,0.41034 0.217604,0.74327 0.486528,0.74354 h 1.074934 c 0.268936,-3.5e-4 0.486776,-0.33319 0.486528,-0.74354 v -6.53993 c 0,-1.38832 -0.228946,-2.54892 -0.763995,-3.31636 -0.507323,-0.72766 -1.200197,-1.07762 -1.981845,-1.07762 z m 16.985181,0 c -0.678446,0 -1.272144,0.22201 -1.736306,0.73542 -0.08834,0.0951 -0.122232,0.24857 -0.202226,0.35378 l -0.0204,-0.25287 c -0.03086,-0.37153 -0.238068,-0.64996 -0.483496,-0.64958 h -0.81797 c -0.268633,3.4e-4 -0.486349,0.33249 -0.486528,0.74238 v 10.00476 c -1.79e-4,0.41034 0.217605,0.74327 0.486528,0.74354 h 1.074176 c 0.269226,3.4e-4 0.487534,-0.33274 0.487286,-0.74354 v -5.2164 c 0,-1.11619 0.153499,-1.84819 0.378573,-2.2689 0.231357,-0.43245 0.522522,-0.64031 1.027033,-0.64031 0.371422,10e-6 0.563244,0.13938 0.717624,0.41296 0.0028,0.003 0.0028,0.005 0.0056,0.008 0.148966,0.25572 0.2676,0.74932 0.2676,1.57524 v 6.1293 c -1.92e-4,0.4108 0.21806,0.74391 0.487272,0.74354 h 1.074163 c 0.268937,-3.5e-4 0.486789,-0.33319 0.486541,-0.74354 v -6.53993 c 0,-1.38832 -0.228174,-2.54892 -0.763236,-3.31636 -0.507336,-0.72766 -1.200212,-1.07762 -1.981858,-1.07762 z m 6.508073,0 c -0.97023,0 -1.813848,0.58328 -2.364992,1.68891 -1.79e-4,3.5e-4 -3.58e-4,8.7e-4 -7.16e-4,0.001 -0.549546,1.09055 -0.79518,2.55753 -0.79518,4.32554 0,1.77954 0.238634,3.23242 0.78986,4.28378 0.0014,0.003 0.0028,0.005 0.0056,0.008 0.550332,1.01655 1.350472,1.55553 2.255508,1.55553 0.614726,0 1.166298,-0.20704 1.613152,-0.66583 0.0042,-0.005 0.0068,-0.0115 0.0124,-0.0162 v 0.10673 c 0,0.72068 -0.116857,1.17734 -0.329928,1.51956 -0.180068,0.28926 -0.542559,0.51387 -1.185136,0.51387 -0.447268,0 -0.839234,-0.0701 -1.174524,-0.20068 -0.0028,-8.6e-4 -0.0056,-0.002 -0.0068,-0.002 -0.344604,-0.12575 -0.667518,-0.29596 -0.970768,-0.51039 -0.322694,-0.22852 -0.691841,0.13108 -0.691786,0.67394 v 1.47201 c 1.79e-4,0.30362 0.121542,0.57646 0.306364,0.68902 0.356497,0.21758 0.740004,0.38489 1.148658,0.50459 0.424394,0.13691 0.90151,0.20067 1.43755,0.20067 1.147846,0 2.070548,-0.40432 2.669827,-1.36296 l 7.16e-4,-10e-4 c 0.568383,-0.89788 0.844582,-2.13366 0.844582,-3.55183 v -10.30299 c -1.24e-4,-0.41035 -0.218308,-0.74276 -0.487244,-0.74238 h -0.928201 c -0.232295,0.0176 -0.424007,0.28336 -0.457645,0.63451 -0.04864,-0.0583 -0.07014,-0.15393 -0.12168,-0.20764 -0.421017,-0.43955 -0.953474,-0.61362 -1.569069,-0.61362 z m -60.795561,2.67829 c 0.429146,0 0.638002,0.16906 0.819488,0.57187 10e-4,0.003 0.0028,0.005 0.0042,0.008 0.136012,0.29306 0.21573,0.68895 0.266828,1.13909 h -2.401468 c 0.08364,-0.47926 0.194247,-0.87761 0.351977,-1.12401 0.001,-0.002 0.0014,-0.004 0.0042,-0.006 0.25528,-0.40808 0.535544,-0.58927 0.954811,-0.58927 z m 19.743932,0.12991 c 0.465968,0 0.711892,0.18929 0.914518,0.61015 10e-4,0.003 0.0014,0.005 0.0042,0.008 0.200421,0.405 0.353493,1.2039 0.353493,2.42085 0,1.22319 -0.159563,2.03907 -0.387696,2.49162 -10e-4,0.002 -0.0014,0.005 -0.0042,0.007 -0.232391,0.4728 -0.494176,0.67163 -0.953295,0.67163 -0.453414,0 -0.700812,-0.18991 -0.914517,-0.62986 -0.208,-0.43998 -0.357296,-1.24576 -0.357296,-2.44638 v -0.14965 c 0,-1.08355 0.141868,-1.83655 0.361857,-2.30834 7.99e-4,-0.002 0.0028,-0.004 0.0028,-0.006 0.211624,-0.46258 0.475158,-0.6693 0.980662,-0.66931 z m 41.380787,0 c 0.376904,0 0.610454,0.12323 0.752612,0.29115 0.16969,0.20048 0.288972,0.46248 0.370208,0.86302 0.08764,0.4326 0.136838,0.96731 0.136838,1.6054 v 0.70875 c 0,0.54293 -0.04726,1.04721 -0.139126,1.52188 -7.16e-4,0.003 -0.001,0.007 -0.0014,0.0104 -0.07372,0.40272 -0.196562,0.68718 -0.389238,0.92798 -1.66e-4,1.7e-4 1.64e-4,0.001 0,0.001 -0.14508,0.17914 -0.39766,0.31667 -0.814942,0.31667 -0.48129,0 -0.754265,-0.20225 -0.980648,-0.64262 -0.216227,-0.44812 -0.364145,-1.21788 -0.364145,-2.35938 0,-1.17275 0.14778,-2.00061 0.379345,-2.52294 0.227871,-0.49649 0.514818,-0.7215 1.050584,-0.72151 z m -30.548683,3.96945 v 0.15891 c -0.0068,0.73379 -0.131878,1.2388 -0.365647,1.64136 -10e-4,0.002 -0.0028,0.005 -0.0042,0.007 -0.205781,0.36357 -0.496504,0.56258 -1.011833,0.56258 -0.319387,0 -0.493846,-0.1088 -0.60435,-0.25866 -0.109418,-0.14836 -0.166494,-0.31764 -0.166494,-0.71223 0,-0.47418 0.07166,-0.66232 0.31929,-0.88506 0.284343,-0.24873 0.740127,-0.43181 1.366843,-0.4779 h 7.58e-4 z"
     id="path118" />
</svg>
