<?xml version="1.0" encoding="UTF-8" standalone="no"?>
<svg
   width="96"
   height="96"
   viewBox="0 0 96 96"
   fill="none"
   version="1.1"
   id="svg8"
   xmlns="http://www.w3.org/2000/svg"
   xmlns:svg="http://www.w3.org/2000/svg">
  <defs
     id="defs8" />
  <rect
     style="clip-rule:evenodd;fill:#ffffff;fill-rule:evenodd;stroke-width:0.352434;stroke-linejoin:round;stroke-miterlimit:2"
     id="rect1"
     width="90.656151"
     height="87.25045"
     x="4.2432432"
     y="6.247303" />
  <g
     id="g17"
     transform="matrix(0.27633884,0,0,0.27633884,-13.897106,-14.993892)"
     style="clip-rule:evenodd;fill-rule:evenodd;stroke-linejoin:round;stroke-miterlimit:2">
    <path
       d="m 244.73919,210.5158 c -0.82662,-0.008 -2.21006,0.59503 -2.69951,1.23448 -0.89666,1.16965 -1.07799,2.26329 -0.76241,4.56868 0.24561,1.79361 2.41894,8.55392 3.57826,11.13019 0.935,2.07821 1.32118,3.37053 2.87302,9.6076 0.2243,0.90391 0.82566,3.17407 1.33501,5.0449 0.61375,2.25429 1.02611,4.0764 1.22488,5.40126 0.16492,1.0993 0.56293,2.98854 0.88516,4.19943 0.32222,1.21085 0.79403,3.03847 1.04951,4.05986 1.47606,5.91801 1.79875,7.19891 2.30376,9.13443 0.30592,1.17407 0.89951,3.50306 1.31753,5.17652 0.60513,2.42171 0.80268,3.05979 0.96877,3.12433 0.34237,0.13426 1.5127,0.0192 2.08887,-0.20298 0.2963,-0.11459 0.85253,-0.2246 1.23861,-0.2454 1.09342,-0.0598 2.29522,-0.41617 2.3891,-0.70877 0.048,-0.14855 -0.36345,-1.77044 -1.04309,-4.11933 -0.61565,-2.1311 -1.45102,-5.05076 -1.8556,-6.48822 -0.4047,-1.43745 -1.10371,-3.73929 -1.55357,-5.11615 -0.44976,-1.37688 -0.95226,-3.08551 -1.11655,-3.79751 -0.16492,-0.71176 -0.59839,-2.39323 -0.96501,-3.73516 -0.36633,-1.34187 -0.70197,-2.76304 -0.74609,-3.15796 -0.048,-0.39479 -0.38359,-1.79815 -0.75473,-3.1194 -0.37113,-1.32123 -0.69045,-2.64256 -0.71059,-2.93622 -0.0203,-0.29388 -0.2925,-1.42239 -0.60513,-2.50762 -0.31263,-1.08527 -0.67319,-2.56722 -0.79978,-3.29359 -0.2177,-1.24794 -0.43537,-2.25798 -1.20928,-5.64184 -0.18115,-0.79159 -0.40277,-1.93997 -0.49292,-2.55114 -0.0862,-0.61118 -0.30303,-1.65713 -0.47086,-2.32444 -0.16771,-0.66751 -0.37399,-1.99676 -0.45838,-2.95503 -0.2484,-2.82495 -0.30975,-3.12383 -1.06783,-5.14881 -1.12767,-3.01393 -1.97867,-4.09088 -3.62504,-4.58949 -0.0959,-0.0279 -0.19766,-0.0413 -0.31552,-0.0424 z m 6.71931,14.80693 c -0.0384,-0.003 -0.048,0.061 -0.0575,0.17616 -0.002,0.14992 0.1018,0.70549 0.23216,1.23548 0.13041,0.52991 0.44209,2.0478 0.69144,3.37284 0.51688,2.7431 0.89664,4.46093 1.59854,7.21487 0.26945,1.05888 0.61756,2.50971 0.77197,3.22531 0.15452,0.71571 0.5543,2.3044 0.88896,3.52921 0.33373,1.22455 0.63965,2.51626 0.678,2.87092 0.0384,0.35402 0.47663,2.0719 0.97328,3.81832 0.49676,1.74637 1.01412,3.69497 1.14857,4.33008 0.13422,0.63506 0.64539,2.37518 1.13582,3.8678 0.49004,1.4926 1.22874,3.88753 1.64083,5.32208 0.41236,1.43454 1.23582,4.28929 1.82993,6.34268 0.59456,2.05343 1.37011,4.88964 1.72529,6.30312 0.35472,1.41371 0.9639,3.64635 1.35249,4.96073 0.38855,1.31442 0.8784,3.20387 1.08894,4.19943 0.43577,2.05926 1.55429,5.22471 2.94557,8.3375 0.79529,1.77846 1.49282,3.51776 3.83618,9.56109 0.5663,1.46103 1.59333,4.0591 2.2817,5.77451 0.68847,1.71536 1.64898,4.19883 2.13387,5.51903 0.48534,1.32003 1.12694,2.94008 1.42686,3.59953 0.29947,0.65955 1.29908,3.26916 2.22017,5.79921 4.72547,12.97584 5.00557,13.62029 5.58808,12.82403 0.32953,-0.45059 0.0327,-1.56721 -4.24201,-15.92956 -3.63267,-12.20319 -5.60824,-19.11601 -5.92601,-20.73678 -0.32491,-1.65413 -13.8502,-42.61477 -15.43472,-46.74324 -0.64827,-1.68782 -2.87349,-7.8767 -4.94538,-13.7526 -4.13665,-11.7339 -5.33789,-15.00282 -5.58625,-15.02177 z m 10.80889,47.8193 c -0.14969,0.008 -0.31837,0.0319 -0.50635,0.0756 -0.38358,0.089 -1.19854,0.22898 -1.81067,0.31092 -1.53867,0.206 -2.7071,0.54346 -2.82705,0.81766 -0.12662,0.28847 0.006,0.66637 0.26561,0.7613 0.30401,0.11162 3.79222,-0.48979 4.75619,-0.81973 1.26577,-0.43323 1.16994,-1.19546 0.1218,-1.14539 z m 0.0286,1.89975 c -0.39893,0.0191 -0.86022,0.10639 -1.32954,0.2861 -0.27236,0.10455 -0.99935,0.24538 -1.616,0.3138 -1.3319,0.14746 -1.47087,0.1926 -1.69585,0.55037 v 6e-4 c -0.4958,0.79079 0.54664,1.04829 2.25323,0.55636 0.60609,-0.17399 1.33644,-0.30354 1.62337,-0.28803 0.32221,0.0164 0.81993,-0.10484 1.30191,-0.31972 1.30758,-0.58355 0.66074,-1.15443 -0.53705,-1.09985 z m 1.30199,1.85224 c -0.29439,-0.0569 -0.77867,0.0113 -1.49388,0.19095 -0.68952,0.17562 -1.36665,0.3019 -1.50485,0.2811 -0.53509,-0.0807 -2.43965,0.56383 -2.4452,0.8276 -0.0105,0.61758 0.22048,0.70776 1.26624,0.49203 2.1017,-0.43362 2.94253,-0.59409 3.51937,-0.66916 0.84197,-0.10965 0.96146,-0.17645 1.01555,-0.57218 0.0383,-0.31245 -0.0575,-0.49319 -0.3577,-0.55048 z m -0.119,1.82547 c -0.257,0.0192 -0.561,0.0651 -0.91005,0.13977 -0.66363,0.14253 -1.68254,0.33188 -2.26427,0.42071 -1.36691,0.20901 -1.56544,0.29373 -1.61971,0.68901 -0.0766,0.56599 0.43153,0.6695 1.94751,0.39694 0.75376,-0.13539 1.71091,-0.30316 2.1274,-0.37222 1.48195,-0.24593 1.6937,-0.32838 1.76113,-0.68408 0.0853,-0.44613 -0.27036,-0.64487 -1.04219,-0.59007 z m 1.02564,1.72653 c -0.16672,0.006 -0.37314,0.0342 -0.62246,0.0859 -0.52266,0.1078 -1.2063,0.21393 -1.51875,0.23552 -0.31263,0.0219 -0.80459,0.13031 -1.0945,0.24158 -0.28961,0.11162 -0.84294,0.22076 -1.22757,0.24155 -0.38552,0.0219 -0.7039,0.0383 -0.70773,0.0383 -0.006,5.4e-4 -0.048,0.10342 -0.10555,0.22761 -0.34236,0.78384 0.39701,0.99692 2.01175,0.58014 0.678,-0.17508 1.35485,-0.29982 1.50492,-0.27824 0.54662,0.0796 2.15251,-0.45535 2.25138,-0.74939 0.1492,-0.44388 0.0105,-0.64033 -0.49116,-0.62369 z m 0.56005,1.78688 c -0.12584,-0.0487 -0.8576,0.0454 -1.62703,0.20982 -0.76908,0.16415 -1.46041,0.28384 -1.53607,0.26647 -0.35578,-0.0818 -2.02931,0.472 -2.18341,0.72172 -0.30592,0.49761 0.19182,0.67039 1.29923,0.45047 0.55427,-0.11048 1.34957,-0.25606 1.76646,-0.32374 1.17377,-0.19039 2.24825,-0.3809 2.46995,-0.43652 0.2645,-0.0674 0.11495,-0.76864 -0.18903,-0.88795 z m -0.07,1.75818 c -0.21846,0.0113 -0.47297,0.0466 -0.76027,0.10511 -0.5425,0.11106 -1.5996,0.30172 -2.34874,0.42476 -1.63661,0.26754 -1.53573,0.2328 -1.69596,0.59792 -0.16493,0.37609 0.17558,0.74755 0.61855,0.67717 0.16872,-0.0273 0.77388,-0.1187 1.34418,-0.2049 1.0521,-0.15841 2.81132,-0.52008 3.38264,-0.69596 0.17685,-0.0548 0.33918,-0.23007 0.37372,-0.40385 0.0728,-0.36232 -0.25921,-0.53531 -0.91449,-0.49994 z m 1.25519,1.6661 c -0.0641,-0.009 -0.14844,-6e-4 -0.25617,0.0141 -0.21009,0.029 -0.74827,0.0952 -1.19637,0.14746 -0.44786,0.0517 -1.32071,0.22268 -1.94012,0.38016 -0.61951,0.1573 -1.26173,0.26428 -1.42688,0.23746 -0.31742,-0.0506 -0.54279,0.0192 -0.76909,0.23773 -0.23292,0.22432 0.0576,0.78932 0.4555,0.89292 0.22049,0.0559 0.95035,-0.0632 1.7886,-0.29404 0.77966,-0.21449 1.58618,-0.3864 1.79237,-0.38215 0.69249,0.0141 1.56351,-0.36749 1.66191,-0.72761 0.0959,-0.35009 0.0844,-0.48514 -0.10934,-0.50591 z m -0.20579,1.69683 c -0.18446,0.0191 -0.40922,0.0639 -0.67666,0.13765 -0.53282,0.1458 -1.39193,0.33005 -1.90978,0.40986 -1.56152,0.23967 -2.36744,0.61003 -2.22943,1.02466 0.14767,0.44367 0.31072,0.46743 1.36079,0.19504 0.48524,-0.12506 1.34613,-0.30252 1.91532,-0.393 2.00235,-0.31979 2.17171,-0.37657 2.22203,-0.74445 0.0662,-0.48627 -0.12864,-0.68428 -0.68223,-0.62956 z m 0.69871,1.75716 c -0.0203,-0.0141 -0.5374,0.0952 -1.14681,0.24266 -0.61002,0.14663 -1.46542,0.30685 -1.90252,0.35639 -1.35227,0.1524 -1.87241,0.29696 -1.98423,0.55244 -0.30687,0.7008 0.0766,0.85964 1.45631,0.60881 4.14205,-0.7519 4.68883,-1.02126 3.57725,-1.7602 z m 0.32959,1.85223 c -0.60865,0.0219 -1.69433,0.17782 -2.3331,0.35444 -0.45256,0.1245 -1.13768,0.25004 -1.52234,0.27813 -0.85253,0.0632 -0.96052,0.10229 -1.08623,0.39012 -0.25323,0.57891 0.16872,0.84413 0.89471,0.56328 0.20527,-0.0796 0.62049,-0.14253 0.92255,-0.13977 0.30209,0.002 1.06465,-0.11516 1.695,-0.26236 0.63016,-0.14744 1.34056,-0.30159 1.57835,-0.34348 0.43989,-0.0765 0.63187,-0.66369 0.26631,-0.81476 -0.0623,-0.0247 -0.21211,-0.0332 -0.41505,-0.0247 z m 0.35905,1.62947 c -0.39903,-0.006 -1.14295,0.13921 -2.58652,0.43159 -0.67388,0.13623 -1.44068,0.28691 -1.70421,0.33563 -0.30976,0.0569 -0.51497,0.17399 -0.58115,0.32869 -0.27235,0.64268 0.34237,0.88949 1.46822,0.58903 0.47699,-0.12746 1.2704,-0.27905 1.76389,-0.33759 1.38003,-0.1636 2.2317,-0.50643 2.15774,-0.86819 -0.0641,-0.31505 -0.11874,-0.47306 -0.51783,-0.47916 z m 0.65472,1.73444 c -0.11268,-0.0383 -0.29711,0.009 -0.66662,0.0982 -0.40631,0.0993 -1.17644,0.24512 -1.70962,0.32373 -1.57301,0.23061 -2.43197,0.48325 -2.54803,0.74836 -0.23876,0.5446 0.3769,0.92506 1.06791,0.66132 0.24231,-0.0929 1.00155,-0.25304 1.6867,-0.35539 0.68507,-0.10228 1.54237,-0.27676 1.90523,-0.3871 l 0.65931,-0.20106 -0.16139,-0.48605 c -0.0805,-0.24237 -0.12077,-0.36375 -0.23318,-0.4019 z m 0.0538,1.78193 c -0.34477,-0.006 -0.82675,0.0982 -1.51136,0.2921 -0.54547,0.15458 -1.10743,0.26291 -1.24873,0.24046 -0.49859,-0.0796 -1.721,0.30532 -1.77213,0.55833 -0.0286,0.12831 1.11646,3.76592 2.53792,8.08407 1.42142,4.31816 3.03365,9.40456 3.58183,11.30342 0.54864,1.89874 2.1188,6.93122 3.49003,11.18267 1.37173,4.25123 2.76872,8.64553 3.1044,9.76502 2.87701,9.6 3.01538,9.9559 3.77468,9.66207 0.55313,-0.21394 0.5443,-0.56806 -0.0728,-2.97189 -0.32876,-1.28157 -1.14592,-4.5856 -1.8171,-7.34157 -0.67071,-2.75618 -1.4254,-5.81336 -1.67662,-6.79317 -0.25094,-0.97997 -0.71166,-2.84604 -1.02378,-4.14696 -0.69612,-2.90299 -1.24664,-5.11576 -2.15314,-8.65527 -0.38272,-1.49493 -0.76872,-3.14401 -0.85846,-3.66286 -0.0891,-0.51947 -0.3367,-1.47629 -0.54912,-2.12646 -0.21162,-0.65056 -0.48593,-1.67228 -0.60876,-2.271 -0.12255,-0.59887 -0.37227,-1.73563 -0.55554,-2.52635 -0.18293,-0.79088 -0.42465,-2.00156 -0.53626,-2.69078 -0.25221,-1.55614 -0.46012,-2.74241 -0.80985,-4.62113 -0.1492,-0.80388 -0.33136,-1.81008 -0.40405,-2.23535 -0.12281,-0.71953 -0.31694,-1.03551 -0.89156,-1.04542 z"
       style="baseline-shift:baseline;display:inline;overflow:visible;vector-effect:none;fill:#000080;fill-rule:evenodd;stroke-width:1.84495;enable-background:accumulate;stop-color:#000000"
       id="path10" />
    <path
       d="m 203.93224,202.55449 c -0.76721,-0.0651 -1.09412,0.52038 -3.60396,5.07059 -1.58443,2.87296 -8.4891,15.48072 -15.34284,28.01802 -6.85395,12.53704 -14.60482,26.6815 -17.22524,31.43341 -2.62012,4.75169 -4.84314,8.82785 -4.9398,9.05722 -0.0969,0.22924 1.60129,0.7102 3.77368,1.07014 l 3.95005,0.65439 -3.44871,-0.38909 -3.44965,-0.38908 -0.95131,2.0611 c -1.16274,2.51955 -4.85551,8.94842 -9.24063,16.08694 -3.07672,5.00864 -8.38659,14.69306 -12.46716,22.73755 l -1.78677,3.52134 1.20928,0.0765 c 3.55829,0.22542 8.61308,-2.22839 11.24318,-5.4577 3.72556,-4.57492 9.2209,-15.46872 10.98889,-21.78618 1.56774,-5.60101 7.43949,-16.23106 9.21764,-16.68587 0.64348,-0.1644 6.17144,-10.88308 5.86361,-11.36877 -0.12839,-0.20243 -0.0383,-0.37748 0.18903,-0.38908 0.9983,-0.0487 30.03711,-56.42285 29.87226,-57.99122 -0.21009,-1.9925 -2.21705,-5.02632 -3.48904,-5.27257 -0.13524,-0.0247 -0.25324,-0.0475 -0.36251,-0.0569 z m -28.81367,53.33937 c 0.0576,-0.0435 1.01268,0.23581 2.11828,0.62171 l 2.00984,0.7009 -1.99248,-0.42266 c -1.78187,-0.37876 -2.4569,-0.66329 -2.13564,-0.89988 z m -5.68083,9.88481 c 0.0977,0.0506 1.33231,0.3932 2.74356,0.76028 l 2.56634,0.6672 -2.53143,-0.42372 c -1.39217,-0.23337 -2.62674,-0.57582 -2.74356,-0.76026 -0.11697,-0.18466 -0.13245,-0.29445 -0.0383,-0.24347 z m -9.71535,24.75014 c 0.0383,0.0192 0.0766,0.0621 0.10936,0.1187 h -9.5e-4 c 0.4306,0.71054 -0.0673,1.92044 -3.3449,8.19695 -1.9479,3.7243 -3.53002,7.04681 -3.51574,7.38417 0.0203,0.48337 -0.12078,0.58398 -0.66744,0.47325 -1.29357,-0.26263 -0.80075,-1.67812 3.07871,-8.84637 3.44589,-6.36703 4.05802,-7.45718 4.34111,-7.32672 z"
       style="baseline-shift:baseline;display:inline;overflow:visible;vector-effect:none;fill:#000080;fill-rule:evenodd;stroke-width:1.84495;enable-background:accumulate;stop-color:#000000"
       id="path9" />
    <path
       d="m 216.66924,211.14243 c -0.0575,-0.008 -0.11216,-0.002 -0.17558,0.0164 -0.30496,0.0964 -0.73268,0.51658 -1.3791,1.20975 -2.66523,2.85898 -2.65535,2.83845 -5.01799,11.02525 -0.76238,2.64191 -2.588,8.98547 -3.90133,13.55761 -1.45438,5.06332 -2.11752,7.06043 -5.20612,15.67807 -0.88705,2.4751 -1.72856,4.8344 -1.86944,5.24387 -0.14107,0.40955 -0.43155,1.23087 -0.64539,1.82452 -0.2139,0.59369 -0.4114,1.13948 -0.43731,1.21367 -0.0286,0.0744 -0.46701,1.31569 -0.98063,2.75806 -0.912,2.56056 -2.59588,7.4054 -3.04018,8.74833 -0.46606,1.4088 -1.78985,6.44394 -2.77836,10.56889 -0.23875,0.99361 -0.5236,2.16871 -0.63486,2.61151 -0.11112,0.44274 -0.29439,1.20359 -0.4085,1.69188 -0.20045,0.86054 -1.66442,7.02427 -1.81805,7.65439 -0.0862,0.36199 -0.56484,2.35976 -1.23582,5.1795 -1.62999,6.84822 -2.10478,8.62023 -2.74453,10.2531 -0.67607,1.72532 -2.29494,5.33356 -4.55688,10.15703 -3.12063,6.65423 -3.41994,7.40839 -3.3735,8.49392 0.11418,2.67913 1.97473,11.70565 2.6417,12.81709 0.45552,0.75903 0.32317,-0.91308 -0.49676,-6.32191 -0.74703,-4.92851 -0.85254,-6.09095 -0.61662,-6.80306 0.25604,-0.7707 1.63218,-3.74896 3.55339,-7.68708 4.9946,-10.23817 4.55356,-9.24719 7.0847,-15.90578 0.94458,-2.48428 2.19586,-5.7509 2.78122,-7.25942 1.43781,-3.70578 3.79106,-9.89175 4.8398,-12.72108 0.47182,-1.27421 0.97192,-2.61627 1.11003,-2.98277 1.13744,-3.01798 1.61434,-4.52522 14.84981,-46.86203 1.92343,-6.15204 3.82961,-12.21563 4.23565,-13.47445 1.24734,-3.86781 1.40643,-5.19685 0.98247,-8.20878 -0.23216,-1.64476 -0.38741,-2.41767 -0.76335,-2.47788 z m -9.35074,41.84291 c 0.0576,-0.35816 -0.772,2.26153 -4.5451,14.303 -1.88938,6.03042 -3.45751,11.02529 -3.48447,11.09951 -0.0286,0.0744 -0.26275,0.74178 -0.52454,1.483 -0.52267,1.4832 -1.7352,4.78743 -2.53422,6.90895 -0.28292,0.7495 -0.57348,1.52257 -0.64732,1.71861 -0.80268,2.13223 -1.80702,4.75841 -3.23752,8.47212 -3.11419,8.08341 -3.21383,8.35947 -3.59197,9.86403 -1.15087,4.57974 -1.37334,5.1687 -5.64591,14.96629 -2.07821,4.76533 -2.42363,5.68049 -2.42775,6.4348 -0.006,1.03004 0.28961,3.7159 0.62141,5.64378 0.69527,4.04245 1.34691,6.85457 1.64448,7.09508 0.28386,0.22898 0.21872,-1.16327 -0.2111,-4.53303 -0.0576,-0.4167 -0.16289,-1.30518 -0.2446,-1.974 -0.0766,-0.66887 -0.17355,-1.39664 -0.20426,-1.61759 -0.33373,-2.3789 -0.44882,-4.43915 -0.27906,-4.98153 0.25017,-0.80101 1.12191,-2.68746 2.90324,-6.2843 4.49138,-9.07012 4.42375,-8.92217 5.33929,-11.60538 1.03033,-3.0203 2.66274,-7.75893 3.90958,-11.34897 0.12839,-0.3711 0.38935,-1.1254 0.57922,-1.676 0.18979,-0.5505 0.59363,-1.72512 0.89856,-2.61057 4.88508,-14.18403 6.502,-19.06252 6.94976,-20.96251 0.13727,-0.581 0.25987,-1.08704 0.27235,-1.12364 0.0286,-0.0744 0.49867,-2.15059 1.40761,-6.18231 0.71729,-3.17971 0.61661,-2.73865 1.14404,-5.00229 0.23698,-1.0171 0.47663,-2.0485 0.53129,-2.2918 0.0576,-0.24347 0.37879,-1.59329 0.71828,-2.99961 0.33947,-1.40637 0.63484,-2.66442 0.65785,-2.79564 z m -6.69544,3.14612 c 0.15528,-0.0539 0.54281,0.14006 1.84825,0.82466 1.28255,0.6727 1.66729,0.91731 1.70421,1.08502 0.11038,0.505 -0.17077,0.43748 -1.90157,-0.45442 -1.68092,-0.86645 -1.87863,-1.01636 -1.75378,-1.32951 0.0286,-0.0632 0.048,-0.10809 0.10253,-0.12563 z m -0.5984,1.70669 c 0.17939,-0.15484 3.48407,1.57326 3.5892,1.87697 0.19182,0.55347 -0.11595,0.48338 -1.8731,-0.42671 -1.73116,-0.89665 -2.0477,-1.16467 -1.7161,-1.45028 z m -0.64732,1.68889 c 0.17355,-0.2164 3.80073,1.66709 3.78204,1.96409 -0.0286,0.49869 -0.2446,0.42102 -3.21277,-1.16815 -0.65883,-0.35279 -0.78445,-0.52794 -0.56966,-0.79594 z m -0.55716,1.67899 c 0.20806,-0.16251 3.70906,1.62151 3.7756,1.92348 0.11978,0.54262 -0.1842,0.4685 -2.03283,-0.494 -1.81278,-0.94379 -2.08224,-1.16453 -1.74277,-1.42952 z m -0.42579,1.72055 c 0.80267,0.18767 3.61174,1.60993 3.68011,1.92253 0.10936,0.49711 -0.21009,0.41729 -2.06865,-0.51485 -1.86905,-0.93777 -2.03264,-1.06376 -1.81889,-1.40573 0.0203,-0.0301 0.0959,-0.029 0.20704,-0.002 z m -0.70005,1.58098 c 0.17838,-0.0982 3.82376,1.84447 3.86181,2.05811 0.0862,0.46416 -0.22252,0.38485 -2.11453,-0.54944 -1.91761,-0.94677 -2.00285,-1.00417 -1.9153,-1.28598 0.0286,-0.0858 0.10253,-0.1863 0.16772,-0.22267 z m -0.61184,1.67995 c 0.14665,-0.0192 0.52457,0.17318 2.07237,0.95829 1.64456,0.83387 2.13134,1.18409 1.89697,1.36613 -0.0384,0.031 -0.10454,0.0796 -0.14388,0.10695 -0.0383,0.0273 -0.93022,-0.37646 -1.98058,-0.89787 -1.89504,-0.94079 -2.18723,-1.1598 -1.94741,-1.45825 0.0286,-0.0395 0.0575,-0.0692 0.10252,-0.0756 z m -0.66074,1.74239 c 0.17837,-0.15403 4.01077,1.73784 4.07125,2.0096 0.11597,0.52235 -0.21287,0.43965 -2.17791,-0.54943 -1.93323,-0.97316 -2.21007,-1.18643 -1.89334,-1.46017 z m -0.62524,1.69184 c 0.12457,-0.2205 4.07654,1.69002 4.19332,2.02744 0.0384,0.11275 0.0576,0.21174 0.0384,0.22076 -0.0203,0.0113 -0.0766,0.0733 -0.13042,0.14148 -0.119,0.14747 -4.1284,-1.85611 -4.17031,-2.08386 -0.0105,-0.0756 0.0203,-0.21255 0.0672,-0.30592 z m -0.53318,1.66908 c 0.19562,-0.0723 0.68564,0.14689 2.14033,0.86717 1.96821,0.9748 2.26769,1.19411 2.03008,1.48988 -0.15148,0.18905 -0.29731,0.13356 -2.33955,-0.89499 -1.99437,-1.00414 -2.03716,-1.03279 -1.95391,-1.3008 0.0286,-0.0818 0.0575,-0.13708 0.12281,-0.1614 z m -0.42966,1.69678 c 0.9168,0.20326 4.02524,1.74013 4.10342,2.09576 0.11696,0.5327 -0.1563,0.46309 -2.25227,-0.57219 -2.03362,-1.00417 -2.33477,-1.22256 -2.09442,-1.52156 0.0286,-0.0332 0.11216,-0.031 0.24358,-0.002 z m -0.73456,1.66216 c 0.15146,-0.16797 4.19315,1.74839 4.2925,2.03537 0.19081,0.55231 -0.18801,0.45742 -2.26524,-0.56826 -2.03504,-1.0053 -2.28303,-1.18467 -2.02726,-1.46714 z m -0.35482,1.5513 c 0.19359,-0.10668 4.00152,1.80793 4.05197,2.03731 0.12281,0.5603 -0.23395,0.47645 -2.25054,-0.52865 -2.00293,-0.99828 -2.29005,-1.23941 -1.80143,-1.5087 z m -0.46992,1.73045 c 0.12078,-0.22349 3.89281,1.59621 3.9629,1.91159 0.10835,0.48888 -0.19766,0.41133 -2.1064,-0.5306 -1.8725,-0.92394 -2.03659,-1.04652 -1.8565,-1.38099 z m -0.37783,1.57204 c 0.21492,-0.16577 3.706,1.59731 3.7738,1.9057 0.11417,0.51851 -0.15454,0.45836 -1.99248,-0.44255 -1.86073,-0.91193 -2.16846,-1.16364 -1.78132,-1.46315 z m -0.27138,1.69979 c 0.74416,0.17344 3.40314,1.48338 3.4643,1.75917 0.10734,0.48223 -0.19766,0.41159 -1.95114,-0.4534 -1.72194,-0.84919 -1.8816,-0.97109 -1.70227,-1.30378 0.0203,-0.0278 0.0862,-0.0273 0.18903,-0.002 z m -0.56581,1.57204 c 0.23877,-0.18628 3.52369,1.51909 3.5048,1.81958 -0.0286,0.42103 -0.22735,0.37451 -1.88691,-0.43664 -1.69278,-0.82746 -1.9964,-1.08711 -1.61789,-1.38297 z m -0.31072,1.5711 c 0.8372,0.34761 3.25738,1.62355 3.27522,1.7265 0.0959,0.53879 -0.1218,0.49856 -1.81065,-0.33459 -1.71466,-0.84618 -1.8075,-0.91597 -1.61608,-1.22261 0.0673,-0.10115 0.13143,-0.17782 0.15148,-0.16932 z m -0.47469,1.69679 c 0.15529,-0.0548 0.53129,0.1187 1.72071,0.7118 1.48087,0.73831 1.70239,0.93994 1.3323,1.21269 -0.14007,0.10227 -0.43728,-0.008 -1.64818,-0.61479 -1.46514,-0.73371 -1.63565,-0.86759 -1.50859,-1.18597 0.0286,-0.0622 0.048,-0.10553 0.10357,-0.12393 z m -0.47854,1.67998 c 0.11697,-0.14607 3.02311,1.24925 3.10711,1.49188 0.18041,0.52205 -0.20146,0.45587 -1.70324,-0.29407 -1.48651,-0.74226 -1.65491,-0.88556 -1.40387,-1.19786 z m -0.26083,1.62752 c 0.60608,0.1051 2.71103,1.14227 2.77203,1.4176 0.11114,0.49963 -0.22912,0.45018 -1.61416,-0.23361 -1.35609,-0.66991 -1.50972,-0.80557 -1.31572,-1.16619 0.0203,-0.0278 0.0673,-0.0332 0.15833,-0.0164 z m -0.37976,1.58493 c 0.1804,0.0372 0.53991,0.21803 1.37547,0.63453 1.18886,0.59245 1.44213,0.83801 1.1368,1.10181 -0.13423,0.11572 -2.74817,-1.1026 -2.82166,-1.31467 -0.0203,-0.061 0.0101,-0.19341 0.0766,-0.29406 0.0383,-0.0569 0.0576,-0.10044 0.1025,-0.12068 0.0286,-0.0164 0.0672,-0.0192 0.13143,-0.008 z"
       style="baseline-shift:baseline;display:inline;overflow:visible;vector-effect:none;fill:#000080;fill-rule:evenodd;stroke-width:1.84495;enable-background:accumulate;stop-color:#000000"
       id="path8" />
    <path
       d="m 227.64343,211.86115 c -0.4325,0.0911 -0.55716,0.72615 -0.55526,2.81745 6e-4,1.12066 -0.0576,3.97401 -0.1256,6.34072 -0.0671,2.36721 -0.18317,7.38864 -0.2522,11.15991 -0.0672,3.77121 -0.16214,8.73213 -0.20705,11.02327 l -0.0862,4.16576 0.29537,-6e-4 c 0.2456,-5.4e-4 0.29441,-0.0867 0.29345,-0.50591 -9.5e-4,-0.60268 0.53416,-1.36164 1.15971,-1.64435 0.62718,-0.28422 0.82663,-0.78445 0.6262,-1.56909 -0.0862,-0.34956 -0.22354,-2.45944 -0.29824,-4.68946 -0.0766,-2.23002 -0.20146,-5.61317 -0.28098,-7.51881 -0.0766,-1.90561 -0.19182,-7.10097 -0.25119,-11.54397 -0.0969,-7.22108 -0.13042,-8.07505 -0.32127,-8.03459 z m 4.52851,0.0599 c -0.24155,0.0765 -0.28481,0.88477 -0.3644,4.76469 -0.0384,1.90591 -0.12839,4.59363 -0.19944,5.97247 -0.0672,1.37883 -0.21769,5.12793 -0.32509,8.33157 -0.34334,10.24348 -0.42675,12.00886 -0.58402,12.45575 -0.2177,0.61737 -1.02124,1.64079 -1.50485,1.9156 -0.22431,0.12774 -0.5936,0.33655 -0.81993,0.46527 -0.50442,0.2865 -0.81703,0.90501 -0.81513,1.61465 5.8e-4,0.29341 -0.0766,0.67824 -0.16316,0.85539 -0.28481,0.55912 -0.51113,3.41574 -0.63099,7.99099 -0.11596,4.41147 -0.17152,5.15597 -0.66362,8.92253 -0.50537,3.85937 -0.57538,4.3607 -0.75855,5.38347 -0.10169,0.56794 -0.2484,1.52991 -0.32607,2.13833 -0.13321,1.05049 -0.23773,1.73366 -0.56962,3.76185 -0.0766,0.48678 -0.2205,1.48248 -0.31455,2.21258 -0.2944,2.28254 -0.48334,3.64287 -0.68472,4.9409 -0.10733,0.68956 -0.25323,1.6853 -0.32507,2.21259 -0.3558,2.6086 -0.87462,5.87973 -1.49756,9.44033 -0.23393,1.33864 -0.48142,2.76521 -0.54949,3.17086 -0.0672,0.40561 -0.21111,1.16944 -0.31649,1.69682 -0.10656,0.5274 -0.32028,1.622 -0.47564,2.43331 -0.15528,0.81133 -0.34523,1.74149 -0.42194,2.06605 -0.0766,0.32455 -0.22354,1.05466 -0.32512,1.62257 -0.41043,2.28179 -0.96952,4.65076 -1.79319,7.59797 -1.37268,4.91152 -3.88225,6.27563 -8.85218,4.81223 -0.72881,-0.21422 -1.50559,-0.4079 -2.94185,-0.7306 -0.49005,-0.10992 -1.06373,-0.27029 -1.27546,-0.3564 -0.62812,-0.2566 -4.0088,-0.19149 -4.81035,0.092 -6.76225,2.39072 -9.5899,11.02264 -6.18676,18.88262 2.42008,5.58783 8.67715,8.81941 13.00522,6.71591 2.91665,-1.41758 4.41409,-2.95688 5.79562,-5.95958 1.1943,-2.59478 1.7627,-4.68589 2.31017,-8.484 0.50827,-3.53194 1.21802,-5.44477 2.31931,-6.25264 l 0.67992,-0.49899 2.70038,0.0725 c 2.44609,0.0651 3.10607,-5.1e-4 2.70309,-0.26837 -0.26563,-0.1759 -0.17456,-2.35786 0.11037,-2.63626 0.77487,-0.75902 1.14032,1.63446 0.38743,2.53528 -0.55523,0.66424 0.72404,0.89377 4.26133,0.76432 0.55526,-0.0219 0.98775,-2.10717 0.58018,-2.79864 -0.12559,-0.21257 -1.08211,-0.43117 -1.94385,-0.4445 l -0.49482,-0.008 -0.0576,1.17805 c -0.048,0.86231 -0.12762,1.25773 -0.30976,1.47507 -0.58114,0.69521 -0.8132,0.10497 -0.73649,-1.86512 l 0.048,-1.15428 -0.72401,-0.0435 c -0.47661,-0.0278 -0.75186,-0.11573 -0.80172,-0.25551 -0.0383,-0.11926 -0.25415,-0.21339 -0.48139,-0.21283 -1.65532,0.003 -3.24647,-2.23297 -2.93086,-4.12126 0.048,-0.28441 0.16975,-1.04776 0.27139,-1.69679 0.35386,-2.25634 0.59074,-3.6943 0.80268,-4.86764 0.11697,-0.64901 0.48523,-2.70664 0.818,-4.57268 0.33277,-1.86599 0.70391,-3.9236 0.82473,-4.57262 0.12078,-0.64913 0.304,-1.64566 0.40756,-2.21358 0.10357,-0.56796 0.28772,-1.56355 0.40854,-2.21255 0.12077,-0.64901 0.27236,-1.59375 0.33564,-2.09974 0.0672,-0.50654 0.17253,-1.03796 0.24079,-1.18103 0.0673,-0.14253 0.16593,-0.65771 0.21491,-1.14443 0.048,-0.48666 0.17633,-1.31592 0.28194,-1.8433 0.10555,-0.52732 0.25988,-1.39024 0.34333,-1.91757 0.19663,-1.24477 0.35385,-2.1776 0.59646,-3.54108 0.10834,-0.60849 0.32607,-1.86964 0.48334,-2.8026 0.43729,-2.59562 1.46562,-8.36477 1.68312,-9.44034 0.19943,-0.98524 0.6636,-3.61935 0.81416,-4.61718 0.11596,-0.77321 1.00339,-1.71892 1.51501,-1.61464 0.5466,0.1119 0.8084,1.09946 1.78312,6.7387 0.40949,2.36967 0.62622,3.55214 0.69527,3.78462 0.0384,0.13594 0.1563,0.76543 0.25987,1.39984 0.36827,2.2618 0.51497,3.08152 0.70677,3.95393 0.10732,0.48637 0.23595,1.24889 0.28577,1.69481 0.048,0.44594 0.14589,0.92787 0.2139,1.07015 0.0672,0.1428 0.17735,0.6728 0.24154,1.17905 0.0672,0.50571 0.21974,1.3848 0.34526,1.9522 0.42001,1.90183 0.51114,2.3518 0.70294,3.46291 0.10453,0.60798 0.47661,2.56454 0.82471,4.34792 0.3481,1.78341 0.72211,3.76643 0.8324,4.40635 0.11037,0.63991 0.23114,1.27061 0.26946,1.40082 0.0383,0.12972 0.16772,0.79983 0.28963,1.48889 0.51591,2.93816 0.60416,3.40114 0.66554,3.50741 0.0384,0.0621 0.13702,0.67364 0.22633,1.36024 0.0862,0.68665 0.21008,1.31489 0.27139,1.39586 0.0575,0.0818 0.17938,0.57881 0.26276,1.10579 0.15528,0.99361 0.29345,1.61603 0.7125,3.24214 0.959,3.71114 0.74706,6.21383 -0.58018,6.90106 -0.9024,0.46683 -5.10848,1.21506 -6.88452,1.22461 -0.41237,0.002 -0.50059,1.5572 -0.14488,2.56102 0.16593,0.46799 0.21186,0.46942 2.4965,0.10228 1.98711,-0.31916 7.48161,-0.238 8.22885,0.12181 1.63986,0.78913 2.22811,1.92787 2.85652,5.53787 1.4307,8.22017 3.6638,12.91588 7.02962,14.7802 0.36345,0.20135 0.75281,0.44255 0.86597,0.53559 0.11315,0.0929 0.48236,0.23635 0.82089,0.32073 0.3385,0.0847 0.86213,0.22241 1.16334,0.30594 0.85446,0.2372 2.21724,0.16115 3.48734,-0.19504 4.02341,-1.12711 7.40993,-4.74207 8.5336,-9.10867 0.51938,-2.01797 0.57541,-5.63602 0.1129,-7.29902 -0.5117,-1.83929 -0.82106,-2.81742 -0.95396,-3.0214 -0.0796,-0.12153 -0.32894,-0.60713 -0.55459,-1.08005 -1.21448,-2.54731 -4.01625,-4.97348 -6.22987,-5.3943 -0.41426,-0.0785 -1.03043,-0.20571 -1.36903,-0.28312 -1.22098,-0.27761 -2.6019,-0.1562 -5.12721,0.45051 -0.5658,0.13567 -0.96916,0.26263 -3.2797,1.03053 -5.07591,1.688 -6.83104,0.22923 -8.21868,-6.83275 -0.0959,-0.48637 -0.37015,-1.84598 -0.61279,-3.02137 -0.50634,-2.46579 -0.84102,-4.18775 -1.3185,-6.77927 -0.18598,-1.01337 -0.4325,-2.30745 -0.5476,-2.87487 -0.11417,-0.56743 -0.30013,-1.49469 -0.41522,-2.06211 -0.11418,-0.56744 -0.24638,-1.33097 -0.29247,-1.69578 -0.048,-0.36489 -0.16697,-0.96189 -0.26853,-1.32659 -0.10075,-0.36466 -0.22634,-0.99444 -0.27812,-1.3998 -0.048,-0.40541 -0.14563,-0.8406 -0.20806,-0.96714 -0.0671,-0.1262 -0.17735,-0.65668 -0.25321,-1.17907 -0.0766,-0.52246 -0.19943,-1.24791 -0.27426,-1.61265 -0.0766,-0.36481 -0.26659,-1.45853 -0.42579,-2.43136 -0.15908,-0.97284 -0.38265,-2.33328 -0.4958,-3.02237 -0.56291,-3.42107 -1.21955,-7.82784 -1.515,-10.16991 -0.10834,-0.85126 -0.25794,-1.97961 -0.33469,-2.50662 -0.24942,-1.71314 -0.60608,-4.55732 -0.98891,-7.88604 -0.0862,-0.72967 -0.21567,-1.79159 -0.29345,-2.35908 -0.0766,-0.56754 -0.22809,-1.92682 -0.33465,-3.0214 -0.10633,-1.09459 -0.25797,-2.38846 -0.33854,-2.87485 -0.0969,-0.59131 -0.16011,-7.85503 -0.187,-21.91588 -0.0383,-20.62217 -0.048,-21.0327 -0.30303,-21.1051 -0.048,-0.0142 -0.0862,-0.0164 -0.11697,-0.006 z m -28.37753,107.00151 c 2.43199,0.0867 4.87462,1.20555 6.73033,3.40744 6.41425,7.61046 -1.05286,22.62935 -9.52248,19.15288 -2.61774,-1.07478 -4.80287,-3.141 -5.81586,-5.50125 -0.17356,-0.40509 -0.39413,-0.90223 -0.48907,-1.1048 -1.30987,-2.78129 -0.82855,-8.00517 1.04126,-11.28266 1.81986,-3.19044 4.92935,-4.78366 8.05612,-4.67161 z m 17.73304,0.10991 c 0.14969,-0.0342 0.30206,0.0569 0.43537,0.3227 0.18116,0.36199 0.0576,2.00065 -0.16974,2.29971 -0.26084,0.34018 -0.77871,0.22542 -0.87653,-0.19396 -0.25509,-1.08515 0.16291,-2.32482 0.61183,-2.42839 z m 35.01595,0.11685 c 3.74118,0.16279 7.59823,2.55537 9.20665,6.76346 2.44837,6.4069 -1.24759,14.77709 -7.17102,16.24038 -0.53318,0.13128 -2.74421,0.0982 -3.35047,-0.0506 -1.8917,-0.46569 -4.08278,-2.42065 -5.4522,-4.86271 -0.39221,-0.69957 -0.71348,-1.31925 -0.71348,-1.37702 -1.1e-4,-0.0569 -0.0862,-0.313 -0.19184,-0.56825 -1.62699,-3.93826 -1.51019,-9.32043 0.2666,-12.28551 1.65675,-2.76495 4.49629,-3.98652 7.40612,-3.85986 z"
       style="baseline-shift:baseline;display:inline;overflow:visible;vector-effect:none;fill:#000080;fill-rule:evenodd;stroke-width:1.84495;enable-background:accumulate;stop-color:#000000"
       id="path5" />
    <path
       d="m 255.55911,203.72264 c -1.65701,-0.0273 -5.16987,1.89702 -6.04072,3.30947 -0.35578,0.57724 -0.0105,1.45138 2.06307,5.26858 1.44468,2.65485 2.01586,3.7489 6.08397,11.63111 2.17881,4.2222 4.46185,9.28826 8.70164,19.30832 9.24914,21.86137 18.25982,42.01495 19.2415,43.03679 1.02348,1.06524 1.66742,1.94498 2.7298,3.72819 1.80498,3.02875 2.68951,5.15728 5.51372,13.26259 2.38134,6.83379 4.98088,13.0561 6.74408,16.14144 1.60359,2.80614 1.68382,2.87084 2.20913,1.78982 1.15937,-2.3856 1.58243,-5.43406 1.11929,-8.0692 -0.23014,-1.31066 -5.93181,-13.79727 -7.83856,-17.16798 -3.06285,-5.41262 -3.79686,-7.2487 -4.43392,-11.09158 -0.21364,-1.29061 -0.47929,-2.54471 -0.58949,-2.78679 -0.11037,-0.24238 -0.33305,-0.95082 -0.49579,-1.57503 -0.95122,-3.65406 -9.37654,-22.24555 -14.88105,-32.83715 -0.73641,-1.41711 -2.45742,-4.90437 -3.82425,-7.74948 -1.36683,-2.84511 -3.27117,-6.71627 -4.23192,-8.60182 -1.76902,-3.47186 -2.87419,-6.09488 -5.88564,-13.96842 -0.44593,-1.16453 -1.29643,-3.33761 -1.89235,-4.82907 -0.59552,-1.49167 -1.40155,-3.63435 -1.79139,-4.76171 -1.25185,-3.62084 -1.50071,-4.02163 -2.50112,-4.03808 z"
       style="baseline-shift:baseline;display:inline;overflow:visible;vector-effect:none;fill:#000080;fill-rule:evenodd;stroke-width:1.84495;enable-background:accumulate;stop-color:#000000"
       id="path3" />
    <path
       d="m 228.0255,108.3872 c -0.89761,-0.28113 -2.68411,0.77706 -6.397,2.84913 v -7.8e-4 c -6.09029,3.3985 -5.61463,4.16785 1.33404,2.15711 2.01685,-0.5839 3.92165,-1.06507 4.23286,-1.07015 0.31166,-0.003 0.38838,1.85141 0.17254,4.1252 -0.40564,4.26981 -0.7106,20.02672 -1.4847,76.68078 -0.51018,37.35275 -0.24638,36.29347 -5.13085,20.54675 -8.33738,-26.88147 -6.93975,-59.5506 3.62506,-84.75891 2.2208,-5.29925 2.1137,-5.85795 -0.70964,-3.6906 -1.98998,1.52771 -2.86515,2.79355 -1.20565,1.74434 0.45841,-0.28993 -2.61754,3.33057 -6.83494,8.04544 -24.51399,27.40504 -39.59693,55.76929 -44.62477,83.91942 -1.63796,9.17321 -1.79368,13.04741 -0.50252,12.51318 0.4862,-0.20079 2.84128,-0.59101 5.23375,-0.86717 l 4.35031,-0.50292 0.42771,3.84702 c 0.23598,2.11563 0.43059,4.73673 0.43442,5.82395 l 0.006,1.97696 h -7.31148 c -6.72819,0 -7.37072,-0.11954 -8.05524,-1.49879 -1.19364,-2.40455 -4.71112,-3.53418 -11.00452,-3.53418 h -5.74243 l 0.45839,-2.33631 c 5.65923,-28.88664 35.09825,-74.73266 64.16385,-99.92422 7.33659,-6.35861 9.97898,-9.05969 5.00042,-5.11023 -31.07294,24.64875 -59.84373,65.84195 -70.59757,101.07852 l -1.91901,6.29025 -4.16766,6e-4 c -4.00057,6.1e-4 -4.16848,0.0733 -4.16848,1.79878 v 1.79678 h 7.30965 7.30964 l 1.03581,3.77474 c 2.2137,8.06723 4.53406,13.50284 7.11409,16.66311 l 2.68382,3.28767 66.7926,-0.003 c 74.48171,-0.006 66.72128,0.52867 73.0941,-5.02803 5.26104,-4.58663 20.11395,-28.03883 17.75775,-28.03883 -0.18852,0 -4.92922,0.80213 -10.53435,1.78291 -18.90181,3.3078 -44.58459,6.10423 -72.70568,7.91676 l -7.1683,0.46134 v -1.71556 c 0,-1.66807 0.23014,-1.74115 8.16815,-2.59369 25.93464,-2.7853 74.33793,-9.0124 74.91853,-9.63837 0.1705,-0.18385 -1.87522,-1.72336 -4.54595,-3.42034 -30.39412,-19.31003 -53.97927,-46.707 -69.9254,-81.22488 -7.15603,-15.49073 -9.51207,-22.42956 -9.82372,-28.93768 -0.15731,-3.28422 -0.16595,-4.90432 -1.06323,-5.18546 z m 1.10273,12.1954 1.86118,11.86276 c 1.02345,6.52436 2.33955,16.82876 2.92443,22.89793 2.71765,28.1993 1.51048,61.07251 -2.8427,77.39557 -0.53609,2.01018 -0.87844,-16.08571 -1.68398,-88.79008 z m -19.4444,54.43923 c 0.21389,0.15154 -0.85543,1.12119 -3.15217,2.94614 -12.19098,9.68359 -22.40432,23.11998 -30.37184,39.95899 -3.8036,8.03934 -3.98131,6.09341 -0.49099,-5.38145 4.67714,-15.37669 15.50022,-28.43656 29.47287,-35.56354 2.83292,-1.44508 4.32864,-2.11162 4.5423,-1.96014 z m 39.20374,5.91012 c 0.18497,-0.10201 1.438,2.44688 3.85548,7.59203 2.50804,5.33828 6.62303,13.1029 9.14428,17.25511 4.97466,8.1919 12.41628,18.04603 16.30879,21.5971 l 2.44698,2.23137 -2.22844,-1.30973 c -10.33164,-6.07524 -21.0356,-21.57245 -26.97542,-39.05515 -1.85391,-5.4561 -2.73674,-8.20868 -2.55167,-8.31073 z m -23.25858,46.41553 v 6.75751 6.75748 l -8.16821,0.493 c -4.49235,0.27111 -9.65522,0.38527 -11.47269,0.2525 l -3.30456,-0.24156 -1.77671,-6.62089 -1.77765,-6.61991 4.74887,-0.24649 c 2.61102,-0.13511 8.5733,-0.3105 13.24948,-0.3891 z m -29.00918,1.085 c 2.28572,0.18439 2.19943,1.40765 2.78123,5.033 1.45256,9.05103 2.19116,8.26125 -7.71836,8.26125 h -8.60791 l -0.95956,-5.5725 c -1.18379,-6.87306 -1.63324,-6.42034 7.17193,-7.22676 3.736,-0.34214 5.96122,-0.6057 7.33267,-0.49496 z m 110.872,10.53024 c 1.10963,-0.0632 1.58045,0.0301 1.3442,0.28517 -0.72777,0.78468 -19.22673,4.61647 -29.27822,6.06454 -27.30638,3.93378 -62.49009,5.34694 -90.39734,3.63021 -25.2732,-1.55458 -24.56509,-1.98142 3.46155,-2.08685 40.63081,-0.15292 83.14964,-2.95725 109.69215,-7.23467 2.31954,-0.37377 4.06801,-0.59485 5.17766,-0.65831 z"
       style="baseline-shift:baseline;display:inline;overflow:visible;vector-effect:none;fill:#000080;fill-rule:evenodd;stroke-width:1.84495;enable-background:accumulate;stop-color:#000000"
       id="path2" />
  </g>
  <path
     style="clip-rule:evenodd;fill:none;fill-rule:evenodd;stroke:#000000;stroke-width:0.276339px;stroke-linecap:butt;stroke-linejoin:miter;stroke-miterlimit:2;stroke-opacity:1"
     d="m 15.943294,3.1651939 v 0"
     id="path1" />
  <path
     d="m 38.000323,7.3727289 c -0.102367,0 -0.177794,0.03153 -0.256909,0.110644 -0.0011,0.0011 -0.0025,0.0022 -0.0038,0.0032 -0.07572,0.07127 -0.106866,0.143658 -0.106866,0.253671 v 1.687718 c -1.91e-4,0.12251 -0.137622,0.194645 -0.238558,0.125216 -0.161893,-0.111651 -0.343401,-0.195419 -0.547281,-0.252052 -0.0017,-5.25e-4 -0.0032,-0.001 -0.0049,-0.0016 -0.19782,-0.06217 -0.404267,-0.09337 -0.620682,-0.09337 -0.296727,0 -0.572815,0.05674 -0.833336,0.170013 -0.2634,0.114524 -0.489692,0.267328 -0.68275,0.460384 -0.193056,0.1930571 -0.34586,0.4198861 -0.460383,0.6832921 -0.113109,0.260148 -0.170015,0.538789 -0.170015,0.841968 0,0.29673 0.05674,0.572815 0.170015,0.833336 0.114523,0.263404 0.267327,0.490234 0.460383,0.683289 0.193058,0.193056 0.41935,0.345861 0.68275,0.460386 0.260521,0.113269 0.536609,0.170012 0.833336,0.170012 0.30318,0 0.582359,-0.0569 0.84251,-0.170012 0.263406,-0.114525 0.489692,-0.26733 0.68275,-0.460386 0.193056,-0.193055 0.346399,-0.419885 0.460925,-0.683289 0.113269,-0.260521 0.169473,-0.536606 0.169473,-0.833336 V 7.7402759 c 0,-0.110013 -0.03114,-0.182403 -0.106865,-0.253671 -0.0011,-0.0011 -0.0022,-0.0022 -0.0032,-0.0032 -0.07805,-0.07806 -0.15661,-0.110643 -0.266623,-0.110643 z m 6.650484,0 c -0.10237,0 -0.178335,0.03153 -0.257448,0.110644 -0.0011,0.0011 -0.0022,0.0022 -0.0032,0.0032 -0.07572,0.07127 -0.106865,0.143658 -0.106865,0.253671 v 4.3787831 c 0,0.187372 0.03507,0.360335 0.105785,0.523532 0.07178,0.165632 0.1675,0.309879 0.287674,0.436096 0.126218,0.120175 0.270461,0.215898 0.436096,0.287675 0.163197,0.07072 0.335619,0.105785 0.522993,0.105785 h 0.182428 c 0.110008,0 0.182939,-0.03114 0.25421,-0.106866 0.0011,-0.0014 0.0022,-0.0025 0.0032,-0.0038 0.07911,-0.07911 0.110643,-0.154539 0.110643,-0.256909 0,-0.110011 -0.03259,-0.188566 -0.110643,-0.266623 -0.0011,-0.0011 -0.0022,-0.0022 -0.0032,-0.0032 -0.07127,-0.07572 -0.144202,-0.106866 -0.25421,-0.106866 h -0.182428 c -0.16155,0 -0.315183,-0.05961 -0.432318,-0.168934 -0.0014,-0.0011 -0.0025,-0.0025 -0.0038,-0.0038 -0.116341,-0.116344 -0.181347,-0.27213 -0.181347,-0.436096 V 7.7402489 c 0,-0.110013 -0.03114,-0.182403 -0.106863,-0.253671 -0.0022,-0.0023 -0.0044,-0.0046 -0.0065,-0.007 -0.07127,-0.07572 -0.1442,-0.106866 -0.25421,-0.106866 z m 2.627377,0 c -0.10237,0 -0.178338,0.03153 -0.257448,0.110644 -0.0011,0.0011 -0.0022,0.0022 -0.0032,0.0032 -0.07572,0.07127 -0.107405,0.143658 -0.107405,0.253671 v 3.6215481 c 0,0.29673 0.05674,0.572815 0.170012,0.833336 0.114526,0.263404 0.267869,0.490234 0.460925,0.683289 0.193058,0.193059 0.419349,0.345861 0.68275,0.460386 0.260521,0.113269 0.536609,0.170012 0.833336,0.170012 0.303179,0 0.582359,-0.0569 0.84251,-0.170012 0.263401,-0.114525 0.489692,-0.267327 0.68275,-0.460386 0.193056,-0.193055 0.34586,-0.419885 0.460386,-0.683289 0.113266,-0.260521 0.170012,-0.536606 0.170012,-0.833336 0,-0.303176 -0.05691,-0.58182 -0.170012,-0.841968 -0.114526,-0.263406 -0.26733,-0.490235 -0.460386,-0.6832911 -0.193058,-0.193056 -0.419349,-0.345861 -0.68275,-0.460385 -0.260151,-0.113108 -0.539331,-0.170013 -0.84251,-0.170013 -0.216412,0 -0.422859,0.0312 -0.620685,0.09337 -0.0014,3.87e-4 -0.0025,7.46e-4 -0.0038,0.0011 -0.198126,0.05661 -0.380518,0.141238 -0.549978,0.25421 -0.101278,0.06777 -0.237167,-0.005 -0.236938,-0.126835 v -1.687718 c 0,-0.110012 -0.03114,-0.182402 -0.106866,-0.25367 -0.0025,-0.0023 -0.0048,-0.0046 -0.007,-0.007 -0.07127,-0.07572 -0.143657,-0.106865 -0.253671,-0.106865 z m -22.834116,1.833444 c -0.282465,0 -0.510055,0.04358 -0.684911,0.123057 -5.53e-4,3.59e-4 -0.0011,7.18e-4 -0.0017,0.0011 -0.178452,0.07807 -0.317884,0.175665 -0.423144,0.291451 -8.29e-4,9.12e-4 -0.0014,0.0018 -0.0022,0.0027 -0.108855,0.114298 -0.191867,0.239952 -0.25151,0.3799661 V 10.005 c -0.05732,0.143399 -0.09706,0.279155 -0.119279,0.406952 -0.02324,0.13364 -0.03454,0.2475 -0.03454,0.338946 v 0.182428 2.207472 c 0,0.102367 0.03153,0.178335 0.110643,0.257448 0.07911,0.07911 0.155079,0.110644 0.257449,0.110644 0.11001,0 0.188023,-0.03259 0.266084,-0.110644 0.07911,-0.07911 0.110643,-0.155081 0.110643,-0.257448 V 12.01871 c 0,-0.137672 -0.0032,-0.271779 -0.0092,-0.403175 -5.2e-5,-0.0022 -5.2e-5,-0.0047 0,-0.007 v -0.364853 -0.264465 -0.100388 c 0,-0.0507 0.0075,-0.107184 0.01998,-0.194838 0.01418,-0.09921 0.04234,-0.197749 0.08366,-0.294152 8.29e-4,-0.0014 0.0014,-0.0029 0.0022,-0.0043 0.05229,-0.112043 0.132101,-0.209267 0.23208,-0.288752 0.117635,-0.1001841 0.272943,-0.1457261 0.443654,-0.1457261 0.175323,0 0.332795,0.04385 0.447431,0.1484241 0.09851,0.08494 0.174447,0.185437 0.220748,0.299009 0.04805,0.103934 0.0783,0.208915 0.08581,0.31412 0.0061,0.08591 0.0097,0.131078 0.0097,0.166234 v 2.261983 c 0,0.102367 0.03153,0.178335 0.110643,0.257448 0.07806,0.07806 0.156074,0.110643 0.266084,0.110643 0.10237,0 0.178336,-0.03153 0.257449,-0.110643 0.0011,-0.0011 0.0022,-0.0022 0.0032,-0.0032 0.08455,-0.07985 0.11604,-0.154048 0.11604,-0.25421 v -2.261982 c 0,-0.03516 0.0036,-0.08032 0.0097,-0.166238 0.0074,-0.102872 0.03301,-0.206657 0.07448,-0.310339 0.0011,-0.0025 0.0022,-0.0051 0.0032,-0.0075 0.05127,-0.109857 0.124681,-0.208964 0.21697,-0.294151 0.0014,-0.0011 0.0028,-0.0022 0.0043,-0.0032 0.119143,-0.1021221 0.278585,-0.1462651 0.454989,-0.1462651 0.169448,0 0.323043,0.04567 0.436096,0.1478841 0.09942,0.07961 0.176777,0.17785 0.222906,0.291452 0.04677,0.09549 0.07965,0.193804 0.09391,0.29361 0.01252,0.08765 0.01943,0.144138 0.01943,0.194841 v 2.261982 c 0,0.102367 0.03153,0.178335 0.110643,0.257449 0.07911,0.07911 0.155081,0.110643 0.257448,0.110643 0.110011,0 0.188027,-0.03259 0.266084,-0.110643 0.07911,-0.07911 0.110643,-0.155082 0.110643,-0.257449 v -2.207472 -0.182425 c 0,-0.09145 -0.01075,-0.205306 -0.034,-0.338946 -0.02189,-0.125843 -0.06359,-0.260121 -0.126295,-0.402636 -8.29e-4,-0.0021 -0.0019,-0.0043 -0.0028,-0.0065 -0.05354,-0.1392021 -0.133065,-0.2641781 -0.241796,-0.3783471 -8.29e-4,-8.84e-4 -0.0019,-0.0018 -0.0028,-0.0027 -0.104411,-0.114852 -0.245679,-0.212647 -0.43016,-0.290912 -0.0019,-6.91e-4 -0.0036,-0.0014 -0.0054,-0.0022 -0.167572,-0.07855 -0.391652,-0.122518 -0.674115,-0.122518 -0.259018,0 -0.466416,0.03831 -0.623382,0.106326 -0.168948,0.07321 -0.305166,0.160993 -0.411811,0.262306 -0.0588,0.05596 -0.151154,0.05596 -0.209951,0 -0.10573,-0.100441 -0.244463,-0.188419 -0.419366,-0.261766 -5.53e-4,-1.77e-4 -0.0011,-3.6e-4 -0.0017,-5.53e-4 -0.157536,-0.06826 -0.362145,-0.106326 -0.614747,-0.106326 z m 6.805924,0 c -0.296729,0 -0.572814,0.05674 -0.833335,0.170013 -0.263406,0.114524 -0.490236,0.267329 -0.683292,0.460385 -0.193053,0.1930561 -0.345858,0.4198851 -0.460383,0.6832911 -0.113109,0.260148 -0.170015,0.538789 -0.170015,0.841968 0,0.29673 0.05675,0.572815 0.170015,0.833336 0.114525,0.263404 0.26733,0.490234 0.460383,0.683289 0.193056,0.193056 0.419886,0.345861 0.683292,0.460386 0.260521,0.113269 0.536606,0.170012 0.833335,0.170012 0.303177,0 0.581821,-0.0569 0.841969,-0.170012 0.263406,-0.114525 0.490233,-0.26733 0.683292,-0.460386 0.193056,-0.193055 0.34586,-0.419885 0.460383,-0.683289 0.113272,-0.260521 0.170015,-0.536608 0.170015,-0.833336 0,-0.303176 -0.0569,-0.58182 -0.170015,-0.841968 -0.114523,-0.263406 -0.267327,-0.490235 -0.460383,-0.6832911 -0.193059,-0.193057 -0.419886,-0.345861 -0.683292,-0.460385 -0.260148,-0.113109 -0.538792,-0.170013 -0.841969,-0.170013 z m 10.043729,0 c -0.29673,0 -0.572814,0.05674 -0.833336,0.170013 -0.2634,0.114524 -0.489694,0.267329 -0.68275,0.460385 -0.193059,0.1930561 -0.346402,0.4198861 -0.460925,0.6832911 -0.113108,0.260148 -0.169473,0.538792 -0.169473,0.841968 0,0.296728 0.0562,0.572815 0.169473,0.833336 0.114523,0.263404 0.267866,0.490234 0.460925,0.683289 0.193056,0.193056 0.41935,0.345861 0.68275,0.460386 0.260522,0.113269 0.536606,0.170012 0.833336,0.170012 0.274219,0 0.527967,-0.04555 0.76479,-0.135469 h 5.53e-4 c 0.245938,-0.09729 0.460764,-0.227706 0.647669,-0.39184 v -5.53e-4 h 5.52e-4 c 0.08297,-0.07397 0.117558,-0.146736 0.121979,-0.248274 1.41e-4,-0.0019 2.76e-4,-0.004 5.53e-4,-0.0059 0.0092,-0.110362 -0.01733,-0.189851 -0.08366,-0.270403 -0.07242,-0.08049 -0.146463,-0.116925 -0.254752,-0.121437 -0.0022,4.7e-5 -0.0043,4.7e-5 -0.0065,0 -0.101557,-0.0088 -0.177097,0.01578 -0.260148,0.08959 -0.123874,0.11011 -0.268325,0.196162 -0.43016,0.25691 h -5.53e-4 c -0.157416,0.06129 -0.3254,0.09175 -0.500325,0.09175 -0.282015,0 -0.543067,-0.07581 -0.768567,-0.226144 -8.29e-4,-5.53e-4 -0.0019,-0.0011 -0.0028,-0.0017 -0.221204,-0.154172 -0.392514,-0.356538 -0.5068,-0.598556 -0.04736,-0.100897 0.02617,-0.216818 0.137631,-0.216967 h 2.664078 c 0.08895,0 0.16918,-0.01716 0.246654,-0.05074 0.08408,-0.03986 0.153354,-0.09229 0.212112,-0.160837 0,0 5.53e-4,-5.53e-4 5.53e-4,-5.53e-4 0.126314,-0.146523 0.171441,-0.300027 0.146266,-0.499784 -0.0399,-0.254124 -0.123874,-0.489647 -0.253671,-0.709737 -2.76e-4,-8.84e-4 -8.29e-4,-0.0018 -0.0011,-0.0027 -0.125452,-0.222393 -0.281109,-0.4114241 -0.467941,-0.5699491 -5.53e-4,-5.25e-4 -0.0011,-0.0011 -0.0017,-0.0016 -0.186493,-0.163888 -0.400783,-0.290863 -0.64605,-0.382125 -0.0014,-5.25e-4 -0.0029,-0.0011 -0.0043,-0.0016 -0.237124,-0.09598 -0.487053,-0.144107 -0.754535,-0.144107 z m 12.743971,0 c -0.29673,0 -0.572815,0.05674 -0.833336,0.170013 -0.263406,0.114524 -0.489694,0.267329 -0.68275,0.460385 -0.193056,0.1930561 -0.34586,0.4198851 -0.460386,0.6832911 -0.113109,0.260148 -0.170012,0.538789 -0.170012,0.841968 0,0.29673 0.05674,0.572815 0.170012,0.833336 0.114526,0.263404 0.26733,0.490234 0.460386,0.683289 0.193056,0.193056 0.419344,0.345861 0.68275,0.460386 0.260521,0.113269 0.536606,0.170012 0.833336,0.170012 0.303177,0 0.582362,-0.0569 0.842507,-0.170012 0.263406,-0.114525 0.489695,-0.26733 0.682753,-0.460386 0.193056,-0.193055 0.346399,-0.419885 0.460925,-0.683289 0.113269,-0.260521 0.170012,-0.536608 0.170012,-0.833336 0,-0.303176 -0.0569,-0.58182 -0.170012,-0.841968 -0.114526,-0.263406 -0.267869,-0.490235 -0.460925,-0.6832911 -0.193058,-0.193057 -0.419347,-0.345861 -0.682753,-0.460385 -0.260145,-0.113109 -0.53933,-0.170013 -0.842507,-0.170013 z m 3.330098,0 c -0.102369,0 -0.178335,0.03153 -0.257448,0.110643 -0.07806,0.07806 -0.110643,0.156072 -0.110643,0.266084 V 11.36183 c 0,0.29673 0.05674,0.572815 0.170012,0.833336 0.114526,0.263404 0.26733,0.490234 0.460386,0.683289 0.193053,0.193056 0.419885,0.345861 0.683289,0.460386 0.260521,0.113269 0.536606,0.170012 0.833336,0.170012 0.303176,0 0.58182,-0.0569 0.841968,-0.170012 0.263406,-0.114525 0.490233,-0.26733 0.683292,-0.460386 0.193056,-0.193055 0.345863,-0.419885 0.460383,-0.683289 0.113272,-0.260521 0.170015,-0.536606 0.170015,-0.833336 V 9.5828999 c 0,-0.110012 -0.03259,-0.188026 -0.110643,-0.266084 -0.07806,-0.07806 -0.156071,-0.110643 -0.266084,-0.110643 -0.10237,0 -0.178338,0.03153 -0.257448,0.110643 -0.07806,0.07806 -0.110644,0.156072 -0.110644,0.266084 V 11.36183 c 0,0.190227 -0.03772,0.375951 -0.112262,0.552139 -2.77e-4,8.29e-4 -8.29e-4,0.0014 -0.0011,0.0022 -0.07419,0.168605 -0.176171,0.318657 -0.304945,0.447431 -0.123421,0.123427 -0.271061,0.222506 -0.438796,0.296307 -0.171905,0.07564 -0.358138,0.113344 -0.553755,0.113344 -0.190226,0 -0.375954,-0.03772 -0.552139,-0.112263 -8.29e-4,-2.76e-4 -0.0014,-8.29e-4 -0.0022,-0.0011 -0.167049,-0.0735 -0.31622,-0.17132 -0.444734,-0.293072 -0.0019,-0.0019 -0.004,-0.0039 -0.0059,-0.0059 -0.121752,-0.128514 -0.219571,-0.277682 -0.293071,-0.444731 -2.77e-4,-8.29e-4 -8.29e-4,-0.0014 -0.0011,-0.0022 -0.07454,-0.176188 -0.112262,-0.361913 -0.112262,-0.552139 V 9.5829159 c 0,-0.110012 -0.03259,-0.188026 -0.110647,-0.266084 -0.0011,-0.0011 -0.0022,-0.0022 -0.0032,-0.0032 -0.07127,-0.07572 -0.14366,-0.107405 -0.25367,-0.107405 z m 5.290916,0 c -0.102367,0 -0.178335,0.03153 -0.257448,0.110643 -0.07806,0.07806 -0.110104,0.156072 -0.110104,0.266084 v 2.2080101 0.182428 c 0,0.08462 0.01069,0.195764 0.034,0.329772 0.02208,0.127008 0.06184,0.26529 0.11874,0.413969 0.05932,0.134099 0.142251,0.261361 0.252052,0.382663 l 5.52e-4,5.53e-4 c 0.105153,0.11027 0.245862,0.208345 0.424225,0.292532 0.175652,0.07435 0.404538,0.11604 0.687608,0.11604 0.253107,0 0.458446,-0.03563 0.616904,-0.09877 0.172883,-0.07269 0.31042,-0.161998 0.415589,-0.267164 0.05946,-0.05947 0.155883,-0.05947 0.215348,0 0.10596,0.105959 0.240777,0.195211 0.407492,0.267703 0.15784,0.06272 0.365986,0.09823 0.625001,0.09823 0.282808,0 0.507936,-0.04106 0.676276,-0.114421 l 5.53e-4,-5.52e-4 c 0.185802,-0.08455 0.328915,-0.18318 0.433937,-0.293071 0.110091,-0.121427 0.190649,-0.248313 0.243955,-0.381586 2.76e-4,-8.29e-4 8.29e-4,-0.0017 0.0011,-0.0028 0.0632,-0.149386 0.105434,-0.287218 0.127376,-0.413428 0.0233,-0.134008 0.034,-0.245154 0.034,-0.329772 V 11.790809 9.5827979 c 0,-0.110013 -0.03259,-0.188027 -0.110646,-0.266085 -0.07805,-0.07806 -0.156071,-0.110643 -0.266084,-0.110643 -0.102364,0 -0.178333,0.03153 -0.257449,0.110643 -0.07806,0.07806 -0.110101,0.156072 -0.110101,0.266085 v 2.2533471 c 0,0.0507 -0.0075,0.107186 -0.01998,0.194841 -0.01437,0.100601 -0.04672,0.201782 -0.09337,0.302784 -0.04661,0.114681 -0.123156,0.216747 -0.222906,0.302246 0,0 -5.53e-4,5.52e-4 -5.53e-4,5.52e-4 -0.114332,0.09674 -0.266877,0.136553 -0.436099,0.136553 -0.1764,0 -0.335845,-0.04415 -0.454986,-0.146266 -0.0014,-0.0014 -0.0025,-0.0025 -0.0038,-0.0038 -0.09228,-0.08519 -0.16624,-0.183754 -0.217506,-0.29361 -0.0017,-0.0035 -0.003,-0.0071 -0.0043,-0.01081 -0.04064,-0.108374 -0.06608,-0.213659 -0.0734,-0.316278 -0.0061,-0.08591 -0.0092,-0.131081 -0.0092,-0.166234 V 9.5827739 c 0,-0.107898 -0.03311,-0.184015 -0.116579,-0.262846 -0.0011,-10e-4 -0.0022,-0.0022 -0.0032,-0.0032 -0.07911,-0.07911 -0.155082,-0.110643 -0.257449,-0.110643 -0.110013,0 -0.188026,0.03259 -0.266084,0.110643 -0.07806,0.07806 -0.110643,0.156072 -0.110643,0.266084 v 2.2533471 c 0,0.03516 -0.003,0.08032 -0.0092,0.166237 -0.0075,0.105509 -0.0378,0.212624 -0.08528,0.321675 -0.04604,0.113835 -0.121771,0.214378 -0.220209,0.299546 -0.114733,0.105396 -0.27255,0.149505 -0.448509,0.149505 -0.169221,0 -0.322578,-0.03976 -0.440956,-0.132773 -0.0017,-0.0014 -0.0033,-0.0028 -0.0049,-0.0043 -0.09942,-0.08522 -0.17802,-0.185015 -0.230464,-0.297388 -0.0014,-0.0028 -0.0025,-0.0054 -0.0038,-0.0081 -0.0404,-0.100977 -0.06794,-0.200835 -0.08204,-0.299548 -0.01252,-0.08765 -0.01998,-0.144139 -0.01998,-0.194839 V 11.735783 11.480496 11.11564 c 1.28e-4,-0.0022 2.77e-4,-0.0047 5.53e-4,-0.007 0.0059,-0.131391 0.0086,-0.266037 0.0086,-0.403711 V 9.5828419 c 0,-0.110012 -0.03258,-0.188026 -0.110643,-0.266084 -0.07806,-0.07806 -0.156071,-0.110644 -0.266084,-0.110644 z m 7.954997,0 c -0.29673,0 -0.572817,0.05674 -0.833333,0.170013 -0.263406,0.114524 -0.489694,0.267328 -0.682753,0.460385 -0.193056,0.1930561 -0.346399,0.4198851 -0.460925,0.6832911 -0.113105,0.260148 -0.170012,0.538792 -0.170012,0.841968 0,0.296728 0.05675,0.572815 0.170012,0.833336 0.114526,0.263404 0.267869,0.490234 0.460925,0.683289 0.193059,0.193056 0.419347,0.345861 0.682753,0.460386 0.260516,0.113269 0.536603,0.170012 0.833333,0.170012 0.274407,0 0.527832,-0.04542 0.76479,-0.135469 l 5.53e-4,-5.53e-4 c 0.245828,-0.09728 0.460836,-0.227228 0.647669,-0.391301 v -5.53e-4 h 5.52e-4 c 0.08297,-0.07397 0.117555,-0.146733 0.121976,-0.248274 1.41e-4,-0.0019 2.77e-4,-0.004 5.53e-4,-0.0059 0.0092,-0.110361 -0.01733,-0.18985 -0.08366,-0.2704 -0.07242,-0.08049 -0.146462,-0.116925 -0.254748,-0.121437 -0.0022,5.2e-5 -0.0047,5.2e-5 -0.007,0 -0.101552,-0.0088 -0.176556,0.01578 -0.259607,0.08959 -0.123874,0.110113 -0.268322,0.196165 -0.43016,0.25691 h -5.53e-4 c -0.157416,0.06129 -0.325397,0.09175 -0.500325,0.09175 -0.282015,0 -0.543067,-0.07581 -0.768567,-0.226145 -8.29e-4,-5.53e-4 -0.0019,-0.0011 -0.0028,-0.0017 -0.221207,-0.154172 -0.392518,-0.356538 -0.506803,-0.598553 -0.04736,-0.100897 0.02617,-0.216821 0.13763,-0.21697 h 2.663581 c 0.08895,0 0.169719,-0.01716 0.247193,-0.05073 0.08408,-0.03986 0.153357,-0.09229 0.212112,-0.160838 0,0 5.53e-4,-5.52e-4 5.53e-4,-5.52e-4 0.126591,-0.146858 0.171827,-0.300439 0.146266,-0.500864 -0.03996,-0.253732 -0.124048,-0.488866 -0.253671,-0.708658 -2.76e-4,-8.85e-4 -8.29e-4,-0.0018 -0.0011,-0.0027 -0.125449,-0.222393 -0.281108,-0.4114251 -0.467941,-0.5699491 -8.29e-4,-5.25e-4 -0.0014,-0.0011 -0.0022,-0.0016 -0.186493,-0.163888 -0.400241,-0.290862 -0.645511,-0.382125 -0.0014,-5.25e-4 -0.0029,-0.0011 -0.0043,-0.0016 -0.237123,-0.09598 -0.487052,-0.144106 -0.754535,-0.144107 z m 4.342082,0.04588 c -0.180704,0 -0.353847,0.03526 -0.524613,0.106866 -8.29e-4,1.88e-4 -0.0019,3.59e-4 -0.0028,5.52e-4 -0.163764,0.06551 -0.306484,0.159678 -0.432318,0.285515 -0.125555,0.125554 -0.223404,0.272223 -0.29523,0.4431131 -0.06541,0.164094 -0.09823,0.335399 -0.09823,0.517056 v 2.535625 c 0,0.102367 0.03153,0.178335 0.110644,0.257448 0.07911,0.07911 0.155081,0.110643 0.257448,0.110643 0.110011,0 0.1824,-0.03168 0.253671,-0.107404 0.0011,-0.0011 0.0022,-0.0022 0.0032,-0.0032 0.07911,-0.07911 0.110643,-0.155081 0.110643,-0.257448 v -2.535624 c 0,-0.155618 0.06502,-0.305133 0.17487,-0.429621 0.0042,-0.0046 0.0087,-0.0089 0.01349,-0.01295 0.124488,-0.109844 0.273463,-0.1754111 0.42908,-0.1754111 h 0.675195 c 0.10368,0 0.180778,-0.03063 0.258529,-0.103087 0.07665,-0.07741 0.109024,-0.15537 0.109024,-0.264465 0,-0.110013 -0.03114,-0.182942 -0.106866,-0.25421 -0.0011,-0.0011 -0.0022,-0.0022 -0.0032,-0.0032 -0.07911,-0.07911 -0.155078,-0.110104 -0.257448,-0.110104 z m -43.705793,0.698943 c 0.195618,0 0.381851,0.0377 0.553756,0.1133421 0.167972,0.07391 0.31525,0.17647 0.438257,0.305484 0.129014,0.123007 0.231577,0.270287 0.305484,0.438257 0.07564,0.171905 0.11334,0.358138 0.11334,0.553755 0,0.190224 -0.03772,0.375951 -0.112262,0.552139 -2.77e-4,8.29e-4 -8.29e-4,0.0014 -0.0011,0.0022 -0.07419,0.168605 -0.17671,0.318657 -0.305484,0.447431 -0.123424,0.123427 -0.270522,0.222506 -0.438257,0.296307 -0.171905,0.07564 -0.358138,0.113344 -0.553755,0.113344 -0.190226,0 -0.375954,-0.03772 -0.552139,-0.112263 -8.29e-4,-2.76e-4 -0.0014,-8.29e-4 -0.0022,-0.0011 -0.167049,-0.0735 -0.31622,-0.17132 -0.444734,-0.293072 -0.0019,-0.0019 -0.004,-0.0039 -0.0059,-0.0059 -0.121752,-0.128514 -0.219568,-0.277685 -0.293071,-0.444731 -2.77e-4,-8.29e-4 -8.29e-4,-0.0014 -0.0011,-0.0022 -0.07454,-0.176185 -0.112262,-0.361916 -0.112262,-0.552139 0,-0.195617 0.03771,-0.38185 0.113343,-0.553755 0.0738,-0.167732 0.172883,-0.315372 0.29631,-0.438797 0.128768,-0.128773 0.278826,-0.230757 0.447431,-0.304944 8.29e-4,-3.59e-4 0.0014,-7.18e-4 0.0022,-0.0011 0.176185,-0.07454 0.361912,-0.1122621 0.552138,-0.1122621 z m 4.9714,0 c 0.19562,0 0.382392,0.0377 0.554297,0.1133421 0.16797,0.07391 0.315247,0.176471 0.438257,0.305484 0.129011,0.123007 0.231577,0.270287 0.305484,0.438257 0.07564,0.171905 0.11334,0.358135 0.11334,0.553755 0,0.190227 -0.03772,0.375951 -0.112262,0.552139 -2.77e-4,8.29e-4 -8.29e-4,0.0014 -0.0011,0.0022 -0.07419,0.168605 -0.176713,0.318657 -0.305484,0.447431 -0.123427,0.123427 -0.270522,0.222506 -0.438257,0.296307 -0.171905,0.07564 -0.358677,0.113344 -0.554297,0.113344 -0.190223,0 -0.375414,-0.03772 -0.551597,-0.112263 -8.29e-4,-2.76e-4 -0.0014,-8.29e-4 -0.0022,-0.0011 -0.167049,-0.0735 -0.316217,-0.17132 -0.444731,-0.293072 -0.0019,-0.0019 -0.004,-0.0039 -0.0059,-0.0059 -0.121746,-0.128514 -0.220106,-0.277685 -0.29361,-0.444731 -1.85e-4,-8.29e-4 -2.76e-4,-0.0014 -5.52e-4,-0.0022 -0.07454,-0.176185 -0.112263,-0.361916 -0.112263,-0.552139 0,-0.195617 0.03717,-0.38185 0.112802,-0.553755 0.0738,-0.167732 0.172883,-0.315372 0.29631,-0.438797 0.128773,-0.128773 0.279364,-0.230757 0.44797,-0.304944 8.29e-4,-3.59e-4 0.0014,-7.18e-4 0.0022,-0.0011 0.176183,-0.07454 0.361374,-0.1122621 0.551598,-0.1122621 z m 5.072329,0 c 0.282206,0 0.543559,0.07977 0.768567,0.2358601 0.227894,0.147959 0.404,0.347614 0.518675,0.590458 0.04736,0.100897 -0.02617,0.216819 -0.137631,0.216968 h -2.290048 c -0.111464,-1.49e-4 -0.184995,-0.116071 -0.13763,-0.216968 0.114294,-0.242034 0.286502,-0.441643 0.508419,-0.589918 0.225236,-0.156545 0.487025,-0.2364001 0.769648,-0.2364001 z m 7.763394,0 c 0.195621,0 0.381854,0.0377 0.553756,0.1133421 0.167972,0.07391 0.31525,0.176471 0.438256,0.305484 0.129015,0.123007 0.231578,0.270287 0.305485,0.438257 0.07564,0.171905 0.113343,0.358135 0.113343,0.553755 0,0.190227 -0.03772,0.375951 -0.112263,0.552139 -2.76e-4,8.29e-4 -8.29e-4,0.0014 -0.0011,0.0022 -0.07419,0.168605 -0.176174,0.318657 -0.304943,0.447431 -0.123426,0.123427 -0.271061,0.222506 -0.438798,0.296307 -0.171902,0.07564 -0.358135,0.113344 -0.553756,0.113344 -0.190226,0 -0.375953,-0.03772 -0.552138,-0.112263 -8.29e-4,-2.76e-4 -0.0014,-8.29e-4 -0.0022,-0.0011 -0.16705,-0.0735 -0.31622,-0.17132 -0.444734,-0.293072 -0.0019,-0.0019 -0.0036,-0.0039 -0.0054,-0.0059 -0.121749,-0.128514 -0.220107,-0.277685 -0.29361,-0.444731 -2.76e-4,-8.29e-4 -8.29e-4,-0.0014 -0.0011,-0.0022 -0.07454,-0.176185 -0.112263,-0.361916 -0.112263,-0.552139 0,-0.195617 0.0377,-0.38185 0.11334,-0.553755 0.07381,-0.167732 0.172884,-0.315372 0.29631,-0.438797 0.128774,-0.128773 0.278823,-0.230757 0.447432,-0.304944 8.29e-4,-3.59e-4 0.0014,-7.18e-4 0.0022,-0.0011 0.176186,-0.07454 0.361913,-0.1122621 0.552139,-0.1122621 z m 4.980577,0 c 0.195617,0 0.382389,0.0377 0.554297,0.1133421 0.167967,0.07391 0.315247,0.17647 0.438254,0.305484 0.129017,0.123007 0.231577,0.270287 0.305484,0.438257 0.07564,0.171905 0.113343,0.358138 0.113343,0.553755 0,0.190224 -0.03772,0.375951 -0.112262,0.552139 -2.77e-4,8.29e-4 -8.29e-4,0.0014 -0.0011,0.0022 -0.07419,0.168605 -0.176707,0.318657 -0.305484,0.447431 -0.123424,0.123427 -0.270522,0.222506 -0.438254,0.296307 -0.171908,0.07564 -0.35868,0.113344 -0.554297,0.113344 -0.190226,0 -0.375412,-0.03772 -0.5516,-0.112263 -8.29e-4,-2.76e-4 -0.0014,-8.29e-4 -0.0022,-0.0011 -0.167049,-0.0735 -0.31622,-0.17132 -0.444734,-0.293072 -0.0019,-0.0019 -0.004,-0.0039 -0.0059,-0.0059 -0.12175,-0.128514 -0.219568,-0.277685 -0.293071,-0.444731 -2.77e-4,-8.29e-4 -8.29e-4,-0.0014 -0.0011,-0.0022 -0.07454,-0.176185 -0.112262,-0.361916 -0.112262,-0.552139 0,-0.195617 0.0377,-0.38185 0.11334,-0.553755 0.07381,-0.167732 0.172344,-0.315372 0.295771,-0.438797 0.128771,-0.128773 0.279365,-0.230757 0.44797,-0.304944 8.29e-4,-3.59e-4 0.0014,-7.18e-4 0.0022,-0.0011 0.176188,-0.07454 0.361374,-0.1122621 0.5516,-0.1122621 z m 16.576011,0 c 0.282206,0 0.543561,0.07977 0.768567,0.2358601 0.227894,0.147959 0.403461,0.347614 0.518136,0.590458 0.04736,0.100897 -0.02617,0.216819 -0.137631,0.216968 h -2.289509 c -0.111461,-1.49e-4 -0.184995,-0.116071 -0.13763,-0.216968 0.114296,-0.242034 0.286505,-0.441643 0.508419,-0.589918 0.225233,-0.156546 0.487023,-0.2364001 0.769648,-0.2364001 z"
     style="-inkscape-font-specification:'Boldena, Normal';clip-rule:nonzero;fill:#000080;fill-rule:nonzero;stroke-width:0.276339;stroke-linejoin:miter;stroke-miterlimit:2"
     id="path17" />
  <path
     d="m 23.819551,82.404122 c -0.102367,0 -0.178336,0.03153 -0.257449,0.110643 -0.0011,0.0011 -0.0022,0.0022 -0.0032,0.0032 -0.07572,0.07126 -0.107404,0.144196 -0.107404,0.25421 v 1.687717 c -1.91e-4,0.122509 -0.137623,0.194645 -0.238558,0.125217 -0.161893,-0.111652 -0.343401,-0.19596 -0.547281,-0.252593 -0.0017,-2.76e-4 -0.0032,-5.52e-4 -0.0049,-0.0011 -0.197825,-0.06218 -0.403731,-0.09337 -0.620143,-0.09337 -0.29673,0 -0.572817,0.0562 -0.833333,0.169473 -0.263406,0.114523 -0.490233,0.267869 -0.683292,0.460925 -0.193055,0.193056 -0.34586,0.419344 -0.460386,0.682751 -0.113108,0.260151 -0.170012,0.53933 -0.170012,0.84251 0,0.296727 0.05674,0.572817 0.170012,0.833333 0.114526,0.263409 0.267331,0.489697 0.460386,0.682753 0.193059,0.193053 0.419886,0.345857 0.683292,0.460383 0.260516,0.113269 0.536603,0.170015 0.833333,0.170015 0.303177,0 0.581821,-0.05691 0.841972,-0.170015 0.2634,-0.114526 0.49023,-0.26733 0.683289,-0.460383 0.193056,-0.193056 0.34586,-0.419344 0.460386,-0.682753 0.113268,-0.260516 0.170012,-0.536606 0.170012,-0.833333 v -3.62155 c 0,-0.110014 -0.03168,-0.182945 -0.107405,-0.25421 -0.0011,-0.0011 -0.0022,-0.0022 -0.0032,-0.0032 -0.07805,-0.07806 -0.156071,-0.110643 -0.266084,-0.110643 z m 6.649942,0 c -0.102367,0 -0.177794,0.03153 -0.256907,0.110643 -0.0011,0.0011 -0.0022,0.0022 -0.0032,0.0032 -0.07572,0.07126 -0.107405,0.144196 -0.107405,0.25421 v 5.400481 c 0,0.102367 0.03153,0.177794 0.110644,0.25691 0.07911,0.07911 0.154539,0.110643 0.256906,0.110643 0.110014,0 0.182942,-0.03169 0.254213,-0.107407 0.0011,-0.0011 0.0022,-0.0022 0.0032,-0.0032 0.07911,-0.07912 0.110643,-0.154543 0.110643,-0.25691 v -0.766412 c -3.3e-5,-0.04157 0.01694,-0.08135 0.04696,-0.110104 l 0.620143,-0.593156 c 0.06073,-0.05779 0.156754,-0.05562 0.21481,0.0049 l 1.658572,1.721721 c 0.07912,0.07911 0.154542,0.110643 0.256909,0.110643 0.0022,-4.7e-5 0.0043,-4.7e-5 0.0065,0 0.108613,0.0045 0.183144,-0.02446 0.260149,-0.101469 0.07911,-0.07911 0.110643,-0.154542 0.110643,-0.256909 -4.7e-5,-0.0022 -4.7e-5,-0.0043 0,-0.0065 0.0045,-0.10861 -0.02446,-0.183144 -0.101469,-0.260146 -8.29e-4,-8.29e-4 -0.0014,-0.0014 -0.0022,-0.0022 L 32.25754,86.198348 c -0.05866,-0.06072 -0.05672,-0.157569 0.0043,-0.21589 l 1.286164,-1.23165 c 2.77e-4,-1.83e-4 8.29e-4,-2.77e-4 0.0011,-5.53e-4 0.07796,-0.07337 0.112049,-0.147507 0.116581,-0.25151 0.0045,-0.108612 -0.02501,-0.183146 -0.102007,-0.260148 -0.07911,-0.07912 -0.160962,-0.114636 -0.272562,-0.119279 -0.100847,-0.0044 -0.172913,0.02341 -0.250971,0.101469 -8.29e-4,8.29e-4 -0.0017,0.0014 -0.0028,0.0022 l -1.943007,1.852332 c -0.09708,0.09185 -0.256937,0.02299 -0.25691,-0.110643 v -3.192468 c 0,-0.110016 -0.03168,-0.182944 -0.107404,-0.254209 -0.0022,-0.0022 -0.0044,-0.0043 -0.0065,-0.0065 -0.07127,-0.07572 -0.144199,-0.107405 -0.254212,-0.107405 z m 4.67995,0 c -0.102367,0 -0.178335,0.03153 -0.257448,0.110643 -0.0011,0.0011 -0.0022,0.0022 -0.0032,0.0032 -0.07572,0.07126 -0.106866,0.144196 -0.106866,0.25421 v 3.62155 c 0,0.296727 0.0562,0.572817 0.169473,0.833333 0.114523,0.263409 0.267869,0.489697 0.460925,0.682753 0.193056,0.193053 0.419347,0.345857 0.682753,0.460383 0.260516,0.113269 0.536603,0.170015 0.833333,0.170015 0.303179,0 0.582359,-0.05691 0.84251,-0.170015 0.263406,-0.114526 0.489694,-0.26733 0.68275,-0.460383 0.193059,-0.193056 0.346402,-0.419344 0.460925,-0.682753 0.113269,-0.260516 0.169473,-0.536606 0.169473,-0.833333 0,-0.30318 -0.05636,-0.582359 -0.169473,-0.84251 -0.114523,-0.263406 -0.267866,-0.489695 -0.460925,-0.682751 -0.193056,-0.193055 -0.419344,-0.346401 -0.68275,-0.460924 -0.260151,-0.113112 -0.539331,-0.169474 -0.84251,-0.169474 -0.216415,0 -0.422321,0.0312 -0.620143,0.09337 -0.0014,2.77e-4 -0.0025,8.29e-4 -0.0038,0.0011 -0.19813,0.05661 -0.38106,0.140701 -0.55052,0.253671 -0.101076,0.06763 -0.236734,-0.0047 -0.236938,-0.126295 V 82.77224 c 0,-0.110016 -0.03115,-0.182945 -0.106866,-0.25421 -0.0022,-0.0022 -0.0044,-0.0043 -0.0065,-0.0065 -0.07127,-0.07572 -0.144196,-0.107404 -0.25421,-0.107404 z m 15.234798,0 c -0.102367,0 -0.178335,0.03153 -0.257448,0.110643 -0.0011,0.0011 -0.0022,0.0022 -0.0032,0.0032 -0.07572,0.07126 -0.106865,0.144196 -0.106865,0.25421 v 4.378782 c 0,0.187374 0.03507,0.359799 0.105785,0.522993 0.07178,0.165635 0.1675,0.309878 0.287674,0.436099 0.126221,0.120171 0.270467,0.215898 0.436096,0.287671 0.1632,0.07072 0.335622,0.105786 0.522993,0.105786 h 0.182428 c 0.110013,0 0.182942,-0.03114 0.25421,-0.106866 0.0011,-0.0011 0.0022,-0.0022 0.0032,-0.0032 0.07911,-0.07912 0.110643,-0.155084 0.110643,-0.257449 0,-0.110013 -0.03259,-0.188026 -0.110643,-0.266086 -0.0011,-0.0011 -0.0022,-0.0025 -0.0032,-0.0038 -0.07127,-0.07572 -0.144199,-0.106866 -0.25421,-0.106866 h -0.182428 c -0.161547,0 -0.315183,-0.05961 -0.432318,-0.168931 -0.0014,-0.0011 -0.0025,-0.0022 -0.0038,-0.0032 -0.116347,-0.116347 -0.181347,-0.272133 -0.181347,-0.436099 V 82.77221 c 0,-0.110014 -0.03114,-0.182945 -0.106866,-0.25421 -0.0022,-0.0022 -0.0044,-0.0043 -0.0065,-0.0065 -0.07127,-0.07572 -0.144197,-0.107405 -0.25421,-0.107405 z m 12.844359,0 c -0.102367,0 -0.177796,0.03153 -0.25691,0.110643 -0.0011,0.0011 -0.0022,0.0022 -0.0032,0.0032 -0.07572,0.07126 -0.107404,0.144194 -0.107404,0.25421 v 5.400481 c 0,0.102367 0.03153,0.177794 0.110643,0.25691 0.07911,0.07911 0.15454,0.110643 0.256909,0.110643 0.110014,0 0.182942,-0.03169 0.25421,-0.107407 0.0011,-0.0011 0.0022,-0.0022 0.0032,-0.0032 0.07911,-0.07912 0.110644,-0.154543 0.110644,-0.25691 v -0.766412 c -3.6e-5,-0.04157 0.01694,-0.08135 0.04696,-0.110104 l 0.620143,-0.593156 c 0.06073,-0.05779 0.156753,-0.05562 0.214812,0.0049 l 1.658572,1.721721 c 0.07911,0.07911 0.15454,0.110643 0.25691,0.110643 0.0022,-4.7e-5 0.0043,-4.7e-5 0.0065,0 0.108612,0.0045 0.183146,-0.02446 0.260148,-0.101469 0.07911,-0.07911 0.110643,-0.15454 0.110643,-0.256909 -4.4e-5,-0.0022 -4.4e-5,-0.0043 0,-0.0065 0.0045,-0.10861 -0.02446,-0.183144 -0.101469,-0.260146 -8.29e-4,-8.29e-4 -0.0014,-0.0014 -0.0022,-0.0022 l -1.651026,-1.714695 c -0.05866,-0.06072 -0.05672,-0.157569 0.0043,-0.21589 l 1.286161,-1.23165 c 2.76e-4,-1.83e-4 8.29e-4,-2.77e-4 0.0011,-5.53e-4 0.07796,-0.07337 0.112078,-0.147507 0.116579,-0.25151 0.0045,-0.108612 -0.02501,-0.183146 -0.102008,-0.260148 -0.07911,-0.07911 -0.160959,-0.114636 -0.272558,-0.119279 -0.10085,-0.0044 -0.172916,0.02341 -0.250974,0.101469 -8.29e-4,8.29e-4 -0.0014,0.0014 -0.0022,0.0022 l -1.943547,1.852332 c -0.09708,0.09185 -0.25694,0.02299 -0.256909,-0.110643 v -3.192468 c 0,-0.110013 -0.03168,-0.182944 -0.107405,-0.254209 -0.0022,-0.0022 -0.0044,-0.0043 -0.0065,-0.0065 -0.07127,-0.07572 -0.144196,-0.107405 -0.25421,-0.107405 z m 4.899076,0 c -0.159718,0 -0.277124,0.04828 -0.384821,0.155979 -8.29e-4,8.29e-4 -0.0017,0.0019 -0.0028,0.0028 -0.105857,0.101043 -0.153822,0.213765 -0.153822,0.373489 0,0.159726 0.04882,0.277126 0.156522,0.384824 0.107697,0.107697 0.225102,0.155979 0.384821,0.155979 0.152517,0 0.267134,-0.04747 0.375649,-0.155979 0.107698,-0.107698 0.15598,-0.225098 0.15598,-0.384824 0,-0.159724 -0.04743,-0.272446 -0.153283,-0.373489 -8.29e-4,-8.29e-4 -0.0019,-0.0017 -0.0028,-0.0028 -0.108515,-0.108515 -0.223132,-0.155979 -0.375649,-0.155979 z M 78.655,84.119365 c -0.104577,0 -0.17676,0.02995 -0.248274,0.101469 -0.0011,0.0011 -0.0022,0.0022 -0.0032,0.0032 -0.0713,0.06684 -0.107214,0.141002 -0.116582,0.248816 -0.01011,0.114755 -0.139056,0.177161 -0.235322,0.113882 -0.163476,-0.107106 -0.347316,-0.192213 -0.553755,-0.25529 -5.53e-4,3e-6 -0.0011,3e-6 -0.0017,0 -0.197826,-0.06218 -0.403731,-0.09337 -0.620143,-0.09337 -0.29673,0 -0.572815,0.0562 -0.833336,0.169473 -0.263404,0.114523 -0.48969,0.267869 -0.682748,0.460925 -0.193056,0.193055 -0.346402,0.419344 -0.460925,0.68275 -0.113108,0.260151 -0.169473,0.53933 -0.169473,0.84251 0,0.296727 0.0562,0.572817 0.169473,0.833333 0.114523,0.263409 0.267869,0.489697 0.460925,0.682753 0.193058,0.193053 0.419344,0.345858 0.68275,0.460383 0.260521,0.113269 0.536606,0.170015 0.833336,0.170015 0.216984,0 0.423533,-0.02832 0.621762,-0.08474 l 5.53e-4,-5.53e-4 c 0.204911,-0.06269 0.387305,-0.149574 0.549978,-0.261765 0.101024,-0.07013 0.23921,0.0022 0.239099,0.125215 v 0.0367 c 0,0.189864 -0.03829,0.37256 -0.113343,0.543503 -0.07353,0.173551 -0.175928,0.323695 -0.305484,0.447431 -0.123151,0.129379 -0.270489,0.23305 -0.438796,0.307104 -0.171905,0.07564 -0.358138,0.112801 -0.553755,0.112801 -0.216819,0 -0.424247,-0.04805 -0.615288,-0.143566 -0.187792,-0.0939 -0.348914,-0.220231 -0.478193,-0.376727 -8.29e-4,-8.29e-4 -0.0014,-0.0017 -0.0022,-0.0028 -0.06836,-0.08659 -0.140002,-0.125326 -0.248813,-0.13439 0,0 -5.53e-4,0 -5.53e-4,0 -0.105724,-0.0092 -0.184895,0.01484 -0.266623,0.07826 -0.08726,0.06902 -0.127856,0.141754 -0.141949,0.242336 -0.0083,0.109209 0.01647,0.193876 0.08528,0.281197 v 5.52e-4 c 0.199025,0.244019 0.438304,0.435671 0.722689,0.578046 l 0.0011,5.53e-4 c 0.288686,0.141316 0.601176,0.212112 0.944518,0.212112 0.303177,0 0.582359,-0.0569 0.84251,-0.170012 0.263404,-0.114527 0.489696,-0.267331 0.682751,-0.460389 0.193056,-0.193056 0.346399,-0.419345 0.460925,-0.682751 0.113269,-0.260521 0.169473,-0.536603 0.169473,-0.833335 v -3.868203 c 0,-0.102369 -0.03099,-0.177796 -0.110104,-0.256909 -0.07806,-0.07806 -0.156612,-0.110643 -0.266623,-0.110643 z m -51.54259,0.11874 c -0.29673,0 -0.572815,0.0562 -0.833336,0.169473 -0.263406,0.114523 -0.489694,0.267869 -0.68275,0.460925 -0.193059,0.193056 -0.345863,0.419344 -0.460386,0.682751 -0.113109,0.26015 -0.170012,0.53933 -0.170012,0.84251 0,0.296727 0.05674,0.572817 0.170012,0.833333 0.114523,0.263409 0.267327,0.489697 0.460386,0.682753 0.193056,0.193053 0.419344,0.345857 0.68275,0.460383 0.260521,0.113269 0.536606,0.170015 0.833336,0.170015 0.274404,0 0.528368,-0.04543 0.765328,-0.135473 l 5.53e-4,-5.52e-4 c 0.245828,-0.09728 0.460834,-0.227228 0.647669,-0.391302 v -5.52e-4 h 5.53e-4 c 0.08297,-0.07397 0.117018,-0.1462 0.12144,-0.247733 1.41e-4,-0.0019 2.76e-4,-0.0039 5.52e-4,-0.0059 0.0092,-0.110361 -0.01677,-0.18985 -0.08312,-0.2704 -0.07242,-0.08049 -0.146462,-0.116935 -0.254751,-0.12144 -0.0022,-1.24e-4 -0.0047,-2.76e-4 -0.007,-5.52e-4 -0.101554,-0.0088 -0.176556,0.01578 -0.259606,0.0896 -0.123875,0.11011 -0.268864,0.196161 -0.430699,0.256909 h -5.53e-4 c -0.157414,0.06129 -0.325397,0.09175 -0.500323,0.09175 -0.282014,0 -0.543069,-0.07581 -0.768567,-0.226145 -8.29e-4,-5.52e-4 -0.0019,-0.0011 -0.0028,-0.0017 -0.221204,-0.154172 -0.392515,-0.356001 -0.5068,-0.598013 -0.04792,-0.101046 0.02581,-0.217548 0.137627,-0.217509 h 2.664081 c 0.08895,0 0.169722,-0.01716 0.247193,-0.05074 0.08376,-0.03982 0.15352,-0.09248 0.212113,-0.160838 0.126449,-0.146667 0.171603,-0.300272 0.146263,-0.500325 -0.0399,-0.254121 -0.123333,-0.489648 -0.253129,-0.709738 -5.53e-4,-8.29e-4 -0.0011,-0.0014 -0.0017,-0.0022 -0.125453,-0.222395 -0.28057,-0.411424 -0.467403,-0.569949 -8.29e-4,-8.29e-4 -0.0014,-0.0014 -0.0022,-0.0022 -0.186493,-0.163888 -0.400783,-0.290863 -0.64605,-0.382124 -0.0014,-5.52e-4 -0.0025,-0.0011 -0.0038,-0.0017 -0.237123,-0.09598 -0.487594,-0.143566 -0.755074,-0.143566 z m 14.79708,0 c -0.296728,0 -0.572815,0.0562 -0.833333,0.169473 -0.263406,0.114523 -0.489698,0.267869 -0.682753,0.460925 -0.193056,0.193056 -0.346399,0.419344 -0.460925,0.682751 -0.113103,0.26015 -0.170012,0.53933 -0.170012,0.84251 0,0.296727 0.05675,0.572817 0.170012,0.833333 0.114526,0.263409 0.267869,0.489697 0.460925,0.682753 0.193055,0.193053 0.419347,0.345857 0.682753,0.460383 0.260518,0.113269 0.536605,0.170015 0.833333,0.170015 0.27441,0 0.527832,-0.04543 0.764789,-0.135473 l 5.53e-4,-5.52e-4 c 0.245828,-0.09728 0.460837,-0.227228 0.647669,-0.391302 v -5.52e-4 h 5.53e-4 c 0.08297,-0.07397 0.117555,-0.1462 0.121976,-0.247733 -3.9e-5,-0.0019 -3.9e-5,-0.0039 0,-0.0059 0.0092,-0.110361 -0.01677,-0.18985 -0.08312,-0.2704 -0.07242,-0.08049 -0.146465,-0.116935 -0.254749,-0.12144 -0.0022,-1.24e-4 -0.0047,-2.76e-4 -0.007,-5.52e-4 -0.101552,-0.0088 -0.176555,0.01578 -0.259606,0.0896 -0.123875,0.11011 -0.268325,0.196161 -0.43016,0.256909 h -5.53e-4 c -0.157416,0.06129 -0.325397,0.09175 -0.500325,0.09175 -0.282015,0 -0.543067,-0.07581 -0.768568,-0.226145 -8.29e-4,-5.52e-4 -0.0019,-0.0011 -0.0028,-0.0017 -0.221207,-0.154172 -0.392517,-0.356001 -0.506803,-0.598013 -0.04792,-0.101046 0.02581,-0.217548 0.137631,-0.217509 h 2.663539 c 0.08936,0 0.170473,-0.01738 0.248274,-0.05128 0.08344,-0.03978 0.152605,-0.09214 0.211031,-0.160299 0,0 5.53e-4,0 5.53e-4,0 0.126591,-0.146855 0.171827,-0.300436 0.146266,-0.500864 -0.03993,-0.253931 -0.123963,-0.489258 -0.253671,-0.709199 -5.52e-4,-8.29e-4 -0.0011,-0.0014 -0.0017,-0.0022 -0.125449,-0.222392 -0.280567,-0.411424 -0.467402,-0.569949 -8.29e-4,-8.29e-4 -0.0014,-0.0014 -0.0022,-0.0022 -0.186493,-0.163891 -0.400243,-0.290863 -0.645511,-0.382124 -0.0014,-5.53e-4 -0.0029,-0.0011 -0.0043,-0.0017 -0.237123,-0.09598 -0.487052,-0.143566 -0.754534,-0.143566 z m 5.099316,0 c -0.29673,0 -0.572814,0.0562 -0.833336,0.169473 -0.263406,0.114523 -0.489694,0.267869 -0.68275,0.460925 -0.193059,0.193056 -0.346402,0.419344 -0.460925,0.682751 -0.113111,0.26015 -0.169473,0.53933 -0.169473,0.84251 v 3.740287 c 0,0.110014 0.03114,0.182403 0.106866,0.253671 0.0011,0.0011 0.0022,0.0022 0.0032,0.0032 0.07911,0.07911 0.155079,0.110643 0.257448,0.110643 0.110011,0 0.182939,-0.03168 0.25421,-0.107404 0.0022,-0.0022 0.0043,-0.0044 0.0065,-0.0065 0.07572,-0.07127 0.106863,-0.143658 0.106863,-0.253671 v -1.815625 c -2.26e-4,-0.121857 0.135661,-0.194598 0.236941,-0.126834 0.16996,0.113307 0.353761,0.201244 0.552678,0.263926 0.198224,0.05642 0.404779,0.08474 0.621763,0.08474 0.303176,0 0.582362,-0.05691 0.842507,-0.170015 0.263406,-0.114526 0.489697,-0.26733 0.682753,-0.460383 0.193056,-0.193056 0.346402,-0.419345 0.460925,-0.682753 0.113268,-0.260516 0.169473,-0.536606 0.169473,-0.833333 0,-0.30318 -0.05636,-0.58236 -0.169473,-0.842511 -0.114524,-0.263406 -0.26787,-0.489695 -0.460926,-0.68275 -0.193056,-0.193056 -0.419347,-0.346402 -0.682753,-0.460925 -0.260145,-0.113111 -0.539331,-0.169473 -0.842507,-0.169473 z m 7.508104,0 c -0.296727,0 -0.572814,0.0562 -0.833335,0.169473 -0.263401,0.114523 -0.490234,0.267869 -0.68329,0.460925 -0.193055,0.193056 -0.34586,0.419344 -0.460386,0.682751 -0.113108,0.26015 -0.170012,0.53933 -0.170012,0.84251 0,0.296727 0.05674,0.572817 0.170012,0.833333 0.114526,0.263409 0.267331,0.489697 0.460386,0.682753 0.193056,0.193053 0.419886,0.345857 0.68329,0.460383 0.260521,0.113269 0.536605,0.170015 0.833335,0.170015 0.222873,0 0.43189,-0.03133 0.629318,-0.09337 2.76e-4,-1.83e-4 8.29e-4,-2.77e-4 0.0011,-5.53e-4 0.205582,-0.06282 0.39207,-0.150196 0.561852,-0.263384 0.08625,-0.05784 0.203819,-0.01426 0.231542,0.08581 0.02225,0.08005 0.06194,0.140444 0.130614,0.195383 0.06545,0.05236 0.133342,0.0761 0.224525,0.0761 0.110014,0 0.188027,-0.03259 0.266084,-0.110644 0.07911,-0.07912 0.110644,-0.154542 0.110644,-0.256909 v -1.778931 c 0,-0.30318 -0.0569,-0.58236 -0.170015,-0.842511 -0.11452,-0.263406 -0.267327,-0.489694 -0.460383,-0.68275 C 55.849132,84.675436 55.622305,84.52209 55.358899,84.407567 55.098753,84.294456 54.82011,84.238094 54.51693,84.238094 Z m 5.199702,0 c -0.296724,0 -0.572811,0.0562 -0.833333,0.169473 -0.263406,0.114523 -0.489697,0.267869 -0.68275,0.460925 -0.193058,0.193056 -0.346402,0.419344 -0.460925,0.682751 -0.113108,0.26015 -0.169473,0.53933 -0.169473,0.84251 v 1.778931 c 0,0.102367 0.03099,0.177794 0.110102,0.256909 0.07912,0.07911 0.155084,0.110644 0.257448,0.110644 0.110013,0 0.182942,-0.03169 0.254213,-0.107408 0.0011,-0.0011 0.0022,-0.0022 0.0032,-0.0032 0.07912,-0.07912 0.110104,-0.154542 0.110104,-0.256909 v -1.778935 c 0,-0.19562 0.0377,-0.382392 0.113343,-0.554297 0.0738,-0.167735 0.172883,-0.314832 0.296307,-0.438256 0.128777,-0.128774 0.279368,-0.231299 0.447973,-0.305485 5.53e-4,-2.76e-4 0.0011,-8.29e-4 0.0017,-0.0011 0.176186,-0.07454 0.361916,-0.112262 0.552136,-0.112262 0.195621,0 0.381851,0.0377 0.553759,0.11334 0.167969,0.07391 0.315247,0.17647 0.438256,0.305484 0.129017,0.123007 0.232117,0.270284 0.306023,0.438257 0.07564,0.171905 0.113344,0.358677 0.113344,0.554297 v 1.778931 c 0,0.102367 0.03099,0.177794 0.110101,0.25691 0.07912,0.07911 0.155084,0.110643 0.257449,0.110643 0.110013,0 0.188029,-0.03259 0.266084,-0.110643 0.07911,-0.07912 0.110646,-0.154543 0.110646,-0.25691 v -1.778926 c 0,-0.30318 -0.0569,-0.582359 -0.170015,-0.84251 -0.114523,-0.263407 -0.26733,-0.489695 -0.460383,-0.682751 -0.193056,-0.193056 -0.419347,-0.346402 -0.682754,-0.460925 -0.260148,-0.113111 -0.53933,-0.169473 -0.84251,-0.169473 z m 8.411064,0 c -0.10909,0 -0.187051,0.03237 -0.264465,0.109024 -0.07152,0.07676 -0.103627,0.156507 -0.103627,0.267703 v 3.557863 c 0,0.103677 0.03117,0.180239 0.103627,0.257987 0.07741,0.07665 0.155375,0.109566 0.264465,0.109566 0.10237,0 0.177796,-0.03153 0.256909,-0.110644 0.07911,-0.07912 0.110644,-0.154542 0.110644,-0.256909 v -3.557863 c 0,-0.110013 -0.03259,-0.188565 -0.110644,-0.266625 -0.07911,-0.07911 -0.154539,-0.110102 -0.256909,-0.110102 z m 3.630728,0 c -0.29673,0 -0.572815,0.0562 -0.833336,0.169473 -0.263406,0.114523 -0.489695,0.267869 -0.682751,0.460925 -0.193058,0.193056 -0.346401,0.419344 -0.460924,0.682751 -0.113111,0.26015 -0.169473,0.53933 -0.169473,0.84251 v 1.778931 c 0,0.102367 0.03099,0.177794 0.110104,0.256909 0.07911,0.07911 0.155079,0.110644 0.257448,0.110644 0.110011,0 0.182939,-0.03169 0.25421,-0.107408 0.0011,-0.0011 0.0022,-0.0022 0.0032,-0.0032 0.07911,-0.07912 0.110102,-0.154542 0.110102,-0.256909 v -1.778935 c 0,-0.19562 0.0377,-0.382392 0.113343,-0.554297 0.0738,-0.167735 0.172883,-0.314832 0.29631,-0.438256 0.128771,-0.128774 0.279362,-0.231299 0.44797,-0.305485 5.52e-4,-2.76e-4 0.0011,-8.29e-4 0.0017,-0.0011 0.176185,-0.07454 0.36191,-0.112262 0.552139,-0.112262 0.195614,0 0.38185,0.0377 0.553755,0.11334 0.16797,0.07391 0.31525,0.17647 0.438257,0.305484 0.129014,0.123007 0.232116,0.270284 0.306023,0.438257 0.07564,0.171905 0.112802,0.358677 0.112802,0.554297 v 1.778931 c 0,0.102367 0.03153,0.177794 0.110646,0.25691 0.07911,0.07911 0.155075,0.110643 0.257448,0.110643 0.11001,0 0.188024,-0.03259 0.266084,-0.110643 0.07911,-0.07912 0.110643,-0.154543 0.110643,-0.25691 v -1.778926 c 0,-0.30318 -0.05691,-0.582359 -0.170015,-0.84251 -0.114522,-0.263407 -0.267326,-0.489695 -0.460382,-0.682751 -0.193056,-0.193056 -0.419344,-0.346402 -0.682753,-0.460925 -0.260145,-0.113111 -0.539333,-0.169473 -0.842507,-0.169473 z m -49.717785,0.74428 c 0.195621,0 0.381854,0.0377 0.553758,0.113341 0.16797,0.07391 0.315251,0.176469 0.438255,0.305484 0.129014,0.123007 0.23158,0.270284 0.305484,0.438257 0.07564,0.171904 0.113343,0.358676 0.113343,0.554297 0,0.190223 -0.03772,0.375411 -0.112263,0.551597 -2.76e-4,8.29e-4 -8.29e-4,0.0014 -0.0011,0.0022 -0.07419,0.168605 -0.176172,0.319199 -0.304943,0.447973 -0.123426,0.123426 -0.27106,0.222505 -0.438795,0.296307 -0.171905,0.07564 -0.358141,0.112804 -0.553759,0.112804 -0.190226,0 -0.375953,-0.03772 -0.552138,-0.112263 -8.29e-4,-1.76e-4 -0.0014,-2.76e-4 -0.0022,-5.52e-4 -0.16705,-0.0735 -0.316217,-0.171858 -0.444732,-0.29361 -0.0019,-0.0019 -0.004,-0.0039 -0.0059,-0.0059 -0.121749,-0.128514 -0.21957,-0.277685 -0.293068,-0.444734 -2.77e-4,-8.29e-4 -8.29e-4,-0.0014 -0.0011,-0.0022 -0.07454,-0.176186 -0.112262,-0.361374 -0.112262,-0.551598 0,-0.19562 0.0377,-0.382392 0.113343,-0.554297 0.0738,-0.167735 0.17288,-0.314832 0.296307,-0.438256 0.128774,-0.128774 0.278823,-0.231299 0.447431,-0.305485 8.29e-4,-2.76e-4 0.0014,-8.29e-4 0.0022,-0.0011 0.176185,-0.07454 0.361913,-0.112262 0.552139,-0.112262 z m 5.071791,0 c 0.28244,0 0.54397,0.08059 0.769106,0.236939 0.227402,0.147891 0.403629,0.346893 0.518135,0.589378 0.04736,0.100897 -0.02617,0.216821 -0.13763,0.21697 H 25.97197 c -0.111461,-1.49e-4 -0.184992,-0.116073 -0.137627,-0.21697 0.114183,-0.241799 0.286276,-0.44115 0.50788,-0.589378 0.225329,-0.156748 0.487382,-0.236939 0.770187,-0.236939 z m 9.815964,0 c 0.195621,0 0.381851,0.0377 0.553758,0.113341 0.168302,0.07405 0.31564,0.177185 0.438796,0.306564 0.12871,0.122883 0.231699,0.269483 0.305484,0.437177 0.07564,0.171904 0.113341,0.358676 0.113341,0.554297 0,0.190223 -0.03826,0.375411 -0.112802,0.551597 -1.74e-4,8.29e-4 -2.76e-4,0.0014 -5.52e-4,0.0022 -0.07419,0.168605 -0.176714,0.319199 -0.305485,0.447973 -0.123426,0.123424 -0.271063,0.222505 -0.438795,0.296307 -0.171908,0.07564 -0.358141,0.112804 -0.553759,0.112804 -0.190223,0 -0.37595,-0.03772 -0.552138,-0.112263 -5.53e-4,-1.76e-4 -0.0011,-2.76e-4 -0.0017,-5.52e-4 -0.167047,-0.0735 -0.316218,-0.171858 -0.444732,-0.29361 -0.0019,-0.0019 -0.004,-0.0039 -0.0059,-0.0059 -0.121747,-0.128514 -0.220107,-0.277685 -0.29361,-0.444734 -1.85e-4,-8.29e-4 -2.76e-4,-0.0014 -5.53e-4,-0.0022 -0.07454,-0.176186 -0.112801,-0.361374 -0.112801,-0.551598 0,-0.19562 0.0377,-0.382392 0.11334,-0.554297 0.07381,-0.167735 0.172883,-0.314832 0.29631,-0.438256 0.128774,-0.128774 0.279367,-0.231299 0.44797,-0.305485 5.53e-4,-2.76e-4 0.0011,-8.29e-4 0.0017,-0.0011 0.176188,-0.07454 0.361913,-0.112262 0.552139,-0.112262 z m 4.981116,0 c 0.282443,0 0.543975,0.08059 0.769106,0.236939 0.227402,0.147891 0.40309,0.346893 0.517596,0.589378 0.04737,0.100897 -0.02617,0.216821 -0.13763,0.21697 h -2.289509 c -0.111461,-1.49e-4 -0.184995,-0.116073 -0.137631,-0.21697 0.114184,-0.241799 0.286279,-0.44115 0.507881,-0.589378 0.225332,-0.156748 0.487381,-0.236939 0.770187,-0.236939 z m 5.099316,0 c 0.195615,0 0.381851,0.0377 0.553756,0.113341 0.168304,0.07405 0.315642,0.177185 0.438795,0.306564 0.128713,0.122883 0.231699,0.269483 0.305485,0.437177 0.07564,0.171904 0.113343,0.358676 0.113343,0.554297 0,0.190223 -0.03826,0.375411 -0.112805,0.551597 -1.74e-4,8.29e-4 -2.76e-4,0.0014 -5.52e-4,0.0022 -0.07419,0.168605 -0.176711,0.319199 -0.305485,0.447973 -0.123424,0.123424 -0.271063,0.222505 -0.438795,0.296307 -0.171905,0.07564 -0.358141,0.112804 -0.553756,0.112804 -0.190226,0 -0.375953,-0.03772 -0.552138,-0.112263 -5.53e-4,-1.76e-4 -0.0011,-2.76e-4 -0.0017,-5.52e-4 -0.167046,-0.0735 -0.316217,-0.171861 -0.444734,-0.29361 -0.0019,-0.0019 -0.004,-0.0039 -0.0059,-0.0059 -0.121749,-0.128514 -0.220109,-0.277685 -0.29361,-0.444734 -1.85e-4,-8.29e-4 -2.76e-4,-0.0014 -5.53e-4,-0.0022 -0.07454,-0.176186 -0.112804,-0.361374 -0.112804,-0.551598 0,-0.19562 0.03771,-0.382392 0.113343,-0.554297 0.0738,-0.167735 0.172883,-0.314832 0.29631,-0.438256 0.128774,-0.128774 0.279365,-0.231299 0.44797,-0.305485 5.53e-4,-2.76e-4 0.0011,-8.29e-4 0.0017,-0.0011 0.176188,-0.07454 0.361913,-0.112262 0.552139,-0.112262 z m 7.508104,0 c 0.195621,0 0.381854,0.0377 0.553756,0.113341 0.167972,0.07391 0.31525,0.176469 0.438257,0.305484 0.129014,0.123007 0.231577,0.270284 0.305484,0.438257 0.07564,0.171904 0.113343,0.358676 0.113343,0.554297 0,0.190223 -0.03772,0.375411 -0.112263,0.551597 -2.76e-4,8.29e-4 -8.29e-4,0.0014 -0.0011,0.0022 -0.07419,0.168605 -0.176172,0.319199 -0.304946,0.447973 -0.123421,0.123426 -0.27106,0.222505 -0.438795,0.296307 -0.171902,0.07564 -0.358135,0.112804 -0.553756,0.112804 -0.190226,0 -0.37595,-0.03772 -0.552138,-0.112263 -8.29e-4,-1.76e-4 -0.0014,-2.76e-4 -0.0022,-5.52e-4 -0.16705,-0.0735 -0.31622,-0.171858 -0.444734,-0.29361 -0.0019,-0.0019 -0.004,-0.0039 -0.0059,-0.0059 -0.121749,-0.128514 -0.219567,-0.277685 -0.293071,-0.444734 -2.76e-4,-8.29e-4 -8.29e-4,-0.0014 -0.0011,-0.0022 -0.07454,-0.176186 -0.112263,-0.361374 -0.112263,-0.551598 0,-0.19562 0.0377,-0.382392 0.113341,-0.554297 0.0738,-0.167735 0.172883,-0.314832 0.296309,-0.438256 0.128772,-0.128774 0.278826,-0.231299 0.447432,-0.305485 8.29e-4,-2.76e-4 0.0014,-8.29e-4 0.0022,-0.0011 0.176189,-0.07454 0.361913,-0.112262 0.552139,-0.112262 z m 22.359159,0 c 0.195617,0 0.381851,0.0377 0.553755,0.113341 0.168307,0.07405 0.315646,0.177185 0.438796,0.306564 0.128713,0.122883 0.231699,0.269483 0.305484,0.437177 0.07564,0.171904 0.113343,0.358676 0.113343,0.554297 0,0.190223 -0.03826,0.375411 -0.112801,0.551597 -1.77e-4,8.29e-4 -2.76e-4,0.0014 -5.53e-4,0.0022 -0.07419,0.168606 -0.17671,0.3192 -0.305484,0.447973 -0.123421,0.123427 -0.271061,0.222506 -0.438796,0.296308 -0.171905,0.07564 -0.358138,0.112804 -0.553755,0.112804 -0.190226,0 -0.375954,-0.03772 -0.552139,-0.112263 -5.53e-4,-1.77e-4 -0.0011,-2.76e-4 -0.0017,-5.53e-4 -0.16705,-0.0735 -0.316217,-0.171857 -0.444731,-0.29361 -0.0019,-0.0019 -0.004,-0.0039 -0.0059,-0.0059 -0.12175,-0.128515 -0.22011,-0.277685 -0.293611,-0.444735 -1.85e-4,-8.29e-4 -2.76e-4,-0.0014 -5.52e-4,-0.0022 -0.07454,-0.176185 -0.112802,-0.361374 -0.112802,-0.551597 0,-0.19562 0.0377,-0.382392 0.11334,-0.554297 0.0738,-0.167735 0.172884,-0.314833 0.29631,-0.438257 0.128774,-0.128774 0.279362,-0.231298 0.44797,-0.305484 5.53e-4,-2.76e-4 0.0011,-8.29e-4 0.0017,-0.0011 0.176186,-0.07454 0.361913,-0.112263 0.552139,-0.112263 z"
     style="-inkscape-font-specification:'Boldena, Normal';clip-rule:nonzero;fill:#000080;fill-rule:nonzero;stroke-width:0.276339;stroke-linejoin:miter;stroke-miterlimit:2"
     id="path13" />
</svg>
