<svg width="24" height="24" viewBox="0 0 24 24" fill="none" xmlns="http://www.w3.org/2000/svg">
  <path d="M12 15.5A3.5 3.5 0 1 0 12 8a3.5 3.5 0 0 0 0 7.5Z" stroke="#17202A" stroke-width="1.8"/>
  <path d="M19.4 13.5c.1-.5.1-1 .1-1.5s0-1-.1-1.5l2-1.5-2-3.5-2.4 1a7.8 7.8 0 0 0-2.6-1.5L14 2.5h-4l-.4 2.5A7.8 7.8 0 0 0 7 6.5l-2.4-1-2 3.5 2 1.5A9 9 0 0 0 4.5 12c0 .5 0 1 .1 1.5l-2 1.5 2 3.5 2.4-1a7.8 7.8 0 0 0 2.6 1.5l.4 2.5h4l.4-2.5a7.8 7.8 0 0 0 2.6-1.5l2.4 1 2-3.5-2-1.5Z" stroke="#17202A" stroke-width="1.8" stroke-linejoin="round"/>
</svg>
